<?xml version="1.0" encoding="UTF-8" standalone="no"?>
<svg width="31px" height="32px" viewBox="0 0 31 32" version="1.1" xmlns="http://www.w3.org/2000/svg" xmlns:xlink="http://www.w3.org/1999/xlink" xmlns:sketch="http://www.bohemiancoding.com/sketch/ns">
    <!-- Generator: Sketch 3.3.3 (12081) - http://www.bohemiancoding.com/sketch -->
    <title>facebook-icon</title>
    <desc>Created with Sketch.</desc>
    <defs>
        <linearGradient x1="49.6189394%" y1="65.5576132%" x2="49.6189394%" y2="0.750617284%" id="linearGradient-1">
            <stop stop-color="#FCFCFC" offset="0%"></stop>
            <stop stop-color="#D4D4D4" offset="100%"></stop>
        </linearGradient>
    </defs>
    <g id="Page-1" stroke="none" stroke-width="1" fill="none" fill-rule="evenodd" sketch:type="MSPage">
        <g id="footer" sketch:type="MSLayerGroup" transform="translate(-94.000000, 40.612300) scale(1, -1) translate(94.000000, -40.612300) translate(-615.000000, -38.387700)">
            <path d="M1042,158 L0,158 L0,0 L1042,0 L1042,158 Z" id="Shape" fill="#FFFCD5" sketch:type="MSShapeGroup"></path>
            <g id="Group" transform="translate(615.000000, 88.000000)" sketch:type="MSShapeGroup">
                <g id="Shape">
                    <path d="M5.8,0.9 C3.1,0.9 0.9,3.1 0.9,5.8 L0.9,25.8 C0.9,28.5 3.1,30.7 5.8,30.7 L25.8,30.7 C28.5,30.7 30.7,28.5 30.7,25.8 L30.7,5.8 C30.7,3.1 28.5,0.9 25.8,0.9 L5.8,0.9 L5.8,0.9 Z" fill="#66584D"></path>
                    <path d="M21.5,20.5 L25.3,20.5 L25.3,25.1 L21.5,25.1 C18.4,25.1 15.9,22.4 15.9,19 L15.9,16.7 L12.1,16.7 L12.1,12 L15.9,12 L15.9,0.8 L20.6,0.8 L20.6,12.1 L25.3,12.1 L25.3,16.8 L20.6,16.8 L20.6,19.2 C20.5,19.9 21,20.5 21.5,20.5 L21.5,20.5 Z" fill="url(#linearGradient-1)"></path>
                </g>
            </g>
        </g>
    </g>
</svg>