<?xml version="1.0" encoding="UTF-8" standalone="no"?>
<svg width="65px" height="66px" viewBox="0 0 65 66" version="1.1" xmlns="http://www.w3.org/2000/svg" xmlns:xlink="http://www.w3.org/1999/xlink" xmlns:sketch="http://www.bohemiancoding.com/sketch/ns">
    <!-- Generator: Sketch 3.3.3 (12081) - http://www.bohemiancoding.com/sketch -->
    <title>jack-williams-logo</title>
    <desc>Created with Sketch.</desc>
    <defs></defs>
    <g id="Page-1" stroke="none" stroke-width="1" fill="none" fill-rule="evenodd" sketch:type="MSPage">
        <g id="footer" sketch:type="MSLayerGroup" transform="translate(-394.000000, 56.612300) scale(1, -1) translate(394.000000, -56.612300) translate(-915.000000, -22.387700)">
            <path d="M1042,158 L0,158 L0,0 L1042,0 L1042,158 Z" id="Shape" fill="#FFFCD5" sketch:type="MSShapeGroup"></path>
            <g id="Group" transform="translate(788.000000, 70.000000)" fill="#66584D" sketch:type="MSShapeGroup">
                <g transform="translate(127.000000, 0.000000)">
                    <g transform="translate(23.000000, 21.000000)" id="Shape" opacity="0.5">
                        <path d="M5.2,5.4 C5,4.8 4.9,4.2 4.7,3.9 C4.4,2.9 2.8,0.8 0.4,0.8 L0,0.8 C2.9,-0.4 4.7,2.3 5,3.1 C5.1,3.5 5.4,4.3 5.6,5 C5.5,5.2 5.3,5.3 5.2,5.4 L5.2,5.4 Z"></path>
                        <path d="M8.5,13.6 L8,13.8 L7.4,12.1 C7.5,11.9 7.6,11.7 7.7,11.4 L8.5,13.6 L8.5,13.6 Z"></path>
                        <path d="M8,15.3 C8.9,18.1 10.7,23.5 11.1,24.6 L11.3,24.3 C11.5,23.4 11.9,20.7 12.3,18.5 L12.5,18.6 L11.6,23.9 L11.5,24.4 L11.1,25 L11,24.8 L7.9,15.3 L8,15.3 L8,15.3 Z"></path>
                        <path d="M24.4,13.7 C24.4,13.5 24.4,13.3 24.3,13.1 C24.2,12.8 24,12.6 23.8,12.3 C23.2,11.7 22.3,11.4 21.6,11.4 L21.6,11.4 C21.8,11.3 22,11.2 22.2,11.2 C22.7,11 24.2,11.2 24.6,12.3 C24.8,12.8 24.6,13.3 24.4,13.7 L24.4,13.7 Z"></path>
                        <path d="M21.5,4.9 C21.1,4.5 20.6,4.1 19.9,3.9 C19,3.5 18.2,3.4 17.5,3.5 C18.3,3.1 19.3,3.1 20.6,3.6 C23.4,4.7 23,7.6 22.7,8.6 C22.7,7.4 22.5,6 21.5,4.9 L21.5,4.9 Z"></path>
                        <path d="M9.7,6.9 C9.7,6.6 9.7,6.3 9.6,6 C9.4,5.3 8.9,4.8 8.4,4.6 C8.1,4.5 7.8,4.4 7.5,4.4 C8,4.1 8.6,4 9.1,4.2 C10.1,4.6 10.2,6 9.9,6.7 C9.8,6.7 9.8,6.8 9.7,6.9 L9.7,6.9 Z"></path>
                    </g>
                    <path d="M32.8,0.5 C15.2,0.5 0.8,14.8 0.8,32.5 C0.8,50.1 15.1,64.5 32.8,64.5 C50.4,64.5 64.8,50.2 64.8,32.5 C64.7,14.8 50.4,0.5 32.8,0.5 L32.8,0.5 Z M32.8,62.5 C16.2,62.5 2.7,49 2.7,32.4 C2.7,15.8 16.2,2.3 32.8,2.3 C49.4,2.3 62.9,15.8 62.9,32.4 C62.9,49 49.3,62.5 32.8,62.5 L32.8,62.5 Z" id="Shape"></path>
                    <path d="M32.8,12.4 C21.7,12.4 12.6,21.5 12.6,32.6 C12.6,43.7 21.7,52.8 32.8,52.8 C43.9,52.8 53,43.7 53,32.6 C53,21.4 43.9,12.4 32.8,12.4 L32.8,12.4 Z M32.8,50 C23.2,50 15.4,42.2 15.4,32.6 C15.4,23 23.2,15.2 32.8,15.2 C42.4,15.2 50.2,23 50.2,32.6 C50.2,42.2 42.3,50 32.8,50 L32.8,50 Z" id="Shape"></path>
                    <g transform="translate(5.000000, 5.000000)" id="Shape">
                        <path d="M1.2,36.8 L4.1,35.9 C5.2,35.5 5.7,35 5.3,33.8 L5.2,33.5 L3.7,33.6 C3.8,33.8 3.9,33.9 3.9,34.1 C4,34.3 3.8,34.4 3.5,34.5 L0.8,35.4 L1.2,36.8 L1.2,36.8 Z"></path>
                        <path d="M2.7,40.1 L3.6,41.7 L8.5,40.8 L7.8,39.3 L7,39.5 L6.4,38.4 L7,37.8 L6.1,36.5 L2.7,40.1 L2.7,40.1 Z M4.3,40.2 L4.3,40.2 L5.4,39.1 L5.8,39.8 L4.3,40.2 L4.3,40.2 Z"></path>
                        <path d="M11.3,43.9 C11.2,43.7 11,43.4 10.8,43.2 C9.9,42.2 8.5,42.1 7.4,43 C6.3,44 6.2,45.4 7.2,46.5 C7.4,46.7 7.5,46.8 7.7,46.9 L9,46.1 C8.7,46 8.6,45.9 8.4,45.6 C7.9,45.1 7.9,44.5 8.4,44 C8.9,43.6 9.6,43.7 10,44.1 C10.2,44.4 10.3,44.6 10.4,44.9 L11.3,43.9 L11.3,43.9 Z"></path>
                        <path d="M12.7,45.1 L9.9,49 L11.1,49.9 L12.3,48.2 L11.7,50.4 L13.1,51.2 L13.6,48.9 L15.9,47.5 L14.7,46.4 L12.5,47.9 L13.9,46 L12.7,45.1 Z"></path>
                        <path d="M22.9,50 L21.7,52.3 L21.7,49.8 L20.5,49.5 L18.4,53.8 L19.8,54.2 L20.8,52.1 L20.8,54.4 L21.7,54.6 L22.7,52.5 L22.7,54.9 L24.1,55.1 L24.1,50.3 L22.9,50 Z"></path>
                        <path d="M28,55.3 L28.1,50.5 L26.6,50.4 L26.5,55.2 L28,55.3 Z"></path>
                        <path d="M29.9,50.5 L30.7,55.1 L32.1,55 L31.6,51.6 L33.2,51.3 L32.7,50 L29.9,50.5 Z"></path>
                        <path d="M34.4,49.6 L36,54 L37.4,53.6 L36.2,50.4 L37.8,49.8 L37,48.6 L34.4,49.6 Z"></path>
                        <path d="M42.3,51.2 L39.9,47.1 L38.6,47.7 L41,51.9 L42.3,51.2 Z"></path>
                        <path d="M45.4,48.9 L46.8,47.7 L44.9,43.1 L43.6,44.1 L44,44.9 L43,45.7 L42.3,45.2 L41.2,46.3 L45.4,48.9 L45.4,48.9 Z M45.2,47.3 L45.2,47.3 L43.9,46.4 L44.5,45.9 L45.2,47.3 L45.2,47.3 Z"></path>
                        <path d="M51.2,42.5 L52,41.4 L48.4,38.2 L47.5,39.4 L49.2,40.8 L46.8,40.2 L48.2,42.3 L46.2,41.2 L45.5,42.5 L49.7,44.7 L50.5,43.5 L49.4,42 L51.2,42.5 Z"></path>
                        <path d="M53.2,35.3 C53.2,35.6 53.1,36 53,36.3 C52.9,36.5 52.8,36.8 52.6,36.8 C52.3,36.7 52.9,34.9 51.6,34.4 C50.6,34 49.8,34.6 49.4,35.8 C49.2,36.2 49.2,36.5 49.1,36.9 L50.4,37.4 C50.5,37 50.6,36.6 50.7,36.3 C50.8,35.9 51,35.8 51.1,35.9 C51.5,36.1 50.7,37.7 52.1,38.2 C53.1,38.6 53.8,38 54.2,37 C54.3,36.6 54.5,36.1 54.5,35.8 L53.2,35.3 L53.2,35.3 Z"></path>
                        <path d="M55.2,33 C55,32.8 54.8,32.6 54.6,32.6 C54.1,32.5 53.7,32.6 53.2,32.7 L53,33.6 C53.3,33.6 53.7,33.5 54.1,33.6 C54.4,33.7 54.5,33.8 54.7,34.1 L55.2,33 L55.2,33 Z"></path>
                        <path d="M1.5,22.8 L4.2,23.3 L4.5,21.8 L3.8,21.5 L3.6,22.3 L3.3,22.2 L3.4,21.7 L2.7,21.6 L2.6,22.1 L2.3,22 L2.5,21.1 L1.7,21.1 L1.5,22.8 L1.5,22.8 Z"></path>
                        <path d="M4.6,21.6 L4.8,20.8 L3.7,19.6 L5,20 L5.3,19.2 L2.6,18.4 L2.4,19.2 L3.5,20.4 L2.2,20 L1.9,20.8 L4.6,21.6 L4.6,21.6 Z"></path>
                        <path d="M5.4,19 L5.8,18.2 C6.3,17.1 5.6,16.5 5.1,16.3 C4.3,16 3.6,16.2 3.2,17.1 L2.8,18 L5.4,19 L5.4,19 Z M3.9,17.4 L3.9,17.4 C4.1,17 4.4,16.9 4.7,17 C5,17.1 5.2,17.4 5,17.8 L3.9,17.4 L3.9,17.4 Z"></path>
                        <path d="M6.5,13.5 C5.9,13.1 5,13.2 4.5,14.1 C4,15 4.4,15.8 5,16.1 C5.6,16.5 6.5,16.4 7,15.5 C7.6,14.7 7.1,13.9 6.5,13.5 L6.5,13.5 Z M5.5,15.4 C5.2,15.2 5.1,14.9 5.2,14.5 C5.4,14.2 5.8,14.1 6.1,14.3 C6.4,14.5 6.5,14.8 6.4,15.2 C6.2,15.5 5.8,15.5 5.5,15.4 L5.5,15.4 Z"></path>
                        <path d="M6.6,11.1 L7.6,12.3 L6.2,11.7 L5.7,12.3 L7.6,14.5 L8.2,13.8 L7.3,12.7 L8.6,13.3 L8.9,12.9 L8,11.8 L9.3,12.4 L9.8,11.7 L7.2,10.5 L6.6,11.1 L6.6,11.1 Z"></path>
                        <path d="M10.8,10.5 L11.4,9.9 L9.6,7.7 L9,8.3 L9.9,9.3 L8.5,8.7 L9.1,10 L8.1,9.2 L7.5,9.9 L9.8,11.6 L10.4,11 L9.9,10 L10.8,10.5 L10.8,10.5 Z"></path>
                        <path d="M9.9,7.5 L11.7,9.6 L12.9,8.6 L12.5,8 L11.9,8.5 L11.7,8.3 L12.1,7.9 L11.6,7.4 L11.2,7.8 L11,7.5 L11.7,6.9 L11.1,6.4 L9.9,7.5 L9.9,7.5 Z"></path>
                        <path d="M13.1,8.5 L13.8,8 L13.7,6.4 L14.5,7.5 L15.2,7.1 L13.6,4.7 L12.9,5.2 L13,6.8 L12.2,5.7 L11.5,6.1 L13.1,8.5 L13.1,8.5 Z"></path>
                        <path d="M15.3,6.9 L16.9,6 L16.5,5.3 L16,5.6 L15,3.9 L14.2,4.3 L15.2,6.1 L14.7,6.4 L15.3,6.9 L15.3,6.9 Z"></path>
                        <path d="M16.9,2.9 L18,5.6 L19.3,5.1 L19.2,4.3 L18.5,4.6 L18.4,4.3 L18.9,4.1 L18.6,3.4 L18.1,3.6 L17.8,2.8 L16.9,2.9 L16.9,2.9 Z"></path>
                        <path d="M21.8,2.8 C21.6,2.1 20.9,1.5 19.9,1.8 C19,2.1 18.7,2.9 18.9,3.6 C19.1,4.3 19.8,4.9 20.8,4.6 C21.7,4.3 22,3.5 21.8,2.8 L21.8,2.8 Z M19.8,3.4 C19.7,3.1 19.8,2.7 20.2,2.6 C20.6,2.5 20.9,2.7 21,3 C21.1,3.3 21,3.7 20.6,3.8 C20.2,3.9 19.9,3.7 19.8,3.4 L19.8,3.4 Z"></path>
                        <path d="M22.2,4.1 L23.2,3.9 C23.9,3.8 24.1,3.3 24.1,2.8 C24,2.5 23.9,2.3 23.6,2.2 L23.9,0.9 L23,1.1 L22.8,2.3 L22.6,1.2 L21.8,1.3 L22.2,4.1 L22.2,4.1 Z M22.8,2.5 L22.9,2.5 C23.1,2.5 23.2,2.6 23.2,2.8 C23.2,3 23.2,3.1 23,3.2 L22.9,3.2 L22.8,2.5 L22.8,2.5 Z"></path>
                        <path d="M27.3,0.8 L27,2.3 L26.6,0.8 L25.8,0.8 L25.2,3.6 L26.1,3.6 L26.4,2.2 L26.7,3.5 L27.2,3.5 L27.5,2.1 L27.8,3.5 L28.7,3.4 L28,0.7 L27.3,0.8 L27.3,0.8 Z"></path>
                        <path d="M28.9,0.8 L28.7,3.6 L30.2,3.7 L30.4,3 L29.6,2.9 L29.6,2.6 L30.1,2.6 L30.2,1.9 L29.7,1.9 L29.7,1.6 L30.6,1.7 L30.5,0.9 L28.9,0.8 L28.9,0.8 Z"></path>
                        <path d="M30.5,3.7 L31.4,3.9 C32.5,4.1 33,3.3 33.1,2.8 C33.2,2 32.8,1.3 31.9,1.1 L31,1 L30.5,3.7 L30.5,3.7 Z M31.7,1.9 L31.8,1.9 C32.1,2 32.3,2.2 32.2,2.5 C32.1,2.9 31.9,3.1 31.4,3 L31.7,1.9 L31.7,1.9 Z"></path>
                        <path d="M32.9,4.2 L33.7,4.4 L34.9,3.3 L34.5,4.6 L35.3,4.9 L36.1,2.2 L35.3,2 L34.1,3 L34.5,1.7 L33.7,1.4 L32.9,4.2 L32.9,4.2 Z"></path>
                        <path d="M36.6,2.4 L35.6,5 L37,5.6 L37.4,5 L36.6,4.7 L36.7,4.4 L37.2,4.6 L37.5,4 L37,3.7 L37.1,3.4 L37.9,3.7 L38,3 L36.6,2.4 L36.6,2.4 Z"></path>
                        <path d="M39.2,5.7 C39,5.7 38.8,5.6 38.6,5.5 C38.5,5.4 38.3,5.3 38.4,5.2 C38.5,5 39.5,5.5 39.9,4.7 C40.2,4.2 39.9,3.6 39.2,3.3 C39,3.2 38.8,3.1 38.5,3.1 L38.1,3.8 C38.3,3.9 38.6,3.9 38.8,4 C39,4.1 39.1,4.2 39,4.3 C38.9,4.5 38,4 37.6,4.8 C37.3,5.3 37.6,5.8 38.2,6.1 C38.4,6.2 38.7,6.3 38.9,6.4 L39.2,5.7 L39.2,5.7 Z"></path>
                        <path d="M39.1,6.6 L39.9,7.1 C40.9,7.7 41.6,7.2 41.9,6.8 C42.3,6.1 42.2,5.3 41.5,4.8 L40.7,4.3 L39.1,6.6 L39.1,6.6 Z M40.9,5.4 L40.9,5.4 C41.2,5.6 41.3,5.9 41.1,6.2 C40.9,6.5 40.6,6.6 40.2,6.4 L40.9,5.4 L40.9,5.4 Z"></path>
                        <path d="M41.7,8.3 L42.5,9 L45,7.4 L44.3,6.8 L43.8,7 L43.2,6.5 L43.4,6 L42.6,5.5 L41.7,8.3 L41.7,8.3 Z M42.6,8 L42.6,8 L43,7.2 L43.3,7.5 L42.6,8 L42.6,8 Z"></path>
                        <path d="M45.8,8.1 L45,7.5 L44.7,8.4 L42.8,9.2 L43.4,9.9 L44.3,9.5 L43.9,10.4 L44.6,11 L45.8,8.1 L45.8,8.1 Z"></path>
                        <path d="M44.8,11.3 C44.9,11.3 45.1,11.2 45.2,11.1 C45.4,10.9 45.5,10.6 45.6,10.4 L45.4,10 C45.3,10.2 45.2,10.4 45,10.6 C44.9,10.7 44.8,10.8 44.6,10.7 L44.8,11.3 L44.8,11.3 Z"></path>
                        <path d="M46.9,12.3 C46.7,12.2 46.6,12 46.4,11.9 C46.3,11.8 46.2,11.6 46.3,11.5 C46.5,11.4 47.2,12.2 47.8,11.7 C48.3,11.3 48.2,10.7 47.7,10.1 C47.5,9.9 47.4,9.8 47.2,9.6 L46.6,10.1 C46.8,10.2 47,10.4 47.1,10.6 C47.2,10.8 47.3,10.9 47.2,11 C47,11.2 46.4,10.3 45.7,10.8 C45.2,11.2 45.3,11.7 45.7,12.2 C45.9,12.4 46.1,12.6 46.2,12.7 L46.9,12.3 L46.9,12.3 Z"></path>
                        <path d="M50.4,14.1 C50.4,13.9 50.3,13.8 50.2,13.6 C49.8,12.9 48.9,12.7 48.2,13.1 C47.5,13.6 47.2,14.4 47.7,15.2 C47.8,15.3 47.9,15.4 48,15.5 L48.8,15.2 C48.7,15.1 48.6,15 48.5,14.9 C48.3,14.6 48.3,14.2 48.7,14 C49,13.8 49.4,13.9 49.6,14.2 C49.7,14.4 49.7,14.5 49.8,14.7 L50.4,14.1 L50.4,14.1 Z"></path>
                        <path d="M50.7,14.5 L48.1,15.8 L48.4,16.6 L49.3,16.2 L49.5,16.7 L48.6,17.1 L48.9,17.9 L51.5,16.6 L51.2,15.8 L50.2,16.3 L50,15.8 L50.9,15.3 L50.7,14.5 L50.7,14.5 Z"></path>
                        <path d="M49.5,18.9 L52.2,17.9 L51.9,17.1 L49.2,18.2 L49.5,18.9 L49.5,18.9 Z"></path>
                        <path d="M52.3,18.3 L49.6,19.1 L49.8,20 L51.7,19.4 L52,20.3 L52.7,19.9 L52.3,18.3 L52.3,18.3 Z"></path>
                        <path d="M50.2,20.9 L50.4,21.8 C50.6,22.9 51.6,23.1 52.1,23 C52.9,22.8 53.4,22.2 53.2,21.3 L53,20.3 L50.2,20.9 L50.2,20.9 Z M52.4,21.4 L52.4,21.5 C52.5,21.8 52.3,22.1 52,22.1 C51.6,22.2 51.3,22 51.2,21.6 L52.4,21.4 L52.4,21.4 Z"></path>
                        <path d="M24.8,31.8 L28.1,41.7 L29.4,34.2 L29.7,34.4 L28.3,42.4 L28,42.4 L24.5,31.9 L24.8,31.8 Z"></path>
                    </g>
                    <g id="SVGID_1_-link" transform="translate(32.000000, 45.000000)">
                        <path d="M0.1,2 C0.1,1.4 0.6,0.9 1.2,0.9 C1.8,0.9 2.3,1.4 2.3,2 C2.3,2.6 1.8,3.1 1.2,3.1 C0.6,3.1 0.1,2.6 0.1,2" id="SVGID_1_"></path>
                    </g>
                    <g id="SVGID_3_-link" transform="translate(6.000000, 31.000000)">
                        <path d="M0.4,1.5 C0.4,0.9 0.9,0.4 1.5,0.4 C2.1,0.4 2.6,0.9 2.6,1.5 C2.6,2.1 2.1,2.6 1.5,2.6 C0.9,2.6 0.4,2.2 0.4,1.5" id="SVGID_3_"></path>
                    </g>
                    <g id="SVGID_5_-link" transform="translate(56.000000, 31.000000)">
                        <path d="M0.7,1.5 C0.7,0.9 1.2,0.4 1.8,0.4 C2.4,0.4 2.9,0.9 2.9,1.5 C2.9,2.1 2.4,2.6 1.8,2.6 C1.2,2.6 0.7,2.1 0.7,1.5" id="SVGID_5_"></path>
                    </g>
                    <path d="M32.5,29.1 C32.3,29.5 31.2,31.8 30.5,33.1 L31.5,36.1 L24.2,39.2 L23.9,38.5 C23.7,38.1 19.8,29.3 19.3,28.2 C18.5,26.3 18.6,23.6 21.8,22.2 C22.4,21.9 23,21.8 23.6,21.8 C26,21.8 27.5,23.9 27.9,24.9 C28,25.2 28.2,25.8 28.4,26.4 C28.9,25.9 29.8,25.4 30.6,25.4 C30.9,25.4 31.2,25.5 31.5,25.6 C32.1,25.9 32.5,26.4 32.7,27 C32.8,27.7 32.8,28.6 32.5,29.1 L32.5,29.1 Z M24.5,38.2 L24.5,38.2 L30.5,35.6 L30.3,34.9 L24.2,37.5 L24.5,38.2 L24.5,38.2 Z M23.9,36.8 L23.9,36.8 L30.1,34.2 L29.8,33.5 L23.5,36.2 L23.9,36.8 L23.9,36.8 Z M27.2,31 C26.9,30.7 26.5,30.7 26.2,31 C25.9,31.3 25.9,31.7 26.2,32 C26.5,32.3 26.9,32.3 27.2,32 C27.5,31.8 27.5,31.3 27.2,31 L27.2,31 Z M25.5,31.8 C25.2,31.5 24.8,31.5 24.5,31.8 C24.2,32.1 24.2,32.5 24.5,32.8 C24.8,33.1 25.2,33.1 25.5,32.8 C25.8,32.5 25.8,32 25.5,31.8 L25.5,31.8 Z M22.6,33.4 C22.9,33.7 23.3,33.7 23.6,33.4 C23.9,33.1 23.9,32.7 23.6,32.4 C23.3,32.1 22.9,32.1 22.6,32.4 C22.4,32.6 22.4,33.1 22.6,33.4 L22.6,33.4 Z M21.9,22.9 C19,24.1 19.3,26.6 19.8,27.8 L26.9,24.8 C26.3,23.8 24.5,21.8 21.9,22.9 L21.9,22.9 Z M27.7,27.3 L25.9,26.3 L25.2,28.4 L23.3,27.5 L22.5,29.6 L20.3,28.7 L20.8,29.9 L22.9,30.8 L23.7,28.7 L25.6,29.6 L26.3,27.5 L28,28.5 L27.7,27.3 L27.7,27.3 Z M27.8,30.4 C27.5,30.7 27.5,31.1 27.8,31.4 C28.1,31.7 28.5,31.7 28.8,31.4 C29.1,31.1 29.1,30.7 28.8,30.4 C28.5,30.1 28.1,30.1 27.8,30.4 L27.8,30.4 Z M31.2,26.4 C30.4,25.9 29.4,26.3 28.8,26.9 L31.9,28.6 C32.1,27.9 32,26.8 31.2,26.4 L31.2,26.4 Z" id="Shape"></path>
                    <path d="M47.1,36 C46.8,36.7 46.1,37.2 45.5,37.4 C45,37.5 42.7,38.3 41.3,38.8 L39.8,41.6 L32.4,38.5 L32.7,37.8 C32.9,37.4 36.4,28.5 36.9,27.3 C37.7,25.4 39.7,23.6 42.9,24.9 C43.5,25.2 44,25.5 44.5,25.9 C46.2,27.6 45.7,30.2 45.3,31.1 C45.1,31.4 44.9,31.9 44.6,32.5 C45.3,32.5 46.3,32.8 46.8,33.4 C47,33.6 47.2,33.9 47.3,34.2 C47.5,34.7 47.4,35.4 47.1,36 L47.1,36 Z M41.4,36.3 C41.8,36.3 42.1,36 42.1,35.6 C42.1,35.2 41.8,34.9 41.4,34.9 C41,34.9 40.7,35.2 40.7,35.6 C40.6,36 41,36.3 41.4,36.3 L41.4,36.3 Z M33.4,38 L33.4,38 L39.4,40.5 L39.8,39.8 L33.6,37.2 L33.4,38 L33.4,38 Z M34,36.6 L34,36.6 L40.2,39.2 L40.5,38.5 L34.2,35.9 L34,36.6 L34,36.6 Z M40.5,35 C40.5,34.6 40.2,34.3 39.8,34.3 C39.4,34.3 39.1,34.6 39.1,35 C39.1,35.4 39.4,35.7 39.8,35.7 C40.2,35.7 40.5,35.3 40.5,35 L40.5,35 Z M38.8,34.3 C38.8,33.9 38.5,33.6 38.1,33.6 C37.7,33.6 37.4,33.9 37.4,34.3 C37.4,34.7 37.7,35 38.1,35 C38.4,35 38.8,34.6 38.8,34.3 L38.8,34.3 Z M35.6,33.3 C35.6,33.7 35.9,34 36.3,34 C36.7,34 37,33.7 37,33.3 C37,32.9 36.7,32.6 36.3,32.6 C36,32.6 35.6,32.9 35.6,33.3 L35.6,33.3 Z M36.9,29.6 L37.8,31.7 L39.9,30.8 L40.6,32.8 L42.6,31.9 L43.1,33.8 L43.7,32.8 L43.2,30.8 L41.2,31.7 L40.5,29.7 L38.4,30.6 L37.5,28.4 L36.9,29.6 L36.9,29.6 Z M44.8,30.4 C45.1,29.3 45.3,26.6 42.7,25.6 C39.8,24.4 38.3,26.3 37.7,27.5 L44.8,30.4 L44.8,30.4 Z M46.6,34.6 C46.4,33.7 45.4,33.3 44.6,33.2 L45.6,36.6 C46.2,36.3 46.8,35.5 46.6,34.6 L46.6,34.6 Z" id="Shape"></path>
                    <path d="M33,46.9 L33.5,47.3 L37,43.7 C37.1,43.4 37,43.1 36.7,42.8 C36.4,42.5 36.2,42.5 35.8,42.6 L33,46.9 L33,46.9 Z" id="Shape"></path>
                </g>
            </g>
        </g>
    </g>
</svg>