<?xml version="1.0" encoding="UTF-8" standalone="no"?>
<svg width="107px" height="53px" viewBox="0 0 107 53" version="1.1" xmlns="http://www.w3.org/2000/svg" xmlns:xlink="http://www.w3.org/1999/xlink">
    <!-- Generator: Sketch 39.1 (31720) - http://www.bohemiancoding.com/sketch -->
    <title>jordans-furniture-logo</title>
    <desc>Created with Sketch.</desc>
    <defs></defs>
    <g id="Page-1" stroke="none" stroke-width="1" fill="none" fill-rule="evenodd">
        <g id="jordans-furniture-logo" transform="translate(0.000000, -1.000000)" fill="#D5D5D5">
            <g id="Shape" transform="translate(53.500000, 27.112300) scale(1, -1) translate(-53.500000, -27.112300) translate(0.000000, 0.612300)">
                <polygon points="36.9 12.5 36.9 12.1 34.3 12.1 34.3 9.8 36.7 9.8 36.7 9.4 34.3 9.4 34.3 6.5 33.8 6.5 33.8 12.5"></polygon>
                <path d="M43.9,9.2 C43.9,8.5 43.7,7.9 43.3,7.5 C42.9,7.1 42.4,6.9 41.8,6.9 C41.2,6.9 40.7,7.1 40.3,7.5 C39.9,7.9 39.7,8.5 39.7,9.2 L39.7,12.6 L39.2,12.6 L39.2,9.1 C39.2,8.3 39.4,7.6 39.9,7.1 C40.4,6.6 41,6.4 41.7,6.4 C42.4,6.4 43,6.6 43.5,7.1 C44,7.6 44.2,8.3 44.2,9.2 L44.2,12.5 L43.7,12.5 L43.7,9.2 L43.9,9.2 L43.9,9.2 Z"></path>
                <path d="M47.4,12.5 L48.9,12.5 C49.5,12.5 50,12.4 50.4,12.1 C50.7,11.8 50.9,11.4 50.9,11 C50.9,10.3 50.5,9.8 49.8,9.5 C50,9.4 50.3,9.1 50.6,8.6 L52,6.5 L51.5,6.5 L50.5,8.1 C50.2,8.6 49.9,9 49.7,9.1 C49.5,9.2 49.2,9.3 48.8,9.3 L48,9.3 L48,6.5 L47.5,6.5 L47.5,12.5 L47.4,12.5 L47.4,12.5 Z M47.9,12.1 L47.9,9.7 L48.9,9.7 C49.4,9.7 49.8,9.8 50.1,10 C50.4,10.2 50.5,10.5 50.5,10.9 C50.5,11.3 50.4,11.6 50.1,11.8 C49.8,12 49.4,12.1 48.9,12.1 L47.9,12.1 L47.9,12.1 L47.9,12.1 Z"></path>
                <polygon points="59.1 12.5 59.1 7.2 54.6 12.5 54.2 12.5 54.2 6.5 54.7 6.5 54.7 11.7 59.2 6.5 59.6 6.5 59.6 12.5"></polygon>
                <polygon points="62.7 6.5 63.2 6.5 63.2 12.5 62.7 12.5"></polygon>
                <polygon points="65.7 12.5 65.7 12.1 67.9 12.1 67.9 6.5 68.4 6.5 68.4 12.1 70.7 12.1 70.7 12.5"></polygon>
                <path d="M77.6,9.2 C77.6,8.5 77.4,7.9 77,7.5 C76.6,7.1 76.1,6.9 75.5,6.9 C74.9,6.9 74.4,7.1 74,7.5 C73.6,7.9 73.4,8.5 73.4,9.2 L73.4,12.6 L73,12.6 L73,9.1 C73,8.3 73.2,7.6 73.7,7.1 C74.2,6.6 74.8,6.4 75.5,6.4 C76.2,6.4 76.8,6.6 77.3,7.1 C77.8,7.6 78,8.3 78,9.2 L78,12.5 L77.5,12.5 L77.5,9.2 L77.6,9.2 L77.6,9.2 Z"></path>
                <path d="M81.1,12.5 L82.6,12.5 C83.2,12.5 83.7,12.4 84.1,12.1 C84.4,11.8 84.6,11.4 84.6,11 C84.6,10.3 84.2,9.8 83.5,9.5 C83.7,9.4 84,9.1 84.3,8.6 L85.7,6.5 L85.2,6.5 L84.2,8.1 C83.8,8.6 83.6,9 83.4,9.1 C83.2,9.2 82.9,9.3 82.5,9.3 L81.7,9.3 L81.7,6.5 L81.2,6.5 L81.2,12.5 L81.1,12.5 L81.1,12.5 Z M81.5,12.1 L81.5,9.7 L82.5,9.7 C83,9.7 83.4,9.8 83.7,10 C84,10.2 84.1,10.5 84.1,10.9 C84.1,11.3 84,11.6 83.7,11.8 C83.4,12 83,12.1 82.5,12.1 L81.5,12.1 L81.5,12.1 L81.5,12.1 Z"></path>
                <polygon points="87.9 12.5 87.9 6.5 91.2 6.5 91.2 6.9 88.3 6.9 88.3 9.3 91.1 9.3 91.1 9.7 88.3 9.7 88.3 12.1 91.2 12.1 91.2 12.5"></polygon>
                <path d="M80.3,52.6 C80.1,52.1 79.4,51.9 78.9,51.6 C78.5,51.4 78.1,51.1 77.7,51 C73.8,49.6 70.2,48 66.7,45.7 C60.9,41.9 56.4,37.2 51.9,32 C51.2,31.2 50.6,30.6 50.2,29.7 C48.9,27 47.8,24 46.5,21.2 C46.2,20.5 45.5,18.5 45.4,18.2 C45.2,17.6 42.7,16.1 42,16 C42.1,16.8 42.4,17.5 42.7,18.3 C43.5,20.5 44.4,22.7 45.3,24.8 C46.2,26.9 47,29 47.5,31.7 C47.7,32.5 47.8,33.6 47,34 C46.1,34 45.6,33.8 45.3,33.2 C45.1,32.8 45.1,32.2 45,31.7 C44.7,30.3 44.4,28.8 44,27.5 C43.4,25.8 42.6,24.3 41.7,22.8 C41.3,22.1 38.2,16.2 34.9,15.6 C34.1,15.4 33.5,15.3 32.7,15.6 C30.8,16.5 31,20.1 31.5,22.4 C32,24.9 32.9,26.7 34,28.6 C35.5,31.2 37.8,33.5 40.3,35.4 C41.1,36 42.2,36.9 43.3,36.8 C44,36.7 44.5,36.3 44.7,35.9 C44.9,35.6 44.9,34.8 45.3,34.8 C45.7,34.7 46.7,35.7 47,35.9 C47.8,36.5 48.8,37.4 50.3,36.9 C50.9,36.7 51.2,36.3 51.4,35.7 C51.5,35.4 51.5,35.1 51.7,35.1 C52,35 53.1,36.2 53.3,36.4 C55.5,39 58,41.1 60.8,43.1 C61.9,43.9 63,44.8 64.1,45.4 C65.2,46.1 66.4,46.8 67.6,47.6 C70,49.1 72.6,50.2 75.2,51.4 C76.7,52 78.5,52.7 80.3,52.6 L80.3,52.6 L80.3,52.6 Z M37.4,29.7 C36.4,28.3 35.6,26.8 35,25.2 C34.3,23.6 33.1,20.9 34.6,19.4 C36.2,17.7 39.5,23.1 40,24.1 C41.3,26.4 42.2,29.1 41.9,31.8 C41.6,34.8 39.3,32.1 38.4,31.1 C38.1,30.6 37.7,30.1 37.4,29.7 L37.4,29.7 L37.4,29.7 Z"></path>
                <path d="M0.5,3.6 L2.1,2.8 C3.7,1.9 5.4,1.4 7.2,1.2 C8.8,1.1 10.6,1 12.1,1.6 C13.7,2.2 14.9,3.3 16.1,4.5 C19.9,8.6 22,14.2 24.2,20 C26.4,25.9 28.1,31.7 30.1,37.7 C30.6,39.1 31.1,40.5 31.7,42 C31.9,42.5 32.1,43.1 32.3,43.4 C32.6,43.7 35.3,44.6 35.9,44.6 C37,44.6 36.2,43.1 35.9,42.4 C35.1,40.5 34.4,38.6 33.8,36.7 C33,34 32,31.4 31.2,28.9 C29.1,22.6 26.8,16.2 23.6,10.3 C22.4,8.1 20.9,6 19.1,4.3 C15.7,1.1 10.7,-0.7 6.1,0.6 C4.7,1 3.3,1.6 2.1,2.3 C1.8,2.4 1.5,2.6 1.3,2.8 C0.8,3 0.5,3.2 0.5,3.6 L0.5,3.6 L0.5,3.6 Z"></path>
                <path d="M70.6,43.7 C70.7,43.1 70.2,42.6 70,42.2 C68.7,39.8 67.7,37.2 66.5,34.7 C66,33.7 65.6,32.7 65.1,31.7 C64.3,29.7 63.5,27.5 62.7,25.3 C62.1,23.8 61.4,22.3 61.2,20.2 C61.1,19.4 61.1,18.7 61.6,18.6 C62,18.5 62.6,18.9 63,19.1 C63.4,19.3 64,19.5 64.1,19.9 C64.3,20.3 64.3,21.1 64.4,21.6 C64.7,23.2 65.3,24.8 65.8,26.1 C66.5,28 67.6,29.6 68.6,31.2 C69.7,32.9 71.1,34.5 72.8,35.7 C74,36.6 77,38.6 78.4,37.1 C78.5,37 78.7,36.7 78.9,36.7 C79.4,36.6 79.6,37.2 80.3,36.9 C80.5,36.5 80.2,36.1 80.1,35.8 C79.6,34.8 79.3,33.6 78.9,32.5 C78.4,31.1 77.8,29.6 77.3,28.2 C76.5,26.1 75.5,24 75,21.5 C74.8,20.6 74.8,19.3 75.3,19.1 C75.8,18.9 76.5,19.4 77,19.7 C77.6,20.1 78.1,20.4 78.4,20.9 C78.7,21.4 78.9,22.1 79.2,22.7 C80.6,26.3 82,30 83.2,33.9 C83.4,34.6 83.5,35.6 83.9,35.9 C84.2,36.2 87.1,37.5 87.8,37.4 C88.1,36.5 87.2,35.8 87.4,34.9 C88.2,34.9 88.6,35.4 89.2,35.8 C89.6,36.1 90.4,36.7 91,36.8 C92.7,37.1 93.7,35.7 93.6,34 C93.5,32.7 92.9,31.2 92.4,30 C91.6,27.6 90.6,24.7 89.7,22.3 C89.5,21.7 89.2,21 89,20.4 C88.8,19.7 88.4,17.9 88.3,17.6 C88.2,17.3 87.9,17.1 87.7,17 C87.3,16.8 87.1,16.6 86.8,16.4 C86.3,16.1 85.3,15.2 84.8,15.5 C84.3,15.8 84.9,17.4 85.1,18 C85.8,20.5 86.7,22.7 87.4,25.1 C87.8,26.6 88.4,28.2 89,29.9 C89.2,30.6 89.5,31.4 89.6,32.4 C89.8,33.4 89.8,34.6 89,34.7 C88.4,34.8 87.7,34.3 87.3,33.9 C86.1,32.6 85.6,30.8 84.9,28.9 C84.5,27.8 83.9,26.7 83.5,25.6 C82.8,23.9 82.1,22.3 81.4,20.7 C81.2,20.2 80.6,18.5 80.5,18.4 C80.2,17.8 79.2,17.4 78.6,17.1 C78.3,16.9 77.9,16.7 77.7,16.5 C77.4,16.3 77.1,16 76.6,16.1 C76.2,17 77.3,17.8 77.1,18.8 C76.6,18.8 76.2,18.4 75.8,18.2 C75.4,18 75,17.7 74.6,17.4 C74,16.9 72.8,16.1 71.8,16.3 C71.2,16.4 71,17 70.9,17.7 C70.8,18.4 71,19.2 70.7,19.7 C70.1,19.6 69.7,19.2 69.3,18.9 C68.5,18.3 67.7,17.7 66.7,17.1 C65.9,16.6 64.8,16 64,16.8 C63.9,16.9 63.7,17.1 63.6,17.4 C63.4,17.9 63.4,18.7 63,18.8 C62.7,18.9 62.2,18.4 61.9,18.3 C61.5,18.1 61.2,17.8 60.9,17.7 C59.9,17.1 59.1,16.4 57.7,16.3 C57.3,16.5 56.9,17 56.9,17.6 C56.8,18.2 57.1,18.8 56.8,19.3 C56.2,19.2 55.9,18.7 55.5,18.4 C55.1,18.1 54.7,17.8 54.3,17.4 C53.6,16.8 52.3,15.6 51.1,16 C49.8,16.4 49.7,18.3 49.7,20 C49.7,21.4 50.1,23 50.6,24.3 C51.1,25.6 51.5,26.8 52.1,28 C52.9,29.6 54.2,31.1 55.3,32.6 C56.1,33.6 57.2,34.5 58.3,35.2 C59.3,35.8 60.9,36.8 62.1,36.5 C62.6,36.4 62.8,35.9 63.2,36.4 C63.5,36.8 63.6,37.3 63.8,37.8 C64.4,39 64.8,40 65.4,41.2 C65.7,41.8 65.9,42.6 66.3,42.9 C67,42.9 69.8,44 70.6,43.7 L70.6,43.7 L70.6,43.7 Z M72.8,33.5 C71.5,32 70.4,30 69.7,28.2 C69.1,26.9 68.5,25.4 68.1,24.2 C67.7,23 66.6,18.3 69.3,19.3 C69.8,19.5 70.3,19.9 70.7,20.3 C71.3,21.1 71.8,22.2 72.2,23.2 C72.8,24.5 73.3,26 73.8,27.4 C74.3,28.9 74.9,30.4 75.4,31.8 C75.7,32.6 76.1,33.7 75.5,34.4 C74.9,35.1 74.1,34.7 73.5,34.2 C73.1,33.9 72.9,33.7 72.8,33.5 L72.8,33.5 L72.8,33.5 Z M58,32.3 C57.7,31.9 57.4,31.4 57.1,31 C56.3,29.8 55.7,28.6 55.1,27.3 C54.6,26.3 54,24.8 53.7,23.4 C53.4,22.1 53.2,19.4 54.3,19 C56.1,18.4 57.4,20.7 57.9,22 C58.7,24.3 59.5,26.7 60.3,29 C60.6,29.9 61.2,30.9 61.1,31.9 C61,32.7 60.6,33.8 59.5,33.5 C58.9,33.2 58.4,32.8 58,32.3 L58,32.3 L58,32.3 Z"></path>
                <path d="M95.5,36.6 L95.5,36.6 L95.5,38.1 C95.5,38 95.3,39.6 96.3,40.1 C96.6,40.3 97,40.4 97.3,40.6 C97.7,40.8 97.8,40.9 98.4,40.7 C98.8,40.6 99,39.7 98.9,39.1 C98.8,38.3 98.4,38 97.8,37.6 C97.5,37.3 97.1,37.1 96.7,36.9 C96.4,36.6 95.9,36.4 95.5,36.6 L95.5,36.6 L95.5,36.6 Z"></path>
                <path d="M96.2,16.9 C97.1,18 98.2,18.9 99.2,20.1 C100.2,21.2 101.2,22.4 101.8,23.7 C102.3,24.7 102.9,25.9 102.7,27.1 C102.5,28.1 101.8,28.7 100.9,29.1 C100.4,29.3 99.9,29.5 99.3,29.6 C98.2,29.9 97.1,30.1 96.3,30.7 C96,30.9 95.6,31.4 95.6,31.8 C95.5,32.8 97.1,34 97.7,34.5 C98.2,34.9 98.6,35.2 99.1,35.6 C100.2,36.5 101.4,37.3 103.1,37.7 C103.6,37.8 104.9,37.6 105,37 C105,36.5 102,34.7 101.5,34.7 C101.1,34.7 100.9,35.1 100.4,35.1 C99.9,35.1 99.4,34.5 99.5,34.1 C99.5,33.1 101.6,32.7 102.4,32.5 C103.7,32.1 104.8,31.7 105.5,31.1 C106.7,30 106.6,28.5 106,27.1 C105.1,24.9 103.8,23.2 102.2,21.5 C101.3,20.6 100.3,19.7 99.3,19 C98.4,18.3 97.4,17.5 96.2,16.9 L96.2,16.9 L96.2,16.9 Z"></path>
            </g>
        </g>
    </g>
</svg>