<?xml version="1.0" encoding="UTF-8" standalone="no"?>
<svg width="201px" height="43px" viewBox="0 0 201 43" version="1.1" xmlns="http://www.w3.org/2000/svg" xmlns:xlink="http://www.w3.org/1999/xlink">
    <!-- Generator: Sketch 39.1 (31720) - http://www.bohemiancoding.com/sketch -->
    <title>mare-logo-horizontal</title>
    <desc>Created with Sketch.</desc>
    <defs></defs>
    <g id="Page-1" stroke="none" stroke-width="1" fill="none" fill-rule="evenodd">
        <g id="mare-logo-horizontal" fill="#FFFFFF">
            <path d="M14.1348729,32.971813 C12.5866312,33.0004842 12.7299869,42.4332898 12.7299869,42.4332898 C12.7299869,42.4619609 12.7013158,42.4906321 12.7013158,42.5193032 L15.5110877,42.5193032 C15.5110877,42.4906321 15.4824165,42.4619609 15.4824165,42.4332898 C15.5397588,42.4332898 15.6831145,33.0004842 14.1348729,32.971813" id="Shape"></path>
            <path d="M19.0376381,26.3774504 C24.4278128,25.9760544 27.6389807,21.7327255 27.6389807,16.0558394 C27.6389807,12.9306849 25.0585779,10.4076245 21.8760812,10.4076245 L16.2852085,10.4076245 C13.9055038,10.4076245 11.8985238,10.9523762 11.0097184,12.9306849 C11.5831413,10.8376916 13.3034098,9.2034365 15.4824165,8.65868481 C14.765638,8.34330225 13.962846,8.1712754 13.1600541,8.1712754 L6.02093977,8.1712754 C2.69508733,8.1712754 0,10.8950339 0,14.2495575 C0,20.5572086 3.52655044,26.1767524 9.4041345,26.3487793 L7.97057741,26.3487793 C6.33632233,26.3487793 5.24681894,26.492135 3.61256386,26.2627659 L4.58738268,41.2004307 C4.61605382,41.9172093 5.16080552,42.4619609 5.79157064,42.4619609 L11.1817453,42.4619609 C11.1817453,42.4332898 11.1530741,42.4046187 11.1530741,42.3759475 C11.1530741,42.3759475 9.7481882,36.1256386 9.7481882,31.1655311 C9.7481882,29.4165914 9.92021505,27.5242961 10.0348996,26.4347927 C10.0348996,26.2627659 9.97755733,26.1480813 9.86287277,26.0333967 L9.86287277,26.0333967 C6.7950606,24.3417994 4.64472496,20.7579066 4.64472496,16.6292622 L4.64472496,16.6292622 C4.64472496,16.170524 4.98877867,15.7977991 5.44751693,15.7977991 C5.87758406,15.7977991 6.2503089,16.170524 6.2503089,16.6292622 C6.30765119,20.5572086 9.80553048,23.8257188 14.1348729,23.8257188 C18.4642153,23.8257188 21.9907657,20.5572086 22.048108,16.6292622 C22.048108,16.170524 22.3921617,15.7977991 22.8509,15.7977991 C23.2809671,15.7977991 23.653692,16.170524 23.653692,16.6292622 C23.653692,20.7865778 21.5320275,24.3704705 18.4355442,26.1194101 L18.4355442,26.1194101 C18.3208596,26.2054236 18.2635173,26.3487793 18.2635173,26.5208061 C18.3782019,27.6103095 18.5502287,29.5026049 18.5502287,31.2515445 C18.5502287,36.211652 17.1453428,42.4619609 17.1453428,42.4619609 C17.1453428,42.4906321 17.1166716,42.5193032 17.1166716,42.5479744 L22.5068463,42.5479744 C23.1376114,42.5479744 23.6823631,41.9745515 23.7110342,41.2864441 L24.7431953,25.8040276 C22.8795711,26.4634638 21.5033563,26.3774504 19.410363,26.3774504 L19.0376381,26.3774504 L19.0376381,26.3774504 Z M14.1348729,22.5068463 C12.7586581,22.5068463 11.6404836,21.3886718 11.6404836,20.0124569 C11.6404836,18.6362421 12.7586581,17.5180676 14.1348729,17.5180676 C15.5110877,17.5180676 16.6292622,18.6362421 16.6292622,20.0124569 C16.6292622,21.3886718 15.5397588,22.5068463 14.1348729,22.5068463 L14.1348729,22.5068463 Z" id="Shape"></path>
            <path d="M8.05659083,6.93841631 C9.97755733,6.93841631 11.525799,5.39017465 11.525799,3.46920815 C11.525799,1.54824165 9.97755733,0 8.05659083,0 C6.13562434,0 4.58738268,1.54824165 4.58738268,3.46920815 C4.58738268,5.39017465 6.13562434,6.93841631 8.05659083,6.93841631" id="Shape"></path>
            <path d="M19.7544167,8.25728883 C21.4746852,8.25728883 22.8795711,6.85240288 22.8795711,5.13213437 C22.8795711,3.38319473 21.4746852,1.97830878 19.7544167,1.97830878 C18.0341482,1.97830878 16.6005911,3.38319473 16.6005911,5.13213437 C16.6005911,6.85240288 18.005477,8.25728883 19.7544167,8.25728883" id="Shape"></path>
            <g id="Group" transform="translate(32.685102, 14.622282)">
                <g transform="translate(82.286177, 1.720269)" id="Shape">
                    <path d="M0.200697992,2.15033563 C0.372724843,2.12166449 0.602093977,2.06432221 0.860134253,2.00697992 C1.14684567,1.94963764 1.46222823,1.94963764 1.80628193,1.94963764 C2.06432221,1.94963764 2.29369134,1.97830878 2.46571819,2.06432221 C2.63774504,2.12166449 2.78110075,2.23634906 2.92445646,2.37970477 C2.9531276,2.35103362 3.01046988,2.32236248 3.09648331,2.2650202 C3.18249674,2.20767792 3.26851016,2.17900677 3.38319473,2.12166449 C3.49787929,2.06432221 3.641235,2.03565106 3.78459071,2.00697992 C3.92794642,1.97830878 4.07130213,1.94963764 4.24332898,1.94963764 C4.55871154,1.94963764 4.81675182,2.00697992 5.01744981,2.09299335 C5.2181478,2.17900677 5.36150351,2.32236248 5.47618808,2.49438933 C5.59087264,2.66641618 5.67688607,2.86711418 5.70555721,3.09648331 C5.73422835,3.32585244 5.76289949,3.58389272 5.76289949,3.841933 L5.76289949,6.13562434 L5.01744981,6.13562434 L5.01744981,3.9852887 C5.01744981,3.75591957 5.01744981,3.52655044 4.98877867,3.35452359 C4.96010752,3.18249674 4.93143638,3.03914103 4.84542296,2.92445646 C4.78808067,2.80977189 4.70206725,2.72375847 4.58738268,2.66641618 C4.47269811,2.6090739 4.32934241,2.58040276 4.15731556,2.58040276 C3.89927528,2.58040276 3.69857729,2.6090739 3.55522158,2.66641618 C3.38319473,2.72375847 3.2971813,2.78110075 3.23983902,2.83844303 C3.26851016,2.98179874 3.32585244,3.12515445 3.32585244,3.2971813 C3.35452359,3.46920815 3.35452359,3.641235 3.35452359,3.81326185 L3.35452359,6.10695319 L2.6090739,6.10695319 L2.6090739,3.95661756 C2.6090739,3.72724843 2.6090739,3.49787929 2.58040276,3.32585244 C2.55173162,3.15382559 2.49438933,3.01046988 2.43704705,2.89578532 C2.37970477,2.78110075 2.29369134,2.69508733 2.17900677,2.63774504 C2.06432221,2.58040276 1.9209665,2.55173162 1.74893965,2.55173162 L1.51957051,2.55173162 C1.43355709,2.55173162 1.34754366,2.55173162 1.29020138,2.58040276 C1.20418795,2.58040276 1.14684567,2.6090739 1.08950339,2.6090739 C1.0321611,2.6090739 0.97481882,2.63774504 0.97481882,2.63774504 L0.97481882,6.10695319 L0.229369134,6.10695319 L0.229369134,2.15033563 L0.200697992,2.15033563 Z"></path>
                    <path d="M8.31463111,1.9209665 C8.60134253,1.9209665 8.8593828,1.94963764 9.0600808,2.03565106 C9.26077879,2.12166449 9.43280564,2.20767792 9.54749021,2.35103362 C9.66217477,2.49438933 9.7481882,2.66641618 9.80553048,2.83844303 C9.86287277,3.03914103 9.89154391,3.23983902 9.89154391,3.46920815 L9.89154391,6.04961091 C9.83420162,6.04961091 9.7481882,6.07828205 9.63350363,6.10695319 C9.51881906,6.13562434 9.4041345,6.13562434 9.26077879,6.16429548 C9.11742308,6.19296662 8.97406737,6.19296662 8.80204052,6.22163776 C8.63001367,6.22163776 8.45798682,6.2503089 8.31463111,6.2503089 C8.08526198,6.2503089 7.85589284,6.22163776 7.68386599,6.19296662 C7.483168,6.13562434 7.31114115,6.07828205 7.16778544,5.96359749 C7.02442973,5.84891292 6.90974516,5.73422835 6.82373174,5.5622015 C6.73771831,5.39017465 6.70904717,5.18947666 6.70904717,4.96010752 C6.70904717,4.73073839 6.76638946,4.5300404 6.85240288,4.38668469 C6.93841631,4.21465784 7.08177201,4.09997327 7.22512772,3.9852887 C7.39715457,3.89927528 7.56918142,3.81326185 7.76987942,3.75591957 C7.97057741,3.69857729 8.19994654,3.69857729 8.42931568,3.69857729 L8.65868481,3.69857729 C8.74469824,3.69857729 8.80204052,3.72724843 8.88805395,3.72724843 C8.94539623,3.72724843 9.03140965,3.75591957 9.0600808,3.75591957 C9.11742308,3.75591957 9.14609422,3.78459071 9.17476536,3.78459071 L9.17476536,3.58389272 C9.17476536,3.46920815 9.17476536,3.35452359 9.14609422,3.21116788 C9.11742308,3.09648331 9.0600808,2.98179874 9.00273851,2.89578532 C8.94539623,2.80977189 8.83071166,2.72375847 8.71602709,2.66641618 C8.60134253,2.6090739 8.42931568,2.58040276 8.25728883,2.58040276 C8.02791969,2.58040276 7.79855056,2.6090739 7.62652371,2.63774504 C7.45449686,2.66641618 7.31114115,2.69508733 7.22512772,2.75242961 L7.1391143,2.15033563 C7.22512772,2.12166449 7.39715457,2.06432221 7.62652371,2.03565106 C7.8272217,1.94963764 8.05659083,1.9209665 8.31463111,1.9209665 M8.40064454,5.61954378 L8.8593828,5.61954378 C9.00273851,5.61954378 9.11742308,5.59087264 9.2034365,5.5622015 L9.2034365,4.32934241 C9.14609422,4.30067126 9.0600808,4.27200012 8.94539623,4.27200012 C8.83071166,4.24332898 8.68735595,4.24332898 8.5153291,4.24332898 C8.40064454,4.24332898 8.28595997,4.24332898 8.1712754,4.27200012 L7.8272217,4.35801355 C7.71253713,4.41535583 7.62652371,4.47269811 7.56918142,4.55871154 C7.51183914,4.64472496 7.45449686,4.75940953 7.45449686,4.90276524 C7.45449686,5.16080552 7.54051028,5.36150351 7.71253713,5.44751693 C7.88456398,5.5622015 8.11393312,5.61954378 8.40064454,5.61954378"></path>
                    <path d="M12.0705507,5.61954378 C12.3572621,5.61954378 12.5866312,5.59087264 12.7299869,5.50485922 C12.8733426,5.41884579 12.9593561,5.30416123 12.9593561,5.13213437 C12.9593561,4.96010752 12.9020138,4.81675182 12.7586581,4.70206725 C12.6153024,4.58738268 12.3859332,4.47269811 12.0418795,4.35801355 C11.8985238,4.30067126 11.726497,4.24332898 11.5831413,4.15731556 C11.4397856,4.09997327 11.325101,4.01395985 11.2104164,3.92794642 C11.0957319,3.841933 11.0097184,3.72724843 10.9523762,3.61256386 C10.8950339,3.49787929 10.8663627,3.32585244 10.8663627,3.15382559 C10.8663627,2.78110075 11.0097184,2.49438933 11.2677587,2.29369134 C11.525799,2.09299335 11.8985238,1.97830878 12.3572621,1.97830878 C12.4719467,1.97830878 12.5866312,1.97830878 12.7013158,2.00697992 C12.8160004,2.00697992 12.9306849,2.03565106 13.0166984,2.06432221 C13.1027118,2.09299335 13.2173964,2.09299335 13.2747386,2.12166449 C13.3607521,2.15033563 13.4180943,2.15033563 13.4467655,2.17900677 L13.3034098,2.80977189 C13.2173964,2.78110075 13.1027118,2.72375847 12.9306849,2.66641618 C12.7586581,2.6090739 12.5579601,2.6090739 12.328591,2.6090739 C12.127893,2.6090739 11.9558661,2.63774504 11.7838393,2.72375847 C11.6404836,2.80977189 11.5544701,2.92445646 11.5544701,3.09648331 C11.5544701,3.18249674 11.5831413,3.26851016 11.6118124,3.32585244 C11.6404836,3.38319473 11.6978258,3.46920815 11.7838393,3.49787929 C11.8411815,3.55522158 11.9558661,3.61256386 12.0418795,3.641235 C12.1565641,3.69857729 12.2712487,3.72724843 12.4146044,3.78459071 C12.6153024,3.87060414 12.7873292,3.92794642 12.9306849,4.01395985 C13.0740406,4.07130213 13.2173964,4.15731556 13.3320809,4.27200012 C13.4467655,4.35801355 13.5327789,4.47269811 13.5901212,4.61605382 C13.6474635,4.75940953 13.6761346,4.90276524 13.6761346,5.10346323 C13.6761346,5.47618808 13.5327789,5.76289949 13.2460675,5.96359749 C12.9593561,6.16429548 12.5579601,6.2503089 12.0418795,6.2503089 C11.6691547,6.2503089 11.3824433,6.22163776 11.1817453,6.16429548 C10.9810473,6.10695319 10.8376916,6.04961091 10.7516782,6.02093977 L10.8950339,5.39017465 C10.9810473,5.41884579 11.124403,5.47618808 11.2964299,5.53353036 C11.525799,5.59087264 11.7838393,5.61954378 12.0705507,5.61954378"></path>
                    <path d="M15.5971011,5.61954378 C15.8838125,5.61954378 16.1131817,5.59087264 16.2565374,5.50485922 C16.3998931,5.41884579 16.4859065,5.30416123 16.4859065,5.13213437 C16.4859065,4.96010752 16.4285642,4.81675182 16.2852085,4.70206725 C16.1418528,4.58738268 15.9124837,4.47269811 15.56843,4.35801355 C15.4250743,4.30067126 15.2530474,4.24332898 15.1096917,4.15731556 C14.966336,4.09997327 14.8516514,4.01395985 14.7369669,3.92794642 C14.6222823,3.841933 14.5362689,3.72724843 14.4789266,3.61256386 C14.4215843,3.49787929 14.3929132,3.32585244 14.3929132,3.15382559 C14.3929132,2.78110075 14.5362689,2.49438933 14.7943091,2.29369134 C15.0523494,2.09299335 15.4250743,1.97830878 15.8838125,1.97830878 C15.9984971,1.97830878 16.1131817,1.97830878 16.2278662,2.00697992 C16.3425508,2.00697992 16.4572354,2.03565106 16.5432488,2.06432221 C16.6292622,2.09299335 16.7439468,2.09299335 16.8012891,2.12166449 C16.8873025,2.15033563 16.9446448,2.15033563 16.9733159,2.17900677 L16.8299602,2.80977189 C16.7439468,2.78110075 16.6292622,2.72375847 16.4572354,2.66641618 C16.2852085,2.6090739 16.0845105,2.6090739 15.8551414,2.6090739 C15.6544434,2.6090739 15.4824165,2.63774504 15.3103897,2.72375847 C15.167034,2.80977189 15.0810206,2.92445646 15.0810206,3.09648331 C15.0810206,3.18249674 15.1096917,3.26851016 15.1383628,3.32585244 C15.167034,3.38319473 15.2243763,3.46920815 15.3103897,3.49787929 C15.367732,3.55522158 15.4824165,3.61256386 15.56843,3.641235 C15.6831145,3.69857729 15.7977991,3.72724843 15.9411548,3.78459071 C16.1418528,3.87060414 16.3138797,3.92794642 16.4572354,4.01395985 C16.6005911,4.07130213 16.7439468,4.15731556 16.8586314,4.27200012 C16.9733159,4.35801355 17.0593293,4.47269811 17.1166716,4.61605382 C17.1740139,4.75940953 17.2026851,4.90276524 17.2026851,5.10346323 C17.2026851,5.47618808 17.0593293,5.76289949 16.7726179,5.96359749 C16.4859065,6.16429548 16.0845105,6.2503089 15.56843,6.2503089 C15.1957051,6.2503089 14.9089937,6.22163776 14.7082957,6.16429548 C14.5075977,6.10695319 14.364242,6.04961091 14.2782286,6.02093977 L14.4215843,5.39017465 C14.5075977,5.41884579 14.6509534,5.47618808 14.8229803,5.53353036 C15.0523494,5.59087264 15.3103897,5.61954378 15.5971011,5.61954378"></path>
                    <path d="M19.4963764,1.9209665 C19.7830878,1.9209665 20.0411281,1.94963764 20.2418261,2.03565106 C20.4425241,2.12166449 20.6145509,2.20767792 20.7292355,2.35103362 C20.8439201,2.49438933 20.9299335,2.66641618 20.9872758,2.83844303 C21.0446181,3.03914103 21.0732892,3.23983902 21.0732892,3.46920815 L21.0732892,6.04961091 C21.0159469,6.04961091 20.9299335,6.07828205 20.8152489,6.10695319 C20.7005643,6.13562434 20.5858798,6.13562434 20.4425241,6.16429548 C20.2991684,6.19296662 20.1558127,6.19296662 19.9837858,6.22163776 C19.811759,6.22163776 19.6397321,6.2503089 19.4963764,6.2503089 C19.2670073,6.2503089 19.0376381,6.22163776 18.8656113,6.19296662 C18.6649133,6.13562434 18.4928864,6.07828205 18.3495307,5.96359749 C18.206175,5.84891292 18.0914904,5.73422835 18.005477,5.5622015 C17.9194636,5.39017465 17.8907925,5.18947666 17.8907925,4.96010752 C17.8907925,4.73073839 17.9481347,4.5300404 18.0341482,4.38668469 C18.1201616,4.21465784 18.2635173,4.09997327 18.406873,3.9852887 C18.5788999,3.89927528 18.7509267,3.81326185 18.9516247,3.75591957 C19.1523227,3.69857729 19.3816918,3.69857729 19.611061,3.69857729 L19.8404301,3.69857729 C19.9264435,3.69857729 19.9837858,3.72724843 20.0697992,3.72724843 C20.1271415,3.72724843 20.2131549,3.75591957 20.2418261,3.75591957 C20.2991684,3.75591957 20.3278395,3.78459071 20.3565106,3.78459071 L20.3565106,3.58389272 C20.3565106,3.46920815 20.3565106,3.35452359 20.3278395,3.21116788 C20.2991684,3.09648331 20.2418261,2.98179874 20.1844838,2.89578532 C20.1271415,2.80977189 20.0124569,2.72375847 19.8977724,2.66641618 C19.7830878,2.6090739 19.611061,2.58040276 19.4390341,2.58040276 C19.209665,2.58040276 18.9802958,2.6090739 18.808269,2.63774504 C18.6362421,2.66641618 18.4928864,2.69508733 18.406873,2.75242961 L18.3208596,2.15033563 C18.406873,2.12166449 18.5788999,2.06432221 18.808269,2.03565106 C19.008967,1.94963764 19.2383361,1.9209665 19.4963764,1.9209665 M19.5537187,5.61954378 L20.0124569,5.61954378 C20.1558127,5.61954378 20.2704972,5.59087264 20.3565106,5.5622015 L20.3565106,4.32934241 C20.2991684,4.30067126 20.2131549,4.27200012 20.0984704,4.27200012 C19.9837858,4.24332898 19.8404301,4.24332898 19.6684032,4.24332898 C19.5537187,4.24332898 19.4390341,4.24332898 19.3243495,4.27200012 L18.9802958,4.35801355 C18.8656113,4.41535583 18.7795979,4.47269811 18.7222556,4.55871154 C18.6649133,4.64472496 18.607571,4.75940953 18.607571,4.90276524 C18.607571,5.16080552 18.6935844,5.36150351 18.8656113,5.44751693 C19.0376381,5.5622015 19.2670073,5.61954378 19.5537187,5.61954378"></path>
                    <path d="M24.0837591,6.22163776 C23.7397054,6.22163776 23.452994,6.16429548 23.2236248,6.04961091 C22.9655845,5.93492634 22.7648866,5.79157064 22.5928597,5.61954378 C22.4208329,5.41884579 22.3061483,5.2181478 22.2201349,4.93143638 C22.1341214,4.67339611 22.1054503,4.38668469 22.1054503,4.07130213 C22.1054503,3.75591957 22.1627926,3.46920815 22.248806,3.21116788 C22.3348194,2.9531276 22.4781751,2.72375847 22.650202,2.52306047 C22.8222288,2.32236248 23.0229268,2.17900677 23.2809671,2.06432221 C23.5390074,1.94963764 23.7970477,1.89229536 24.1124302,1.89229536 C24.2844571,1.89229536 24.4851551,1.9209665 24.6571819,1.94963764 C24.8292088,1.97830878 25.0299068,2.03565106 25.1732625,2.09299335 L25.0012356,2.72375847 C24.886551,2.66641618 24.7718665,2.63774504 24.6285108,2.6090739 C24.4851551,2.58040276 24.3417994,2.55173162 24.1697725,2.55173162 C23.7683765,2.55173162 23.452994,2.69508733 23.2236248,2.9531276 C22.9942557,3.21116788 22.9082423,3.58389272 22.9082423,4.07130213 C22.9082423,4.30067126 22.9369134,4.50136926 22.9942557,4.67339611 C23.051598,4.84542296 23.1089403,5.01744981 23.2236248,5.16080552 C23.3383094,5.30416123 23.4816651,5.39017465 23.6250208,5.47618808 C23.7970477,5.53353036 23.9977457,5.59087264 24.2557859,5.59087264 C24.4564839,5.59087264 24.6285108,5.5622015 24.7718665,5.53353036 C24.9438933,5.50485922 25.0585779,5.44751693 25.1445913,5.41884579 L25.2592759,6.04961091 C25.2306047,6.07828205 25.1445913,6.10695319 25.087249,6.13562434 C25.0012356,6.16429548 24.9152222,6.19296662 24.8292088,6.19296662 C24.7145242,6.22163776 24.6285108,6.22163776 24.5138262,6.2503089 C24.3131282,6.22163776 24.1984436,6.22163776 24.0837591,6.22163776"></path>
                    <path d="M25.9760544,6.13562434 L25.9760544,0.143355709 L26.7215041,0.0286711418 L26.7215041,2.12166449 C26.8648598,2.06432221 27.0082155,2.03565106 27.1515712,2.00697992 C27.294927,1.97830878 27.4669538,1.94963764 27.6103095,1.94963764 C27.9256921,1.94963764 28.2124035,2.00697992 28.4131015,2.09299335 C28.6424706,2.17900677 28.8144975,2.32236248 28.929182,2.49438933 C29.0438666,2.66641618 29.1585512,2.86711418 29.2158935,3.09648331 C29.2732357,3.32585244 29.3019069,3.58389272 29.3019069,3.87060414 L29.3019069,6.16429548 L28.5564572,6.16429548 L28.5564572,4.01395985 C28.5564572,3.75591957 28.5277861,3.55522158 28.4991149,3.35452359 C28.4704438,3.18249674 28.4131015,3.03914103 28.3270881,2.92445646 C28.2410746,2.80977189 28.1550612,2.72375847 28.0117055,2.69508733 C27.8683498,2.63774504 27.7249941,2.6090739 27.5242961,2.6090739 C27.4382827,2.6090739 27.3522692,2.6090739 27.2662558,2.63774504 C27.1802424,2.63774504 27.094229,2.66641618 27.0368867,2.66641618 C26.9508733,2.66641618 26.893531,2.69508733 26.8361887,2.72375847 C26.7788464,2.75242961 26.7215041,2.75242961 26.692833,2.75242961 L26.692833,6.16429548 L25.9760544,6.16429548 L25.9760544,6.13562434 Z"></path>
                    <path d="M33.7459339,6.02093977 C33.573907,6.04961091 33.3445379,6.10695319 33.0864976,6.16429548 C32.7997862,6.22163776 32.4844036,6.22163776 32.1403499,6.22163776 C31.8249674,6.22163776 31.5669271,6.16429548 31.3375579,6.07828205 C31.1081888,5.99226863 30.936162,5.84891292 30.8214774,5.67688607 C30.6781217,5.50485922 30.5921083,5.30416123 30.534766,5.07479209 C30.4774237,4.84542296 30.4487525,4.58738268 30.4487525,4.30067126 L30.4487525,2.00697992 L31.1942022,2.00697992 L31.1942022,4.15731556 C31.1942022,4.64472496 31.2802157,5.01744981 31.4235714,5.24681894 C31.5955982,5.47618808 31.8536385,5.5622015 32.2263633,5.5622015 L32.4844036,5.5622015 C32.570417,5.5622015 32.6564305,5.5622015 32.7137727,5.53353036 C32.7997862,5.53353036 32.8571285,5.50485922 32.9144707,5.50485922 C32.971813,5.50485922 33.0291553,5.47618808 33.0578264,5.47618808 L33.0578264,2.03565106 L33.8032761,2.03565106 L33.8032761,6.02093977 L33.7459339,6.02093977 Z"></path>
                    <path d="M35.9822829,5.61954378 C36.2689943,5.61954378 36.4983635,5.59087264 36.6417192,5.50485922 C36.7850749,5.41884579 36.8710883,5.30416123 36.8710883,5.13213437 C36.8710883,4.96010752 36.813746,4.81675182 36.6703903,4.70206725 C36.5270346,4.58738268 36.2976655,4.47269811 35.9536118,4.35801355 C35.7815849,4.30067126 35.6382292,4.24332898 35.4948735,4.15731556 C35.3515178,4.09997327 35.2368332,4.01395985 35.1221487,3.92794642 C35.0074641,3.841933 34.9214507,3.72724843 34.8641084,3.61256386 C34.8067661,3.49787929 34.778095,3.32585244 34.778095,3.15382559 C34.778095,2.78110075 34.9214507,2.49438933 35.1794909,2.29369134 C35.4375312,2.09299335 35.8102561,1.97830878 36.2689943,1.97830878 C36.3836789,1.97830878 36.4983635,1.97830878 36.613048,2.00697992 C36.7277326,2.03565106 36.8424172,2.03565106 36.9284306,2.06432221 C37.014444,2.09299335 37.1291286,2.09299335 37.1864709,2.12166449 C37.2724843,2.15033563 37.3298266,2.15033563 37.3584977,2.17900677 L37.215142,2.80977189 C37.1291286,2.78110075 37.014444,2.72375847 36.8424172,2.66641618 C36.6703903,2.6090739 36.4696923,2.6090739 36.2403232,2.6090739 C36.0396252,2.6090739 35.8675983,2.63774504 35.6955715,2.72375847 C35.5522158,2.80977189 35.4662024,2.92445646 35.4662024,3.09648331 C35.4662024,3.18249674 35.4948735,3.26851016 35.5235446,3.32585244 C35.5522158,3.38319473 35.6095581,3.46920815 35.6955715,3.49787929 C35.7529138,3.55522158 35.8675983,3.61256386 35.9536118,3.641235 C36.0682963,3.69857729 36.1829809,3.72724843 36.3263366,3.78459071 C36.5270346,3.87060414 36.6990615,3.92794642 36.8424172,4.01395985 C36.9857729,4.07130213 37.1291286,4.15731556 37.2438131,4.27200012 C37.3584977,4.35801355 37.4445111,4.47269811 37.5018534,4.61605382 C37.5591957,4.75940953 37.5878668,4.90276524 37.5878668,5.10346323 C37.5878668,5.47618808 37.4445111,5.76289949 37.1577997,5.96359749 C36.8710883,6.16429548 36.4696923,6.2503089 35.9536118,6.2503089 C35.5808869,6.2503089 35.2941755,6.22163776 35.0934775,6.16429548 C34.8927795,6.10695319 34.7494238,6.04961091 34.6634104,6.02093977 L34.8067661,5.39017465 C34.8927795,5.41884579 35.0361352,5.47618808 35.2081621,5.53353036 C35.4375312,5.59087264 35.6669003,5.61954378 35.9822829,5.61954378"></path>
                    <path d="M38.3046454,4.09997327 C38.3046454,3.72724843 38.3619877,3.41186587 38.4766722,3.15382559 C38.5913568,2.89578532 38.7347125,2.66641618 38.9067394,2.46571819 C39.0787662,2.29369134 39.2794642,2.15033563 39.5088333,2.06432221 C39.7382025,1.97830878 39.9675716,1.9209665 40.1969407,1.9209665 C40.7416924,1.9209665 41.1717596,2.09299335 41.458471,2.43704705 C41.7451824,2.78110075 41.8885381,3.2971813 41.8885381,4.01395985 L41.8885381,4.12864441 L41.8885381,4.27200012 L39.0787662,4.27200012 C39.1074374,4.70206725 39.2221219,5.01744981 39.4514911,5.24681894 C39.6808602,5.47618808 39.9962428,5.59087264 40.454981,5.59087264 C40.7130213,5.59087264 40.9423904,5.5622015 41.1144173,5.53353036 C41.2864441,5.47618808 41.4297998,5.44751693 41.5158133,5.39017465 L41.6304978,6.02093977 C41.5444844,6.07828205 41.3724576,6.10695319 41.1717596,6.16429548 C40.9423904,6.22163776 40.6843502,6.2503089 40.3976387,6.2503089 C40.0249139,6.2503089 39.7382025,6.19296662 39.4801622,6.07828205 C39.2221219,5.96359749 38.9927528,5.82024178 38.8493971,5.61954378 C38.6773702,5.41884579 38.5626857,5.2181478 38.4766722,4.93143638 C38.3619877,4.70206725 38.3046454,4.41535583 38.3046454,4.09997327 L38.3046454,4.09997327 Z M41.1430884,3.69857729 C41.1430884,3.35452359 41.057075,3.09648331 40.8850481,2.86711418 C40.7130213,2.66641618 40.4836522,2.55173162 40.1682696,2.55173162 C39.9962428,2.55173162 39.852887,2.58040276 39.7095313,2.63774504 C39.5661756,2.69508733 39.4801622,2.78110075 39.3941488,2.89578532 C39.3081354,3.01046988 39.2221219,3.12515445 39.1934508,3.26851016 C39.1361085,3.41186587 39.1074374,3.55522158 39.1074374,3.69857729 L41.1430884,3.69857729 L41.1430884,3.69857729 Z"></path>
                    <path d="M43.6374778,2.03565106 L45.1857194,2.03565106 L45.1857194,2.66641618 L43.6374778,2.66641618 L43.6374778,4.55871154 C43.6374778,4.75940953 43.6661489,4.93143638 43.69482,5.07479209 C43.7234912,5.2181478 43.7808335,5.30416123 43.8381757,5.39017465 C43.895518,5.47618808 43.9815315,5.53353036 44.0675449,5.5622015 C44.1535583,5.59087264 44.2682429,5.61954378 44.4115986,5.61954378 C44.6409677,5.61954378 44.8129946,5.59087264 44.9563503,5.53353036 C45.099706,5.47618808 45.1857194,5.44751693 45.2430617,5.41884579 L45.3864174,6.02093977 C45.300404,6.04961091 45.1857194,6.10695319 44.9850214,6.16429548 C44.8129946,6.22163776 44.5836254,6.2503089 44.3542563,6.2503089 C44.0675449,6.2503089 43.8381757,6.22163776 43.6661489,6.13562434 C43.494122,6.07828205 43.3507663,5.96359749 43.2360818,5.82024178 C43.1213972,5.67688607 43.0353838,5.50485922 43.0067126,5.30416123 C42.9493704,5.10346323 42.9493704,4.84542296 42.9493704,4.58738268 L42.9493704,0.888805395 L43.69482,0.774120827 L43.69482,2.03565106 L43.6374778,2.03565106 Z"></path>
                    <path d="M46.8199745,2.03565106 L48.3682161,2.03565106 L48.3682161,2.66641618 L46.8199745,2.66641618 L46.8199745,4.55871154 C46.8199745,4.75940953 46.8486456,4.93143638 46.8773168,5.07479209 C46.9059879,5.2181478 46.9633302,5.30416123 47.0206725,5.39017465 C47.0780148,5.47618808 47.1640282,5.53353036 47.2500416,5.5622015 C47.336055,5.59087264 47.4507396,5.61954378 47.5940953,5.61954378 C47.8234645,5.61954378 47.9954913,5.59087264 48.138847,5.53353036 C48.2822027,5.47618808 48.3682161,5.44751693 48.4255584,5.41884579 L48.5689141,6.02093977 C48.4829007,6.04961091 48.3682161,6.10695319 48.1675182,6.16429548 C47.9954913,6.22163776 47.7661222,6.2503089 47.536753,6.2503089 C47.2500416,6.2503089 47.0206725,6.22163776 46.8486456,6.13562434 C46.6766188,6.07828205 46.5332631,5.96359749 46.4185785,5.82024178 C46.3038939,5.67688607 46.2178805,5.50485922 46.1892094,5.30416123 C46.1318671,5.10346323 46.1318671,4.84542296 46.1318671,4.58738268 L46.1318671,0.888805395 L46.8773168,0.774120827 L46.8773168,2.03565106 L46.8199745,2.03565106 Z"></path>
                    <path d="M50.2605115,5.61954378 C50.5472229,5.61954378 50.7765921,5.59087264 50.9199478,5.50485922 C51.0633035,5.41884579 51.1493169,5.30416123 51.1493169,5.13213437 C51.1493169,4.96010752 51.0919746,4.81675182 50.9486189,4.70206725 C50.8052632,4.58738268 50.5758941,4.47269811 50.2318404,4.35801355 C50.0598135,4.30067126 49.9164578,4.24332898 49.7731021,4.15731556 C49.6297464,4.09997327 49.5150618,4.01395985 49.4003773,3.92794642 C49.2856927,3.841933 49.1996793,3.72724843 49.142337,3.61256386 C49.0849947,3.49787929 49.0563235,3.32585244 49.0563235,3.15382559 C49.0563235,2.78110075 49.1996793,2.49438933 49.4577195,2.29369134 C49.7157598,2.09299335 50.0884847,1.97830878 50.5472229,1.97830878 C50.6619075,1.97830878 50.7765921,1.97830878 50.8912766,2.00697992 C51.0059612,2.03565106 51.1206458,2.03565106 51.2066592,2.06432221 C51.2926726,2.09299335 51.4073572,2.09299335 51.4646995,2.12166449 C51.5507129,2.15033563 51.6080552,2.15033563 51.6367263,2.17900677 L51.4933706,2.80977189 C51.4073572,2.78110075 51.2926726,2.72375847 51.1206458,2.66641618 C50.9486189,2.6090739 50.7479209,2.6090739 50.5185518,2.6090739 C50.3178538,2.6090739 50.1458269,2.63774504 49.9738001,2.72375847 C49.8304444,2.80977189 49.744431,2.92445646 49.744431,3.09648331 C49.744431,3.18249674 49.7731021,3.26851016 49.8017732,3.32585244 C49.8304444,3.38319473 49.8877867,3.46920815 49.9738001,3.49787929 C50.0311424,3.55522158 50.1458269,3.61256386 50.2318404,3.641235 C50.3178538,3.66990615 50.4612095,3.72724843 50.6045652,3.78459071 C50.8052632,3.87060414 50.97729,3.92794642 51.1206458,4.01395985 C51.2640015,4.07130213 51.4073572,4.15731556 51.5220417,4.27200012 C51.6367263,4.35801355 51.7227397,4.47269811 51.780082,4.61605382 C51.8374243,4.75940953 51.8660954,4.90276524 51.8660954,5.10346323 C51.8660954,5.47618808 51.7227397,5.76289949 51.4360283,5.96359749 C51.1493169,6.16429548 50.7479209,6.2503089 50.2318404,6.2503089 C49.8591155,6.2503089 49.5724041,6.22163776 49.3717061,6.16429548 C49.1710081,6.10695319 49.0276524,6.04961091 48.941639,6.02093977 L49.0849947,5.39017465 C49.1710081,5.41884579 49.3143638,5.47618808 49.4863907,5.53353036 C49.7157598,5.59087264 49.9738001,5.61954378 50.2605115,5.61954378"></path>
                    <path d="M55.9947399,1.9209665 C56.2814513,1.9209665 56.5394915,1.94963764 56.7401895,2.03565106 C56.9408875,2.12166449 57.1129144,2.20767792 57.227599,2.35103362 C57.3422835,2.49438933 57.4282969,2.66641618 57.4856392,2.83844303 C57.5429815,3.03914103 57.5716527,3.23983902 57.5716527,3.46920815 L57.5716527,6.04961091 C57.5143104,6.04961091 57.4282969,6.07828205 57.3136124,6.10695319 C57.1989278,6.13562434 57.0842432,6.13562434 56.9408875,6.16429548 C56.7975318,6.19296662 56.6541761,6.19296662 56.4821493,6.22163776 C56.3101224,6.22163776 56.1380956,6.2503089 55.9947399,6.2503089 C55.7653707,6.2503089 55.5360016,6.22163776 55.3639747,6.19296662 C55.1632767,6.13562434 54.9912499,6.07828205 54.8478942,5.96359749 C54.7045385,5.84891292 54.5898539,5.73422835 54.5038405,5.5622015 C54.4178271,5.39017465 54.3891559,5.18947666 54.3891559,4.96010752 C54.3891559,4.73073839 54.4464982,4.5300404 54.5325116,4.38668469 C54.6185251,4.21465784 54.7618808,4.09997327 54.9052365,3.9852887 C55.0772633,3.89927528 55.2492902,3.81326185 55.4499882,3.75591957 C55.6506862,3.69857729 55.8800553,3.69857729 56.1094244,3.69857729 L56.3387936,3.69857729 C56.424807,3.69857729 56.4821493,3.72724843 56.5681627,3.72724843 C56.625505,3.72724843 56.7115184,3.75591957 56.7401895,3.75591957 C56.7975318,3.75591957 56.826203,3.78459071 56.8548741,3.78459071 L56.8548741,3.58389272 C56.8548741,3.46920815 56.8548741,3.35452359 56.826203,3.21116788 C56.7975318,3.09648331 56.7401895,2.98179874 56.6828473,2.89578532 C56.625505,2.80977189 56.5108204,2.72375847 56.3961358,2.66641618 C56.2814513,2.6090739 56.1094244,2.58040276 55.9373976,2.58040276 C55.7080284,2.58040276 55.4786593,2.6090739 55.3066325,2.63774504 C55.1346056,2.66641618 54.9912499,2.69508733 54.9052365,2.75242961 L54.819223,2.15033563 C54.9052365,2.12166449 55.0772633,2.06432221 55.3066325,2.03565106 C55.5360016,2.00697992 55.7366996,1.9209665 55.9947399,1.9209665 M56.0520821,5.61954378 L56.5108204,5.61954378 C56.6541761,5.61954378 56.7688607,5.59087264 56.8548741,5.5622015 L56.8548741,4.32934241 C56.7975318,4.30067126 56.7115184,4.27200012 56.5968338,4.27200012 C56.4821493,4.24332898 56.3387936,4.24332898 56.1667667,4.24332898 C56.0520821,4.24332898 55.9373976,4.24332898 55.822713,4.27200012 C55.7080284,4.30067126 55.5933439,4.32934241 55.4786593,4.35801355 C55.3639747,4.41535583 55.2779613,4.47269811 55.220619,4.55871154 C55.1632767,4.64472496 55.1059345,4.75940953 55.1059345,4.90276524 C55.1059345,5.16080552 55.1919479,5.36150351 55.3639747,5.44751693 C55.5360016,5.5622015 55.7653707,5.61954378 56.0520821,5.61954378"></path>
                    <path d="M61.4422568,0.143355709 L62.1877065,0.0286711418 L62.1877065,6.04961091 C62.0156796,6.10695319 61.8149816,6.13562434 61.5282702,6.19296662 C61.2702299,6.2503089 60.9548474,6.2503089 60.6107937,6.2503089 C60.2954111,6.2503089 60.0086997,6.19296662 59.7506594,6.10695319 C59.4926191,6.02093977 59.2919212,5.87758406 59.0912232,5.67688607 C58.9191963,5.50485922 58.7758406,5.27549008 58.6898272,4.98877867 C58.6038138,4.73073839 58.5464715,4.41535583 58.5464715,4.09997327 C58.5464715,3.78459071 58.5751426,3.49787929 58.661156,3.23983902 C58.7471695,2.98179874 58.861854,2.75242961 59.0338809,2.55173162 C59.2059077,2.35103362 59.3779346,2.20767792 59.6073037,2.12166449 C59.8366729,2.00697992 60.0947131,1.94963764 60.3814245,1.94963764 C60.6107937,1.94963764 60.8401628,1.97830878 61.0121897,2.03565106 C61.1842165,2.09299335 61.3275722,2.15033563 61.4135856,2.20767792 L61.4135856,0.143355709 L61.4422568,0.143355709 Z M61.4422568,2.89578532 C61.3562434,2.80977189 61.2128877,2.75242961 61.0408608,2.69508733 C60.868834,2.63774504 60.6968071,2.58040276 60.4961091,2.58040276 C60.2954111,2.58040276 60.0947131,2.6090739 59.9513574,2.69508733 C59.8080017,2.78110075 59.664646,2.86711418 59.5786326,3.01046988 C59.4926191,3.15382559 59.4066057,3.2971813 59.3779346,3.49787929 C59.3492634,3.66990615 59.3205923,3.87060414 59.3205923,4.09997327 C59.3205923,4.58738268 59.4352769,4.96010752 59.664646,5.2181478 C59.8940151,5.47618808 60.2093977,5.61954378 60.6107937,5.61954378 C60.8114917,5.61954378 60.9835185,5.61954378 61.0982031,5.59087264 C61.2415588,5.5622015 61.3275722,5.5622015 61.4135856,5.53353036 L61.4135856,2.89578532 L61.4422568,2.89578532 Z"></path>
                    <path d="M67.0618006,4.07130213 C67.0618006,4.38668469 67.0044583,4.70206725 66.9184449,4.96010752 C66.8324314,5.2181478 66.6890757,5.44751693 66.5170489,5.64821493 C66.345022,5.84891292 66.144324,5.99226863 65.9149549,6.07828205 C65.6855858,6.19296662 65.4275455,6.22163776 65.1408341,6.22163776 C64.8541227,6.22163776 64.5960824,6.16429548 64.3667132,6.07828205 C64.1373441,5.96359749 63.9366461,5.82024178 63.7646193,5.64821493 C63.5925924,5.44751693 63.4492367,5.2181478 63.3632233,4.96010752 C63.2772099,4.70206725 63.2198676,4.41535583 63.2198676,4.07130213 C63.2198676,3.75591957 63.2772099,3.46920815 63.3632233,3.18249674 C63.4492367,2.92445646 63.5925924,2.69508733 63.7646193,2.49438933 C63.9366461,2.29369134 64.1373441,2.15033563 64.3667132,2.06432221 C64.5960824,1.94963764 64.8541227,1.9209665 65.1408341,1.9209665 C65.4275455,1.9209665 65.6855858,1.97830878 65.9149549,2.06432221 C66.144324,2.17900677 66.345022,2.32236248 66.5170489,2.49438933 C66.6890757,2.69508733 66.8324314,2.92445646 66.9184449,3.18249674 C67.0331294,3.46920815 67.0618006,3.75591957 67.0618006,4.07130213 M66.3163509,4.07130213 C66.3163509,3.61256386 66.2016663,3.23983902 66.0009683,2.98179874 C65.8002703,2.72375847 65.5135589,2.58040276 65.1408341,2.58040276 C64.7967804,2.58040276 64.510069,2.72375847 64.2806998,2.98179874 C64.0800018,3.23983902 63.9653173,3.61256386 63.9653173,4.07130213 C63.9653173,4.5300404 64.0800018,4.90276524 64.2806998,5.16080552 C64.4813978,5.41884579 64.7681092,5.5622015 65.1408341,5.5622015 C65.4848878,5.5622015 65.7715992,5.41884579 66.0009683,5.16080552 C66.2016663,4.90276524 66.3163509,4.55871154 66.3163509,4.07130213"></path>
                    <path d="M71.7351967,4.09997327 C71.7351967,4.41535583 71.7065255,4.70206725 71.6205121,4.96010752 C71.5344987,5.2181478 71.4198141,5.44751693 71.2477873,5.64821493 C71.0757604,5.84891292 70.9037336,5.99226863 70.6743644,6.07828205 C70.4449953,6.19296662 70.186955,6.2503089 69.9002436,6.2503089 C69.6708745,6.2503089 69.4415053,6.22163776 69.2694785,6.16429548 C69.0974516,6.10695319 68.9540959,6.04961091 68.8680825,5.99226863 L68.8680825,7.62652371 L68.1226328,7.62652371 L68.1226328,2.17900677 C68.2946597,2.15033563 68.5240288,2.09299335 68.7820691,2.03565106 C69.0401094,1.97830878 69.3554919,1.94963764 69.6995456,1.94963764 C70.0149282,1.94963764 70.3016396,2.00697992 70.5596799,2.09299335 C70.8177201,2.17900677 71.0184181,2.32236248 71.2191161,2.52306047 C71.391143,2.69508733 71.5344987,2.92445646 71.6205121,3.21116788 C71.6778544,3.46920815 71.7351967,3.75591957 71.7351967,4.09997327 M70.9610759,4.09997327 C70.9610759,3.61256386 70.8463913,3.23983902 70.6170222,2.98179874 C70.387653,2.72375847 70.0722705,2.58040276 69.6708745,2.58040276 C69.4415053,2.58040276 69.2694785,2.58040276 69.1547939,2.6090739 C69.0401094,2.63774504 68.9254248,2.63774504 68.8680825,2.66641618 L68.8680825,5.24681894 C68.9540959,5.33283237 69.0974516,5.39017465 69.2694785,5.44751693 C69.4415053,5.50485922 69.6135322,5.5622015 69.8142302,5.5622015 C70.0149282,5.5622015 70.2156262,5.53353036 70.3589819,5.44751693 C70.5023376,5.36150351 70.6456933,5.27549008 70.7317067,5.13213437 C70.8177201,4.98877867 70.9037336,4.84542296 70.9324047,4.64472496 C70.9324047,4.50136926 70.9610759,4.30067126 70.9610759,4.09997327"></path>
                    <path d="M73.4554652,2.03565106 L75.0037068,2.03565106 L75.0037068,2.66641618 L73.4554652,2.66641618 L73.4554652,4.55871154 C73.4554652,4.75940953 73.4841363,4.93143638 73.5128075,5.07479209 C73.5414786,5.2181478 73.5988209,5.30416123 73.6561632,5.39017465 C73.7135055,5.47618808 73.7995189,5.53353036 73.8855323,5.5622015 C73.9715457,5.59087264 74.0862303,5.61954378 74.229586,5.61954378 C74.4589551,5.61954378 74.630982,5.59087264 74.7743377,5.53353036 C74.9176934,5.47618808 75.0037068,5.44751693 75.0610491,5.41884579 L75.2044048,6.02093977 C75.1183914,6.04961091 75.0037068,6.10695319 74.8030088,6.16429548 C74.630982,6.22163776 74.4016129,6.2503089 74.1722437,6.2503089 C73.8855323,6.2503089 73.6561632,6.22163776 73.4841363,6.13562434 C73.3121095,6.07828205 73.1687538,5.96359749 73.0540692,5.82024178 C72.9393846,5.67688607 72.8533712,5.50485922 72.8247001,5.30416123 C72.7673578,5.10346323 72.7673578,4.84542296 72.7673578,4.58738268 L72.7673578,0.888805395 L73.5128075,0.774120827 L73.5128075,2.03565106 L73.4554652,2.03565106 Z"></path>
                    <path d="M76.2939082,1.29020138 C76.1505525,1.29020138 76.0645391,1.2328591 75.9498545,1.14684567 C75.8638411,1.06083225 75.8064988,0.946147678 75.8064988,0.802791969 C75.8064988,0.65943626 75.8638411,0.544751693 75.9498545,0.458738268 C76.0358679,0.372724843 76.1505525,0.315382559 76.2939082,0.315382559 C76.4372639,0.315382559 76.5232774,0.344053701 76.6379619,0.458738268 C76.7239753,0.544751693 76.7813176,0.65943626 76.7813176,0.802791969 C76.7813176,0.946147678 76.7239753,1.06083225 76.6379619,1.14684567 C76.5519485,1.2328591 76.4372639,1.29020138 76.2939082,1.29020138 L76.2939082,1.29020138 Z M76.6666331,6.13562434 L75.9211834,6.13562434 L75.9211834,2.03565106 L76.6666331,2.03565106 L76.6666331,6.13562434 L76.6666331,6.13562434 Z"></path>
                    <path d="M81.5693983,4.07130213 C81.5693983,4.38668469 81.512056,4.70206725 81.4260426,4.96010752 C81.3400292,5.2181478 81.1966735,5.44751693 81.0246466,5.64821493 C80.8526198,5.84891292 80.6519218,5.99226863 80.4225526,6.07828205 C80.1931835,6.19296662 79.9351432,6.22163776 79.6484318,6.22163776 C79.3617204,6.22163776 79.1036801,6.16429548 78.874311,6.07828205 C78.6449418,5.96359749 78.4442439,5.82024178 78.272217,5.64821493 C78.1001902,5.44751693 77.9568344,5.2181478 77.870821,4.96010752 C77.7848076,4.70206725 77.7274653,4.41535583 77.7274653,4.07130213 C77.7274653,3.75591957 77.7848076,3.46920815 77.870821,3.18249674 C77.9568344,2.92445646 78.1001902,2.69508733 78.272217,2.49438933 C78.4442439,2.29369134 78.6449418,2.15033563 78.874311,2.06432221 C79.1036801,1.94963764 79.3617204,1.9209665 79.6484318,1.9209665 C79.9351432,1.9209665 80.1931835,1.97830878 80.4225526,2.06432221 C80.6519218,2.17900677 80.8526198,2.32236248 81.0246466,2.49438933 C81.1966735,2.69508733 81.3400292,2.92445646 81.4260426,3.18249674 C81.512056,3.46920815 81.5693983,3.75591957 81.5693983,4.07130213 M80.7952775,4.07130213 C80.7952775,3.61256386 80.6805929,3.23983902 80.4798949,2.98179874 C80.2791969,2.72375847 79.9924855,2.58040276 79.6197607,2.58040276 C79.275707,2.58040276 78.9889955,2.72375847 78.7596264,2.98179874 C78.5589284,3.23983902 78.4442439,3.61256386 78.4442439,4.07130213 C78.4442439,4.5300404 78.5589284,4.90276524 78.7596264,5.16080552 C78.9603244,5.41884579 79.2470358,5.5622015 79.6197607,5.5622015 C79.9638144,5.5622015 80.2505258,5.41884579 80.4798949,5.16080552 C80.7092641,4.90276524 80.7952775,4.55871154 80.7952775,4.07130213"></path>
                    <path d="M82.6015594,2.15033563 C82.7735863,2.12166449 83.0029554,2.06432221 83.2609957,2.00697992 C83.5477071,1.94963764 83.8630896,1.94963764 84.2358145,1.94963764 C84.551197,1.94963764 84.8379085,2.00697992 85.0386065,2.09299335 C85.2679756,2.17900677 85.4400024,2.32236248 85.554687,2.49438933 C85.6693716,2.66641618 85.7840561,2.86711418 85.8413984,3.09648331 C85.8987407,3.32585244 85.9274119,3.58389272 85.9274119,3.87060414 L85.9274119,6.16429548 L85.1819622,6.16429548 L85.1819622,4.01395985 C85.1819622,3.75591957 85.153291,3.55522158 85.1246199,3.35452359 C85.0959487,3.18249674 85.0386065,3.03914103 84.952593,2.92445646 C84.8665796,2.80977189 84.7805662,2.72375847 84.6372105,2.69508733 C84.4938548,2.63774504 84.3504991,2.6090739 84.1498011,2.6090739 L83.8917608,2.6090739 C83.8057474,2.6090739 83.7197339,2.6090739 83.6623917,2.63774504 C83.5763782,2.63774504 83.5190359,2.66641618 83.4616937,2.66641618 C83.4043514,2.66641618 83.3470091,2.69508733 83.318338,2.69508733 L83.318338,6.16429548 L82.5728883,6.16429548 L82.5728883,2.15033563 L82.6015594,2.15033563 Z"></path>
                    <path d="M1.72026851,11.4397856 L1.94963764,11.4397856 C2.03565106,11.4397856 2.12166449,11.4684567 2.17900677,11.4684567 C2.2650202,11.4684567 2.32236248,11.4971278 2.40837591,11.4971278 C2.46571819,11.4971278 2.52306047,11.525799 2.55173162,11.525799 L2.43704705,12.1565641 C2.37970477,12.127893 2.29369134,12.0992218 2.15033563,12.0705507 C2.00697992,12.0418795 1.83495307,12.0132084 1.63425508,12.0132084 C1.49089937,12.0132084 1.34754366,12.0132084 1.2328591,12.0705507 C1.08950339,12.0992218 1.00348996,12.127893 0.97481882,12.127893 L0.97481882,15.56843 L0.229369134,15.56843 L0.229369134,11.6978258 C0.401395985,11.6404836 0.630765119,11.5831413 0.888805395,11.525799 C1.08950339,11.4397856 1.40488595,11.4397856 1.72026851,11.4397856"></path>
                    <path d="M3.01046988,13.5614501 C3.01046988,13.1887252 3.06781217,12.8733426 3.18249674,12.6153024 C3.2971813,12.3572621 3.44053701,12.127893 3.61256386,11.927195 C3.78459071,11.7551681 3.9852887,11.6118124 4.21465784,11.525799 C4.44402697,11.4397856 4.67339611,11.3824433 4.90276524,11.3824433 C5.44751693,11.3824433 5.87758406,11.5544701 6.16429548,11.8985238 C6.4510069,12.2425775 6.5943626,12.7586581 6.5943626,13.4754366 L6.5943626,13.5901212 L6.5943626,13.7334769 L3.78459071,13.7334769 C3.81326185,14.163544 3.92794642,14.4789266 4.15731556,14.7082957 C4.38668469,14.9376649 4.70206725,15.0523494 5.16080552,15.0523494 C5.41884579,15.0523494 5.64821493,15.0236783 5.82024178,14.9950071 C5.99226863,14.9376649 6.13562434,14.9089937 6.22163776,14.8516514 L6.33632233,15.4824165 C6.2503089,15.5397588 6.07828205,15.56843 5.87758406,15.6257723 C5.64821493,15.6831145 5.39017465,15.7117857 5.10346323,15.7117857 C4.73073839,15.7117857 4.44402697,15.6544434 4.1859867,15.5397588 C3.92794642,15.4250743 3.69857729,15.2817186 3.55522158,15.0810206 C3.38319473,14.8803226 3.26851016,14.6796246 3.18249674,14.3929132 C3.06781217,14.163544 3.01046988,13.8768326 3.01046988,13.5614501 L3.01046988,13.5614501 Z M5.84891292,13.1600541 C5.84891292,12.8160004 5.76289949,12.5579601 5.59087264,12.328591 C5.41884579,12.127893 5.18947666,12.0132084 4.8740941,12.0132084 C4.70206725,12.0132084 4.55871154,12.0418795 4.41535583,12.0992218 C4.30067126,12.1565641 4.1859867,12.2425775 4.09997327,12.3572621 C4.01395985,12.4719467 3.92794642,12.5866312 3.89927528,12.7299869 C3.841933,12.8733426 3.81326185,13.0166984 3.81326185,13.1600541 L5.84891292,13.1600541 L5.84891292,13.1600541 Z"></path>
                    <path d="M8.63001367,15.0810206 C8.91672509,15.0810206 9.14609422,15.0523494 9.28944993,14.966336 C9.43280564,14.8803226 9.51881906,14.765638 9.51881906,14.5936112 C9.51881906,14.4215843 9.46147678,14.2782286 9.31812107,14.163544 C9.17476536,14.0488595 8.94539623,13.9341749 8.60134253,13.8194903 C8.45798682,13.762148 8.28595997,13.7048058 8.14260426,13.6187923 C7.99924855,13.5614501 7.88456398,13.4754366 7.76987942,13.3894232 C7.65519485,13.3034098 7.56918142,13.1887252 7.51183914,13.0740406 C7.45449686,12.9593561 7.42582572,12.7873292 7.42582572,12.6153024 C7.42582572,12.2425775 7.56918142,11.9558661 7.8272217,11.7551681 C8.08526198,11.5544701 8.45798682,11.4397856 8.91672509,11.4397856 C9.03140965,11.4397856 9.14609422,11.4397856 9.26077879,11.4684567 C9.37546336,11.4684567 9.49014792,11.4971278 9.57616135,11.525799 C9.66217477,11.5544701 9.77685934,11.5544701 9.83420162,11.5831413 C9.92021505,11.6118124 9.97755733,11.6118124 10.0062285,11.6404836 L9.86287277,12.2712487 C9.77685934,12.2425775 9.66217477,12.1852352 9.49014792,12.127893 C9.31812107,12.0705507 9.11742308,12.0705507 8.88805395,12.0705507 C8.68735595,12.0705507 8.5153291,12.0992218 8.34330225,12.1852352 C8.19994654,12.2712487 8.11393312,12.3859332 8.11393312,12.5579601 C8.11393312,12.6439735 8.14260426,12.7299869 8.1712754,12.7873292 C8.19994654,12.8446715 8.25728883,12.9306849 8.34330225,12.9593561 C8.40064454,13.0166984 8.5153291,13.0740406 8.60134253,13.1027118 C8.68735595,13.1313829 8.83071166,13.1887252 8.97406737,13.2460675 C9.17476536,13.3320809 9.34679221,13.3894232 9.49014792,13.4754366 C9.63350363,13.5327789 9.77685934,13.6187923 9.89154391,13.7334769 C10.0062285,13.8194903 10.0922419,13.9341749 10.1495842,14.0775306 C10.2069265,14.2208863 10.2355976,14.364242 10.2355976,14.56494 C10.2355976,14.9376649 10.0922419,15.2243763 9.80553048,15.4250743 C9.51881906,15.6257723 9.11742308,15.7117857 8.60134253,15.7117857 C8.22861768,15.7117857 7.94190627,15.6831145 7.74120827,15.6257723 C7.54051028,15.56843 7.39715457,15.5110877 7.31114115,15.4824165 L7.45449686,14.8516514 C7.54051028,14.8803226 7.68386599,14.9376649 7.85589284,14.9950071 C8.05659083,15.0523494 8.31463111,15.0810206 8.63001367,15.0810206"></path>
                    <path d="M14.8229803,13.5614501 C14.8229803,13.8768326 14.765638,14.1922152 14.6796246,14.4502554 C14.5936112,14.7082957 14.4502554,14.9376649 14.2782286,15.1383628 C14.1062017,15.3390608 13.9055038,15.4824165 13.6761346,15.56843 C13.4467655,15.6831145 13.1887252,15.7117857 12.9020138,15.7117857 C12.6153024,15.7117857 12.3572621,15.6544434 12.127893,15.56843 C11.8985238,15.4537454 11.6978258,15.3103897 11.525799,15.1383628 C11.3537721,14.9376649 11.2104164,14.7082957 11.124403,14.4502554 C11.0383896,14.1922152 10.9810473,13.9055038 10.9810473,13.5614501 C10.9810473,13.2460675 11.0383896,12.9593561 11.124403,12.6726447 C11.2104164,12.4146044 11.3537721,12.1852352 11.525799,11.9845373 C11.6978258,11.7838393 11.8985238,11.6404836 12.127893,11.5544701 C12.3572621,11.4397856 12.6153024,11.4111144 12.9020138,11.4111144 C13.1887252,11.4111144 13.4467655,11.4684567 13.6761346,11.5544701 C13.9055038,11.6691547 14.1062017,11.8125104 14.2782286,11.9845373 C14.4502554,12.1852352 14.5936112,12.4146044 14.6796246,12.6726447 C14.765638,12.9593561 14.8229803,13.2460675 14.8229803,13.5614501 M14.0488595,13.5614501 C14.0488595,13.1027118 13.9341749,12.7299869 13.7334769,12.4719467 C13.5327789,12.2139064 13.2460675,12.0705507 12.8733426,12.0705507 C12.5006178,12.0705507 12.2425775,12.2139064 12.0132084,12.4719467 C11.8125104,12.7299869 11.6978258,13.1027118 11.6978258,13.5614501 C11.6978258,14.0201883 11.8125104,14.3929132 12.0132084,14.6509534 C12.2139064,14.9089937 12.5006178,15.0523494 12.8733426,15.0523494 C13.2460675,15.0523494 13.5041078,14.9089937 13.7334769,14.6509534 C13.9341749,14.3929132 14.0488595,14.0201883 14.0488595,13.5614501"></path>
                    <path d="M19.1236516,15.5110877 C18.9516247,15.5397588 18.7222556,15.5971011 18.4642153,15.6544434 C18.1775039,15.7117857 17.8621213,15.7117857 17.5180676,15.7117857 C17.2026851,15.7117857 16.9446448,15.6544434 16.7152756,15.56843 C16.4859065,15.4824165 16.3138797,15.3390608 16.1991951,15.167034 C16.0558394,14.9950071 15.969826,14.7943091 15.9124837,14.56494 C15.8551414,14.3355709 15.8264703,14.0775306 15.8264703,13.7908192 L15.8264703,11.4971278 L16.5719199,11.4971278 L16.5719199,13.6474635 C16.5719199,14.1348729 16.6579334,14.5075977 16.8012891,14.7369669 C16.9733159,14.966336 17.2313562,15.0523494 17.604081,15.0523494 L17.8621213,15.0523494 C17.9481347,15.0523494 18.0341482,15.0523494 18.0914904,15.0236783 C18.1775039,15.0236783 18.2348462,14.9950071 18.2921884,14.9950071 C18.3495307,14.9950071 18.406873,14.966336 18.4355442,14.966336 L18.4355442,11.525799 L19.1809938,11.525799 L19.1809938,15.5110877 L19.1236516,15.5110877 Z"></path>
                    <path d="M21.9047523,11.4397856 L22.1341214,11.4397856 C22.2201349,11.4397856 22.3061483,11.4684567 22.3634906,11.4684567 C22.449504,11.4684567 22.5068463,11.4971278 22.5928597,11.4971278 C22.650202,11.4971278 22.7075443,11.525799 22.7362154,11.525799 L22.6215308,12.1565641 C22.5641886,12.127893 22.4781751,12.0992218 22.3348194,12.0705507 C22.1914637,12.0418795 22.0194369,12.0132084 21.8187389,12.0132084 C21.6753832,12.0132084 21.5320275,12.0132084 21.4173429,12.0705507 C21.2739872,12.0992218 21.1879738,12.127893 21.1593026,12.127893 L21.1593026,15.56843 L20.4138529,15.56843 L20.4138529,11.6978258 C20.5858798,11.6404836 20.8152489,11.5831413 21.0732892,11.525799 C21.3026583,11.4397856 21.5893697,11.4397856 21.9047523,11.4397856"></path>
                    <path d="M25.2306047,15.7117857 C24.886551,15.7117857 24.5998396,15.6544434 24.3704705,15.5397588 C24.1124302,15.4250743 23.9117322,15.2817186 23.7397054,15.1096917 C23.5676785,14.9089937 23.452994,14.7082957 23.3669805,14.4215843 C23.2809671,14.163544 23.252296,13.8768326 23.252296,13.5614501 C23.252296,13.2460675 23.3096382,12.9593561 23.3956517,12.7013158 C23.4816651,12.4432755 23.6250208,12.2139064 23.7970477,12.0132084 C23.9690745,11.8125104 24.1697725,11.6691547 24.4278128,11.5544701 C24.6858531,11.4397856 24.9438933,11.3824433 25.2592759,11.3824433 C25.4313027,11.3824433 25.6320007,11.4111144 25.8040276,11.4397856 C25.9760544,11.4684567 26.1767524,11.525799 26.3201081,11.5831413 L26.1480813,12.2139064 C26.0333967,12.1565641 25.9187122,12.127893 25.7753564,12.0992218 C25.6320007,12.0705507 25.488645,12.0418795 25.3166182,12.0418795 C24.9152222,12.0418795 24.5998396,12.1852352 24.3704705,12.4432755 C24.1411014,12.7013158 24.0550879,13.0740406 24.0550879,13.5614501 C24.0550879,13.7908192 24.0837591,13.9915172 24.1411014,14.163544 C24.1984436,14.3355709 24.2557859,14.5075977 24.3704705,14.6509534 C24.4851551,14.7943091 24.6285108,14.8803226 24.7718665,14.966336 C24.9438933,15.0236783 25.1445913,15.0810206 25.4026316,15.0810206 C25.6033296,15.0810206 25.7753564,15.0523494 25.9187122,15.0236783 C26.090739,14.9950071 26.2054236,14.9376649 26.291437,14.9089937 L26.4061216,15.5397588 C26.3774504,15.56843 26.291437,15.5971011 26.2340947,15.6257723 C26.1480813,15.6544434 26.0620679,15.6831145 25.9760544,15.6831145 C25.8613699,15.7117857 25.7753564,15.7117857 25.6606719,15.7404568 C25.4313027,15.7117857 25.3166182,15.7117857 25.2306047,15.7117857"></path>
                    <path d="M26.893531,13.5614501 C26.893531,13.1887252 26.9508733,12.8733426 27.0655578,12.6153024 C27.1802424,12.3572621 27.3235981,12.127893 27.4956249,11.927195 C27.6676518,11.7551681 27.8683498,11.6118124 28.0977189,11.525799 C28.3270881,11.4397856 28.5564572,11.3824433 28.7858263,11.3824433 C29.330578,11.3824433 29.7606451,11.5544701 30.0473566,11.8985238 C30.334068,12.2425775 30.4774237,12.7586581 30.4774237,13.4754366 L30.4774237,13.5901212 L30.4774237,13.7334769 L27.6676518,13.7334769 C27.6963229,14.163544 27.8110075,14.4789266 28.0403766,14.7082957 C28.2697458,14.9376649 28.5851283,15.0523494 29.0438666,15.0523494 C29.3019069,15.0523494 29.531276,15.0236783 29.7033029,14.9950071 C29.8753297,14.9376649 30.0186854,14.9089937 30.1046988,14.8516514 L30.2193834,15.4824165 C30.13337,15.5397588 29.9613431,15.56843 29.7606451,15.6257723 C29.531276,15.6831145 29.2732357,15.7117857 28.9865243,15.7117857 C28.6137995,15.7117857 28.3270881,15.6544434 28.0690478,15.5397588 C27.8110075,15.4250743 27.5816384,15.2817186 27.4382827,15.0810206 C27.2662558,14.8803226 27.1515712,14.6796246 27.0655578,14.3929132 C26.9222021,14.163544 26.893531,13.8768326 26.893531,13.5614501 L26.893531,13.5614501 Z M29.7033029,13.1600541 C29.7033029,12.8160004 29.6172894,12.5579601 29.4452626,12.328591 C29.2732357,12.127893 29.0438666,12.0132084 28.728484,12.0132084 C28.5564572,12.0132084 28.4131015,12.0418795 28.2697458,12.0992218 C28.1263901,12.1565641 28.0403766,12.2425775 27.9543632,12.3572621 C27.8683498,12.4719467 27.7823364,12.5866312 27.7536652,12.7299869 C27.6963229,12.8733426 27.6676518,13.0166984 27.6676518,13.1600541 L29.7033029,13.1600541 L29.7033029,13.1600541 Z"></path>
                    <path d="M33.1151687,13.5614501 C33.1151687,13.1887252 33.172511,12.8733426 33.2871956,12.6153024 C33.4018801,12.3572621 33.5452359,12.127893 33.7172627,11.927195 C33.8892896,11.7551681 34.0899876,11.6118124 34.3193567,11.525799 C34.5487258,11.4397856 34.778095,11.3824433 35.0074641,11.3824433 C35.5522158,11.3824433 35.9822829,11.5544701 36.2689943,11.8985238 C36.5557057,12.2425775 36.6990615,12.7586581 36.6990615,13.4754366 L36.6990615,13.5901212 L36.6990615,13.7334769 L33.8892896,13.7334769 C33.9179607,14.163544 34.0326453,14.4789266 34.2620144,14.7082957 C34.4913835,14.9376649 34.8067661,15.0523494 35.2655044,15.0523494 C35.5235446,15.0523494 35.7529138,15.0236783 35.9249406,14.9950071 C36.0969675,14.9376649 36.2403232,14.9089937 36.3263366,14.8516514 L36.4410212,15.4824165 C36.3550078,15.5397588 36.1829809,15.56843 35.9822829,15.6257723 C35.7529138,15.6831145 35.4948735,15.7117857 35.2081621,15.7117857 C34.8354372,15.7117857 34.5487258,15.6544434 34.2906855,15.5397588 C34.0326453,15.4250743 33.8032761,15.2817186 33.6599204,15.0810206 C33.4878936,14.8803226 33.373209,14.6796246 33.2871956,14.3929132 C33.172511,14.163544 33.1151687,13.8768326 33.1151687,13.5614501 L33.1151687,13.5614501 Z M35.9536118,13.1600541 C35.9536118,12.8160004 35.8675983,12.5579601 35.6955715,12.328591 C35.5235446,12.127893 35.2941755,12.0132084 34.9787929,12.0132084 C34.8067661,12.0132084 34.6634104,12.0418795 34.5200547,12.0992218 C34.4053701,12.1565641 34.2906855,12.2425775 34.2046721,12.3572621 C34.1186587,12.4719467 34.0326453,12.5866312 34.0039741,12.7299869 C33.9466318,12.8733426 33.9179607,13.0166984 33.9179607,13.1600541 L35.9536118,13.1600541 L35.9536118,13.1600541 Z"></path>
                    <path d="M40.2256119,15.6257723 C40.1682696,15.5110877 40.0822562,15.367732 40.0249139,15.2243763 C39.9389005,15.0810206 39.852887,14.9376649 39.7382025,14.7943091 C39.6521891,14.6509534 39.5375045,14.5075977 39.4228199,14.3355709 C39.3081354,14.1922152 39.2221219,14.0488595 39.1074374,13.9055038 C39.0214239,14.0488595 38.9067394,14.1922152 38.7920548,14.3355709 C38.6773702,14.4789266 38.5913568,14.6222823 38.4766722,14.7943091 C38.3906588,14.9376649 38.2759742,15.0810206 38.1899608,15.2243763 C38.1039474,15.367732 38.0466051,15.4824165 37.9892628,15.5971011 L37.2724843,15.5971011 C37.4445111,15.2530474 37.6738803,14.8803226 37.9319205,14.5075977 C38.1899608,14.1348729 38.4480011,13.7908192 38.7060414,13.4467655 L37.3584977,11.4971278 L38.1899608,11.4971278 L39.1647796,12.9306849 L40.1395985,11.4971278 L40.9137193,11.4971278 L39.5948468,13.3894232 C39.852887,13.7334769 40.1109273,14.1062017 40.3689676,14.4789266 C40.6270079,14.8516514 40.856377,15.2243763 41.057075,15.5971011 L40.2256119,15.5971011 L40.2256119,15.6257723 Z"></path>
                    <path d="M43.4367798,15.7117857 C43.0927261,15.7117857 42.8060146,15.6544434 42.5766455,15.5397588 C42.3186052,15.4250743 42.1179072,15.2817186 41.9458804,15.1096917 C41.7738535,14.9089937 41.659169,14.7082957 41.5731556,14.4215843 C41.4871421,14.163544 41.458471,13.8768326 41.458471,13.5614501 C41.458471,13.2460675 41.5158133,12.9593561 41.6018267,12.7013158 C41.6878401,12.4432755 41.8311958,12.2139064 42.0032227,12.0132084 C42.1752495,11.8125104 42.3759475,11.6691547 42.6339878,11.5544701 C42.8920281,11.4397856 43.1500683,11.3824433 43.4654509,11.3824433 C43.6374778,11.3824433 43.8381757,11.4111144 44.0102026,11.4397856 C44.1822295,11.4684567 44.3829274,11.525799 44.5262832,11.5831413 L44.3542563,12.2139064 C44.2395717,12.1565641 44.1248872,12.127893 43.9815315,12.0992218 C43.8381757,12.0705507 43.69482,12.0418795 43.5227932,12.0418795 C43.1213972,12.0418795 42.8060146,12.1852352 42.5766455,12.4432755 C42.3472764,12.7013158 42.261263,13.0740406 42.261263,13.5614501 C42.261263,13.7908192 42.2899341,13.9915172 42.3472764,14.163544 C42.4046187,14.3355709 42.4906321,14.5075977 42.5766455,14.6509534 C42.6913301,14.7943091 42.8346858,14.8803226 42.9780415,14.966336 C43.1500683,15.0236783 43.3507663,15.0810206 43.6088066,15.0810206 C43.8095046,15.0810206 43.9815315,15.0523494 44.1248872,15.0236783 C44.296914,14.9950071 44.4115986,14.9376649 44.497612,14.9089937 L44.6122966,15.5397588 C44.5836254,15.56843 44.497612,15.5971011 44.4402697,15.6257723 C44.3542563,15.6544434 44.2682429,15.6831145 44.1822295,15.6831145 C44.0675449,15.7117857 43.9815315,15.7117857 43.8668469,15.7404568 C43.6374778,15.7117857 43.5227932,15.7117857 43.4367798,15.7117857"></path>
                    <path d="M45.3290751,15.6257723 L45.3290751,9.60483249 L46.0745248,9.49014792 L46.0745248,11.5831413 C46.2178805,11.525799 46.3612362,11.4971278 46.5045919,11.4684567 C46.6479476,11.4397856 46.8199745,11.4111144 46.9633302,11.4111144 C47.2787128,11.4111144 47.5654242,11.4684567 47.7661222,11.5544701 C47.9954913,11.6404836 48.1675182,11.7838393 48.2822027,11.9558661 C48.4255584,12.127893 48.5115719,12.328591 48.5689141,12.5579601 C48.6262564,12.7873292 48.6549276,13.0453695 48.6549276,13.3320809 L48.6549276,15.6257723 L47.9094779,15.6257723 L47.9094779,13.4754366 C47.9094779,13.2173964 47.8808067,13.0166984 47.8521356,12.8160004 C47.8234645,12.6439735 47.7661222,12.5006178 47.6801087,12.3859332 C47.5940953,12.2712487 47.5080819,12.1852352 47.3647262,12.1565641 C47.2213705,12.0992218 47.0780148,12.0705507 46.8773168,12.0705507 C46.7913034,12.0705507 46.7052899,12.0705507 46.6192765,12.0992218 C46.5332631,12.0992218 46.4472496,12.127893 46.3899074,12.127893 C46.3038939,12.127893 46.2465517,12.1565641 46.1892094,12.1852352 C46.1318671,12.2139064 46.0745248,12.2139064 46.0458537,12.2139064 L46.0458537,15.6257723 L45.3290751,15.6257723 L45.3290751,15.6257723 Z"></path>
                    <path d="M51.1493169,11.4111144 C51.4360283,11.4111144 51.6940686,11.4397856 51.8947666,11.525799 C52.0954646,11.6118124 52.2674914,11.6978258 52.382176,11.8411815 C52.4968606,11.9845373 52.582874,12.1565641 52.6402163,12.328591 C52.6975586,12.5292889 52.7262297,12.7299869 52.7262297,12.9593561 L52.7262297,15.5397588 C52.6688874,15.5397588 52.582874,15.56843 52.4681894,15.5971011 C52.3535049,15.6257723 52.2388203,15.6257723 52.0954646,15.6544434 C51.9521089,15.6831145 51.8087532,15.6831145 51.6367263,15.7117857 C51.4646995,15.7117857 51.2926726,15.7404568 51.1493169,15.7404568 C50.9199478,15.7404568 50.6905786,15.7117857 50.5185518,15.6831145 C50.3178538,15.6257723 50.1458269,15.56843 50.0024712,15.4537454 C49.8591155,15.3390608 49.744431,15.2243763 49.6584175,15.0523494 C49.5724041,14.8803226 49.543733,14.6796246 49.543733,14.4502554 C49.543733,14.2208863 49.6010752,14.0201883 49.6870887,13.8768326 C49.7731021,13.7048058 49.9164578,13.5901212 50.0598135,13.4754366 C50.2318404,13.3894232 50.4038672,13.3034098 50.6045652,13.2460675 C50.8052632,13.1887252 51.0346323,13.1887252 51.2640015,13.1887252 L51.4933706,13.1887252 C51.579384,13.1887252 51.6367263,13.2173964 51.7227397,13.2173964 C51.780082,13.2173964 51.8660954,13.2460675 51.8947666,13.2460675 C51.9521089,13.2460675 51.98078,13.2747386 52.0094512,13.2747386 L52.0094512,13.0740406 C52.0094512,12.9593561 52.0094512,12.8446715 51.98078,12.7013158 C51.9521089,12.5866312 51.8947666,12.4719467 51.8374243,12.3859332 C51.780082,12.2999198 51.6653974,12.2139064 51.5507129,12.1565641 C51.4360283,12.0992218 51.2640015,12.0705507 51.0919746,12.0705507 C50.8626055,12.0705507 50.6332363,12.0992218 50.4612095,12.127893 C50.2891826,12.1565641 50.1458269,12.1852352 50.0598135,12.2425775 L49.9738001,11.6404836 C50.0598135,11.6118124 50.2318404,11.5544701 50.4612095,11.525799 C50.6619075,11.4397856 50.8912766,11.4111144 51.1493169,11.4111144 M51.2353303,15.0810206 L51.6940686,15.0810206 C51.8374243,15.0810206 51.9521089,15.0523494 52.0381223,15.0236783 L52.0381223,13.7908192 C51.98078,13.762148 51.8947666,13.7334769 51.780082,13.7334769 C51.6653974,13.7048058 51.5220417,13.7048058 51.3500149,13.7048058 C51.2353303,13.7048058 51.1206458,13.7048058 51.0059612,13.7334769 C50.8912766,13.762148 50.7765921,13.7908192 50.6619075,13.8194903 C50.5472229,13.8768326 50.4612095,13.9341749 50.4038672,14.0201883 C50.3465249,14.1062017 50.2891826,14.2208863 50.2891826,14.364242 C50.2891826,14.6222823 50.3751961,14.8229803 50.5472229,14.9089937 C50.6905786,15.0523494 50.9199478,15.0810206 51.2353303,15.0810206"></path>
                    <path d="M53.9590888,11.6404836 C54.1311156,11.6118124 54.3604848,11.5544701 54.6185251,11.4971278 C54.9052365,11.4397856 55.220619,11.4397856 55.5933439,11.4397856 C55.9087264,11.4397856 56.1954378,11.4971278 56.3961358,11.5831413 C56.625505,11.6691547 56.7975318,11.8125104 56.9122164,11.9845373 C57.026901,12.1565641 57.1415855,12.3572621 57.1989278,12.5866312 C57.2562701,12.8160004 57.2849412,13.0740406 57.2849412,13.3607521 L57.2849412,15.6544434 L56.5394915,15.6544434 L56.5394915,13.4754366 C56.5394915,13.2173964 56.5108204,13.0166984 56.4821493,12.8160004 C56.4534781,12.6439735 56.3961358,12.5006178 56.3101224,12.3859332 C56.224109,12.2712487 56.1380956,12.1852352 55.9947399,12.1565641 C55.8513841,12.0992218 55.7080284,12.0705507 55.5073304,12.0705507 L55.2492902,12.0705507 C55.1632767,12.0705507 55.0772633,12.0705507 55.019921,12.0992218 C54.9339076,12.0992218 54.8765653,12.127893 54.819223,12.127893 C54.7618808,12.127893 54.7045385,12.1565641 54.6758673,12.1565641 L54.6758673,15.6257723 L53.9304176,15.6257723 L53.9304176,11.6404836 L53.9590888,11.6404836 Z"></path>
                    <path d="M61.0695319,15.2243763 C61.0121897,15.2530474 60.8975051,15.3103897 60.6968071,15.3964031 C60.5247803,15.4537454 60.2954111,15.4824165 60.066042,15.4824165 C59.8080017,15.4824165 59.5786326,15.4537454 59.3779346,15.367732 C59.1485654,15.2817186 58.9765386,15.167034 58.8045117,14.9950071 C58.6324849,14.8229803 58.5178003,14.6222823 58.4031158,14.364242 C58.3171023,14.1062017 58.2597601,13.8194903 58.2597601,13.4754366 C58.2597601,13.1887252 58.3171023,12.9020138 58.4031158,12.6439735 C58.4891292,12.3859332 58.6324849,12.1852352 58.8045117,11.9845373 C58.9765386,11.8125104 59.1772366,11.6691547 59.4352769,11.5544701 C59.6933171,11.4397856 59.9513574,11.4111144 60.26674,11.4111144 C60.6107937,11.4111144 60.8975051,11.4397856 61.1555454,11.4971278 C61.4135856,11.5544701 61.6142836,11.5831413 61.7863105,11.6404836 L61.7863105,15.3103897 C61.7863105,15.9411548 61.6142836,16.3998931 61.2989011,16.6866045 C60.9835185,16.9733159 60.467438,17.1166716 59.8080017,17.1166716 C59.5499614,17.1166716 59.2919212,17.0880005 59.062552,17.0593293 C58.8331829,17.0306582 58.6324849,16.9733159 58.460458,16.9159736 L58.6038138,16.2852085 C58.7471695,16.3425508 58.9191963,16.3998931 59.1485654,16.4285642 C59.3492634,16.4859065 59.5786326,16.4859065 59.8080017,16.4859065 C60.2380688,16.4859065 60.5534514,16.3998931 60.7541494,16.2278662 C60.9548474,16.0558394 61.0408608,15.769128 61.0408608,15.3964031 L61.0408608,15.2243763 L61.0695319,15.2243763 Z M61.0695319,12.1565641 C60.9835185,12.127893 60.8975051,12.127893 60.7828205,12.0992218 C60.668136,12.0705507 60.4961091,12.0705507 60.26674,12.0705507 C59.865344,12.0705507 59.5786326,12.2139064 59.3492634,12.4719467 C59.1485654,12.7299869 59.0338809,13.0740406 59.0338809,13.5041078 C59.0338809,13.7334769 59.062552,13.9341749 59.1198943,14.1062017 C59.1772366,14.2782286 59.26325,14.4215843 59.3779346,14.5362689 C59.4926191,14.6509534 59.6073037,14.7369669 59.7219883,14.7943091 C59.865344,14.8516514 60.0086997,14.8803226 60.1233843,14.8803226 C60.3240823,14.8803226 60.4961091,14.8516514 60.668136,14.7943091 C60.8401628,14.7369669 60.9548474,14.6796246 61.0408608,14.5936112 L61.0408608,12.1565641 L61.0695319,12.1565641 Z"></path>
                    <path d="M62.8184716,13.5614501 C62.8184716,13.1887252 62.8758139,12.8733426 62.9904984,12.6153024 C63.105183,12.3572621 63.2485387,12.127893 63.4205656,11.927195 C63.5925924,11.7551681 63.7932904,11.6118124 64.0226595,11.525799 C64.2520287,11.4397856 64.4813978,11.3824433 64.7107669,11.3824433 C65.2555186,11.3824433 65.6855858,11.5544701 65.9722972,11.8985238 C66.2590086,12.2425775 66.4023643,12.7586581 66.4023643,13.4754366 L66.4023643,13.5901212 L66.4023643,13.7334769 L63.5925924,13.7334769 C63.6212636,14.163544 63.7359481,14.4789266 63.9653173,14.7082957 C64.1946864,14.9376649 64.510069,15.0523494 64.9688072,15.0523494 C65.2268475,15.0523494 65.4562166,15.0236783 65.6282435,14.9950071 C65.8002703,14.9376649 65.943626,14.9089937 66.0296395,14.8516514 L66.144324,15.4824165 C66.0583106,15.5397588 65.8862838,15.56843 65.6855858,15.6257723 C65.4562166,15.6831145 65.1981764,15.7117857 64.9114649,15.7117857 C64.5387401,15.7117857 64.2520287,15.6544434 63.9939884,15.5397588 C63.7359481,15.4250743 63.506579,15.2817186 63.3632233,15.0810206 C63.1911964,14.8803226 63.0765119,14.6796246 62.9904984,14.3929132 C62.8758139,14.163544 62.8184716,13.8768326 62.8184716,13.5614501 L62.8184716,13.5614501 Z M65.6569146,13.1600541 C65.6569146,12.8160004 65.5709012,12.5579601 65.3988744,12.328591 C65.2268475,12.127893 64.9974784,12.0132084 64.6820958,12.0132084 C64.510069,12.0132084 64.3667132,12.0418795 64.2233575,12.0992218 C64.0800018,12.1565641 63.9939884,12.2425775 63.907975,12.3572621 C63.8219616,12.4719467 63.7359481,12.5866312 63.707277,12.7299869 C63.6499347,12.8733426 63.6212636,13.0166984 63.6212636,13.1600541 L65.6569146,13.1600541 L65.6569146,13.1600541 Z"></path>
                </g>
                <path d="M35.0361352,0.114684567 C31.13686,0.114684567 28.0690478,3.18249674 28.0690478,7.08177201 L28.0690478,20.4998664 L31.8823096,20.4998664 L31.8823096,12.5006178 L38.218632,12.5006178 L38.218632,20.4998664 L42.0318938,20.4998664 L42.0318938,7.08177201 C42.0032227,2.78110075 39.3368065,0.114684567 35.0361352,0.114684567 L35.0361352,0.114684567 Z M31.8823096,8.68735595 L31.8823096,7.08177201 C31.8823096,5.01744981 33.5165647,3.72724843 35.0361352,3.72724843 C37.6452091,3.72724843 38.1899608,5.5622015 38.1899608,7.08177201 L38.1899608,8.68735595 L31.8823096,8.68735595 L31.8823096,8.68735595 Z" id="Shape"></path>
                <path d="M24.1411014,20.4998664 L20.3565106,20.4998664 L20.3565106,7.08177201 C20.3565106,5.53353036 19.811759,3.72724843 17.2026851,3.72724843 C15.6831145,3.72724843 14.0488595,5.01744981 14.0488595,7.08177201 L14.0488595,20.4998664 L10.2355976,20.4998664 L10.2355976,7.08177201 C10.2355976,5.53353036 9.69084591,3.72724843 7.08177201,3.72724843 C5.5622015,3.72724843 3.92794642,5.01744981 3.92794642,7.08177201 L3.92794642,20.4998664 L0.114684567,20.4998664 L0.114684567,7.08177201 C0.114684567,3.18249674 3.18249674,0.114684567 7.08177201,0.114684567 C9.26077879,0.114684567 11.0383896,0.802791969 12.2712487,2.12166449 C13.5614501,0.831463111 15.3103897,0.114684567 17.2026851,0.114684567 C21.5033563,0.114684567 24.1697725,2.78110075 24.1697725,7.08177201 L24.1697725,20.4998664 L24.1411014,20.4998664 Z" id="Shape"></path>
                <path d="M61.1268742,7.08177201 C61.1268742,2.2650202 57.5429815,0.0573422835 54.2171291,0.0573422835 C53.5003505,0.0573422835 50.97729,0.200697992 48.9989813,2.23634906 C47.4220685,3.841933 46.6192765,6.13562434 46.6766188,9.03140965 L46.6766188,13.7048058 L46.6766188,13.7048058 L46.6766188,20.4711952 L50.4612095,20.4711952 L50.4612095,14.765638 L50.5185518,14.765638 C51.8374243,14.6796246 53.0129411,14.5075977 54.0737734,14.2495575 L56.9408875,20.4711952 L61.1268742,20.4711952 L57.6576661,12.9306849 C59.9513574,11.6404836 61.1268742,9.69084591 61.1268742,7.08177201 M50.4612095,11.0097184 L50.4612095,8.80204052 C50.4612095,7.02442973 50.8912766,5.70555721 51.7227397,4.84542296 C52.6975586,3.841933 54.0164311,3.78459071 54.2458002,3.78459071 L54.3031425,3.78459071 C56.0807533,3.78459071 57.4282969,5.04612095 57.4282969,6.73771831 C57.4282969,8.02791969 56.7115184,9.17476536 55.5933439,9.7481882 C54.3891559,10.4076245 52.6688874,10.8376916 50.4612095,11.0097184" id="Shape"></path>
                <path d="M71.7638678,3.81326185 L76.7813176,3.841933 L76.7813176,0.0573422835 L71.7065255,0.0573422835 C70.989747,0.0573422835 68.4666865,0.200697992 66.4883777,2.23634906 C64.9114649,3.841933 64.108673,6.13562434 64.1660153,9.03140965 L64.1660153,11.525799 C64.1373441,14.4215843 64.9114649,16.7152756 66.4883777,18.3208596 C68.4666865,20.3278395 70.989747,20.4998664 71.7065255,20.4998664 L76.7813176,20.4998664 L76.7813176,16.7439468 L71.7638678,16.7726179 C71.5058275,16.7726179 70.2156262,16.7152756 69.2408073,15.7117857 C68.4666865,14.9376649 68.0652905,13.7334769 68.0079483,12.127893 L73.5701498,12.127893 L73.5701498,8.48665796 L68.0079483,8.48665796 C68.0652905,6.88107402 68.4666865,5.64821493 69.2408073,4.8740941 C70.2156262,3.841933 71.5344987,3.81326185 71.7638678,3.81326185" id="Shape"></path>
            </g>
        </g>
    </g>
</svg>