<?xml version="1.0" encoding="UTF-8"?>
<svg width="110px" height="43px" viewBox="0 0 110 43" version="1.1" xmlns="http://www.w3.org/2000/svg" xmlns:xlink="http://www.w3.org/1999/xlink">
    <!-- Generator: Sketch 43.1 (39012) - http://www.bohemiancoding.com/sketch -->
    <title>Group</title>
    <desc>Created with Sketch.</desc>
    <defs></defs>
    <g id="Page-1" stroke="none" stroke-width="1" fill="none" fill-rule="evenodd">
        <g id="Group" fill="#FFFFFF">
            <path d="M14.135,32.972 C12.587,33 12.73,42.433 12.73,42.433 C12.73,42.462 12.701,42.491 12.701,42.519 L15.511,42.519 C15.511,42.491 15.482,42.462 15.482,42.433 C15.54,42.433 15.683,33 14.135,32.972" id="Shape"></path>
            <path d="M19.038,26.377 C24.428,25.977 27.639,21.733 27.639,16.056 C27.639,12.931 25.059,10.408 21.876,10.408 L16.286,10.408 C13.906,10.408 11.899,10.952 11.01,12.931 C11.583,10.838 13.303,9.203 15.482,8.659 C14.7497834,8.33841932 13.9593194,8.17229252 13.16,8.171 L6.02,8.171 C2.696,8.171 0,10.895 0,14.25 C0,20.557 3.527,26.177 9.404,26.349 L7.971,26.349 C6.336,26.349 5.247,26.492 3.613,26.263 L4.587,41.2 C4.617,41.917 5.161,42.462 5.792,42.462 L11.182,42.462 C11.182,42.433 11.153,42.405 11.153,42.376 C11.153,42.376 9.748,36.126 9.748,31.166 C9.748,29.416 9.92,27.524 10.035,26.435 C10.039528,26.282235 9.97662302,26.1352129 9.863,26.033 C6.795,24.342 4.645,20.758 4.645,16.629 C4.645,16.171 4.989,15.798 5.448,15.798 C5.878,15.798 6.25,16.171 6.25,16.629 C6.308,20.557 9.806,23.826 14.135,23.826 C18.465,23.826 21.991,20.557 22.048,16.629 C22.048,16.171 22.392,15.798 22.851,15.798 C23.281,15.798 23.654,16.171 23.654,16.629 C23.654,20.787 21.532,24.37 18.436,26.119 C18.321,26.205 18.264,26.349 18.264,26.521 C18.378,27.611 18.55,29.503 18.55,31.251 C18.55,36.211 17.145,42.462 17.145,42.462 C17.145,42.491 17.117,42.519 17.117,42.548 L22.507,42.548 C23.137,42.548 23.682,41.975 23.711,41.286 L24.743,25.804 C22.88,26.464 21.503,26.377 19.41,26.377 L19.038,26.377 L19.038,26.377 Z M14.135,22.507 C12.7572782,22.5064481 11.6405519,21.3897218 11.64,20.012 C11.6411035,18.6346687 12.7576684,17.5185514 14.135,17.518 C15.5119411,17.5191029 16.6278971,18.6350589 16.629,20.012 C16.633562,20.6749295 16.3722995,21.3120444 15.9036205,21.7809114 C15.4349414,22.2497784 14.7979313,22.5112962 14.135,22.507 L14.135,22.507 Z M8.057,6.938 C8.97752444,6.93959629 9.86080594,6.57462604 10.511716,5.92371599 C11.162626,5.27280594 11.5275963,4.38952444 11.526,3.469 C11.5275971,2.54830195 11.1624897,1.66486825 10.5113631,1.01392927 C9.86023644,0.362990277 8.97669756,-0.00186245828 8.056,-1.83597779e-15 C7.13530195,-0.00159708926 6.25186825,0.36351029 5.60092927,1.01463692 C4.94999028,1.66576356 4.58513754,2.54930244 4.587,3.47 C4.58566903,4.39052491 4.95089389,5.27370122 5.60199158,5.92442365 C6.25308928,6.57514607 7.13647601,6.93986168 8.057,6.938 L8.057,6.938 Z M19.754,8.257 C21.4786833,8.2537003 22.8761485,6.85668218 22.88,5.132 C22.88,3.383 21.475,1.978 19.754,1.978 C18.0145362,1.98349242 16.6059408,3.39253459 16.601,5.132 C16.601,6.852 18.005,8.257 19.754,8.257 L19.754,8.257 Z M67.721,14.737 C63.822,14.737 60.754,17.805 60.754,21.704 L60.754,35.122 L64.567,35.122 L64.567,27.122 L70.904,27.122 L70.904,35.122 L74.717,35.122 L74.717,21.704 C74.688,17.404 72.022,14.737 67.721,14.737 L67.721,14.737 Z M64.567,23.31 L64.567,21.704 C64.567,19.64 66.202,18.35 67.721,18.35 C70.331,18.35 70.875,20.184 70.875,21.704 L70.875,23.31 L64.567,23.31 Z M56.826,35.122 L53.042,35.122 L53.042,21.704 C53.042,20.156 52.497,18.35 49.888,18.35 C48.368,18.35 46.734,19.64 46.734,21.704 L46.734,35.122 L42.921,35.122 L42.921,21.704 C42.921,20.156 42.376,18.35 39.767,18.35 C38.247,18.35 36.613,19.64 36.613,21.704 L36.613,35.122 L32.8,35.122 L32.8,21.704 C32.8,17.804 35.868,14.737 39.767,14.737 C41.946,14.737 43.723,15.425 44.957,16.744 C46.247,15.454 47.995,14.737 49.887,14.737 C54.188,14.737 56.855,17.403 56.855,21.704 L56.855,35.122 L56.826,35.122 L56.826,35.122 Z M93.812,21.704 C93.812,16.887 90.228,14.68 86.902,14.68 C86.185,14.68 83.662,14.823 81.684,16.859 C80.107,18.464 79.304,20.758 79.362,23.654 L79.362,35.093 L83.146,35.093 L83.146,29.388 L83.204,29.388 C84.523,29.302 85.698,29.13 86.759,28.872 L89.626,35.093 L93.812,35.093 L90.342,27.553 C92.636,26.263 93.812,24.313 93.812,21.704 L93.812,21.704 Z M83.146,25.632 L83.146,23.424 C83.146,21.647 83.576,20.328 84.408,19.468 C85.383,18.464 86.702,18.407 86.931,18.407 L86.988,18.407 C88.766,18.407 90.113,19.668 90.113,21.36 C90.1167198,22.6287657 89.407515,23.7920934 88.278,24.37 C87.074,25.03 85.354,25.46 83.146,25.632 L83.146,25.632 Z M104.449,18.436 L109.466,18.464 L109.466,14.68 L104.392,14.68 C103.675,14.68 101.152,14.823 99.173,16.859 C97.597,18.464 96.793,20.758 96.851,23.654 L96.851,26.148 C96.822,29.044 97.597,31.338 99.173,32.943 C101.152,34.95 103.675,35.123 104.392,35.123 L109.466,35.123 L109.466,31.366 L104.449,31.395 C104.191,31.395 102.901,31.338 101.926,30.335 C101.152,29.56 100.75,28.355 100.693,26.75 L106.255,26.75 L106.255,23.11 L100.693,23.11 C100.75,21.504 101.152,20.271 101.926,19.497 C102.901,18.465 104.22,18.437 104.449,18.437 L104.449,18.436 Z" id="Shape"></path>
        </g>
    </g>
</svg>