<?xml version="1.0" encoding="UTF-8" standalone="no"?>
<svg width="100px" height="50px" viewBox="0 0 100 50" version="1.1" xmlns="http://www.w3.org/2000/svg" xmlns:xlink="http://www.w3.org/1999/xlink">
    <!-- Generator: Sketch 39.1 (31720) - http://www.bohemiancoding.com/sketch -->
    <title>mare-logo-vertical</title>
    <desc>Created with Sketch.</desc>
    <defs></defs>
    <g id="Page-1" stroke="none" stroke-width="1" fill="none" fill-rule="evenodd">
        <g id="mare-logo-vertical" fill="#FFFFFF">
            <path d="M27.7831325,36.4819277 C27.9277108,36.4578313 28.1204819,36.4096386 28.3373494,36.3614458 C28.5783133,36.313253 28.8433735,36.313253 29.1325301,36.313253 C29.3493976,36.313253 29.5421687,36.3373494 29.686747,36.4096386 C29.8313253,36.4578313 29.9518072,36.5542169 30.0722892,36.6746988 C30.0963855,36.6506024 30.1445783,36.626506 30.2168675,36.5783133 C30.2891566,36.5301205 30.3614458,36.5060241 30.4578313,36.4578313 C30.5542169,36.4096386 30.6746988,36.3855422 30.7951807,36.3614458 C30.9156627,36.3373494 31.0361446,36.313253 31.1807229,36.313253 C31.4457831,36.313253 31.6626506,36.3614458 31.8313253,36.4337349 C32,36.5060241 32.1204819,36.626506 32.2168675,36.7710843 C32.313253,36.9156627 32.3855422,37.0843373 32.4096386,37.2771084 C32.4337349,37.4698795 32.4578313,37.686747 32.4578313,37.9036145 L32.4578313,39.8313253 L31.8313253,39.8313253 L31.8313253,38.0240964 C31.8313253,37.8313253 31.8313253,37.6385542 31.8072289,37.4939759 C31.7831325,37.3493976 31.7590361,37.2289157 31.686747,37.1325301 C31.6385542,37.0361446 31.5662651,36.9638554 31.4698795,36.9156627 C31.373494,36.8674699 31.253012,36.8433735 31.1084337,36.8433735 C30.8915663,36.8433735 30.7228916,36.8674699 30.6024096,36.9156627 C30.4578313,36.9638554 30.3855422,37.0120482 30.3373494,37.060241 C30.3614458,37.1807229 30.4096386,37.3012048 30.4096386,37.4457831 C30.4337349,37.5903614 30.4337349,37.7349398 30.4337349,37.8795181 L30.4337349,39.8072289 L29.8072289,39.8072289 L29.8072289,38 C29.8072289,37.8072289 29.8072289,37.6144578 29.7831325,37.4698795 C29.7590361,37.3253012 29.7108434,37.2048193 29.6626506,37.1084337 C29.6144578,37.0120482 29.5421687,36.939759 29.4457831,36.8915663 C29.3493976,36.8433735 29.2289157,36.8192771 29.0843373,36.8192771 L28.8915663,36.8192771 C28.8192771,36.8192771 28.746988,36.8192771 28.6987952,36.8433735 C28.626506,36.8433735 28.5783133,36.8674699 28.5301205,36.8674699 C28.4819277,36.8674699 28.4337349,36.8915663 28.4337349,36.8915663 L28.4337349,39.8072289 L27.8072289,39.8072289 L27.8072289,36.4819277 L27.7831325,36.4819277 Z" id="Shape"></path>
            <path d="M34.6024096,36.2891566 C34.8433735,36.2891566 35.060241,36.313253 35.2289157,36.3855422 C35.3975904,36.4578313 35.5421687,36.5301205 35.6385542,36.6506024 C35.7349398,36.7710843 35.8072289,36.9156627 35.8554217,37.060241 C35.9036145,37.2289157 35.9277108,37.3975904 35.9277108,37.5903614 L35.9277108,39.7590361 C35.8795181,39.7590361 35.8072289,39.7831325 35.7108434,39.8072289 C35.6144578,39.8313253 35.5180723,39.8313253 35.3975904,39.8554217 C35.2771084,39.8795181 35.1566265,39.8795181 35.0120482,39.9036145 C34.8674699,39.9036145 34.7228916,39.9277108 34.6024096,39.9277108 C34.4096386,39.9277108 34.2168675,39.9036145 34.0722892,39.8795181 C33.9036145,39.8313253 33.7590361,39.7831325 33.6385542,39.686747 C33.5180723,39.5903614 33.4216867,39.4939759 33.3493976,39.3493976 C33.2771084,39.2048193 33.253012,39.0361446 33.253012,38.8433735 C33.253012,38.6506024 33.3012048,38.4819277 33.373494,38.3614458 C33.4457831,38.2168675 33.5662651,38.1204819 33.686747,38.0240964 C33.8313253,37.9518072 33.9759036,37.8795181 34.1445783,37.8313253 C34.313253,37.7831325 34.5060241,37.7831325 34.6987952,37.7831325 L34.8915663,37.7831325 C34.9638554,37.7831325 35.0120482,37.8072289 35.0843373,37.8072289 C35.1325301,37.8072289 35.2048193,37.8313253 35.2289157,37.8313253 C35.2771084,37.8313253 35.3012048,37.8554217 35.3253012,37.8554217 L35.3253012,37.686747 C35.3253012,37.5903614 35.3253012,37.4939759 35.3012048,37.373494 C35.2771084,37.2771084 35.2289157,37.1807229 35.1807229,37.1084337 C35.1325301,37.0361446 35.0361446,36.9638554 34.939759,36.9156627 C34.8433735,36.8674699 34.6987952,36.8433735 34.5542169,36.8433735 C34.3614458,36.8433735 34.1686747,36.8674699 34.0240964,36.8915663 C33.8795181,36.9156627 33.7590361,36.939759 33.686747,36.9879518 L33.6144578,36.4819277 C33.686747,36.4578313 33.8313253,36.4096386 34.0240964,36.3855422 C34.1927711,36.313253 34.3855422,36.2891566 34.6024096,36.2891566 M34.6506024,39.3975904 L35.0361446,39.3975904 C35.1566265,39.3975904 35.253012,39.373494 35.3253012,39.3493976 L35.3253012,38.313253 C35.2771084,38.2891566 35.2048193,38.2650602 35.1084337,38.2650602 C35.0120482,38.2409639 34.8915663,38.2409639 34.746988,38.2409639 C34.6506024,38.2409639 34.5542169,38.2409639 34.4578313,38.2650602 C34.3614458,38.2891566 34.2650602,38.313253 34.1686747,38.3373494 C34.0722892,38.3855422 34,38.4337349 33.9518072,38.5060241 C33.9036145,38.5783133 33.8554217,38.6746988 33.8554217,38.7951807 C33.8554217,39.0120482 33.9277108,39.1807229 34.0722892,39.253012 C34.2168675,39.3493976 34.4096386,39.3975904 34.6506024,39.3975904" id="Shape"></path>
            <path d="M37.7590361,39.3975904 C38,39.3975904 38.1927711,39.373494 38.313253,39.3012048 C38.4337349,39.2289157 38.5060241,39.1325301 38.5060241,38.9879518 C38.5060241,38.8433735 38.4578313,38.7228916 38.3373494,38.626506 C38.2168675,38.5301205 38.0240964,38.4337349 37.7349398,38.3373494 C37.6144578,38.2891566 37.4698795,38.2409639 37.3493976,38.1686747 C37.2289157,38.1204819 37.1325301,38.0481928 37.0361446,37.9759036 C36.939759,37.9036145 36.8674699,37.8072289 36.8192771,37.7108434 C36.7710843,37.6144578 36.746988,37.4698795 36.746988,37.3253012 C36.746988,37.0120482 36.8674699,36.7710843 37.0843373,36.6024096 C37.3012048,36.4337349 37.6144578,36.3373494 38,36.3373494 C38.0963855,36.3373494 38.1927711,36.3373494 38.2891566,36.3614458 C38.3855422,36.3614458 38.4819277,36.3855422 38.5542169,36.4096386 C38.626506,36.4337349 38.7228916,36.4337349 38.7710843,36.4578313 C38.8433735,36.4819277 38.8915663,36.4819277 38.9156627,36.5060241 L38.7951807,37.0361446 C38.7228916,37.0120482 38.626506,36.9638554 38.4819277,36.9156627 C38.3373494,36.8674699 38.1686747,36.8674699 37.9759036,36.8674699 C37.8072289,36.8674699 37.6626506,36.8915663 37.5180723,36.9638554 C37.3975904,37.0361446 37.3253012,37.1325301 37.3253012,37.2771084 C37.3253012,37.3493976 37.3493976,37.4216867 37.373494,37.4698795 C37.3975904,37.5180723 37.4457831,37.5903614 37.5180723,37.6144578 C37.5662651,37.6626506 37.6626506,37.7108434 37.7349398,37.7349398 C37.8313253,37.7831325 37.9277108,37.8072289 38.0481928,37.8554217 C38.2168675,37.9277108 38.3614458,37.9759036 38.4819277,38.0481928 C38.6024096,38.0963855 38.7228916,38.1686747 38.8192771,38.2650602 C38.9156627,38.3373494 38.9879518,38.4337349 39.0361446,38.5542169 C39.0843373,38.6746988 39.1084337,38.7951807 39.1084337,38.9638554 C39.1084337,39.2771084 38.9879518,39.5180723 38.746988,39.686747 C38.5060241,39.8554217 38.1686747,39.9277108 37.7349398,39.9277108 C37.4216867,39.9277108 37.1807229,39.9036145 37.0120482,39.8554217 C36.8433735,39.8072289 36.7228916,39.7590361 36.6506024,39.7349398 L36.7710843,39.2048193 C36.8433735,39.2289157 36.9638554,39.2771084 37.1084337,39.3253012 C37.3012048,39.373494 37.4939759,39.3975904 37.7590361,39.3975904" id="Shape"></path>
            <path d="M40.7228916,39.3975904 C40.9638554,39.3975904 41.1566265,39.373494 41.2771084,39.3012048 C41.3975904,39.2289157 41.4698795,39.1325301 41.4698795,38.9879518 C41.4698795,38.8433735 41.4216867,38.7228916 41.3012048,38.626506 C41.1807229,38.5301205 40.9879518,38.4337349 40.6987952,38.3373494 C40.5783133,38.2891566 40.4337349,38.2409639 40.313253,38.1686747 C40.1927711,38.1204819 40.0963855,38.0481928 40,37.9759036 C39.9036145,37.9036145 39.8313253,37.8072289 39.7831325,37.7108434 C39.7349398,37.6144578 39.7108434,37.4698795 39.7108434,37.3253012 C39.7108434,37.0120482 39.8313253,36.7710843 40.0481928,36.6024096 C40.2650602,36.4337349 40.5783133,36.3373494 40.9638554,36.3373494 C41.060241,36.3373494 41.1566265,36.3373494 41.253012,36.3614458 C41.3493976,36.3614458 41.4457831,36.3855422 41.5180723,36.4096386 C41.5903614,36.4337349 41.686747,36.4337349 41.7349398,36.4578313 C41.8072289,36.4819277 41.8554217,36.4819277 41.8795181,36.5060241 L41.7590361,37.0361446 C41.686747,37.0120482 41.5903614,36.9638554 41.4457831,36.9156627 C41.3012048,36.8674699 41.1325301,36.8674699 40.939759,36.8674699 C40.7710843,36.8674699 40.626506,36.8915663 40.4819277,36.9638554 C40.3614458,37.0361446 40.2891566,37.1325301 40.2891566,37.2771084 C40.2891566,37.3493976 40.313253,37.4216867 40.3373494,37.4698795 C40.3614458,37.5180723 40.4096386,37.5903614 40.4819277,37.6144578 C40.5301205,37.6626506 40.626506,37.7108434 40.6987952,37.7349398 C40.7951807,37.7831325 40.8915663,37.8072289 41.0120482,37.8554217 C41.1807229,37.9277108 41.3253012,37.9759036 41.4457831,38.0481928 C41.5662651,38.0963855 41.686747,38.1686747 41.7831325,38.2650602 C41.8795181,38.3373494 41.9518072,38.4337349 42,38.5542169 C42.0481928,38.6746988 42.0722892,38.7951807 42.0722892,38.9638554 C42.0722892,39.2771084 41.9518072,39.5180723 41.7108434,39.686747 C41.4698795,39.8554217 41.1325301,39.9277108 40.6987952,39.9277108 C40.3855422,39.9277108 40.1445783,39.9036145 39.9759036,39.8554217 C39.8072289,39.8072289 39.686747,39.7590361 39.6144578,39.7349398 L39.7349398,39.2048193 C39.8072289,39.2289157 39.9277108,39.2771084 40.0722892,39.3253012 C40.2650602,39.373494 40.4578313,39.3975904 40.7228916,39.3975904" id="Shape"></path>
            <path d="M44,36.2891566 C44.2409639,36.2891566 44.4578313,36.313253 44.626506,36.3855422 C44.7951807,36.4578313 44.939759,36.5301205 45.0361446,36.6506024 C45.1325301,36.7710843 45.2048193,36.9156627 45.253012,37.060241 C45.3012048,37.2289157 45.3253012,37.3975904 45.3253012,37.5903614 L45.3253012,39.7590361 C45.2771084,39.7590361 45.2048193,39.7831325 45.1084337,39.8072289 C45.0120482,39.8313253 44.9156627,39.8313253 44.7951807,39.8554217 C44.6746988,39.8795181 44.5542169,39.8795181 44.4096386,39.9036145 C44.2650602,39.9036145 44.1204819,39.9277108 44,39.9277108 C43.8072289,39.9277108 43.6144578,39.9036145 43.4698795,39.8795181 C43.3012048,39.8313253 43.1566265,39.7831325 43.0361446,39.686747 C42.9156627,39.5903614 42.8192771,39.4939759 42.746988,39.3493976 C42.6746988,39.2048193 42.6506024,39.0361446 42.6506024,38.8433735 C42.6506024,38.6506024 42.6987952,38.4819277 42.7710843,38.3614458 C42.8433735,38.2168675 42.9638554,38.1204819 43.0843373,38.0240964 C43.2289157,37.9518072 43.373494,37.8795181 43.5421687,37.8313253 C43.7108434,37.7831325 43.9036145,37.7831325 44.0963855,37.7831325 L44.2891566,37.7831325 C44.3614458,37.7831325 44.4096386,37.8072289 44.4819277,37.8072289 C44.5301205,37.8072289 44.6024096,37.8313253 44.626506,37.8313253 C44.6746988,37.8313253 44.6987952,37.8554217 44.7228916,37.8554217 L44.7228916,37.686747 C44.7228916,37.5903614 44.7228916,37.4939759 44.6987952,37.373494 C44.6746988,37.2771084 44.626506,37.1807229 44.5783133,37.1084337 C44.5301205,37.0361446 44.4337349,36.9638554 44.3373494,36.9156627 C44.2409639,36.8674699 44.0963855,36.8433735 43.9518072,36.8433735 C43.7590361,36.8433735 43.5662651,36.8674699 43.4216867,36.8915663 C43.2771084,36.9156627 43.1566265,36.939759 43.0843373,36.9879518 L43.0120482,36.4819277 C43.0843373,36.4578313 43.2289157,36.4096386 43.4216867,36.3855422 C43.5662651,36.313253 43.7831325,36.2891566 44,36.2891566 M44.0481928,39.3975904 L44.4337349,39.3975904 C44.5542169,39.3975904 44.6506024,39.373494 44.7228916,39.3493976 L44.7228916,38.313253 C44.6746988,38.2891566 44.6024096,38.2650602 44.5060241,38.2650602 C44.4096386,38.2409639 44.2891566,38.2409639 44.1445783,38.2409639 C44.0481928,38.2409639 43.9518072,38.2409639 43.8554217,38.2650602 C43.7590361,38.2891566 43.6626506,38.313253 43.5662651,38.3373494 C43.4698795,38.3855422 43.3975904,38.4337349 43.3493976,38.5060241 C43.3012048,38.5783133 43.253012,38.6746988 43.253012,38.7951807 C43.253012,39.0120482 43.3253012,39.1807229 43.4698795,39.253012 C43.6144578,39.3493976 43.8072289,39.3975904 44.0481928,39.3975904" id="Shape"></path>
            <path d="M47.8554217,39.9277108 C47.5662651,39.9277108 47.3253012,39.8795181 47.1325301,39.7831325 C46.9156627,39.686747 46.746988,39.5662651 46.6024096,39.4216867 C46.4578313,39.253012 46.3614458,39.0843373 46.2891566,38.8433735 C46.2168675,38.626506 46.1927711,38.3855422 46.1927711,38.1204819 C46.1927711,37.8554217 46.2409639,37.6144578 46.313253,37.3975904 C46.3855422,37.1807229 46.5060241,36.9879518 46.6506024,36.8192771 C46.7951807,36.6506024 46.9638554,36.5301205 47.1807229,36.4337349 C47.3975904,36.3373494 47.6144578,36.2891566 47.8795181,36.2891566 C48.0240964,36.2891566 48.1927711,36.313253 48.3373494,36.3373494 C48.4819277,36.3614458 48.6506024,36.4096386 48.7710843,36.4578313 L48.626506,36.9879518 C48.5301205,36.939759 48.4337349,36.9156627 48.313253,36.8915663 C48.1927711,36.8674699 48.0722892,36.8433735 47.9277108,36.8433735 C47.5903614,36.8433735 47.3253012,36.9638554 47.1325301,37.1807229 C46.939759,37.3975904 46.8674699,37.7108434 46.8674699,38.1204819 C46.8674699,38.313253 46.8915663,38.4819277 46.939759,38.626506 C46.9879518,38.7710843 47.0361446,38.9156627 47.1325301,39.0361446 C47.2289157,39.1566265 47.3493976,39.2289157 47.4698795,39.3012048 C47.6144578,39.3493976 47.7831325,39.3975904 48,39.3975904 C48.1686747,39.3975904 48.313253,39.373494 48.4337349,39.3493976 C48.5783133,39.3253012 48.6746988,39.2771084 48.746988,39.253012 L48.8433735,39.7831325 C48.8192771,39.8072289 48.746988,39.8313253 48.6987952,39.8554217 C48.626506,39.8795181 48.5542169,39.9036145 48.4819277,39.9036145 C48.3855422,39.9277108 48.313253,39.9277108 48.2168675,39.9518072 C48.0240964,39.9036145 47.9277108,39.9277108 47.8554217,39.9277108" id="Shape"></path>
            <path d="M49.4457831,39.8313253 L49.4457831,34.7951807 L50.0722892,34.6987952 L50.0722892,36.4578313 C50.1927711,36.4096386 50.313253,36.3855422 50.4337349,36.3614458 C50.5542169,36.3373494 50.6987952,36.313253 50.8192771,36.313253 C51.0843373,36.313253 51.3253012,36.3614458 51.4939759,36.4337349 C51.686747,36.5060241 51.8313253,36.626506 51.9277108,36.7710843 C52.0240964,36.9156627 52.1204819,37.0843373 52.1686747,37.2771084 C52.2168675,37.4698795 52.2409639,37.686747 52.2409639,37.9277108 L52.2409639,39.8554217 L51.6144578,39.8554217 L51.6144578,38.0481928 C51.6144578,37.8313253 51.5903614,37.6626506 51.5662651,37.4939759 C51.5421687,37.3493976 51.4939759,37.2289157 51.4216867,37.1325301 C51.3493976,37.0361446 51.2771084,36.9638554 51.1566265,36.939759 C51.0361446,36.8915663 50.9156627,36.8674699 50.746988,36.8674699 C50.6746988,36.8674699 50.6024096,36.8674699 50.5301205,36.8915663 C50.4578313,36.8915663 50.3855422,36.9156627 50.3373494,36.9156627 C50.2650602,36.9156627 50.2168675,36.939759 50.1686747,36.9638554 C50.1204819,36.9879518 50.0722892,36.9879518 50.0481928,36.9879518 L50.0481928,39.8554217 L49.4457831,39.8554217 L49.4457831,39.8313253 Z" id="Shape"></path>
            <path d="M55.9759036,39.7349398 C55.8313253,39.7590361 55.6385542,39.8072289 55.4216867,39.8554217 C55.1807229,39.9036145 54.9156627,39.9036145 54.626506,39.9036145 C54.3614458,39.9036145 54.1445783,39.8554217 53.9518072,39.7831325 C53.7590361,39.7108434 53.6144578,39.5903614 53.5180723,39.4457831 C53.3975904,39.3012048 53.3253012,39.1325301 53.2771084,38.939759 C53.2289157,38.746988 53.2048193,38.5301205 53.2048193,38.2891566 L53.2048193,36.3614458 L53.8313253,36.3614458 L53.8313253,38.1686747 C53.8313253,38.5783133 53.9036145,38.8915663 54.0240964,39.0843373 C54.1686747,39.2771084 54.3855422,39.3493976 54.6987952,39.3493976 L54.9156627,39.3493976 C54.9879518,39.3493976 55.060241,39.3493976 55.1084337,39.3253012 C55.1807229,39.3253012 55.2289157,39.3012048 55.2771084,39.3012048 C55.3253012,39.3012048 55.373494,39.2771084 55.3975904,39.2771084 L55.3975904,36.3855422 L56.0240964,36.3855422 L56.0240964,39.7349398 L55.9759036,39.7349398 Z" id="Shape"></path>
            <path d="M57.8554217,39.3975904 C58.0963855,39.3975904 58.2891566,39.373494 58.4096386,39.3012048 C58.5301205,39.2289157 58.6024096,39.1325301 58.6024096,38.9879518 C58.6024096,38.8433735 58.5542169,38.7228916 58.4337349,38.626506 C58.313253,38.5301205 58.1204819,38.4337349 57.8313253,38.3373494 C57.686747,38.2891566 57.5662651,38.2409639 57.4457831,38.1686747 C57.3253012,38.1204819 57.2289157,38.0481928 57.1325301,37.9759036 C57.0361446,37.9036145 56.9638554,37.8072289 56.9156627,37.7108434 C56.8674699,37.6144578 56.8433735,37.4698795 56.8433735,37.3253012 C56.8433735,37.0120482 56.9638554,36.7710843 57.1807229,36.6024096 C57.3975904,36.4337349 57.7108434,36.3373494 58.0963855,36.3373494 C58.1927711,36.3373494 58.2891566,36.3373494 58.3855422,36.3614458 C58.4819277,36.3855422 58.5783133,36.3855422 58.6506024,36.4096386 C58.7228916,36.4337349 58.8192771,36.4337349 58.8674699,36.4578313 C58.939759,36.4819277 58.9879518,36.4819277 59.0120482,36.5060241 L58.8915663,37.0361446 C58.8192771,37.0120482 58.7228916,36.9638554 58.5783133,36.9156627 C58.4337349,36.8674699 58.2650602,36.8674699 58.0722892,36.8674699 C57.9036145,36.8674699 57.7590361,36.8915663 57.6144578,36.9638554 C57.4939759,37.0361446 57.4216867,37.1325301 57.4216867,37.2771084 C57.4216867,37.3493976 57.4457831,37.4216867 57.4698795,37.4698795 C57.4939759,37.5180723 57.5421687,37.5903614 57.6144578,37.6144578 C57.6626506,37.6626506 57.7590361,37.7108434 57.8313253,37.7349398 C57.9277108,37.7831325 58.0240964,37.8072289 58.1445783,37.8554217 C58.313253,37.9277108 58.4578313,37.9759036 58.5783133,38.0481928 C58.6987952,38.0963855 58.8192771,38.1686747 58.9156627,38.2650602 C59.0120482,38.3373494 59.0843373,38.4337349 59.1325301,38.5542169 C59.1807229,38.6746988 59.2048193,38.7951807 59.2048193,38.9638554 C59.2048193,39.2771084 59.0843373,39.5180723 58.8433735,39.686747 C58.6024096,39.8554217 58.2650602,39.9277108 57.8313253,39.9277108 C57.5180723,39.9277108 57.2771084,39.9036145 57.1084337,39.8554217 C56.939759,39.8072289 56.8192771,39.7590361 56.746988,39.7349398 L56.8674699,39.2048193 C56.939759,39.2289157 57.060241,39.2771084 57.2048193,39.3253012 C57.373494,39.373494 57.5903614,39.3975904 57.8554217,39.3975904" id="Shape"></path>
            <path d="M59.8072289,38.1204819 C59.8072289,37.8072289 59.8554217,37.5421687 59.9518072,37.3253012 C60.0481928,37.1084337 60.1686747,36.9156627 60.313253,36.746988 C60.4578313,36.6024096 60.626506,36.4819277 60.8192771,36.4096386 C61.0120482,36.3373494 61.2048193,36.2891566 61.3975904,36.2891566 C61.8554217,36.2891566 62.2168675,36.4337349 62.4578313,36.7228916 C62.6987952,37.0120482 62.8192771,37.4457831 62.8192771,38.0481928 L62.8192771,38.1445783 L62.8192771,38.2650602 L60.4578313,38.2650602 C60.4819277,38.626506 60.5783133,38.8915663 60.7710843,39.0843373 C60.9638554,39.2771084 61.2289157,39.373494 61.6144578,39.373494 C61.8313253,39.373494 62.0240964,39.3493976 62.1686747,39.3253012 C62.313253,39.2771084 62.4337349,39.253012 62.5060241,39.2048193 L62.6024096,39.7349398 C62.5301205,39.7831325 62.3855422,39.8072289 62.2168675,39.8554217 C62.0240964,39.9036145 61.8072289,39.9277108 61.5662651,39.9277108 C61.253012,39.9277108 61.0120482,39.8795181 60.7951807,39.7831325 C60.5783133,39.686747 60.3855422,39.5662651 60.2650602,39.3975904 C60.1204819,39.2289157 60.0240964,39.060241 59.9518072,38.8192771 C59.8554217,38.626506 59.8072289,38.3855422 59.8072289,38.1204819 L59.8072289,38.1204819 Z M62.1927711,37.7831325 C62.1927711,37.4939759 62.1204819,37.2771084 61.9759036,37.0843373 C61.8313253,36.9156627 61.6385542,36.8192771 61.373494,36.8192771 C61.2289157,36.8192771 61.1084337,36.8433735 60.9879518,36.8915663 C60.8674699,36.939759 60.7951807,37.0120482 60.7228916,37.1084337 C60.6506024,37.2048193 60.5783133,37.3012048 60.5542169,37.4216867 C60.5060241,37.5421687 60.4819277,37.6626506 60.4819277,37.7831325 L62.1927711,37.7831325 L62.1927711,37.7831325 Z" id="Shape"></path>
            <path d="M64.2891566,36.3855422 L65.5903614,36.3855422 L65.5903614,36.9156627 L64.2891566,36.9156627 L64.2891566,38.5060241 C64.2891566,38.6746988 64.313253,38.8192771 64.3373494,38.939759 C64.3614458,39.060241 64.4096386,39.1325301 64.4578313,39.2048193 C64.5060241,39.2771084 64.5783133,39.3253012 64.6506024,39.3493976 C64.7228916,39.373494 64.8192771,39.3975904 64.939759,39.3975904 C65.1325301,39.3975904 65.2771084,39.373494 65.3975904,39.3253012 C65.5180723,39.2771084 65.5903614,39.253012 65.6385542,39.2289157 L65.7590361,39.7349398 C65.686747,39.7590361 65.5903614,39.8072289 65.4216867,39.8554217 C65.2771084,39.9036145 65.0843373,39.9277108 64.8915663,39.9277108 C64.6506024,39.9277108 64.4578313,39.9036145 64.313253,39.8313253 C64.1686747,39.7831325 64.0481928,39.686747 63.9518072,39.5662651 C63.8554217,39.4457831 63.7831325,39.3012048 63.7590361,39.1325301 C63.7108434,38.9638554 63.7108434,38.746988 63.7108434,38.5301205 L63.7108434,35.4216867 L64.3373494,35.3253012 L64.3373494,36.3855422 L64.2891566,36.3855422 Z" id="Shape"></path>
            <path d="M66.9638554,36.3855422 L68.2650602,36.3855422 L68.2650602,36.9156627 L66.9638554,36.9156627 L66.9638554,38.5060241 C66.9638554,38.6746988 66.9879518,38.8192771 67.0120482,38.939759 C67.0361446,39.060241 67.0843373,39.1325301 67.1325301,39.2048193 C67.1807229,39.2771084 67.253012,39.3253012 67.3253012,39.3493976 C67.3975904,39.373494 67.4939759,39.3975904 67.6144578,39.3975904 C67.8072289,39.3975904 67.9518072,39.373494 68.0722892,39.3253012 C68.1927711,39.2771084 68.2650602,39.253012 68.313253,39.2289157 L68.4337349,39.7349398 C68.3614458,39.7590361 68.2650602,39.8072289 68.0963855,39.8554217 C67.9518072,39.9036145 67.7590361,39.9277108 67.5662651,39.9277108 C67.3253012,39.9277108 67.1325301,39.9036145 66.9879518,39.8313253 C66.8433735,39.7831325 66.7228916,39.686747 66.626506,39.5662651 C66.5301205,39.4457831 66.4578313,39.3012048 66.4337349,39.1325301 C66.3855422,38.9638554 66.3855422,38.746988 66.3855422,38.5301205 L66.3855422,35.4216867 L67.0120482,35.3253012 L67.0120482,36.3855422 L66.9638554,36.3855422 Z" id="Shape"></path>
            <path d="M69.8554217,39.3975904 C70.0963855,39.3975904 70.2891566,39.373494 70.4096386,39.3012048 C70.5301205,39.2289157 70.6024096,39.1325301 70.6024096,38.9879518 C70.6024096,38.8433735 70.5542169,38.7228916 70.4337349,38.626506 C70.313253,38.5301205 70.1204819,38.4337349 69.8313253,38.3373494 C69.686747,38.2891566 69.5662651,38.2409639 69.4457831,38.1686747 C69.3253012,38.1204819 69.2289157,38.0481928 69.1325301,37.9759036 C69.0361446,37.9036145 68.9638554,37.8072289 68.9156627,37.7108434 C68.8674699,37.6144578 68.8433735,37.4698795 68.8433735,37.3253012 C68.8433735,37.0120482 68.9638554,36.7710843 69.1807229,36.6024096 C69.3975904,36.4337349 69.7108434,36.3373494 70.0963855,36.3373494 C70.1927711,36.3373494 70.2891566,36.3373494 70.3855422,36.3614458 C70.4819277,36.3855422 70.5783133,36.3855422 70.6506024,36.4096386 C70.7228916,36.4337349 70.8192771,36.4337349 70.8674699,36.4578313 C70.939759,36.4819277 70.9879518,36.4819277 71.0120482,36.5060241 L70.8915663,37.0361446 C70.8192771,37.0120482 70.7228916,36.9638554 70.5783133,36.9156627 C70.4337349,36.8674699 70.2650602,36.8674699 70.0722892,36.8674699 C69.9036145,36.8674699 69.7590361,36.8915663 69.6144578,36.9638554 C69.4939759,37.0361446 69.4216867,37.1325301 69.4216867,37.2771084 C69.4216867,37.3493976 69.4457831,37.4216867 69.4698795,37.4698795 C69.4939759,37.5180723 69.5421687,37.5903614 69.6144578,37.6144578 C69.6626506,37.6626506 69.7590361,37.7108434 69.8313253,37.7349398 C69.9036145,37.7590361 70.0240964,37.8072289 70.1445783,37.8554217 C70.313253,37.9277108 70.4578313,37.9759036 70.5783133,38.0481928 C70.6987952,38.0963855 70.8192771,38.1686747 70.9156627,38.2650602 C71.0120482,38.3373494 71.0843373,38.4337349 71.1325301,38.5542169 C71.1807229,38.6746988 71.2048193,38.7951807 71.2048193,38.9638554 C71.2048193,39.2771084 71.0843373,39.5180723 70.8433735,39.686747 C70.6024096,39.8554217 70.2650602,39.9277108 69.8313253,39.9277108 C69.5180723,39.9277108 69.2771084,39.9036145 69.1084337,39.8554217 C68.939759,39.8072289 68.8192771,39.7590361 68.746988,39.7349398 L68.8674699,39.2048193 C68.939759,39.2289157 69.060241,39.2771084 69.2048193,39.3253012 C69.3975904,39.373494 69.6144578,39.3975904 69.8554217,39.3975904" id="Shape"></path>
            <path d="M74.6746988,36.2891566 C74.9156627,36.2891566 75.1325301,36.313253 75.3012048,36.3855422 C75.4698795,36.4578313 75.6144578,36.5301205 75.7108434,36.6506024 C75.8072289,36.7710843 75.8795181,36.9156627 75.9277108,37.060241 C75.9759036,37.2289157 76,37.3975904 76,37.5903614 L76,39.7590361 C75.9518072,39.7590361 75.8795181,39.7831325 75.7831325,39.8072289 C75.686747,39.8313253 75.5903614,39.8313253 75.4698795,39.8554217 C75.3493976,39.8795181 75.2289157,39.8795181 75.0843373,39.9036145 C74.939759,39.9036145 74.7951807,39.9277108 74.6746988,39.9277108 C74.4819277,39.9277108 74.2891566,39.9036145 74.1445783,39.8795181 C73.9759036,39.8313253 73.8313253,39.7831325 73.7108434,39.686747 C73.5903614,39.5903614 73.4939759,39.4939759 73.4216867,39.3493976 C73.3493976,39.2048193 73.3253012,39.0361446 73.3253012,38.8433735 C73.3253012,38.6506024 73.373494,38.4819277 73.4457831,38.3614458 C73.5180723,38.2168675 73.6385542,38.1204819 73.7590361,38.0240964 C73.9036145,37.9518072 74.0481928,37.8795181 74.2168675,37.8313253 C74.3855422,37.7831325 74.5783133,37.7831325 74.7710843,37.7831325 L74.9638554,37.7831325 C75.0361446,37.7831325 75.0843373,37.8072289 75.1566265,37.8072289 C75.2048193,37.8072289 75.2771084,37.8313253 75.3012048,37.8313253 C75.3493976,37.8313253 75.373494,37.8554217 75.3975904,37.8554217 L75.3975904,37.686747 C75.3975904,37.5903614 75.3975904,37.4939759 75.373494,37.373494 C75.3493976,37.2771084 75.3012048,37.1807229 75.253012,37.1084337 C75.2048193,37.0361446 75.1084337,36.9638554 75.0120482,36.9156627 C74.9156627,36.8674699 74.7710843,36.8433735 74.626506,36.8433735 C74.4337349,36.8433735 74.2409639,36.8674699 74.0963855,36.8915663 C73.9518072,36.9156627 73.8313253,36.939759 73.7590361,36.9879518 L73.686747,36.4819277 C73.7590361,36.4578313 73.9036145,36.4096386 74.0963855,36.3855422 C74.2409639,36.313253 74.4578313,36.2891566 74.6746988,36.2891566 M74.7228916,39.3975904 L75.1084337,39.3975904 C75.2289157,39.3975904 75.3253012,39.373494 75.3975904,39.3493976 L75.3975904,38.313253 C75.3493976,38.2891566 75.2771084,38.2650602 75.1807229,38.2650602 C75.0843373,38.2409639 74.9638554,38.2409639 74.8192771,38.2409639 C74.7228916,38.2409639 74.626506,38.2409639 74.5301205,38.2650602 C74.4337349,38.2891566 74.3373494,38.313253 74.2409639,38.3373494 C74.1445783,38.3855422 74.0722892,38.4337349 74.0240964,38.5060241 C73.9759036,38.5783133 73.9277108,38.6746988 73.9277108,38.7951807 C73.9277108,39.0120482 74,39.1807229 74.1445783,39.253012 C74.2891566,39.3493976 74.4819277,39.3975904 74.7228916,39.3975904" id="Shape"></path>
            <path d="M79.253012,34.7951807 L79.8795181,34.6987952 L79.8795181,39.7590361 C79.7349398,39.8072289 79.5662651,39.8313253 79.3253012,39.8795181 C79.1084337,39.9277108 78.8433735,39.9277108 78.5542169,39.9277108 C78.2891566,39.9277108 78.0481928,39.8795181 77.8313253,39.8072289 C77.6144578,39.7349398 77.4457831,39.6144578 77.2771084,39.4457831 C77.1325301,39.3012048 77.0120482,39.1084337 76.939759,38.8674699 C76.8674699,38.6506024 76.8192771,38.3855422 76.8192771,38.1204819 C76.8192771,37.8554217 76.8433735,37.6144578 76.9156627,37.3975904 C76.9879518,37.1807229 77.0843373,36.9879518 77.2289157,36.8192771 C77.373494,36.6506024 77.5180723,36.5301205 77.7108434,36.4578313 C77.9036145,36.3614458 78.1204819,36.313253 78.3614458,36.313253 C78.5542169,36.313253 78.746988,36.3373494 78.8915663,36.3855422 C79.0361446,36.4337349 79.1566265,36.4819277 79.2289157,36.5301205 L79.2289157,34.7951807 L79.253012,34.7951807 Z M79.253012,37.1084337 C79.1807229,37.0361446 79.060241,36.9879518 78.9156627,36.939759 C78.7710843,36.8915663 78.626506,36.8433735 78.4578313,36.8433735 C78.2891566,36.8433735 78.1204819,36.8674699 78,36.939759 C77.8795181,37.0120482 77.7590361,37.0843373 77.686747,37.2048193 C77.6144578,37.3253012 77.5421687,37.4457831 77.5180723,37.6144578 C77.4939759,37.7590361 77.4698795,37.9277108 77.4698795,38.1204819 C77.4698795,38.5301205 77.5662651,38.8433735 77.7590361,39.060241 C77.9518072,39.2771084 78.2168675,39.3975904 78.5542169,39.3975904 C78.7228916,39.3975904 78.8674699,39.3975904 78.9638554,39.373494 C79.0843373,39.3493976 79.1566265,39.3493976 79.2289157,39.3253012 L79.2289157,37.1084337 L79.253012,37.1084337 Z" id="Shape"></path>
            <path d="M83.9759036,38.1204819 C83.9759036,38.3855422 83.9277108,38.6506024 83.8554217,38.8674699 C83.7831325,39.0843373 83.6626506,39.2771084 83.5180723,39.4457831 C83.373494,39.6144578 83.2048193,39.7349398 83.0120482,39.8072289 C82.8192771,39.9036145 82.6024096,39.9277108 82.3614458,39.9277108 C82.1204819,39.9277108 81.9036145,39.8795181 81.7108434,39.8072289 C81.5180723,39.7108434 81.3493976,39.5903614 81.2048193,39.4457831 C81.060241,39.2771084 80.939759,39.0843373 80.8674699,38.8674699 C80.7951807,38.6506024 80.746988,38.4096386 80.746988,38.1204819 C80.746988,37.8554217 80.7951807,37.6144578 80.8674699,37.373494 C80.939759,37.1566265 81.060241,36.9638554 81.2048193,36.7951807 C81.3493976,36.626506 81.5180723,36.5060241 81.7108434,36.4337349 C81.9036145,36.3373494 82.1204819,36.313253 82.3614458,36.313253 C82.6024096,36.313253 82.8192771,36.3614458 83.0120482,36.4337349 C83.2048193,36.5301205 83.373494,36.6506024 83.5180723,36.7951807 C83.6626506,36.9638554 83.7831325,37.1566265 83.8554217,37.373494 C83.9277108,37.5903614 83.9759036,37.8313253 83.9759036,38.1204819 M83.3253012,38.1204819 C83.3253012,37.7349398 83.2289157,37.4216867 83.060241,37.2048193 C82.8915663,36.9879518 82.6506024,36.8674699 82.3373494,36.8674699 C82.0481928,36.8674699 81.8072289,36.9879518 81.6144578,37.2048193 C81.4457831,37.4216867 81.3493976,37.7349398 81.3493976,38.1204819 C81.3493976,38.5060241 81.4457831,38.8192771 81.6144578,39.0361446 C81.7831325,39.253012 82.0240964,39.373494 82.3373494,39.373494 C82.626506,39.373494 82.8674699,39.253012 83.060241,39.0361446 C83.253012,38.8192771 83.3253012,38.5060241 83.3253012,38.1204819" id="Shape"></path>
            <path d="M87.9036145,38.1204819 C87.9036145,38.3855422 87.8795181,38.626506 87.8072289,38.8433735 C87.7349398,39.060241 87.6385542,39.253012 87.4939759,39.4216867 C87.3493976,39.5903614 87.2048193,39.7108434 87.0120482,39.7831325 C86.8192771,39.8795181 86.6024096,39.9277108 86.3614458,39.9277108 C86.1686747,39.9277108 85.9759036,39.9036145 85.8313253,39.8554217 C85.686747,39.8072289 85.5662651,39.7590361 85.4939759,39.7108434 L85.4939759,41.0843373 L84.8674699,41.0843373 L84.8674699,36.5060241 C85.0120482,36.4819277 85.2048193,36.4337349 85.4216867,36.3855422 C85.6385542,36.3373494 85.9036145,36.313253 86.1927711,36.313253 C86.4578313,36.313253 86.6987952,36.3614458 86.9156627,36.4337349 C87.1325301,36.5060241 87.3012048,36.626506 87.4698795,36.7951807 C87.6144578,36.939759 87.7349398,37.1325301 87.8072289,37.373494 C87.8554217,37.5903614 87.9036145,37.8313253 87.9036145,38.1204819 M87.253012,38.1204819 C87.253012,37.7108434 87.1566265,37.3975904 86.9638554,37.1807229 C86.7710843,36.9638554 86.5060241,36.8433735 86.1686747,36.8433735 C85.9759036,36.8433735 85.8313253,36.8433735 85.7349398,36.8674699 C85.6385542,36.8915663 85.5421687,36.8915663 85.4939759,36.9156627 L85.4939759,39.0843373 C85.5662651,39.1566265 85.686747,39.2048193 85.8313253,39.253012 C85.9759036,39.3012048 86.1204819,39.3493976 86.2891566,39.3493976 C86.4578313,39.3493976 86.626506,39.3253012 86.746988,39.253012 C86.8674699,39.1807229 86.9879518,39.1084337 87.060241,38.9879518 C87.1325301,38.8674699 87.2048193,38.746988 87.2289157,38.5783133 C87.2289157,38.4578313 87.253012,38.2891566 87.253012,38.1204819" id="Shape"></path>
            <path d="M89.3493976,36.3855422 L90.6506024,36.3855422 L90.6506024,36.9156627 L89.3493976,36.9156627 L89.3493976,38.5060241 C89.3493976,38.6746988 89.373494,38.8192771 89.3975904,38.939759 C89.4216867,39.060241 89.4698795,39.1325301 89.5180723,39.2048193 C89.5662651,39.2771084 89.6385542,39.3253012 89.7108434,39.3493976 C89.7831325,39.373494 89.8795181,39.3975904 90,39.3975904 C90.1927711,39.3975904 90.3373494,39.373494 90.4578313,39.3253012 C90.5783133,39.2771084 90.6506024,39.253012 90.6987952,39.2289157 L90.8192771,39.7349398 C90.746988,39.7590361 90.6506024,39.8072289 90.4819277,39.8554217 C90.3373494,39.9036145 90.1445783,39.9277108 89.9518072,39.9277108 C89.7108434,39.9277108 89.5180723,39.9036145 89.373494,39.8313253 C89.2289157,39.7831325 89.1084337,39.686747 89.0120482,39.5662651 C88.9156627,39.4457831 88.8433735,39.3012048 88.8192771,39.1325301 C88.7710843,38.9638554 88.7710843,38.746988 88.7710843,38.5301205 L88.7710843,35.4216867 L89.3975904,35.3253012 L89.3975904,36.3855422 L89.3493976,36.3855422 Z" id="Shape"></path>
            <path d="M91.7349398,35.7590361 C91.6144578,35.7590361 91.5421687,35.7108434 91.4457831,35.6385542 C91.373494,35.5662651 91.3253012,35.4698795 91.3253012,35.3493976 C91.3253012,35.2289157 91.373494,35.1325301 91.4457831,35.060241 C91.5180723,34.9879518 91.6144578,34.939759 91.7349398,34.939759 C91.8554217,34.939759 91.9277108,34.9638554 92.0240964,35.060241 C92.0963855,35.1325301 92.1445783,35.2289157 92.1445783,35.3493976 C92.1445783,35.4698795 92.0963855,35.5662651 92.0240964,35.6385542 C91.9518072,35.7349398 91.8554217,35.7590361 91.7349398,35.7590361 L91.7349398,35.7590361 Z M92.0481928,39.8313253 L91.4216867,39.8313253 L91.4216867,36.3855422 L92.0481928,36.3855422 L92.0481928,39.8313253 L92.0481928,39.8313253 Z" id="Shape"></path>
            <path d="M96.1686747,38.1204819 C96.1686747,38.3855422 96.1204819,38.6506024 96.0481928,38.8674699 C95.9759036,39.0843373 95.8554217,39.2771084 95.7108434,39.4457831 C95.5662651,39.6144578 95.3975904,39.7349398 95.2048193,39.8072289 C95.0120482,39.9036145 94.7951807,39.9277108 94.5542169,39.9277108 C94.313253,39.9277108 94.0963855,39.8795181 93.9036145,39.8072289 C93.7108434,39.7108434 93.5421687,39.5903614 93.3975904,39.4457831 C93.253012,39.2771084 93.1325301,39.0843373 93.060241,38.8674699 C92.9879518,38.6506024 92.939759,38.4096386 92.939759,38.1204819 C92.939759,37.8554217 92.9879518,37.6144578 93.060241,37.373494 C93.1325301,37.1566265 93.253012,36.9638554 93.3975904,36.7951807 C93.5421687,36.626506 93.7108434,36.5060241 93.9036145,36.4337349 C94.0963855,36.3373494 94.313253,36.313253 94.5542169,36.313253 C94.7951807,36.313253 95.0120482,36.3614458 95.2048193,36.4337349 C95.3975904,36.5301205 95.5662651,36.6506024 95.7108434,36.7951807 C95.8554217,36.9638554 95.9759036,37.1566265 96.0481928,37.373494 C96.1204819,37.5903614 96.1686747,37.8313253 96.1686747,38.1204819 M95.5180723,38.1204819 C95.5180723,37.7349398 95.4216867,37.4216867 95.253012,37.2048193 C95.0843373,36.9879518 94.8433735,36.8674699 94.5301205,36.8674699 C94.2409639,36.8674699 94,36.9879518 93.8072289,37.2048193 C93.6385542,37.4216867 93.5421687,37.7349398 93.5421687,38.1204819 C93.5421687,38.5060241 93.6385542,38.8192771 93.8072289,39.0361446 C93.9759036,39.253012 94.2168675,39.373494 94.5301205,39.373494 C94.8192771,39.373494 95.060241,39.253012 95.253012,39.0361446 C95.4216867,38.8192771 95.5180723,38.5060241 95.5180723,38.1204819" id="Shape"></path>
            <path d="M97.0361446,36.4819277 C97.1807229,36.4578313 97.373494,36.4096386 97.5903614,36.3614458 C97.8313253,36.313253 98.0963855,36.313253 98.4096386,36.313253 C98.6746988,36.313253 98.9156627,36.3614458 99.0843373,36.4337349 C99.2771084,36.5060241 99.4216867,36.626506 99.5180723,36.7710843 C99.6144578,36.9156627 99.7108434,37.0843373 99.7590361,37.2771084 C99.8072289,37.4698795 99.8313253,37.686747 99.8313253,37.9277108 L99.8313253,39.8554217 L99.2048193,39.8554217 L99.2048193,38.0481928 C99.2048193,37.8313253 99.1807229,37.6626506 99.1566265,37.4939759 C99.1325301,37.3493976 99.0843373,37.2289157 99.0120482,37.1325301 C98.939759,37.0361446 98.8674699,36.9638554 98.746988,36.939759 C98.626506,36.8915663 98.5060241,36.8674699 98.3373494,36.8674699 L98.1204819,36.8674699 C98.0481928,36.8674699 97.9759036,36.8674699 97.9277108,36.8915663 C97.8554217,36.8915663 97.8072289,36.9156627 97.7590361,36.9156627 C97.7108434,36.9156627 97.6626506,36.939759 97.6385542,36.939759 L97.6385542,39.8554217 L97.0120482,39.8554217 L97.0120482,36.4819277 L97.0361446,36.4819277 Z" id="Shape"></path>
            <path d="M29.0361446,44.2891566 L29.2289157,44.2891566 C29.3012048,44.2891566 29.373494,44.313253 29.4216867,44.313253 C29.4939759,44.313253 29.5421687,44.3373494 29.6144578,44.3373494 C29.6626506,44.3373494 29.7108434,44.3614458 29.7349398,44.3614458 L29.6385542,44.8915663 C29.5903614,44.8674699 29.5180723,44.8433735 29.3975904,44.8192771 C29.2771084,44.7951807 29.1325301,44.7710843 28.9638554,44.7710843 C28.8433735,44.7710843 28.7228916,44.7710843 28.626506,44.8192771 C28.5060241,44.8433735 28.4337349,44.8674699 28.4096386,44.8674699 L28.4096386,47.7590361 L27.7831325,47.7590361 L27.7831325,44.4578313 C27.9277108,44.4096386 28.1204819,44.3614458 28.3373494,44.313253 C28.5301205,44.313253 28.7710843,44.2891566 29.0361446,44.2891566" id="Shape"></path>
            <path d="M30.1445783,46.0963855 C30.1445783,45.7831325 30.1927711,45.5180723 30.2891566,45.3012048 C30.3855422,45.0843373 30.5060241,44.8915663 30.6506024,44.7228916 C30.7951807,44.5783133 30.9638554,44.4578313 31.1566265,44.3855422 C31.3493976,44.313253 31.5421687,44.2650602 31.7349398,44.2650602 C32.1927711,44.2650602 32.5542169,44.4096386 32.7951807,44.6987952 C33.0361446,44.9879518 33.1566265,45.4216867 33.1566265,46.0240964 L33.1566265,46.1204819 L33.1566265,46.2409639 L30.7951807,46.2409639 C30.8192771,46.6024096 30.9156627,46.8674699 31.1084337,47.060241 C31.3012048,47.253012 31.5662651,47.3493976 31.9518072,47.3493976 C32.1686747,47.3493976 32.3614458,47.3253012 32.5060241,47.3012048 C32.6506024,47.253012 32.7710843,47.2289157 32.8433735,47.1807229 L32.939759,47.7108434 C32.8674699,47.7590361 32.7228916,47.7831325 32.5542169,47.8313253 C32.3614458,47.8795181 32.1445783,47.9036145 31.9036145,47.9036145 C31.5903614,47.9036145 31.3493976,47.8554217 31.1325301,47.7590361 C30.9156627,47.6626506 30.7228916,47.5421687 30.6024096,47.373494 C30.4578313,47.2048193 30.3614458,47.0361446 30.2891566,46.7951807 C30.1686747,46.6024096 30.1445783,46.3614458 30.1445783,46.0963855 L30.1445783,46.0963855 Z M32.5060241,45.7590361 C32.5060241,45.4698795 32.4337349,45.253012 32.2891566,45.060241 C32.1445783,44.8915663 31.9518072,44.7951807 31.686747,44.7951807 C31.5421687,44.7951807 31.4216867,44.8192771 31.3012048,44.8674699 C31.2048193,44.9156627 31.1084337,44.9879518 31.0361446,45.0843373 C30.9638554,45.1807229 30.8915663,45.2771084 30.8674699,45.3975904 C30.8192771,45.5180723 30.7951807,45.6385542 30.7951807,45.7590361 L32.5060241,45.7590361 L32.5060241,45.7590361 Z" id="Shape"></path>
            <path d="M34.8433735,47.373494 C35.0843373,47.373494 35.2771084,47.3493976 35.3975904,47.2771084 C35.5180723,47.2048193 35.5903614,47.1084337 35.5903614,46.9638554 C35.5903614,46.8192771 35.5421687,46.6987952 35.4216867,46.6024096 C35.3012048,46.5060241 35.1084337,46.4096386 34.8192771,46.313253 C34.6987952,46.2650602 34.5542169,46.2168675 34.4337349,46.1445783 C34.313253,46.0963855 34.2168675,46.0240964 34.1204819,45.9518072 C34.0240964,45.8795181 33.9518072,45.7831325 33.9036145,45.686747 C33.8554217,45.5903614 33.8313253,45.4457831 33.8313253,45.3012048 C33.8313253,44.9879518 33.9518072,44.746988 34.1686747,44.5783133 C34.3855422,44.4096386 34.6987952,44.313253 35.0843373,44.313253 C35.1807229,44.313253 35.2771084,44.313253 35.373494,44.3373494 C35.4698795,44.3373494 35.5662651,44.3614458 35.6385542,44.3855422 C35.7108434,44.4096386 35.8072289,44.4096386 35.8554217,44.4337349 C35.9277108,44.4578313 35.9759036,44.4578313 36,44.4819277 L35.8795181,45.0120482 C35.8072289,44.9879518 35.7108434,44.939759 35.5662651,44.8915663 C35.4216867,44.8433735 35.253012,44.8433735 35.060241,44.8433735 C34.8915663,44.8433735 34.746988,44.8674699 34.6024096,44.939759 C34.4819277,45.0120482 34.4096386,45.1084337 34.4096386,45.253012 C34.4096386,45.3253012 34.4337349,45.3975904 34.4578313,45.4457831 C34.4819277,45.4939759 34.5301205,45.5662651 34.6024096,45.5903614 C34.6506024,45.6385542 34.746988,45.686747 34.8192771,45.7108434 C34.9156627,45.7590361 35.0120482,45.7831325 35.1325301,45.8313253 C35.3012048,45.9036145 35.4457831,45.9518072 35.5662651,46.0240964 C35.686747,46.0722892 35.8072289,46.1445783 35.9036145,46.2409639 C36,46.313253 36.0722892,46.4096386 36.1204819,46.5301205 C36.1686747,46.6506024 36.1927711,46.7710843 36.1927711,46.939759 C36.1927711,47.253012 36.0722892,47.4939759 35.8313253,47.6626506 C35.5903614,47.8313253 35.253012,47.9036145 34.8192771,47.9036145 C34.5060241,47.9036145 34.2650602,47.8795181 34.0963855,47.8313253 C33.9277108,47.7831325 33.8072289,47.7349398 33.7349398,47.7108434 L33.8554217,47.1807229 C33.9277108,47.2048193 34.0481928,47.253012 34.1927711,47.3012048 C34.3855422,47.3493976 34.6024096,47.373494 34.8433735,47.373494" id="Shape"></path>
            <path d="M40.0481928,46.0722892 C40.0481928,46.3373494 40,46.6024096 39.9277108,46.8192771 C39.8554217,47.0361446 39.7349398,47.2289157 39.5903614,47.3975904 C39.4457831,47.5662651 39.2771084,47.686747 39.0843373,47.7590361 C38.8915663,47.8554217 38.6746988,47.8795181 38.4337349,47.8795181 C38.1927711,47.8795181 37.9759036,47.8313253 37.7831325,47.7590361 C37.5903614,47.6626506 37.4216867,47.5421687 37.2771084,47.3975904 C37.1325301,47.2289157 37.0120482,47.0361446 36.939759,46.8192771 C36.8674699,46.6024096 36.8192771,46.3614458 36.8192771,46.0722892 C36.8192771,45.8072289 36.8674699,45.5662651 36.939759,45.3253012 C37.0120482,45.1084337 37.1325301,44.9156627 37.2771084,44.746988 C37.4216867,44.5783133 37.5903614,44.4578313 37.7831325,44.3855422 C37.9759036,44.2891566 38.1927711,44.2650602 38.4337349,44.2650602 C38.6746988,44.2650602 38.8915663,44.313253 39.0843373,44.3855422 C39.2771084,44.4819277 39.4457831,44.6024096 39.5903614,44.746988 C39.7349398,44.9156627 39.8554217,45.1084337 39.9277108,45.3253012 C40.0240964,45.5662651 40.0481928,45.8072289 40.0481928,46.0722892 M39.4216867,46.0722892 C39.4216867,45.686747 39.3253012,45.373494 39.1566265,45.1566265 C38.9879518,44.939759 38.746988,44.8192771 38.4337349,44.8192771 C38.1445783,44.8192771 37.9036145,44.939759 37.7108434,45.1566265 C37.5421687,45.373494 37.4457831,45.686747 37.4457831,46.0722892 C37.4457831,46.4578313 37.5421687,46.7710843 37.7108434,46.9879518 C37.8795181,47.2048193 38.1204819,47.3253012 38.4337349,47.3253012 C38.7228916,47.3253012 38.9638554,47.2048193 39.1566265,46.9879518 C39.3253012,46.7710843 39.4216867,46.4819277 39.4216867,46.0722892" id="Shape"></path>
            <path d="M43.686747,47.7108434 C43.5421687,47.7349398 43.3493976,47.7831325 43.1325301,47.8313253 C42.8915663,47.8795181 42.626506,47.8795181 42.3373494,47.8795181 C42.0722892,47.8795181 41.8554217,47.8313253 41.6626506,47.7590361 C41.4698795,47.686747 41.3253012,47.5662651 41.2289157,47.4216867 C41.1084337,47.2771084 41.0361446,47.1084337 40.9879518,46.9156627 C40.939759,46.7228916 40.9156627,46.5060241 40.9156627,46.2650602 L40.9156627,44.3373494 L41.5421687,44.3373494 L41.5421687,46.1445783 C41.5421687,46.5542169 41.6144578,46.8674699 41.7349398,47.060241 C41.8795181,47.253012 42.0963855,47.3253012 42.4096386,47.3253012 L42.626506,47.3253012 C42.6987952,47.3253012 42.7710843,47.3253012 42.8192771,47.3012048 C42.8915663,47.3012048 42.939759,47.2771084 42.9879518,47.2771084 C43.0361446,47.2771084 43.0843373,47.253012 43.1084337,47.253012 L43.1084337,44.3373494 L43.7349398,44.3373494 L43.7349398,47.7108434 L43.686747,47.7108434 Z" id="Shape"></path>
            <path d="M46.0240964,44.2891566 L46.2168675,44.2891566 C46.2891566,44.2891566 46.3614458,44.313253 46.4096386,44.313253 C46.4819277,44.313253 46.5301205,44.3373494 46.6024096,44.3373494 C46.6506024,44.3373494 46.6987952,44.3614458 46.7228916,44.3614458 L46.626506,44.8915663 C46.5783133,44.8674699 46.5060241,44.8433735 46.3855422,44.8192771 C46.2650602,44.7951807 46.1204819,44.7710843 45.9518072,44.7710843 C45.8313253,44.7710843 45.7108434,44.7710843 45.6144578,44.8192771 C45.4939759,44.8433735 45.4216867,44.8674699 45.3975904,44.8674699 L45.3975904,47.7590361 L44.7710843,47.7590361 L44.7710843,44.4578313 C44.9156627,44.4096386 45.1084337,44.3614458 45.3253012,44.313253 C45.4939759,44.313253 45.7349398,44.2891566 46.0240964,44.2891566" id="Shape"></path>
            <path d="M48.7951807,47.8795181 C48.5060241,47.8795181 48.2650602,47.8313253 48.0722892,47.7349398 C47.8554217,47.6385542 47.686747,47.5180723 47.5421687,47.373494 C47.3975904,47.2048193 47.3012048,47.0361446 47.2289157,46.7951807 C47.1566265,46.5783133 47.1325301,46.3373494 47.1325301,46.0722892 C47.1325301,45.8072289 47.1807229,45.5662651 47.253012,45.3493976 C47.3253012,45.1325301 47.4457831,44.939759 47.5903614,44.7710843 C47.7349398,44.6024096 47.9036145,44.4819277 48.1204819,44.3855422 C48.3373494,44.2891566 48.5542169,44.2409639 48.8192771,44.2409639 C48.9638554,44.2409639 49.1325301,44.2650602 49.2771084,44.2891566 C49.4216867,44.313253 49.5903614,44.3614458 49.7108434,44.4096386 L49.5662651,44.939759 C49.4698795,44.8915663 49.373494,44.8674699 49.253012,44.8433735 C49.1325301,44.8192771 49.0120482,44.7951807 48.8674699,44.7951807 C48.5301205,44.7951807 48.2650602,44.9156627 48.0722892,45.1325301 C47.8795181,45.3493976 47.8072289,45.6626506 47.8072289,46.0722892 C47.8072289,46.2650602 47.8313253,46.4337349 47.8795181,46.5783133 C47.9277108,46.7228916 47.9759036,46.8674699 48.0722892,46.9879518 C48.1686747,47.1084337 48.2891566,47.1807229 48.4096386,47.253012 C48.5542169,47.3012048 48.7228916,47.3493976 48.939759,47.3493976 C49.1084337,47.3493976 49.253012,47.3253012 49.373494,47.3012048 C49.5180723,47.2771084 49.6144578,47.2289157 49.686747,47.2048193 L49.7831325,47.7349398 C49.7590361,47.7590361 49.686747,47.7831325 49.6385542,47.8072289 C49.5662651,47.8313253 49.4939759,47.8554217 49.4216867,47.8554217 C49.3253012,47.8795181 49.253012,47.8795181 49.1566265,47.9036145 C48.9879518,47.8795181 48.8915663,47.8795181 48.7951807,47.8795181" id="Shape"></path>
            <path d="M50.1927711,46.0963855 C50.1927711,45.7831325 50.2409639,45.5180723 50.3373494,45.3012048 C50.4337349,45.0843373 50.5542169,44.8915663 50.6987952,44.7228916 C50.8433735,44.5783133 51.0120482,44.4578313 51.2048193,44.3855422 C51.3975904,44.313253 51.5903614,44.2650602 51.7831325,44.2650602 C52.2409639,44.2650602 52.6024096,44.4096386 52.8433735,44.6987952 C53.0843373,44.9879518 53.2048193,45.4216867 53.2048193,46.0240964 L53.2048193,46.1204819 L53.2048193,46.2409639 L50.8433735,46.2409639 C50.8674699,46.6024096 50.9638554,46.8674699 51.1566265,47.060241 C51.3493976,47.253012 51.6144578,47.3493976 52,47.3493976 C52.2168675,47.3493976 52.4096386,47.3253012 52.5542169,47.3012048 C52.6987952,47.253012 52.8192771,47.2289157 52.8915663,47.1807229 L52.9879518,47.7108434 C52.9156627,47.7590361 52.7710843,47.7831325 52.6024096,47.8313253 C52.4096386,47.8795181 52.1927711,47.9036145 51.9518072,47.9036145 C51.6385542,47.9036145 51.3975904,47.8554217 51.1807229,47.7590361 C50.9638554,47.6626506 50.7710843,47.5421687 50.6506024,47.373494 C50.5060241,47.2048193 50.4096386,47.0361446 50.3373494,46.7951807 C50.2409639,46.6024096 50.1927711,46.3614458 50.1927711,46.0963855 L50.1927711,46.0963855 Z M52.5783133,45.7590361 C52.5783133,45.4698795 52.5060241,45.253012 52.3614458,45.060241 C52.2168675,44.8915663 52.0240964,44.7951807 51.7590361,44.7951807 C51.6144578,44.7951807 51.4939759,44.8192771 51.373494,44.8674699 C51.253012,44.9156627 51.1807229,44.9879518 51.1084337,45.0843373 C51.0361446,45.1807229 50.9638554,45.2771084 50.939759,45.3975904 C50.8915663,45.5180723 50.8674699,45.6385542 50.8674699,45.7590361 L52.5783133,45.7590361 L52.5783133,45.7590361 Z" id="Shape"></path>
            <path d="M55.4457831,46.0963855 C55.4457831,45.7831325 55.4939759,45.5180723 55.5903614,45.3012048 C55.686747,45.0843373 55.8072289,44.8915663 55.9518072,44.7228916 C56.0963855,44.5783133 56.2650602,44.4578313 56.4578313,44.3855422 C56.6506024,44.313253 56.8433735,44.2650602 57.0361446,44.2650602 C57.4939759,44.2650602 57.8554217,44.4096386 58.0963855,44.6987952 C58.3373494,44.9879518 58.4578313,45.4216867 58.4578313,46.0240964 L58.4578313,46.1204819 L58.4578313,46.2409639 L56.0963855,46.2409639 C56.1204819,46.6024096 56.2168675,46.8674699 56.4096386,47.060241 C56.6024096,47.253012 56.8674699,47.3493976 57.253012,47.3493976 C57.4698795,47.3493976 57.6626506,47.3253012 57.8072289,47.3012048 C57.9518072,47.253012 58.0722892,47.2289157 58.1445783,47.1807229 L58.2409639,47.7108434 C58.1686747,47.7590361 58.0240964,47.7831325 57.8554217,47.8313253 C57.6626506,47.8795181 57.4457831,47.9036145 57.2048193,47.9036145 C56.8915663,47.9036145 56.6506024,47.8554217 56.4337349,47.7590361 C56.2168675,47.6626506 56.0240964,47.5421687 55.9036145,47.373494 C55.7590361,47.2048193 55.6626506,47.0361446 55.5903614,46.7951807 C55.4698795,46.6024096 55.4457831,46.3614458 55.4457831,46.0963855 L55.4457831,46.0963855 Z M57.8072289,45.7590361 C57.8072289,45.4698795 57.7349398,45.253012 57.5903614,45.060241 C57.4457831,44.8915663 57.253012,44.7951807 56.9879518,44.7951807 C56.8433735,44.7951807 56.7228916,44.8192771 56.6024096,44.8674699 C56.5060241,44.9156627 56.4096386,44.9879518 56.3373494,45.0843373 C56.2650602,45.1807229 56.1927711,45.2771084 56.1686747,45.3975904 C56.1204819,45.5180723 56.0963855,45.6385542 56.0963855,45.7590361 L57.8072289,45.7590361 L57.8072289,45.7590361 Z" id="Shape"></path>
            <path d="M61.4216867,47.8072289 C61.373494,47.7108434 61.3012048,47.5903614 61.253012,47.4698795 C61.1807229,47.3493976 61.1084337,47.2289157 61.0120482,47.1084337 C60.939759,46.9879518 60.8433735,46.8674699 60.746988,46.7228916 C60.6506024,46.6024096 60.5783133,46.4819277 60.4819277,46.3614458 C60.4096386,46.4819277 60.313253,46.6024096 60.2168675,46.7228916 C60.1204819,46.8433735 60.0481928,46.9638554 59.9518072,47.1084337 C59.8795181,47.2289157 59.7831325,47.3493976 59.7108434,47.4698795 C59.6385542,47.5903614 59.5903614,47.686747 59.5421687,47.7831325 L58.9156627,47.7831325 C59.060241,47.4939759 59.253012,47.1807229 59.4698795,46.8674699 C59.686747,46.5542169 59.9036145,46.2650602 60.1204819,45.9759036 L58.9879518,44.3373494 L59.686747,44.3373494 L60.5060241,45.5421687 L61.3253012,44.3373494 L61.9759036,44.3373494 L60.8674699,45.9277108 C61.0843373,46.2168675 61.3012048,46.5301205 61.5180723,46.8433735 C61.7349398,47.1566265 61.9277108,47.4698795 62.0963855,47.7831325 L61.4216867,47.7831325 L61.4216867,47.8072289 Z" id="Shape"></path>
            <path d="M64.0963855,47.8795181 C63.8072289,47.8795181 63.5662651,47.8313253 63.373494,47.7349398 C63.1566265,47.6385542 62.9879518,47.5180723 62.8433735,47.373494 C62.6987952,47.2048193 62.6024096,47.0361446 62.5301205,46.7951807 C62.4578313,46.5783133 62.4337349,46.3373494 62.4337349,46.0722892 C62.4337349,45.8072289 62.4819277,45.5662651 62.5542169,45.3493976 C62.626506,45.1325301 62.746988,44.939759 62.8915663,44.7710843 C63.0361446,44.6024096 63.2048193,44.4819277 63.4216867,44.3855422 C63.6385542,44.2891566 63.8554217,44.2409639 64.1204819,44.2409639 C64.2650602,44.2409639 64.4337349,44.2650602 64.5783133,44.2891566 C64.7228916,44.313253 64.8915663,44.3614458 65.0120482,44.4096386 L64.8674699,44.939759 C64.7710843,44.8915663 64.6746988,44.8674699 64.5542169,44.8433735 C64.4337349,44.8192771 64.313253,44.7951807 64.1686747,44.7951807 C63.8313253,44.7951807 63.5662651,44.9156627 63.373494,45.1325301 C63.1807229,45.3493976 63.1084337,45.6626506 63.1084337,46.0722892 C63.1084337,46.2650602 63.1325301,46.4337349 63.1807229,46.5783133 C63.2289157,46.7228916 63.3012048,46.8674699 63.373494,46.9879518 C63.4698795,47.1084337 63.5903614,47.1807229 63.7108434,47.253012 C63.8554217,47.3012048 64.0240964,47.3493976 64.2409639,47.3493976 C64.4096386,47.3493976 64.5542169,47.3253012 64.6746988,47.3012048 C64.8192771,47.2771084 64.9156627,47.2289157 64.9879518,47.2048193 L65.0843373,47.7349398 C65.060241,47.7590361 64.9879518,47.7831325 64.939759,47.8072289 C64.8674699,47.8313253 64.7951807,47.8554217 64.7228916,47.8554217 C64.626506,47.8795181 64.5542169,47.8795181 64.4578313,47.9036145 C64.2891566,47.8795181 64.1927711,47.8795181 64.0963855,47.8795181" id="Shape"></path>
            <path d="M65.686747,47.8072289 L65.686747,42.7710843 L66.313253,42.6746988 L66.313253,44.4337349 C66.4337349,44.3855422 66.5542169,44.3614458 66.6746988,44.3373494 C66.7951807,44.313253 66.939759,44.2891566 67.060241,44.2891566 C67.3253012,44.2891566 67.5662651,44.3373494 67.7349398,44.4096386 C67.9277108,44.4819277 68.0722892,44.6024096 68.1686747,44.746988 C68.2891566,44.8915663 68.3614458,45.060241 68.4096386,45.253012 C68.4578313,45.4457831 68.4819277,45.6626506 68.4819277,45.9036145 L68.4819277,47.8313253 L67.8554217,47.8313253 L67.8554217,46.0240964 C67.8554217,45.8072289 67.8313253,45.6385542 67.8072289,45.4698795 C67.7831325,45.3253012 67.7349398,45.2048193 67.6626506,45.1084337 C67.5903614,45.0120482 67.5180723,44.939759 67.3975904,44.9156627 C67.2771084,44.8674699 67.1566265,44.8433735 66.9879518,44.8433735 C66.9156627,44.8433735 66.8433735,44.8433735 66.7710843,44.8674699 C66.6987952,44.8674699 66.626506,44.8915663 66.5783133,44.8915663 C66.5060241,44.8915663 66.4578313,44.9156627 66.4096386,44.939759 C66.3614458,44.9638554 66.313253,44.9638554 66.2891566,44.9638554 L66.2891566,47.8313253 L65.686747,47.8313253 L65.686747,47.8072289 Z" id="Shape"></path>
            <path d="M70.6024096,44.2650602 C70.8433735,44.2650602 71.060241,44.2891566 71.2289157,44.3614458 C71.3975904,44.4337349 71.5421687,44.5060241 71.6385542,44.626506 C71.7349398,44.746988 71.8072289,44.8915663 71.8554217,45.0361446 C71.9036145,45.2048193 71.9277108,45.373494 71.9277108,45.5662651 L71.9277108,47.7349398 C71.8795181,47.7349398 71.8072289,47.7590361 71.7108434,47.7831325 C71.6144578,47.8072289 71.5180723,47.8072289 71.3975904,47.8313253 C71.2771084,47.8554217 71.1566265,47.8554217 71.0120482,47.8795181 C70.8674699,47.8795181 70.7228916,47.9036145 70.6024096,47.9036145 C70.4096386,47.9036145 70.2168675,47.8795181 70.0722892,47.8554217 C69.9036145,47.8072289 69.7590361,47.7590361 69.6385542,47.6626506 C69.5180723,47.5662651 69.4216867,47.4698795 69.3493976,47.3253012 C69.2771084,47.1807229 69.253012,47.0120482 69.253012,46.8192771 C69.253012,46.626506 69.3012048,46.4578313 69.373494,46.3373494 C69.4457831,46.1927711 69.5662651,46.0963855 69.686747,46 C69.8313253,45.9277108 69.9759036,45.8554217 70.1445783,45.8072289 C70.313253,45.7590361 70.5060241,45.7590361 70.6987952,45.7590361 L70.8915663,45.7590361 C70.9638554,45.7590361 71.0120482,45.7831325 71.0843373,45.7831325 C71.1325301,45.7831325 71.2048193,45.8072289 71.2289157,45.8072289 C71.2771084,45.8072289 71.3012048,45.8313253 71.3253012,45.8313253 L71.3253012,45.6626506 C71.3253012,45.5662651 71.3253012,45.4698795 71.3012048,45.3493976 C71.2771084,45.253012 71.2289157,45.1566265 71.1807229,45.0843373 C71.1325301,45.0120482 71.0361446,44.939759 70.939759,44.8915663 C70.8433735,44.8433735 70.6987952,44.8192771 70.5542169,44.8192771 C70.3614458,44.8192771 70.1686747,44.8433735 70.0240964,44.8674699 C69.8795181,44.8915663 69.7590361,44.9156627 69.686747,44.9638554 L69.6144578,44.4578313 C69.686747,44.4337349 69.8313253,44.3855422 70.0240964,44.3614458 C70.1927711,44.2891566 70.3855422,44.2650602 70.6024096,44.2650602 M70.6506024,47.373494 L71.0361446,47.373494 C71.1566265,47.373494 71.253012,47.3493976 71.3253012,47.3253012 L71.3253012,46.2891566 C71.2771084,46.2650602 71.2048193,46.2409639 71.1084337,46.2409639 C71.0120482,46.2168675 70.8915663,46.2168675 70.746988,46.2168675 C70.6506024,46.2168675 70.5542169,46.2168675 70.4578313,46.2409639 C70.3614458,46.2650602 70.2650602,46.2891566 70.1686747,46.313253 C70.0722892,46.3614458 70,46.4096386 69.9518072,46.4819277 C69.9036145,46.5542169 69.8554217,46.6506024 69.8554217,46.7710843 C69.8554217,46.9879518 69.9277108,47.1566265 70.0722892,47.2289157 C70.2168675,47.3253012 70.4096386,47.373494 70.6506024,47.373494" id="Shape"></path>
            <path d="M72.9638554,44.4578313 C73.1084337,44.4337349 73.3012048,44.3855422 73.5180723,44.3373494 C73.7590361,44.2891566 74.0240964,44.2891566 74.3373494,44.2891566 C74.6024096,44.2891566 74.8433735,44.3373494 75.0120482,44.4096386 C75.2048193,44.4819277 75.3493976,44.6024096 75.4457831,44.746988 C75.5421687,44.8915663 75.6385542,45.060241 75.686747,45.253012 C75.7349398,45.4457831 75.7590361,45.6626506 75.7590361,45.9036145 L75.7590361,47.8313253 L75.1325301,47.8313253 L75.1325301,46.0240964 C75.1325301,45.8072289 75.1084337,45.6385542 75.0843373,45.4698795 C75.060241,45.3253012 75.0120482,45.2048193 74.939759,45.1084337 C74.8674699,45.0120482 74.7951807,44.939759 74.6746988,44.9156627 C74.5542169,44.8674699 74.4337349,44.8433735 74.2650602,44.8433735 L74.0481928,44.8433735 C73.9759036,44.8433735 73.9036145,44.8433735 73.8554217,44.8674699 C73.7831325,44.8674699 73.7349398,44.8915663 73.686747,44.8915663 C73.6385542,44.8915663 73.5903614,44.9156627 73.5662651,44.9156627 L73.5662651,47.8313253 L72.939759,47.8313253 L72.939759,44.4578313 L72.9638554,44.4578313 Z" id="Shape"></path>
            <path d="M78.939759,47.4698795 C78.8915663,47.4939759 78.7951807,47.5421687 78.626506,47.6144578 C78.4819277,47.6626506 78.2891566,47.686747 78.0963855,47.686747 C77.8795181,47.686747 77.686747,47.6626506 77.5180723,47.5903614 C77.3253012,47.5180723 77.1807229,47.4216867 77.0361446,47.2771084 C76.8915663,47.1325301 76.7951807,46.9638554 76.6987952,46.746988 C76.626506,46.5301205 76.5783133,46.2891566 76.5783133,46 C76.5783133,45.7590361 76.626506,45.5180723 76.6987952,45.3012048 C76.7710843,45.0843373 76.8915663,44.9156627 77.0361446,44.746988 C77.1807229,44.6024096 77.3493976,44.4819277 77.5662651,44.3855422 C77.7831325,44.2891566 78,44.2650602 78.2650602,44.2650602 C78.5542169,44.2650602 78.7951807,44.2891566 79.0120482,44.3373494 C79.2289157,44.3855422 79.3975904,44.4096386 79.5421687,44.4578313 L79.5421687,47.5421687 C79.5421687,48.0722892 79.3975904,48.4578313 79.1325301,48.6987952 C78.8674699,48.939759 78.4337349,49.060241 77.8795181,49.060241 C77.6626506,49.060241 77.4457831,49.0361446 77.253012,49.0120482 C77.060241,48.9879518 76.8915663,48.939759 76.746988,48.8915663 L76.8674699,48.3614458 C76.9879518,48.4096386 77.1325301,48.4578313 77.3253012,48.4819277 C77.4939759,48.5301205 77.686747,48.5301205 77.8795181,48.5301205 C78.2409639,48.5301205 78.5060241,48.4578313 78.6746988,48.313253 C78.8433735,48.1686747 78.9156627,47.9277108 78.9156627,47.6144578 L78.9156627,47.4698795 L78.939759,47.4698795 Z M78.9156627,44.8915663 C78.8433735,44.8674699 78.7710843,44.8674699 78.6746988,44.8433735 C78.5783133,44.8192771 78.4337349,44.8192771 78.2409639,44.8192771 C77.9036145,44.8192771 77.6626506,44.939759 77.4698795,45.1566265 C77.3012048,45.373494 77.2048193,45.6626506 77.2048193,46.0240964 C77.2048193,46.2168675 77.2289157,46.3855422 77.2771084,46.5301205 C77.3253012,46.6746988 77.3975904,46.7951807 77.4939759,46.8915663 C77.5903614,46.9879518 77.686747,47.060241 77.7831325,47.1084337 C77.9036145,47.1566265 78.0240964,47.1807229 78.1204819,47.1807229 C78.2891566,47.1807229 78.4337349,47.1566265 78.5783133,47.1084337 C78.7228916,47.060241 78.8192771,47.0120482 78.8915663,46.939759 L78.8915663,44.8915663 L78.9156627,44.8915663 Z" id="Shape"></path>
            <path d="M80.4096386,46.0963855 C80.4096386,45.7831325 80.4578313,45.5180723 80.5542169,45.3012048 C80.6506024,45.0843373 80.7710843,44.8915663 80.9156627,44.7228916 C81.060241,44.5783133 81.2289157,44.4578313 81.4216867,44.3855422 C81.6144578,44.313253 81.8072289,44.2650602 82,44.2650602 C82.4578313,44.2650602 82.8192771,44.4096386 83.060241,44.6987952 C83.3012048,44.9879518 83.4216867,45.4216867 83.4216867,46.0240964 L83.4216867,46.1204819 L83.4216867,46.2409639 L81.060241,46.2409639 C81.0843373,46.6024096 81.1807229,46.8674699 81.373494,47.060241 C81.5662651,47.253012 81.8313253,47.3493976 82.2168675,47.3493976 C82.4337349,47.3493976 82.626506,47.3253012 82.7710843,47.3012048 C82.9156627,47.253012 83.0361446,47.2289157 83.1084337,47.1807229 L83.2048193,47.7108434 C83.1325301,47.7590361 82.9879518,47.7831325 82.8192771,47.8313253 C82.626506,47.8795181 82.4096386,47.9036145 82.1686747,47.9036145 C81.8554217,47.9036145 81.6144578,47.8554217 81.3975904,47.7590361 C81.1807229,47.6626506 80.9879518,47.5421687 80.8674699,47.373494 C80.7228916,47.2048193 80.626506,47.0361446 80.5542169,46.7951807 C80.4578313,46.6024096 80.4096386,46.3614458 80.4096386,46.0963855 L80.4096386,46.0963855 Z M82.7951807,45.7590361 C82.7951807,45.4698795 82.7228916,45.253012 82.5783133,45.060241 C82.4337349,44.8915663 82.2409639,44.7951807 81.9759036,44.7951807 C81.8313253,44.7951807 81.7108434,44.8192771 81.5903614,44.8674699 C81.4698795,44.9156627 81.3975904,44.9879518 81.3253012,45.0843373 C81.253012,45.1807229 81.1807229,45.2771084 81.1566265,45.3975904 C81.1084337,45.5180723 81.0843373,45.6385542 81.0843373,45.7590361 L82.7951807,45.7590361 L82.7951807,45.7590361 Z" id="Shape"></path>
            <path d="M12.1204819,27.8554217 C10.8192771,27.8795181 10.939759,35.8072289 10.939759,35.8072289 C10.939759,35.8313253 10.9156627,35.8554217 10.9156627,35.8795181 L13.2771084,35.8795181 C13.2771084,35.8554217 13.253012,35.8313253 13.253012,35.8072289 C13.3012048,35.8072289 13.4216867,27.8795181 12.1204819,27.8554217" id="Shape"></path>
            <path d="M16.2409639,22.313253 C20.7710843,21.9759036 23.4698795,18.4096386 23.4698795,13.6385542 C23.4698795,11.0120482 21.3012048,8.89156627 18.626506,8.89156627 L13.9277108,8.89156627 C11.9277108,8.89156627 10.2409639,9.34939759 9.4939759,11.0120482 C9.97590361,9.25301205 11.4216867,7.87951807 13.253012,7.42168675 C12.6506024,7.15662651 11.9759036,7.01204819 11.3012048,7.01204819 L5.27710843,7.01204819 C2.48192771,7.01204819 0.21686747,9.30120482 0.21686747,12.1204819 C0.21686747,17.4216867 3.18072289,22.1445783 8.12048193,22.2891566 L6.91566265,22.2891566 C5.54216867,22.2891566 4.62650602,22.4096386 3.25301205,22.2168675 L4.07228916,34.7710843 C4.09638554,35.373494 4.55421687,35.8313253 5.08433735,35.8313253 L9.63855422,35.8313253 C9.63855422,35.8072289 9.61445783,35.7831325 9.61445783,35.7590361 C9.61445783,35.7590361 8.43373494,30.5060241 8.43373494,26.3373494 C8.43373494,24.8674699 8.57831325,23.2771084 8.6746988,22.3614458 C8.6746988,22.2168675 8.62650602,22.1204819 8.53012048,22.0240964 L8.53012048,22.0240964 C5.92771084,20.6024096 4.14457831,17.5903614 4.14457831,14.1204819 L4.14457831,14.1204819 C4.14457831,13.7349398 4.43373494,13.4216867 4.81927711,13.4216867 C5.18072289,13.4216867 5.4939759,13.7349398 5.4939759,14.1204819 C5.54216867,17.4216867 8.48192771,20.1686747 12.1204819,20.1686747 C15.7590361,20.1686747 18.7228916,17.4216867 18.7710843,14.1204819 C18.7710843,13.7349398 19.060241,13.4216867 19.4457831,13.4216867 C19.8072289,13.4216867 20.1204819,13.7349398 20.1204819,14.1204819 C20.1204819,17.6144578 18.3373494,20.626506 15.7349398,22.0963855 L15.7349398,22.0963855 C15.6385542,22.1686747 15.5903614,22.2891566 15.5903614,22.4337349 C15.686747,23.3493976 15.8313253,24.939759 15.8313253,26.4096386 C15.8313253,30.5783133 14.6506024,35.8313253 14.6506024,35.8313253 C14.6506024,35.8554217 14.626506,35.8795181 14.626506,35.9036145 L19.1566265,35.9036145 C19.686747,35.9036145 20.1445783,35.4216867 20.1686747,34.8433735 L21.0120482,21.8554217 C19.4457831,22.4096386 18.2891566,22.3373494 16.5301205,22.3373494 L16.2409639,22.3373494 L16.2409639,22.313253 Z M12.1204819,19.060241 C10.9638554,19.060241 10.0240964,18.1204819 10.0240964,16.9638554 C10.0240964,15.8072289 10.9638554,14.8674699 12.1204819,14.8674699 C13.2771084,14.8674699 14.2168675,15.8072289 14.2168675,16.9638554 C14.2168675,18.1204819 13.2771084,19.060241 12.1204819,19.060241 L12.1204819,19.060241 Z" id="Shape"></path>
            <path d="M7.01204819,5.97590361 C8.62650602,5.97590361 9.92771084,4.6746988 9.92771084,3.06024096 C9.92771084,1.44578313 8.62650602,0.144578313 7.01204819,0.144578313 C5.39759036,0.144578313 4.09638554,1.44578313 4.09638554,3.06024096 C4.09638554,4.65060241 5.39759036,5.97590361 7.01204819,5.97590361" id="Shape"></path>
            <path d="M16.8433735,7.08433735 C18.2891566,7.08433735 19.4698795,5.90361446 19.4698795,4.45783133 C19.4698795,2.98795181 18.2891566,1.80722892 16.8433735,1.80722892 C15.3975904,1.80722892 14.1927711,2.98795181 14.1927711,4.45783133 C14.1927711,5.90361446 15.373494,7.08433735 16.8433735,7.08433735" id="Shape"></path>
            <path d="M57.1566265,12.5301205 C53.8795181,12.5301205 51.3012048,15.1084337 51.3012048,18.3855422 L51.3012048,29.6626506 L54.5060241,29.6626506 L54.5060241,22.939759 L59.8313253,22.939759 L59.8313253,29.6626506 L63.0361446,29.6626506 L63.0361446,18.3855422 C63.0120482,14.7710843 60.7710843,12.5301205 57.1566265,12.5301205 L57.1566265,12.5301205 Z M54.5060241,19.7349398 L54.5060241,18.3855422 C54.5060241,16.6506024 55.8795181,15.5662651 57.1566265,15.5662651 C59.3493976,15.5662651 59.8072289,17.1084337 59.8072289,18.3855422 L59.8072289,19.7349398 L54.5060241,19.7349398 L54.5060241,19.7349398 Z" id="Shape"></path>
            <path d="M48,29.6626506 L44.8192771,29.6626506 L44.8192771,18.3855422 C44.8192771,17.0843373 44.3614458,15.5662651 42.1686747,15.5662651 C40.8915663,15.5662651 39.5180723,16.6506024 39.5180723,18.3855422 L39.5180723,29.6626506 L36.313253,29.6626506 L36.313253,18.3855422 C36.313253,17.0843373 35.8554217,15.5662651 33.6626506,15.5662651 C32.3855422,15.5662651 31.0120482,16.6506024 31.0120482,18.3855422 L31.0120482,29.6626506 L27.8072289,29.6626506 L27.8072289,18.3855422 C27.8072289,15.1084337 30.3855422,12.5301205 33.6626506,12.5301205 C35.4939759,12.5301205 36.9879518,13.1084337 38.0240964,14.2168675 C39.1084337,13.1325301 40.5783133,12.5301205 42.1686747,12.5301205 C45.7831325,12.5301205 48.0240964,14.7710843 48.0240964,18.3855422 L48.0240964,29.6626506 L48,29.6626506 Z" id="Shape"></path>
            <path d="M79.060241,18.3855422 C79.060241,14.3373494 76.0481928,12.4819277 73.253012,12.4819277 C72.6506024,12.4819277 70.5301205,12.6024096 68.8674699,14.313253 C67.5421687,15.6626506 66.8674699,17.5903614 66.9156627,20.0240964 L66.9156627,23.9518072 L66.9156627,23.9518072 L66.9156627,29.6385542 L70.1204819,29.6385542 L70.1204819,24.8433735 L70.1686747,24.8433735 C71.2771084,24.7710843 72.2650602,24.626506 73.1566265,24.4096386 L75.5662651,29.6385542 L79.0843373,29.6385542 L76.1686747,23.3012048 C78.0963855,22.2168675 79.060241,20.5783133 79.060241,18.3855422 M70.1204819,21.686747 L70.1204819,19.8313253 C70.1204819,18.3373494 70.4819277,17.2289157 71.1807229,16.5060241 C72,15.6626506 73.1084337,15.6144578 73.3012048,15.6144578 L73.3493976,15.6144578 C74.8433735,15.6144578 75.9759036,16.6746988 75.9759036,18.0963855 C75.9759036,19.1807229 75.373494,20.1445783 74.4337349,20.626506 C73.4216867,21.1807229 71.9759036,21.5421687 70.1204819,21.686747" id="Shape"></path>
            <path d="M88.0240964,15.6385542 L92.2409639,15.6626506 L92.2409639,12.4819277 L87.9759036,12.4819277 C87.373494,12.4819277 85.253012,12.6024096 83.5903614,14.313253 C82.2650602,15.6626506 81.5903614,17.5903614 81.6385542,20.0240964 L81.6385542,22.1204819 C81.6144578,24.5542169 82.2650602,26.4819277 83.5903614,27.8313253 C85.253012,29.5180723 87.373494,29.6626506 87.9759036,29.6626506 L92.2409639,29.6626506 L92.2409639,26.5060241 L88.0240964,26.5301205 C87.8072289,26.5301205 86.7228916,26.4819277 85.9036145,25.6385542 C85.253012,24.9879518 84.9156627,23.9759036 84.8674699,22.626506 L89.5421687,22.626506 L89.5421687,19.5662651 L84.8674699,19.5662651 C84.9156627,18.2168675 85.253012,17.1807229 85.9036145,16.5301205 C86.7228916,15.6626506 87.8313253,15.6385542 88.0240964,15.6385542" id="Shape"></path>
        </g>
    </g>
</svg>