<?xml version="1.0" encoding="utf-8"?>
<!-- Generator: Adobe Illustrator 20.1.0, SVG Export Plug-In . SVG Version: 6.00 Build 0)  -->
<svg version="1.1" id="Layer_1" xmlns="http://www.w3.org/2000/svg" xmlns:xlink="http://www.w3.org/1999/xlink" x="0px" y="0px"
	 viewBox="0 0 700.7 148.3" style="enable-background:new 0 0 700.7 148.3;" xml:space="preserve">
<style type="text/css">
	.st0{fill:#FFFFFF;}
</style>
<path class="st0" d="M49.3,115c-5.4,0.1-4.9,33-4.9,33c0,0.1-0.1,0.2-0.1,0.3h9.8c0-0.1-0.1-0.2-0.1-0.3
	C54.2,148,54.7,115.1,49.3,115"/>
<path class="st0" d="M66.4,92c18.8-1.4,30-16.2,30-36c0-10.9-9-19.7-20.1-19.7H56.8c-8.3,0-15.3,1.9-18.4,8.8c2-7.3,8-13,15.6-14.9
	c-2.5-1.1-5.3-1.7-8.1-1.7H21c-11.6,0-21,9.5-21,21.2c0,22,12.3,41.6,32.8,42.2h-5c-5.7,0-9.5,0.5-15.2-0.3l3.4,52.1
	c0.1,2.5,2,4.4,4.2,4.4H39c0-0.1-0.1-0.2-0.1-0.3c0,0-4.9-21.8-4.9-39.1c0-6.1,0.6-12.7,1-16.5c0-0.6-0.2-1-0.6-1.4l0,0
	C23.7,84.9,16.2,72.4,16.2,58h0c0-1.6,1.2-2.9,2.8-2.9c1.5,0,2.8,1.3,2.8,2.9C22,71.7,34.2,83.1,49.3,83.1
	c15.1,0,27.4-11.4,27.6-25.1c0-1.6,1.2-2.9,2.8-2.9c1.5,0,2.8,1.3,2.8,2.9c0,14.5-7.4,27-18.2,33.1l0,0c-0.4,0.3-0.6,0.8-0.6,1.4
	c0.4,3.8,1,10.4,1,16.5c0,17.3-4.9,39.1-4.9,39.1c0,0.1-0.1,0.2-0.1,0.3h18.8c2.2,0,4.1-2,4.2-4.4L86.3,90c-6.5,2.3-11.3,2-18.6,2
	H66.4z M49.3,78.5c-4.8,0-8.7-3.9-8.7-8.7c0-4.8,3.9-8.7,8.7-8.7c4.8,0,8.7,3.9,8.7,8.7C58,74.6,54.2,78.5,49.3,78.5"/>
<path class="st0" d="M28.1,24.2c6.7,0,12.1-5.4,12.1-12.1C40.2,5.4,34.8,0,28.1,0C21.4,0,16,5.4,16,12.1
	C16,18.8,21.4,24.2,28.1,24.2"/>
<path class="st0" d="M68.9,28.8c6,0,10.9-4.9,10.9-10.9c0-6.1-4.9-11-10.9-11c-6,0-11,4.9-11,11C57.9,23.9,62.8,28.8,68.9,28.8"/>
<g>
	<g>
		<path class="st0" d="M401.7,64.5c0.6-0.1,1.4-0.3,2.3-0.5c1-0.2,2.1-0.2,3.3-0.2c0.9,0,1.7,0.1,2.3,0.4c0.6,0.2,1.1,0.6,1.6,1.1
			c0.1-0.1,0.3-0.2,0.6-0.4c0.3-0.2,0.6-0.3,1-0.5c0.4-0.2,0.9-0.3,1.4-0.4c0.5-0.1,1-0.2,1.6-0.2c1.1,0,2,0.2,2.7,0.5
			c0.7,0.3,1.2,0.8,1.6,1.4c0.4,0.6,0.7,1.3,0.8,2.1c0.1,0.8,0.2,1.7,0.2,2.6v8h-2.6v-7.5c0-0.8,0-1.6-0.1-2.2
			c-0.1-0.6-0.2-1.1-0.5-1.5c-0.2-0.4-0.5-0.7-0.9-0.9c-0.4-0.2-0.9-0.3-1.5-0.3c-0.9,0-1.6,0.1-2.1,0.3c-0.6,0.2-0.9,0.4-1.1,0.6
			c0.1,0.5,0.3,1,0.3,1.6c0.1,0.6,0.1,1.2,0.1,1.8v8h-2.6v-7.5c0-0.8,0-1.6-0.1-2.2c-0.1-0.6-0.3-1.1-0.5-1.5
			c-0.2-0.4-0.5-0.7-0.9-0.9c-0.4-0.2-0.9-0.3-1.5-0.3c-0.3,0-0.5,0-0.8,0c-0.3,0-0.6,0-0.8,0.1c-0.3,0-0.5,0.1-0.7,0.1
			c-0.2,0-0.4,0.1-0.4,0.1v12.1h-2.6V64.5z"/>
		<path class="st0" d="M430,63.7c1,0,1.9,0.1,2.6,0.4c0.7,0.3,1.3,0.6,1.7,1.1c0.4,0.5,0.7,1.1,0.9,1.7c0.2,0.7,0.3,1.4,0.3,2.2v9
			c-0.2,0-0.5,0.1-0.9,0.2c-0.4,0.1-0.8,0.1-1.3,0.2c-0.5,0.1-1,0.1-1.6,0.2c-0.6,0-1.2,0.1-1.7,0.1c-0.8,0-1.6-0.1-2.2-0.2
			c-0.7-0.2-1.3-0.4-1.8-0.8c-0.5-0.4-0.9-0.8-1.2-1.4c-0.3-0.6-0.4-1.3-0.4-2.1c0-0.8,0.2-1.5,0.5-2c0.3-0.6,0.8-1,1.3-1.4
			c0.6-0.3,1.2-0.6,1.9-0.8c0.7-0.2,1.5-0.2,2.3-0.2c0.3,0,0.5,0,0.8,0c0.3,0,0.5,0.1,0.8,0.1c0.2,0,0.5,0.1,0.6,0.1
			c0.2,0,0.3,0.1,0.4,0.1v-0.7c0-0.4,0-0.8-0.1-1.3c-0.1-0.4-0.3-0.8-0.5-1.1c-0.2-0.3-0.6-0.6-1-0.8c-0.4-0.2-1-0.3-1.6-0.3
			c-0.8,0-1.6,0.1-2.2,0.2c-0.6,0.1-1.1,0.2-1.4,0.4l-0.3-2.1c0.3-0.1,0.9-0.3,1.7-0.4C428.3,63.8,429.1,63.7,430,63.7 M430.3,76.6
			c0.6,0,1.1,0,1.6,0c0.5,0,0.9-0.1,1.2-0.2v-4.3c-0.2-0.1-0.5-0.2-0.9-0.2c-0.4-0.1-0.9-0.1-1.5-0.1c-0.4,0-0.8,0-1.2,0.1
			c-0.4,0.1-0.8,0.2-1.2,0.3c-0.4,0.2-0.7,0.4-0.9,0.7c-0.2,0.3-0.4,0.7-0.4,1.2c0,0.9,0.3,1.6,0.9,1.9
			C428.5,76.4,429.3,76.6,430.3,76.6"/>
		<path class="st0" d="M443.1,76.6c1,0,1.8-0.1,2.3-0.4c0.5-0.3,0.8-0.7,0.8-1.3c0-0.6-0.2-1.1-0.7-1.5c-0.5-0.4-1.3-0.8-2.5-1.2
			c-0.5-0.2-1.1-0.4-1.6-0.7c-0.5-0.2-0.9-0.5-1.3-0.8c-0.4-0.3-0.7-0.7-0.9-1.1c-0.2-0.4-0.3-1-0.3-1.6c0-1.3,0.5-2.3,1.4-3
			c0.9-0.7,2.2-1.1,3.8-1.1c0.4,0,0.8,0,1.2,0.1c0.4,0,0.8,0.1,1.1,0.2c0.3,0.1,0.7,0.1,0.9,0.2c0.3,0.1,0.5,0.1,0.6,0.2l-0.5,2.2
			c-0.3-0.1-0.7-0.3-1.3-0.5c-0.6-0.2-1.3-0.2-2.1-0.2c-0.7,0-1.3,0.1-1.9,0.4c-0.5,0.3-0.8,0.7-0.8,1.3c0,0.3,0.1,0.6,0.2,0.8
			c0.1,0.2,0.3,0.5,0.6,0.6c0.2,0.2,0.6,0.4,0.9,0.5c0.4,0.2,0.8,0.3,1.3,0.5c0.7,0.3,1.3,0.5,1.8,0.8c0.5,0.2,1,0.5,1.4,0.9
			c0.4,0.3,0.7,0.7,0.9,1.2c0.2,0.5,0.3,1,0.3,1.7c0,1.3-0.5,2.3-1.5,3c-1,0.7-2.4,1-4.2,1c-1.3,0-2.3-0.1-3-0.3
			c-0.7-0.2-1.2-0.4-1.5-0.5l0.5-2.2c0.3,0.1,0.8,0.3,1.4,0.5C441.2,76.5,442.1,76.6,443.1,76.6"/>
		<path class="st0" d="M455.4,76.6c1,0,1.8-0.1,2.3-0.4c0.5-0.3,0.8-0.7,0.8-1.3c0-0.6-0.2-1.1-0.7-1.5c-0.5-0.4-1.3-0.8-2.5-1.2
			c-0.5-0.2-1.1-0.4-1.6-0.7c-0.5-0.2-0.9-0.5-1.3-0.8c-0.4-0.3-0.7-0.7-0.9-1.1c-0.2-0.4-0.3-1-0.3-1.6c0-1.3,0.5-2.3,1.4-3
			c0.9-0.7,2.2-1.1,3.8-1.1c0.4,0,0.8,0,1.2,0.1c0.4,0,0.8,0.1,1.1,0.2c0.3,0.1,0.7,0.1,0.9,0.2c0.3,0.1,0.5,0.1,0.6,0.2l-0.5,2.2
			c-0.3-0.1-0.7-0.3-1.3-0.5c-0.6-0.2-1.3-0.2-2.1-0.2c-0.7,0-1.3,0.1-1.9,0.4c-0.5,0.3-0.8,0.7-0.8,1.3c0,0.3,0.1,0.6,0.2,0.8
			c0.1,0.2,0.3,0.5,0.6,0.6c0.2,0.2,0.6,0.4,0.9,0.5c0.4,0.2,0.8,0.3,1.3,0.5c0.7,0.3,1.3,0.5,1.8,0.8c0.5,0.2,1,0.5,1.4,0.9
			c0.4,0.3,0.7,0.7,0.9,1.2c0.2,0.5,0.3,1,0.3,1.7c0,1.3-0.5,2.3-1.5,3c-1,0.7-2.4,1-4.2,1c-1.3,0-2.3-0.1-3-0.3
			c-0.7-0.2-1.2-0.4-1.5-0.5l0.5-2.2c0.3,0.1,0.8,0.3,1.4,0.5C453.5,76.5,454.4,76.6,455.4,76.6"/>
		<path class="st0" d="M469,63.7c1,0,1.9,0.1,2.6,0.4c0.7,0.3,1.3,0.6,1.7,1.1c0.4,0.5,0.7,1.1,0.9,1.7c0.2,0.7,0.3,1.4,0.3,2.2v9
			c-0.2,0-0.5,0.1-0.9,0.2c-0.4,0.1-0.8,0.1-1.3,0.2c-0.5,0.1-1,0.1-1.6,0.2c-0.6,0-1.2,0.1-1.7,0.1c-0.8,0-1.6-0.1-2.2-0.2
			c-0.7-0.2-1.3-0.4-1.8-0.8c-0.5-0.4-0.9-0.8-1.2-1.4c-0.3-0.6-0.4-1.3-0.4-2.1c0-0.8,0.2-1.5,0.5-2c0.3-0.6,0.8-1,1.3-1.4
			c0.6-0.3,1.2-0.6,1.9-0.8c0.7-0.2,1.5-0.2,2.3-0.2c0.3,0,0.5,0,0.8,0c0.3,0,0.5,0.1,0.8,0.1c0.2,0,0.5,0.1,0.6,0.1
			c0.2,0,0.3,0.1,0.4,0.1v-0.7c0-0.4,0-0.8-0.1-1.3c-0.1-0.4-0.3-0.8-0.5-1.1c-0.2-0.3-0.6-0.6-1-0.8c-0.4-0.2-1-0.3-1.6-0.3
			c-0.8,0-1.6,0.1-2.2,0.2c-0.6,0.1-1.1,0.2-1.4,0.4l-0.3-2.1c0.3-0.1,0.9-0.3,1.7-0.4C467.3,63.8,468.1,63.7,469,63.7 M469.2,76.6
			c0.6,0,1.1,0,1.6,0c0.5,0,0.9-0.1,1.2-0.2v-4.3c-0.2-0.1-0.5-0.2-0.9-0.2c-0.4-0.1-0.9-0.1-1.5-0.1c-0.4,0-0.8,0-1.2,0.1
			c-0.4,0.1-0.8,0.2-1.2,0.3c-0.4,0.2-0.7,0.4-0.9,0.7c-0.2,0.3-0.4,0.7-0.4,1.2c0,0.9,0.3,1.6,0.9,1.9
			C467.4,76.4,468.2,76.6,469.2,76.6"/>
		<path class="st0" d="M485,78.7c-1.2,0-2.2-0.2-3-0.6c-0.9-0.4-1.6-0.9-2.2-1.5c-0.6-0.7-1-1.4-1.3-2.4c-0.3-0.9-0.4-1.9-0.4-3
			c0-1.1,0.2-2.1,0.5-3c0.3-0.9,0.8-1.7,1.4-2.4c0.6-0.7,1.3-1.2,2.2-1.6c0.9-0.4,1.8-0.6,2.9-0.6c0.6,0,1.3,0.1,1.9,0.2
			c0.6,0.1,1.3,0.3,1.8,0.5l-0.6,2.2c-0.4-0.2-0.8-0.3-1.3-0.4c-0.5-0.1-1-0.2-1.6-0.2c-1.4,0-2.5,0.5-3.3,1.4
			c-0.8,0.9-1.1,2.2-1.1,3.9c0,0.8,0.1,1.5,0.3,2.1c0.2,0.6,0.4,1.2,0.8,1.7c0.4,0.5,0.9,0.8,1.4,1.1c0.6,0.2,1.3,0.4,2.2,0.4
			c0.7,0,1.3-0.1,1.8-0.2c0.6-0.1,1-0.3,1.3-0.4l0.4,2.2c-0.1,0.1-0.4,0.2-0.6,0.3c-0.3,0.1-0.6,0.2-0.9,0.2
			c-0.4,0.1-0.7,0.1-1.1,0.2C485.8,78.7,485.4,78.7,485,78.7"/>
		<path class="st0" d="M491.6,78.4V57.5l2.6-0.4v7.3c0.5-0.2,1-0.3,1.5-0.4c0.5-0.1,1.1-0.2,1.6-0.2c1.1,0,2.1,0.2,2.8,0.5
			c0.8,0.3,1.4,0.8,1.8,1.4c0.4,0.6,0.8,1.3,1,2.1c0.2,0.8,0.3,1.7,0.3,2.7v8h-2.6v-7.5c0-0.9-0.1-1.6-0.2-2.3
			c-0.1-0.6-0.3-1.1-0.6-1.5c-0.3-0.4-0.6-0.7-1.1-0.8c-0.5-0.2-1-0.3-1.7-0.3c-0.3,0-0.6,0-0.9,0.1c-0.3,0-0.6,0.1-0.8,0.1
			c-0.3,0-0.5,0.1-0.7,0.2c-0.2,0.1-0.4,0.1-0.5,0.1v11.9H491.6z"/>
		<path class="st0" d="M518.7,78c-0.6,0.1-1.4,0.3-2.3,0.5c-1,0.2-2.1,0.2-3.3,0.2c-1.1,0-2-0.2-2.8-0.5c-0.8-0.3-1.4-0.8-1.8-1.4
			c-0.5-0.6-0.8-1.3-1-2.1c-0.2-0.8-0.3-1.7-0.3-2.7v-8h2.6v7.5c0,1.7,0.3,3,0.8,3.8c0.6,0.8,1.5,1.1,2.8,1.1c0.3,0,0.6,0,0.9,0
			c0.3,0,0.6,0,0.8-0.1c0.3,0,0.5-0.1,0.7-0.1c0.2,0,0.4-0.1,0.5-0.1V64.1h2.6V78z"/>
		<path class="st0" d="M526.5,76.6c1,0,1.8-0.1,2.3-0.4c0.5-0.3,0.8-0.7,0.8-1.3c0-0.6-0.2-1.1-0.7-1.5c-0.5-0.4-1.3-0.8-2.5-1.2
			c-0.6-0.2-1.1-0.4-1.6-0.7c-0.5-0.2-0.9-0.5-1.3-0.8c-0.4-0.3-0.7-0.7-0.9-1.1c-0.2-0.4-0.3-1-0.3-1.6c0-1.3,0.5-2.3,1.4-3
			c0.9-0.7,2.2-1.1,3.8-1.1c0.4,0,0.8,0,1.2,0.1s0.8,0.1,1.1,0.2c0.3,0.1,0.7,0.1,0.9,0.2c0.3,0.1,0.5,0.1,0.6,0.2l-0.5,2.2
			c-0.3-0.1-0.7-0.3-1.3-0.5c-0.6-0.2-1.3-0.2-2.1-0.2c-0.7,0-1.3,0.1-1.9,0.4c-0.5,0.3-0.8,0.7-0.8,1.3c0,0.3,0.1,0.6,0.2,0.8
			c0.1,0.2,0.3,0.5,0.6,0.6c0.2,0.2,0.6,0.4,0.9,0.5c0.4,0.2,0.8,0.3,1.3,0.5c0.7,0.3,1.3,0.5,1.8,0.8c0.5,0.2,1,0.5,1.4,0.9
			c0.4,0.3,0.7,0.7,0.9,1.2c0.2,0.5,0.3,1,0.3,1.7c0,1.3-0.5,2.3-1.5,3c-1,0.7-2.4,1-4.2,1c-1.3,0-2.3-0.1-3-0.3
			c-0.7-0.2-1.2-0.4-1.5-0.5l0.5-2.2c0.3,0.1,0.8,0.3,1.4,0.5C524.6,76.5,525.4,76.6,526.5,76.6"/>
		<path class="st0" d="M534.6,71.3c0-1.3,0.2-2.4,0.6-3.3c0.4-0.9,0.9-1.7,1.5-2.4c0.6-0.6,1.3-1.1,2.1-1.4c0.8-0.3,1.6-0.5,2.4-0.5
			c1.9,0,3.4,0.6,4.4,1.8c1,1.2,1.5,3,1.5,5.5v0.4c0,0.2,0,0.3,0,0.5h-9.8c0.1,1.5,0.5,2.6,1.3,3.4c0.8,0.8,1.9,1.2,3.5,1.2
			c0.9,0,1.7-0.1,2.3-0.2c0.6-0.2,1.1-0.3,1.4-0.5l0.4,2.2c-0.3,0.2-0.9,0.3-1.6,0.5c-0.8,0.2-1.7,0.3-2.7,0.3
			c-1.3,0-2.3-0.2-3.2-0.6c-0.9-0.4-1.7-0.9-2.2-1.6c-0.6-0.7-1-1.4-1.3-2.4C534.8,73.4,534.6,72.4,534.6,71.3 M544.5,69.9
			c0-1.2-0.3-2.1-0.9-2.9c-0.6-0.7-1.4-1.1-2.5-1.1c-0.6,0-1.1,0.1-1.6,0.3c-0.5,0.2-0.8,0.5-1.1,0.9c-0.3,0.4-0.6,0.8-0.7,1.3
			c-0.2,0.5-0.3,1-0.3,1.5H544.5z"/>
		<path class="st0" d="M553.2,64.1h5.4v2.2h-5.4v6.6c0,0.7,0.1,1.3,0.2,1.8c0.1,0.5,0.3,0.8,0.5,1.1c0.2,0.3,0.5,0.5,0.8,0.6
			c0.3,0.1,0.7,0.2,1.2,0.2c0.8,0,1.4-0.1,1.9-0.3c0.5-0.2,0.8-0.3,1-0.4l0.5,2.1c-0.3,0.1-0.7,0.3-1.4,0.5
			c-0.6,0.2-1.4,0.3-2.2,0.3c-1,0-1.8-0.1-2.4-0.4c-0.6-0.2-1.1-0.6-1.5-1.1c-0.4-0.5-0.7-1.1-0.8-1.8c-0.2-0.7-0.2-1.6-0.2-2.5
			V60.1l2.6-0.4V64.1z"/>
		<path class="st0" d="M564.3,64.1h5.4v2.2h-5.4v6.6c0,0.7,0.1,1.3,0.2,1.8c0.1,0.5,0.3,0.8,0.5,1.1c0.2,0.3,0.5,0.5,0.8,0.6
			c0.3,0.1,0.7,0.2,1.2,0.2c0.8,0,1.4-0.1,1.9-0.3c0.5-0.2,0.8-0.3,1-0.4l0.5,2.1c-0.3,0.1-0.7,0.3-1.4,0.5
			c-0.6,0.2-1.4,0.3-2.2,0.3c-1,0-1.8-0.1-2.4-0.4c-0.6-0.2-1.1-0.6-1.5-1.1c-0.4-0.5-0.7-1.1-0.8-1.8c-0.2-0.7-0.2-1.6-0.2-2.5
			V60.1l2.6-0.4V64.1z"/>
		<path class="st0" d="M576.3,76.6c1,0,1.8-0.1,2.3-0.4c0.5-0.3,0.8-0.7,0.8-1.3c0-0.6-0.2-1.1-0.7-1.5c-0.5-0.4-1.3-0.8-2.5-1.2
			c-0.6-0.2-1.1-0.4-1.6-0.7c-0.5-0.2-0.9-0.5-1.3-0.8c-0.4-0.3-0.7-0.7-0.9-1.1c-0.2-0.4-0.3-1-0.3-1.6c0-1.3,0.5-2.3,1.4-3
			c0.9-0.7,2.2-1.1,3.8-1.1c0.4,0,0.8,0,1.2,0.1s0.8,0.1,1.1,0.2c0.3,0.1,0.7,0.1,0.9,0.2c0.3,0.1,0.5,0.1,0.6,0.2l-0.5,2.2
			c-0.3-0.1-0.7-0.3-1.3-0.5c-0.6-0.2-1.3-0.2-2.1-0.2c-0.7,0-1.3,0.1-1.9,0.4c-0.5,0.3-0.8,0.7-0.8,1.3c0,0.3,0.1,0.6,0.2,0.8
			c0.1,0.2,0.3,0.5,0.6,0.6c0.2,0.2,0.6,0.4,0.9,0.5s0.8,0.3,1.3,0.5c0.7,0.3,1.3,0.5,1.8,0.8c0.5,0.2,1,0.5,1.4,0.9
			c0.4,0.3,0.7,0.7,0.9,1.2c0.2,0.5,0.3,1,0.3,1.7c0,1.3-0.5,2.3-1.5,3c-1,0.7-2.4,1-4.2,1c-1.3,0-2.3-0.1-3-0.3
			c-0.7-0.2-1.2-0.4-1.5-0.5l0.5-2.2c0.3,0.1,0.8,0.3,1.4,0.5C574.4,76.5,575.3,76.6,576.3,76.6"/>
		<path class="st0" d="M596.3,63.7c1,0,1.9,0.1,2.6,0.4c0.7,0.3,1.3,0.6,1.7,1.1c0.4,0.5,0.7,1.1,0.9,1.7c0.2,0.7,0.3,1.4,0.3,2.2v9
			c-0.2,0-0.5,0.1-0.9,0.2c-0.4,0.1-0.8,0.1-1.3,0.2c-0.5,0.1-1,0.1-1.6,0.2c-0.6,0-1.2,0.1-1.7,0.1c-0.8,0-1.6-0.1-2.2-0.2
			c-0.7-0.2-1.3-0.4-1.8-0.8c-0.5-0.4-0.9-0.8-1.2-1.4c-0.3-0.6-0.4-1.3-0.4-2.1c0-0.8,0.2-1.5,0.5-2c0.3-0.6,0.8-1,1.3-1.4
			c0.6-0.3,1.2-0.6,1.9-0.8c0.7-0.2,1.5-0.2,2.3-0.2c0.3,0,0.5,0,0.8,0c0.3,0,0.5,0.1,0.8,0.1c0.2,0,0.5,0.1,0.6,0.1
			c0.2,0,0.3,0.1,0.4,0.1v-0.7c0-0.4,0-0.8-0.1-1.3c-0.1-0.4-0.3-0.8-0.5-1.1c-0.2-0.3-0.6-0.6-1-0.8c-0.4-0.2-1-0.3-1.6-0.3
			c-0.8,0-1.6,0.1-2.2,0.2c-0.6,0.1-1.1,0.2-1.4,0.4l-0.3-2.1c0.3-0.1,0.9-0.3,1.7-0.4S595.4,63.7,596.3,63.7 M596.5,76.6
			c0.6,0,1.1,0,1.6,0c0.5,0,0.9-0.1,1.2-0.2v-4.3c-0.2-0.1-0.5-0.2-0.9-0.2c-0.4-0.1-0.9-0.1-1.5-0.1c-0.4,0-0.8,0-1.2,0.1
			c-0.4,0.1-0.8,0.2-1.2,0.3c-0.4,0.2-0.7,0.4-0.9,0.7c-0.2,0.3-0.4,0.7-0.4,1.2c0,0.9,0.3,1.6,0.9,1.9
			C594.7,76.4,595.5,76.6,596.5,76.6"/>
		<path class="st0" d="M615.3,57.5l2.6-0.4v21c-0.6,0.2-1.3,0.3-2.3,0.5c-0.9,0.2-2,0.2-3.2,0.2c-1.1,0-2.1-0.2-3-0.5
			c-0.9-0.3-1.6-0.8-2.3-1.5c-0.6-0.6-1.1-1.4-1.4-2.4c-0.3-0.9-0.5-2-0.5-3.1c0-1.1,0.1-2.1,0.4-3c0.3-0.9,0.7-1.7,1.3-2.4
			c0.6-0.7,1.2-1.2,2-1.5c0.8-0.4,1.7-0.6,2.7-0.6c0.8,0,1.6,0.1,2.2,0.3c0.6,0.2,1.1,0.4,1.4,0.6V57.5z M615.3,67.1
			c-0.3-0.3-0.8-0.5-1.4-0.7c-0.6-0.2-1.2-0.4-1.9-0.4c-0.7,0-1.4,0.1-1.9,0.4c-0.5,0.3-1,0.6-1.3,1.1c-0.3,0.5-0.6,1-0.7,1.7
			c-0.1,0.6-0.2,1.3-0.2,2.1c0,1.7,0.4,3,1.2,3.9c0.8,0.9,1.9,1.4,3.3,1.4c0.7,0,1.3,0,1.7-0.1c0.5-0.1,0.8-0.1,1.1-0.2V67.1z"/>
		<path class="st0" d="M634.9,71.2c0,1.1-0.2,2.2-0.5,3.1c-0.3,0.9-0.8,1.7-1.4,2.4c-0.6,0.7-1.3,1.2-2.1,1.5
			c-0.8,0.4-1.7,0.5-2.7,0.5c-1,0-1.9-0.2-2.7-0.5c-0.8-0.4-1.5-0.9-2.1-1.5c-0.6-0.7-1.1-1.5-1.4-2.4c-0.3-0.9-0.5-1.9-0.5-3.1
			c0-1.1,0.2-2.1,0.5-3.1c0.3-0.9,0.8-1.7,1.4-2.4c0.6-0.7,1.3-1.2,2.1-1.5c0.8-0.4,1.7-0.5,2.7-0.5c1,0,1.9,0.2,2.7,0.5
			c0.8,0.4,1.5,0.9,2.1,1.5c0.6,0.7,1.1,1.5,1.4,2.4C634.8,69.1,634.9,70.1,634.9,71.2 M632.3,71.2c0-1.6-0.4-2.9-1.1-3.8
			c-0.7-0.9-1.7-1.4-3-1.4c-1.2,0-2.2,0.5-3,1.4c-0.7,0.9-1.1,2.2-1.1,3.8c0,1.6,0.4,2.9,1.1,3.8c0.7,0.9,1.7,1.4,3,1.4
			c1.2,0,2.2-0.5,3-1.4C631.9,74.1,632.3,72.9,632.3,71.2"/>
		<path class="st0" d="M651.2,71.3c0,1.1-0.1,2.1-0.4,3c-0.3,0.9-0.7,1.7-1.3,2.4c-0.6,0.7-1.2,1.2-2,1.5c-0.8,0.4-1.7,0.6-2.7,0.6
			c-0.8,0-1.6-0.1-2.2-0.3c-0.6-0.2-1.1-0.4-1.4-0.6v5.7h-2.6v-19c0.6-0.1,1.4-0.3,2.3-0.5c0.9-0.2,2-0.3,3.2-0.3
			c1.1,0,2.1,0.2,3,0.5c0.9,0.3,1.6,0.8,2.3,1.5c0.6,0.6,1.1,1.4,1.4,2.4C651,69.1,651.2,70.1,651.2,71.3 M648.5,71.3
			c0-1.7-0.4-3-1.2-3.9c-0.8-0.9-1.9-1.4-3.3-1.4c-0.8,0-1.4,0-1.8,0.1c-0.4,0.1-0.8,0.1-1,0.2v9c0.3,0.3,0.8,0.5,1.4,0.7
			c0.6,0.2,1.2,0.4,1.9,0.4c0.7,0,1.4-0.1,1.9-0.4c0.5-0.3,1-0.6,1.3-1.1c0.3-0.5,0.6-1,0.7-1.7C648.4,72.7,648.5,72,648.5,71.3"/>
		<path class="st0" d="M657.2,64.1h5.4v2.2h-5.4v6.6c0,0.7,0.1,1.3,0.2,1.8c0.1,0.5,0.3,0.8,0.5,1.1c0.2,0.3,0.5,0.5,0.8,0.6
			c0.3,0.1,0.7,0.2,1.2,0.2c0.8,0,1.4-0.1,1.9-0.3c0.5-0.2,0.8-0.3,1-0.4l0.5,2.1c-0.3,0.1-0.7,0.3-1.4,0.5
			c-0.6,0.2-1.4,0.3-2.2,0.3c-1,0-1.8-0.1-2.4-0.4c-0.6-0.2-1.1-0.6-1.5-1.1c-0.4-0.5-0.7-1.1-0.8-1.8c-0.2-0.7-0.2-1.6-0.2-2.5
			V60.1l2.6-0.4V64.1z"/>
		<path class="st0" d="M667.1,61.5c-0.5,0-0.8-0.2-1.2-0.5c-0.3-0.3-0.5-0.7-0.5-1.2c0-0.5,0.2-0.9,0.5-1.2c0.3-0.3,0.7-0.5,1.2-0.5
			c0.5,0,0.8,0.1,1.2,0.5c0.3,0.3,0.5,0.7,0.5,1.2c0,0.5-0.2,0.9-0.5,1.2C668,61.3,667.6,61.5,667.1,61.5 M668.4,78.4h-2.6V64.1h2.6
			V78.4z"/>
		<path class="st0" d="M685.5,71.2c0,1.1-0.2,2.2-0.5,3.1c-0.3,0.9-0.8,1.7-1.4,2.4c-0.6,0.7-1.3,1.2-2.1,1.5
			c-0.8,0.4-1.7,0.5-2.7,0.5c-1,0-1.9-0.2-2.7-0.5c-0.8-0.4-1.5-0.9-2.1-1.5c-0.6-0.7-1.1-1.5-1.4-2.4c-0.3-0.9-0.5-1.9-0.5-3.1
			c0-1.1,0.2-2.1,0.5-3.1c0.3-0.9,0.8-1.7,1.4-2.4c0.6-0.7,1.3-1.2,2.1-1.5c0.8-0.4,1.7-0.5,2.7-0.5c1,0,1.9,0.2,2.7,0.5
			c0.8,0.4,1.5,0.9,2.1,1.5c0.6,0.7,1.1,1.5,1.4,2.4C685.3,69.1,685.5,70.1,685.5,71.2 M682.8,71.2c0-1.6-0.4-2.9-1.1-3.8
			c-0.7-0.9-1.7-1.4-3-1.4c-1.2,0-2.2,0.5-3,1.4c-0.7,0.9-1.1,2.2-1.1,3.8c0,1.6,0.4,2.9,1.1,3.8c0.7,0.9,1.7,1.4,3,1.4
			c1.2,0,2.2-0.5,3-1.4C682.5,74.1,682.8,72.9,682.8,71.2"/>
		<path class="st0" d="M689.1,64.5c0.6-0.1,1.4-0.3,2.3-0.5c1-0.2,2.1-0.2,3.4-0.2c1.1,0,2.1,0.2,2.8,0.5c0.8,0.3,1.4,0.8,1.8,1.4
			c0.4,0.6,0.8,1.3,1,2.1c0.2,0.8,0.3,1.7,0.3,2.7v8h-2.6v-7.5c0-0.9-0.1-1.6-0.2-2.3c-0.1-0.6-0.3-1.1-0.6-1.5
			c-0.3-0.4-0.6-0.7-1.1-0.8c-0.5-0.2-1-0.3-1.7-0.3c-0.3,0-0.6,0-0.9,0c-0.3,0-0.6,0-0.8,0.1c-0.3,0-0.5,0.1-0.7,0.1
			c-0.2,0-0.4,0.1-0.5,0.1v12.1h-2.6V64.5z"/>
		<path class="st0" d="M407,96.9c0.2,0,0.5,0,0.8,0c0.3,0,0.6,0.1,0.8,0.1c0.3,0,0.5,0.1,0.8,0.1c0.2,0,0.4,0.1,0.5,0.1l-0.4,2.2
			c-0.2-0.1-0.5-0.2-1-0.3c-0.5-0.1-1.1-0.2-1.8-0.2c-0.5,0-1,0-1.4,0.2c-0.5,0.1-0.8,0.2-0.9,0.2v12h-2.6V97.8
			c0.6-0.2,1.4-0.4,2.3-0.6C404.8,96.9,405.9,96.9,407,96.9"/>
		<path class="st0" d="M411.5,104.3c0-1.3,0.2-2.4,0.6-3.3c0.4-0.9,0.9-1.7,1.5-2.4c0.6-0.6,1.3-1.1,2.1-1.4
			c0.8-0.3,1.6-0.5,2.4-0.5c1.9,0,3.4,0.6,4.4,1.8c1,1.2,1.5,3,1.5,5.5v0.4c0,0.2,0,0.3,0,0.5h-9.8c0.1,1.5,0.5,2.6,1.3,3.4
			c0.8,0.8,1.9,1.2,3.5,1.2c0.9,0,1.7-0.1,2.3-0.2c0.6-0.2,1.1-0.3,1.4-0.5l0.4,2.2c-0.3,0.2-0.9,0.3-1.6,0.5
			c-0.8,0.2-1.7,0.3-2.7,0.3c-1.3,0-2.3-0.2-3.2-0.6c-0.9-0.4-1.7-0.9-2.2-1.6c-0.6-0.7-1-1.4-1.3-2.4
			C411.7,106.4,411.5,105.4,411.5,104.3 M421.4,102.9c0-1.2-0.3-2.1-0.9-2.9c-0.6-0.7-1.4-1.1-2.5-1.1c-0.6,0-1.1,0.1-1.6,0.3
			c-0.4,0.2-0.8,0.5-1.1,0.9c-0.3,0.4-0.6,0.8-0.7,1.3c-0.2,0.5-0.3,1-0.3,1.5H421.4z"/>
		<path class="st0" d="M431.1,109.6c1,0,1.8-0.1,2.3-0.4c0.5-0.3,0.8-0.7,0.8-1.3c0-0.6-0.2-1.1-0.7-1.5c-0.5-0.4-1.3-0.8-2.5-1.2
			c-0.5-0.2-1.1-0.4-1.6-0.7c-0.5-0.2-0.9-0.5-1.3-0.8c-0.4-0.3-0.7-0.7-0.9-1.1c-0.2-0.4-0.3-1-0.3-1.6c0-1.3,0.5-2.3,1.4-3
			c0.9-0.7,2.2-1.1,3.8-1.1c0.4,0,0.8,0,1.2,0.1c0.4,0,0.8,0.1,1.1,0.2c0.3,0.1,0.7,0.1,0.9,0.2c0.3,0.1,0.5,0.1,0.6,0.2l-0.5,2.2
			c-0.3-0.1-0.7-0.3-1.3-0.5c-0.6-0.2-1.3-0.2-2.1-0.2c-0.7,0-1.3,0.1-1.9,0.4c-0.5,0.3-0.8,0.7-0.8,1.3c0,0.3,0.1,0.6,0.2,0.8
			c0.1,0.2,0.3,0.5,0.6,0.6c0.2,0.2,0.6,0.4,0.9,0.5s0.8,0.3,1.3,0.5c0.7,0.3,1.3,0.5,1.8,0.8c0.5,0.2,1,0.5,1.4,0.9
			c0.4,0.3,0.7,0.7,0.9,1.2c0.2,0.5,0.3,1,0.3,1.7c0,1.3-0.5,2.3-1.5,3c-1,0.7-2.4,1-4.2,1c-1.3,0-2.3-0.1-3-0.3
			c-0.7-0.2-1.2-0.4-1.5-0.5l0.5-2.2c0.3,0.1,0.8,0.3,1.4,0.5C429.1,109.5,430,109.6,431.1,109.6"/>
		<path class="st0" d="M452.7,104.3c0,1.1-0.2,2.2-0.5,3.1c-0.3,0.9-0.8,1.7-1.4,2.4c-0.6,0.7-1.3,1.2-2.1,1.5
			c-0.8,0.4-1.7,0.5-2.7,0.5c-1,0-1.9-0.2-2.7-0.5c-0.8-0.4-1.5-0.9-2.1-1.5c-0.6-0.7-1.1-1.5-1.4-2.4c-0.3-0.9-0.5-1.9-0.5-3.1
			c0-1.1,0.2-2.1,0.5-3.1c0.3-0.9,0.8-1.7,1.4-2.4c0.6-0.7,1.3-1.2,2.1-1.5c0.8-0.4,1.7-0.5,2.7-0.5c1,0,1.9,0.2,2.7,0.5
			c0.8,0.4,1.5,0.9,2.1,1.5c0.6,0.7,1.1,1.5,1.4,2.4C452.5,102.2,452.7,103.2,452.7,104.3 M450,104.3c0-1.6-0.4-2.9-1.1-3.8
			c-0.7-0.9-1.7-1.4-3-1.4s-2.2,0.5-3,1.4c-0.7,0.9-1.1,2.2-1.1,3.8c0,1.6,0.4,2.9,1.1,3.8c0.7,0.9,1.7,1.4,3,1.4s2.2-0.5,3-1.4
			C449.6,107.2,450,105.9,450,104.3"/>
		<path class="st0" d="M467.7,111.1c-0.6,0.1-1.4,0.3-2.3,0.5c-1,0.2-2.1,0.2-3.3,0.2c-1.1,0-2-0.2-2.8-0.5
			c-0.8-0.3-1.4-0.8-1.8-1.4c-0.5-0.6-0.8-1.3-1-2.1c-0.2-0.8-0.3-1.7-0.3-2.7v-8h2.6v7.5c0,1.7,0.3,3,0.8,3.8
			c0.6,0.8,1.5,1.1,2.8,1.1c0.3,0,0.6,0,0.9,0c0.3,0,0.6,0,0.8-0.1c0.3,0,0.5-0.1,0.7-0.1c0.2,0,0.4-0.1,0.5-0.1V97.2h2.6V111.1z"/>
		<path class="st0" d="M477.4,96.9c0.2,0,0.5,0,0.8,0c0.3,0,0.6,0.1,0.8,0.1c0.3,0,0.5,0.1,0.8,0.1c0.2,0,0.4,0.1,0.5,0.1l-0.4,2.2
			c-0.2-0.1-0.5-0.2-1-0.3c-0.5-0.1-1.1-0.2-1.8-0.2c-0.5,0-1,0-1.4,0.2c-0.5,0.1-0.8,0.2-0.9,0.2v12h-2.6V97.8
			c0.6-0.2,1.4-0.4,2.3-0.6C475.3,96.9,476.3,96.9,477.4,96.9"/>
		<path class="st0" d="M489,111.8c-1.2,0-2.2-0.2-3-0.6c-0.9-0.4-1.6-0.9-2.2-1.5c-0.6-0.7-1-1.4-1.3-2.4c-0.3-0.9-0.4-1.9-0.4-3
			c0-1.1,0.2-2.1,0.5-3c0.3-0.9,0.8-1.7,1.4-2.4c0.6-0.7,1.3-1.2,2.2-1.6c0.9-0.4,1.8-0.6,2.9-0.6c0.6,0,1.3,0.1,1.9,0.2
			c0.6,0.1,1.3,0.3,1.8,0.5l-0.6,2.2c-0.4-0.2-0.8-0.3-1.3-0.4c-0.5-0.1-1-0.2-1.6-0.2c-1.4,0-2.5,0.5-3.3,1.4
			c-0.8,0.9-1.1,2.2-1.1,3.9c0,0.8,0.1,1.5,0.3,2.1c0.2,0.6,0.4,1.2,0.8,1.7c0.4,0.5,0.9,0.8,1.4,1.1c0.6,0.2,1.3,0.4,2.2,0.4
			c0.7,0,1.3-0.1,1.8-0.2c0.6-0.1,1-0.3,1.3-0.4l0.4,2.2c-0.1,0.1-0.4,0.2-0.6,0.3c-0.3,0.1-0.6,0.2-0.9,0.2
			c-0.4,0.1-0.7,0.1-1.1,0.2C489.7,111.8,489.3,111.8,489,111.8"/>
		<path class="st0" d="M494.8,104.3c0-1.3,0.2-2.4,0.6-3.3c0.4-0.9,0.9-1.7,1.5-2.4c0.6-0.6,1.3-1.1,2.1-1.4
			c0.8-0.3,1.6-0.5,2.4-0.5c1.9,0,3.4,0.6,4.4,1.8c1,1.2,1.5,3,1.5,5.5v0.4c0,0.2,0,0.3,0,0.5h-9.8c0.1,1.5,0.5,2.6,1.3,3.4
			c0.8,0.8,1.9,1.2,3.5,1.2c0.9,0,1.7-0.1,2.3-0.2c0.6-0.2,1.1-0.3,1.4-0.5l0.4,2.2c-0.3,0.2-0.9,0.3-1.6,0.5
			c-0.8,0.2-1.7,0.3-2.7,0.3c-1.3,0-2.3-0.2-3.2-0.6c-0.9-0.4-1.7-0.9-2.2-1.6c-0.6-0.7-1-1.4-1.3-2.4
			C494.9,106.4,494.8,105.4,494.8,104.3 M504.6,102.9c0-1.2-0.3-2.1-0.9-2.9c-0.6-0.7-1.4-1.1-2.5-1.1c-0.6,0-1.1,0.1-1.6,0.3
			c-0.5,0.2-0.8,0.5-1.1,0.9c-0.3,0.4-0.6,0.8-0.7,1.3c-0.2,0.5-0.3,1-0.3,1.5H504.6z"/>
		<path class="st0" d="M516.5,104.3c0-1.3,0.2-2.4,0.6-3.3c0.4-0.9,0.9-1.7,1.5-2.4c0.6-0.6,1.3-1.1,2.1-1.4
			c0.8-0.3,1.6-0.5,2.4-0.5c1.9,0,3.4,0.6,4.4,1.8c1,1.2,1.5,3,1.5,5.5v0.4c0,0.2,0,0.3,0,0.5h-9.8c0.1,1.5,0.5,2.6,1.3,3.4
			c0.8,0.8,1.9,1.2,3.5,1.2c0.9,0,1.7-0.1,2.3-0.2c0.6-0.2,1.1-0.3,1.4-0.5l0.4,2.2c-0.3,0.2-0.9,0.3-1.6,0.5
			c-0.8,0.2-1.7,0.3-2.7,0.3c-1.3,0-2.3-0.2-3.2-0.6c-0.9-0.4-1.7-0.9-2.2-1.6c-0.6-0.7-1-1.4-1.3-2.4
			C516.7,106.4,516.5,105.4,516.5,104.3 M526.4,102.9c0-1.2-0.3-2.1-0.9-2.9c-0.6-0.7-1.4-1.1-2.5-1.1c-0.6,0-1.1,0.1-1.6,0.3
			c-0.4,0.2-0.8,0.5-1.1,0.9c-0.3,0.4-0.6,0.8-0.7,1.3c-0.2,0.5-0.3,1-0.3,1.5H526.4z"/>
		<path class="st0" d="M541.3,111.5c-0.2-0.4-0.5-0.9-0.7-1.4c-0.3-0.5-0.6-1-1-1.5c-0.3-0.5-0.7-1-1.1-1.6c-0.4-0.5-0.7-1-1.1-1.5
			c-0.3,0.5-0.7,1-1.1,1.5c-0.4,0.5-0.7,1-1.1,1.6c-0.3,0.5-0.7,1-1,1.5c-0.3,0.5-0.5,0.9-0.7,1.3H531c0.6-1.2,1.4-2.5,2.3-3.8
			c0.9-1.3,1.8-2.5,2.7-3.7l-4.7-6.8h2.9l3.4,5l3.4-5h2.7l-4.6,6.6c0.9,1.2,1.8,2.5,2.7,3.8c0.9,1.3,1.7,2.6,2.4,3.9H541.3z"/>
		<path class="st0" d="M552.5,111.8c-1.2,0-2.2-0.2-3-0.6c-0.9-0.4-1.6-0.9-2.2-1.5c-0.6-0.7-1-1.4-1.3-2.4c-0.3-0.9-0.4-1.9-0.4-3
			c0-1.1,0.2-2.1,0.5-3c0.3-0.9,0.8-1.7,1.4-2.4c0.6-0.7,1.3-1.2,2.2-1.6c0.9-0.4,1.8-0.6,2.9-0.6c0.6,0,1.3,0.1,1.9,0.2
			c0.6,0.1,1.3,0.3,1.8,0.5l-0.6,2.2c-0.4-0.2-0.8-0.3-1.3-0.4c-0.5-0.1-1-0.2-1.6-0.2c-1.4,0-2.5,0.5-3.3,1.4
			c-0.8,0.9-1.1,2.2-1.1,3.9c0,0.8,0.1,1.5,0.3,2.1c0.2,0.6,0.5,1.2,0.8,1.7c0.4,0.5,0.9,0.8,1.4,1.1c0.6,0.2,1.3,0.4,2.2,0.4
			c0.7,0,1.3-0.1,1.8-0.2c0.6-0.1,1-0.3,1.3-0.4l0.4,2.2c-0.1,0.1-0.4,0.2-0.6,0.3c-0.3,0.1-0.6,0.2-0.9,0.2
			c-0.4,0.1-0.7,0.1-1.1,0.2C553.2,111.8,552.8,111.8,552.5,111.8"/>
		<path class="st0" d="M559.1,111.5V90.5l2.6-0.4v7.3c0.5-0.2,1-0.3,1.5-0.4c0.5-0.1,1.1-0.2,1.6-0.2c1.1,0,2.1,0.2,2.8,0.5
			c0.8,0.3,1.4,0.8,1.8,1.4c0.5,0.6,0.8,1.3,1,2.1c0.2,0.8,0.3,1.7,0.3,2.7v8h-2.6V104c0-0.9-0.1-1.6-0.2-2.3
			c-0.1-0.6-0.3-1.1-0.6-1.5c-0.3-0.4-0.6-0.7-1.1-0.8c-0.5-0.2-1-0.3-1.7-0.3c-0.3,0-0.6,0-0.9,0.1c-0.3,0-0.6,0.1-0.8,0.1
			c-0.3,0-0.5,0.1-0.7,0.2c-0.2,0.1-0.4,0.1-0.5,0.1v11.9H559.1z"/>
		<path class="st0" d="M579.4,96.8c1,0,1.9,0.1,2.6,0.4c0.7,0.3,1.3,0.6,1.7,1.1c0.4,0.5,0.7,1.1,0.9,1.7c0.2,0.7,0.3,1.4,0.3,2.2v9
			c-0.2,0-0.5,0.1-0.9,0.2c-0.4,0.1-0.8,0.1-1.3,0.2c-0.5,0.1-1,0.1-1.6,0.2c-0.6,0-1.2,0.1-1.7,0.1c-0.8,0-1.6-0.1-2.2-0.2
			c-0.7-0.2-1.3-0.4-1.8-0.8c-0.5-0.4-0.9-0.8-1.2-1.4c-0.3-0.6-0.4-1.3-0.4-2.1c0-0.8,0.2-1.5,0.5-2c0.3-0.6,0.8-1,1.3-1.4
			c0.6-0.3,1.2-0.6,1.9-0.8c0.7-0.2,1.5-0.2,2.3-0.2c0.3,0,0.5,0,0.8,0c0.3,0,0.5,0.1,0.8,0.1c0.2,0,0.5,0.1,0.6,0.1
			c0.2,0,0.3,0.1,0.4,0.1v-0.7c0-0.4,0-0.8-0.1-1.3c-0.1-0.4-0.3-0.8-0.5-1.1c-0.2-0.3-0.6-0.6-1-0.8c-0.4-0.2-1-0.3-1.6-0.3
			c-0.8,0-1.6,0.1-2.2,0.2c-0.6,0.1-1.1,0.2-1.4,0.4l-0.3-2.1c0.3-0.1,0.9-0.3,1.7-0.4C577.7,96.9,578.5,96.8,579.4,96.8
			 M579.7,109.6c0.6,0,1.1,0,1.6,0c0.5,0,0.9-0.1,1.2-0.2v-4.3c-0.2-0.1-0.5-0.2-0.9-0.2c-0.4-0.1-0.9-0.1-1.5-0.1
			c-0.4,0-0.8,0-1.2,0.1c-0.4,0.1-0.8,0.2-1.2,0.3c-0.4,0.2-0.7,0.4-0.9,0.7c-0.2,0.3-0.4,0.7-0.4,1.2c0,0.9,0.3,1.6,0.9,1.9
			C577.8,109.5,578.6,109.6,579.7,109.6"/>
		<path class="st0" d="M589.2,97.6c0.6-0.1,1.4-0.3,2.3-0.5c1-0.2,2.1-0.2,3.4-0.2c1.1,0,2.1,0.2,2.8,0.5c0.8,0.3,1.4,0.8,1.8,1.4
			c0.4,0.6,0.8,1.3,1,2.1c0.2,0.8,0.3,1.7,0.3,2.7v8h-2.6V104c0-0.9-0.1-1.6-0.2-2.3c-0.1-0.6-0.3-1.1-0.6-1.5
			c-0.3-0.4-0.6-0.7-1.1-0.8c-0.5-0.2-1-0.3-1.7-0.3c-0.3,0-0.6,0-0.9,0c-0.3,0-0.6,0-0.8,0.1c-0.3,0-0.5,0.1-0.7,0.1
			c-0.2,0-0.4,0.1-0.5,0.1v12.1h-2.6V97.6z"/>
		<path class="st0" d="M614,110.1c-0.2,0.1-0.6,0.3-1.3,0.6c-0.6,0.2-1.4,0.3-2.2,0.3c-0.9,0-1.7-0.1-2.4-0.4
			c-0.8-0.3-1.4-0.7-2-1.3c-0.6-0.6-1-1.3-1.4-2.2c-0.3-0.9-0.5-1.9-0.5-3.1c0-1,0.2-2,0.5-2.9c0.3-0.9,0.8-1.6,1.4-2.3
			c0.6-0.6,1.3-1.1,2.2-1.5c0.9-0.4,1.8-0.5,2.9-0.5c1.2,0,2.2,0.1,3.1,0.3c0.9,0.2,1.6,0.3,2.2,0.5v12.8c0,2.2-0.6,3.8-1.7,4.8
			c-1.1,1-2.9,1.5-5.2,1.5c-0.9,0-1.8-0.1-2.6-0.2c-0.8-0.1-1.5-0.3-2.1-0.5l0.5-2.2c0.5,0.2,1.1,0.4,1.9,0.5
			c0.7,0.2,1.5,0.2,2.3,0.2c1.5,0,2.6-0.3,3.3-0.9c0.7-0.6,1-1.6,1-2.9V110.1z M614,99.4c-0.3-0.1-0.6-0.1-1-0.2
			c-0.4-0.1-1-0.1-1.8-0.1c-1.4,0-2.4,0.5-3.2,1.4c-0.7,0.9-1.1,2.1-1.1,3.6c0,0.8,0.1,1.5,0.3,2.1c0.2,0.6,0.5,1.1,0.9,1.5
			c0.4,0.4,0.8,0.7,1.2,0.9c0.5,0.2,1,0.3,1.4,0.3c0.7,0,1.3-0.1,1.9-0.3c0.6-0.2,1-0.4,1.3-0.7V99.4z"/>
		<path class="st0" d="M620.1,104.3c0-1.3,0.2-2.4,0.6-3.3c0.4-0.9,0.9-1.7,1.5-2.4c0.6-0.6,1.3-1.1,2.1-1.4
			c0.8-0.3,1.6-0.5,2.4-0.5c1.9,0,3.4,0.6,4.4,1.8c1,1.2,1.5,3,1.5,5.5v0.4c0,0.2,0,0.3,0,0.5h-9.8c0.1,1.5,0.5,2.6,1.3,3.4
			c0.8,0.8,1.9,1.2,3.5,1.2c0.9,0,1.7-0.1,2.3-0.2c0.6-0.2,1.1-0.3,1.4-0.5l0.4,2.2c-0.3,0.2-0.9,0.3-1.6,0.5
			c-0.8,0.2-1.7,0.3-2.7,0.3c-1.3,0-2.3-0.2-3.2-0.6c-0.9-0.4-1.7-0.9-2.2-1.6c-0.6-0.7-1-1.4-1.3-2.4
			C620.3,106.4,620.1,105.4,620.1,104.3 M630,102.9c0-1.2-0.3-2.1-0.9-2.9c-0.6-0.7-1.4-1.1-2.5-1.1c-0.6,0-1.1,0.1-1.6,0.3
			c-0.5,0.2-0.8,0.5-1.1,0.9c-0.3,0.4-0.6,0.8-0.7,1.3c-0.2,0.5-0.3,1-0.3,1.5H630z"/>
	</g>
	<path class="st0" d="M236.2,51.4c-13.6,0-24.3,10.7-24.3,24.3v46.8h13.3V94.6h22.1v27.9h13.3V75.7
		C260.5,60.7,251.2,51.4,236.2,51.4 M225.2,81.3v-5.6c0-7.2,5.7-11.7,11-11.7c9.1,0,11,6.4,11,11.7v5.6H225.2z"/>
	<path class="st0" d="M198.2,122.5H185V75.7c0-5.4-1.9-11.7-11-11.7c-5.3,0-11,4.5-11,11.7v46.8h-13.3l0-46.8
		c0-5.4-1.9-11.7-11-11.7c-5.3,0-11,4.5-11,11.7v46.8h-13.3V75.7c0-13.6,10.7-24.3,24.3-24.3c7.6,0,13.8,2.4,18.1,7
		c4.5-4.5,10.6-7,17.2-7c15,0,24.3,9.3,24.3,24.3V122.5z"/>
	<path class="st0" d="M327.2,75.7c0-16.8-12.5-24.5-24.1-24.5c-2.5,0-11.3,0.5-18.2,7.6c-5.5,5.6-8.3,13.6-8.1,23.7l0,16.3h0v23.6
		H290v-19.9h0.2c4.6-0.3,8.7-0.9,12.4-1.8l10,21.7h14.6l-12.1-26.3C323.1,91.6,327.2,84.8,327.2,75.7 M290,89.4v-7.7
		c0-6.2,1.5-10.8,4.4-13.8c3.4-3.5,8-3.7,8.8-3.7h0.2c6.2,0,10.9,4.4,10.9,10.3c0,4.5-2.5,8.5-6.4,10.5
		C303.7,87.3,297.7,88.8,290,89.4"/>
	<path class="st0" d="M364.3,64.3l17.5,0.1V51.2h-17.7c-2.5,0-11.3,0.5-18.2,7.6c-5.5,5.6-8.3,13.6-8.1,23.7v8.7
		c-0.1,10.1,2.6,18.1,8.1,23.7c6.9,7,15.7,7.6,18.2,7.6h17.7v-13.1l-17.5,0.1c-0.9,0-5.4-0.2-8.8-3.7c-2.7-2.7-4.1-6.9-4.3-12.5
		h19.4V80.6h-19.4c0.2-5.6,1.6-9.9,4.3-12.6C358.9,64.4,363.5,64.3,364.3,64.3"/>
</g>
</svg>
