<?xml version="1.0" encoding="utf-8"?>
<!-- Generator: Adobe Illustrator 20.1.0, SVG Export Plug-In . SVG Version: 6.00 Build 0)  -->
<svg version="1.1" id="Layer_1" xmlns="http://www.w3.org/2000/svg" xmlns:xlink="http://www.w3.org/1999/xlink" x="0px" y="0px"
	 viewBox="0 0 432 227" style="enable-background:new 0 0 432 227;" xml:space="preserve">
<style type="text/css">
	.st0{fill:#FFFFFF;}
</style>
<path class="st0" d="M124.3,163.4c0.6-0.1,1.4-0.3,2.3-0.5c1-0.2,2.1-0.2,3.3-0.2c0.9,0,1.7,0.1,2.3,0.4c0.6,0.2,1.1,0.6,1.6,1.1
	c0.1-0.1,0.3-0.2,0.6-0.4c0.3-0.2,0.6-0.3,1-0.5c0.4-0.2,0.9-0.3,1.4-0.4c0.5-0.1,1-0.2,1.6-0.2c1.1,0,2,0.2,2.7,0.5
	c0.7,0.3,1.2,0.8,1.6,1.4c0.4,0.6,0.7,1.3,0.8,2.1c0.1,0.8,0.2,1.7,0.2,2.6v8h-2.6v-7.5c0-0.8,0-1.6-0.1-2.2
	c-0.1-0.6-0.2-1.1-0.5-1.5c-0.2-0.4-0.5-0.7-0.9-0.9c-0.4-0.2-0.9-0.3-1.5-0.3c-0.9,0-1.6,0.1-2.1,0.3c-0.6,0.2-0.9,0.4-1.1,0.6
	c0.1,0.5,0.3,1,0.3,1.6c0.1,0.6,0.1,1.2,0.1,1.8v8h-2.6v-7.5c0-0.8,0-1.6-0.1-2.2c-0.1-0.6-0.3-1.1-0.5-1.5
	c-0.2-0.4-0.5-0.7-0.9-0.9c-0.4-0.2-0.9-0.3-1.5-0.3c-0.3,0-0.5,0-0.8,0c-0.3,0-0.6,0-0.8,0.1c-0.3,0-0.5,0.1-0.7,0.1
	c-0.2,0-0.4,0.1-0.4,0.1v12.1h-2.6V163.4z"/>
<path class="st0" d="M152.6,162.6c1,0,1.9,0.1,2.6,0.4c0.7,0.3,1.3,0.6,1.7,1.1c0.4,0.5,0.7,1.1,0.9,1.7c0.2,0.7,0.3,1.4,0.3,2.2v9
	c-0.2,0-0.5,0.1-0.9,0.2c-0.4,0.1-0.8,0.1-1.3,0.2c-0.5,0.1-1,0.1-1.6,0.2c-0.6,0-1.2,0.1-1.7,0.1c-0.8,0-1.6-0.1-2.2-0.2
	c-0.7-0.2-1.3-0.4-1.8-0.8c-0.5-0.4-0.9-0.8-1.2-1.4c-0.3-0.6-0.4-1.3-0.4-2.1c0-0.8,0.2-1.5,0.5-2c0.3-0.6,0.8-1,1.3-1.4
	c0.6-0.3,1.2-0.6,1.9-0.8c0.7-0.2,1.5-0.2,2.3-0.2c0.3,0,0.5,0,0.8,0c0.3,0,0.5,0.1,0.8,0.1c0.2,0,0.5,0.1,0.6,0.1
	c0.2,0,0.3,0.1,0.4,0.1v-0.7c0-0.4,0-0.8-0.1-1.3c-0.1-0.4-0.3-0.8-0.5-1.1c-0.2-0.3-0.6-0.6-1-0.8c-0.4-0.2-1-0.3-1.6-0.3
	c-0.8,0-1.6,0.1-2.2,0.2c-0.6,0.1-1.1,0.2-1.4,0.4l-0.3-2.1c0.3-0.1,0.9-0.3,1.7-0.4C150.9,162.7,151.7,162.6,152.6,162.6
	 M152.8,175.5c0.6,0,1.1,0,1.6,0c0.5,0,0.9-0.1,1.2-0.2V171c-0.2-0.1-0.5-0.2-0.9-0.2c-0.4-0.1-0.9-0.1-1.5-0.1
	c-0.4,0-0.8,0-1.2,0.1c-0.4,0.1-0.8,0.2-1.2,0.3c-0.4,0.2-0.7,0.4-0.9,0.7c-0.2,0.3-0.4,0.7-0.4,1.2c0,0.9,0.3,1.6,0.9,1.9
	C151,175.3,151.8,175.5,152.8,175.5"/>
<path class="st0" d="M165.7,175.5c1,0,1.8-0.1,2.3-0.4c0.5-0.3,0.8-0.7,0.8-1.3c0-0.6-0.2-1.1-0.7-1.5c-0.5-0.4-1.3-0.8-2.5-1.2
	c-0.5-0.2-1.1-0.4-1.6-0.7c-0.5-0.2-0.9-0.5-1.3-0.8c-0.4-0.3-0.7-0.7-0.9-1.1c-0.2-0.4-0.3-1-0.3-1.6c0-1.3,0.5-2.3,1.4-3
	c0.9-0.7,2.2-1.1,3.8-1.1c0.4,0,0.8,0,1.2,0.1c0.4,0,0.8,0.1,1.1,0.2c0.3,0.1,0.7,0.1,0.9,0.2c0.3,0.1,0.5,0.1,0.6,0.2l-0.5,2.2
	c-0.3-0.1-0.7-0.3-1.3-0.5c-0.6-0.2-1.3-0.2-2.1-0.2c-0.7,0-1.3,0.1-1.9,0.4c-0.5,0.3-0.8,0.7-0.8,1.3c0,0.3,0.1,0.6,0.2,0.8
	c0.1,0.2,0.3,0.5,0.6,0.6c0.2,0.2,0.6,0.4,0.9,0.5c0.4,0.2,0.8,0.3,1.3,0.5c0.7,0.3,1.3,0.5,1.8,0.8c0.5,0.2,1,0.5,1.4,0.9
	c0.4,0.3,0.7,0.7,0.9,1.2c0.2,0.5,0.3,1,0.3,1.7c0,1.3-0.5,2.3-1.5,3c-1,0.7-2.4,1-4.2,1c-1.3,0-2.3-0.1-3-0.3
	c-0.7-0.2-1.2-0.4-1.5-0.5l0.5-2.2c0.3,0.1,0.8,0.3,1.4,0.5C163.8,175.4,164.6,175.5,165.7,175.5"/>
<path class="st0" d="M178,175.5c1,0,1.8-0.1,2.3-0.4c0.5-0.3,0.8-0.7,0.8-1.3c0-0.6-0.2-1.1-0.7-1.5c-0.5-0.4-1.3-0.8-2.5-1.2
	c-0.5-0.2-1.1-0.4-1.6-0.7c-0.5-0.2-0.9-0.5-1.3-0.8c-0.4-0.3-0.7-0.7-0.9-1.1c-0.2-0.4-0.3-1-0.3-1.6c0-1.3,0.5-2.3,1.4-3
	c0.9-0.7,2.2-1.1,3.8-1.1c0.4,0,0.8,0,1.2,0.1c0.4,0,0.8,0.1,1.1,0.2c0.3,0.1,0.7,0.1,0.9,0.2c0.3,0.1,0.5,0.1,0.6,0.2l-0.5,2.2
	c-0.3-0.1-0.7-0.3-1.3-0.5c-0.6-0.2-1.3-0.2-2.1-0.2c-0.7,0-1.3,0.1-1.9,0.4c-0.5,0.3-0.8,0.7-0.8,1.3c0,0.3,0.1,0.6,0.2,0.8
	c0.1,0.2,0.3,0.5,0.6,0.6c0.2,0.2,0.6,0.4,0.9,0.5c0.4,0.2,0.8,0.3,1.3,0.5c0.7,0.3,1.3,0.5,1.8,0.8c0.5,0.2,1,0.5,1.4,0.9
	c0.4,0.3,0.7,0.7,0.9,1.2c0.2,0.5,0.3,1,0.3,1.7c0,1.3-0.5,2.3-1.5,3c-1,0.7-2.4,1-4.2,1c-1.3,0-2.3-0.1-3-0.3
	c-0.7-0.2-1.2-0.4-1.5-0.5l0.5-2.2c0.3,0.1,0.8,0.3,1.4,0.5C176.1,175.4,176.9,175.5,178,175.5"/>
<path class="st0" d="M191.6,162.6c1,0,1.9,0.1,2.6,0.4c0.7,0.3,1.3,0.6,1.7,1.1c0.4,0.5,0.7,1.1,0.9,1.7c0.2,0.7,0.3,1.4,0.3,2.2v9
	c-0.2,0-0.5,0.1-0.9,0.2c-0.4,0.1-0.8,0.1-1.3,0.2c-0.5,0.1-1,0.1-1.6,0.2c-0.6,0-1.2,0.1-1.7,0.1c-0.8,0-1.6-0.1-2.2-0.2
	c-0.7-0.2-1.3-0.4-1.8-0.8c-0.5-0.4-0.9-0.8-1.2-1.4c-0.3-0.6-0.4-1.3-0.4-2.1c0-0.8,0.2-1.5,0.5-2c0.3-0.6,0.8-1,1.3-1.4
	c0.6-0.3,1.2-0.6,1.9-0.8c0.7-0.2,1.5-0.2,2.3-0.2c0.3,0,0.5,0,0.8,0c0.3,0,0.5,0.1,0.8,0.1c0.2,0,0.5,0.1,0.6,0.1
	c0.2,0,0.3,0.1,0.4,0.1v-0.7c0-0.4,0-0.8-0.1-1.3c-0.1-0.4-0.3-0.8-0.5-1.1c-0.2-0.3-0.6-0.6-1-0.8c-0.4-0.2-1-0.3-1.6-0.3
	c-0.8,0-1.6,0.1-2.2,0.2c-0.6,0.1-1.1,0.2-1.4,0.4l-0.3-2.1c0.3-0.1,0.9-0.3,1.7-0.4C189.8,162.7,190.7,162.6,191.6,162.6
	 M191.8,175.5c0.6,0,1.1,0,1.6,0c0.5,0,0.9-0.1,1.2-0.2V171c-0.2-0.1-0.5-0.2-0.9-0.2c-0.4-0.1-0.9-0.1-1.5-0.1
	c-0.4,0-0.8,0-1.2,0.1c-0.4,0.1-0.8,0.2-1.2,0.3c-0.4,0.2-0.7,0.4-0.9,0.7c-0.2,0.3-0.4,0.7-0.4,1.2c0,0.9,0.3,1.6,0.9,1.9
	C190,175.3,190.8,175.5,191.8,175.5"/>
<path class="st0" d="M207.6,177.7c-1.2,0-2.2-0.2-3-0.6c-0.9-0.4-1.6-0.9-2.2-1.5c-0.6-0.7-1-1.4-1.3-2.4c-0.3-0.9-0.4-1.9-0.4-3
	c0-1.1,0.2-2.1,0.5-3c0.3-0.9,0.8-1.7,1.4-2.4c0.6-0.7,1.3-1.2,2.2-1.6c0.9-0.4,1.8-0.6,2.9-0.6c0.6,0,1.3,0.1,1.9,0.2
	c0.6,0.1,1.3,0.3,1.8,0.5l-0.6,2.2c-0.4-0.2-0.8-0.3-1.3-0.4c-0.5-0.1-1-0.2-1.6-0.2c-1.4,0-2.5,0.5-3.3,1.4
	c-0.8,0.9-1.1,2.2-1.1,3.9c0,0.8,0.1,1.5,0.3,2.1c0.2,0.6,0.4,1.2,0.8,1.7c0.4,0.5,0.9,0.8,1.4,1.1c0.6,0.2,1.3,0.4,2.2,0.4
	c0.7,0,1.3-0.1,1.8-0.2c0.6-0.1,1-0.3,1.3-0.4l0.4,2.2c-0.1,0.1-0.4,0.2-0.6,0.3c-0.3,0.1-0.6,0.2-0.9,0.2c-0.4,0.1-0.7,0.1-1.1,0.2
	C208.3,177.6,207.9,177.7,207.6,177.7"/>
<path class="st0" d="M214.2,177.3v-20.9l2.6-0.4v7.3c0.5-0.2,1-0.3,1.5-0.4c0.5-0.1,1.1-0.2,1.6-0.2c1.1,0,2.1,0.2,2.8,0.5
	c0.8,0.3,1.4,0.8,1.8,1.4c0.4,0.6,0.8,1.3,1,2.1c0.2,0.8,0.3,1.7,0.3,2.7v8h-2.6v-7.5c0-0.9-0.1-1.6-0.2-2.3
	c-0.1-0.6-0.3-1.1-0.6-1.5c-0.3-0.4-0.6-0.7-1.1-0.8c-0.5-0.2-1-0.3-1.7-0.3c-0.3,0-0.6,0-0.9,0.1c-0.3,0-0.6,0.1-0.8,0.1
	c-0.3,0-0.5,0.1-0.7,0.2c-0.2,0.1-0.4,0.1-0.5,0.1v11.9H214.2z"/>
<path class="st0" d="M241.3,176.9c-0.6,0.1-1.4,0.3-2.3,0.5c-1,0.2-2.1,0.2-3.3,0.2c-1.1,0-2-0.2-2.8-0.5c-0.8-0.3-1.4-0.8-1.8-1.4
	c-0.5-0.6-0.8-1.3-1-2.1c-0.2-0.8-0.3-1.7-0.3-2.7v-8h2.6v7.5c0,1.7,0.3,3,0.8,3.8c0.6,0.8,1.5,1.1,2.8,1.1c0.3,0,0.6,0,0.9,0
	c0.3,0,0.6,0,0.8-0.1c0.3,0,0.5-0.1,0.7-0.1c0.2,0,0.4-0.1,0.5-0.1V163h2.6V176.9z"/>
<path class="st0" d="M249.1,175.5c1,0,1.8-0.1,2.3-0.4c0.5-0.3,0.8-0.7,0.8-1.3c0-0.6-0.2-1.1-0.7-1.5c-0.5-0.4-1.3-0.8-2.5-1.2
	c-0.6-0.2-1.1-0.4-1.6-0.7c-0.5-0.2-0.9-0.5-1.3-0.8c-0.4-0.3-0.7-0.7-0.9-1.1c-0.2-0.4-0.3-1-0.3-1.6c0-1.3,0.5-2.3,1.4-3
	c0.9-0.7,2.2-1.1,3.8-1.1c0.4,0,0.8,0,1.2,0.1s0.8,0.1,1.1,0.2c0.3,0.1,0.7,0.1,0.9,0.2c0.3,0.1,0.5,0.1,0.6,0.2l-0.5,2.2
	c-0.3-0.1-0.7-0.3-1.3-0.5c-0.6-0.2-1.3-0.2-2.1-0.2c-0.7,0-1.3,0.1-1.9,0.4c-0.5,0.3-0.8,0.7-0.8,1.3c0,0.3,0.1,0.6,0.2,0.8
	c0.1,0.2,0.3,0.5,0.6,0.6c0.2,0.2,0.6,0.4,0.9,0.5c0.4,0.2,0.8,0.3,1.3,0.5c0.7,0.3,1.3,0.5,1.8,0.8c0.5,0.2,1,0.5,1.4,0.9
	c0.4,0.3,0.7,0.7,0.9,1.2c0.2,0.5,0.3,1,0.3,1.7c0,1.3-0.5,2.3-1.5,3c-1,0.7-2.4,1-4.2,1c-1.3,0-2.3-0.1-3-0.3
	c-0.7-0.2-1.2-0.4-1.5-0.5l0.5-2.2c0.3,0.1,0.8,0.3,1.4,0.5C247.1,175.4,248,175.5,249.1,175.5"/>
<path class="st0" d="M257.2,170.2c0-1.3,0.2-2.4,0.6-3.3c0.4-0.9,0.9-1.7,1.5-2.4c0.6-0.6,1.3-1.1,2.1-1.4c0.8-0.3,1.6-0.5,2.4-0.5
	c1.9,0,3.4,0.6,4.4,1.8c1,1.2,1.5,3,1.5,5.5v0.4c0,0.2,0,0.3,0,0.5h-9.8c0.1,1.5,0.5,2.6,1.3,3.4c0.8,0.8,1.9,1.2,3.5,1.2
	c0.9,0,1.7-0.1,2.3-0.2c0.6-0.2,1.1-0.3,1.4-0.5l0.4,2.2c-0.3,0.2-0.9,0.3-1.6,0.5c-0.8,0.2-1.7,0.3-2.7,0.3c-1.3,0-2.3-0.2-3.2-0.6
	c-0.9-0.4-1.7-0.9-2.2-1.6c-0.6-0.7-1-1.4-1.3-2.4C257.4,172.3,257.2,171.3,257.2,170.2 M267.1,168.8c0-1.2-0.3-2.1-0.9-2.9
	c-0.6-0.7-1.4-1.1-2.5-1.1c-0.6,0-1.1,0.1-1.6,0.3c-0.5,0.2-0.8,0.5-1.1,0.9c-0.3,0.4-0.6,0.8-0.7,1.3c-0.2,0.5-0.3,1-0.3,1.5H267.1
	z"/>
<path class="st0" d="M275.8,163h5.4v2.2h-5.4v6.6c0,0.7,0.1,1.3,0.2,1.8c0.1,0.5,0.3,0.8,0.5,1.1c0.2,0.3,0.5,0.5,0.8,0.6
	c0.3,0.1,0.7,0.2,1.2,0.2c0.8,0,1.4-0.1,1.9-0.3c0.5-0.2,0.8-0.3,1-0.4l0.5,2.1c-0.3,0.1-0.7,0.3-1.4,0.5c-0.6,0.2-1.4,0.3-2.2,0.3
	c-1,0-1.8-0.1-2.4-0.4c-0.6-0.2-1.1-0.6-1.5-1.1c-0.4-0.5-0.7-1.1-0.8-1.8c-0.2-0.7-0.2-1.6-0.2-2.5V159l2.6-0.4V163z"/>
<path class="st0" d="M286.9,163h5.4v2.2h-5.4v6.6c0,0.7,0.1,1.3,0.2,1.8c0.1,0.5,0.3,0.8,0.5,1.1c0.2,0.3,0.5,0.5,0.8,0.6
	c0.3,0.1,0.7,0.2,1.2,0.2c0.8,0,1.4-0.1,1.9-0.3c0.5-0.2,0.8-0.3,1-0.4l0.5,2.1c-0.3,0.1-0.7,0.3-1.4,0.5c-0.6,0.2-1.4,0.3-2.2,0.3
	c-1,0-1.8-0.1-2.4-0.4c-0.6-0.2-1.1-0.6-1.5-1.1c-0.4-0.5-0.7-1.1-0.8-1.8c-0.2-0.7-0.2-1.6-0.2-2.5V159l2.6-0.4V163z"/>
<path class="st0" d="M298.9,175.5c1,0,1.8-0.1,2.3-0.4c0.5-0.3,0.8-0.7,0.8-1.3c0-0.6-0.2-1.1-0.7-1.5c-0.5-0.4-1.3-0.8-2.5-1.2
	c-0.6-0.2-1.1-0.4-1.6-0.7c-0.5-0.2-0.9-0.5-1.3-0.8c-0.4-0.3-0.7-0.7-0.9-1.1c-0.2-0.4-0.3-1-0.3-1.6c0-1.3,0.5-2.3,1.4-3
	c0.9-0.7,2.2-1.1,3.8-1.1c0.4,0,0.8,0,1.2,0.1s0.8,0.1,1.1,0.2c0.3,0.1,0.7,0.1,0.9,0.2c0.3,0.1,0.5,0.1,0.6,0.2l-0.5,2.2
	c-0.3-0.1-0.7-0.3-1.3-0.5c-0.6-0.2-1.3-0.2-2.1-0.2c-0.7,0-1.3,0.1-1.9,0.4c-0.5,0.3-0.8,0.7-0.8,1.3c0,0.3,0.1,0.6,0.2,0.8
	c0.1,0.2,0.3,0.5,0.6,0.6c0.2,0.2,0.6,0.4,0.9,0.5s0.8,0.3,1.3,0.5c0.7,0.3,1.3,0.5,1.8,0.8c0.5,0.2,1,0.5,1.4,0.9
	c0.4,0.3,0.7,0.7,0.9,1.2c0.2,0.5,0.3,1,0.3,1.7c0,1.3-0.5,2.3-1.5,3c-1,0.7-2.4,1-4.2,1c-1.3,0-2.3-0.1-3-0.3
	c-0.7-0.2-1.2-0.4-1.5-0.5l0.5-2.2c0.3,0.1,0.8,0.3,1.4,0.5C297,175.4,297.9,175.5,298.9,175.5"/>
<path class="st0" d="M318.9,162.6c1,0,1.9,0.1,2.6,0.4c0.7,0.3,1.3,0.6,1.7,1.1c0.4,0.5,0.7,1.1,0.9,1.7c0.2,0.7,0.3,1.4,0.3,2.2v9
	c-0.2,0-0.5,0.1-0.9,0.2c-0.4,0.1-0.8,0.1-1.3,0.2c-0.5,0.1-1,0.1-1.6,0.2c-0.6,0-1.2,0.1-1.7,0.1c-0.8,0-1.6-0.1-2.2-0.2
	c-0.7-0.2-1.3-0.4-1.8-0.8c-0.5-0.4-0.9-0.8-1.2-1.4c-0.3-0.6-0.4-1.3-0.4-2.1c0-0.8,0.2-1.5,0.5-2c0.3-0.6,0.8-1,1.3-1.4
	c0.6-0.3,1.2-0.6,1.9-0.8c0.7-0.2,1.5-0.2,2.3-0.2c0.3,0,0.5,0,0.8,0c0.3,0,0.5,0.1,0.8,0.1c0.2,0,0.5,0.1,0.6,0.1
	c0.2,0,0.3,0.1,0.4,0.1v-0.7c0-0.4,0-0.8-0.1-1.3c-0.1-0.4-0.3-0.8-0.5-1.1c-0.2-0.3-0.6-0.6-1-0.8c-0.4-0.2-1-0.3-1.6-0.3
	c-0.8,0-1.6,0.1-2.2,0.2c-0.6,0.1-1.1,0.2-1.4,0.4l-0.3-2.1c0.3-0.1,0.9-0.3,1.7-0.4C317.1,162.7,318,162.6,318.9,162.6
	 M319.1,175.5c0.6,0,1.1,0,1.6,0c0.5,0,0.9-0.1,1.2-0.2V171c-0.2-0.1-0.5-0.2-0.9-0.2c-0.4-0.1-0.9-0.1-1.5-0.1
	c-0.4,0-0.8,0-1.2,0.1c-0.4,0.1-0.8,0.2-1.2,0.3c-0.4,0.2-0.7,0.4-0.9,0.7c-0.2,0.3-0.4,0.7-0.4,1.2c0,0.9,0.3,1.6,0.9,1.9
	C317.3,175.3,318.1,175.5,319.1,175.5"/>
<path class="st0" d="M337.9,156.4l2.6-0.4v21c-0.6,0.2-1.3,0.3-2.3,0.5c-0.9,0.2-2,0.2-3.2,0.2c-1.1,0-2.1-0.2-3-0.5
	c-0.9-0.3-1.6-0.8-2.3-1.5c-0.6-0.6-1.1-1.4-1.4-2.4c-0.3-0.9-0.5-2-0.5-3.1c0-1.1,0.1-2.1,0.4-3c0.3-0.9,0.7-1.7,1.3-2.4
	c0.6-0.7,1.2-1.2,2-1.5c0.8-0.4,1.7-0.6,2.7-0.6c0.8,0,1.6,0.1,2.2,0.3c0.6,0.2,1.1,0.4,1.4,0.6V156.4z M337.9,166
	c-0.3-0.3-0.8-0.5-1.4-0.7c-0.6-0.2-1.2-0.4-1.9-0.4c-0.7,0-1.4,0.1-1.9,0.4c-0.5,0.3-1,0.6-1.3,1.1c-0.3,0.5-0.6,1-0.7,1.7
	c-0.1,0.6-0.2,1.3-0.2,2.1c0,1.7,0.4,3,1.2,3.9c0.8,0.9,1.9,1.4,3.3,1.4c0.7,0,1.3,0,1.7-0.1c0.5-0.1,0.8-0.1,1.1-0.2V166z"/>
<path class="st0" d="M357.5,170.2c0,1.1-0.2,2.2-0.5,3.1c-0.3,0.9-0.8,1.7-1.4,2.4c-0.6,0.7-1.3,1.2-2.1,1.5
	c-0.8,0.4-1.7,0.5-2.7,0.5c-1,0-1.9-0.2-2.7-0.5c-0.8-0.4-1.5-0.9-2.1-1.5c-0.6-0.7-1.1-1.5-1.4-2.4c-0.3-0.9-0.5-1.9-0.5-3.1
	c0-1.1,0.2-2.1,0.5-3.1c0.3-0.9,0.8-1.7,1.4-2.4c0.6-0.7,1.3-1.2,2.1-1.5c0.8-0.4,1.7-0.5,2.7-0.5c1,0,1.9,0.2,2.7,0.5
	c0.8,0.4,1.5,0.9,2.1,1.5c0.6,0.7,1.1,1.5,1.4,2.4C357.3,168,357.5,169,357.5,170.2 M354.8,170.2c0-1.6-0.4-2.9-1.1-3.8
	c-0.7-0.9-1.7-1.4-3-1.4c-1.2,0-2.2,0.5-3,1.4c-0.7,0.9-1.1,2.2-1.1,3.8c0,1.6,0.4,2.9,1.1,3.8c0.7,0.9,1.7,1.4,3,1.4
	c1.2,0,2.2-0.5,3-1.4C354.5,173.1,354.8,171.8,354.8,170.2"/>
<path class="st0" d="M373.8,170.2c0,1.1-0.1,2.1-0.4,3c-0.3,0.9-0.7,1.7-1.3,2.4c-0.6,0.7-1.2,1.2-2,1.5c-0.8,0.4-1.7,0.6-2.7,0.6
	c-0.8,0-1.6-0.1-2.2-0.3c-0.6-0.2-1.1-0.4-1.4-0.6v5.7h-2.6v-19c0.6-0.1,1.4-0.3,2.3-0.5c0.9-0.2,2-0.3,3.2-0.3c1.1,0,2.1,0.2,3,0.5
	c0.9,0.3,1.6,0.8,2.3,1.5c0.6,0.6,1.1,1.4,1.4,2.4C373.6,168,373.8,169,373.8,170.2 M371.1,170.2c0-1.7-0.4-3-1.2-3.9
	c-0.8-0.9-1.9-1.4-3.3-1.4c-0.8,0-1.4,0-1.8,0.1c-0.4,0.1-0.8,0.1-1,0.2v9c0.3,0.3,0.8,0.5,1.4,0.7c0.6,0.2,1.2,0.4,1.9,0.4
	c0.7,0,1.4-0.1,1.9-0.4c0.5-0.3,1-0.6,1.3-1.1c0.3-0.5,0.6-1,0.7-1.7C371,171.6,371.1,170.9,371.1,170.2"/>
<path class="st0" d="M379.8,163h5.4v2.2h-5.4v6.6c0,0.7,0.1,1.3,0.2,1.8c0.1,0.5,0.3,0.8,0.5,1.1c0.2,0.3,0.5,0.5,0.8,0.6
	c0.3,0.1,0.7,0.2,1.2,0.2c0.8,0,1.4-0.1,1.9-0.3c0.5-0.2,0.8-0.3,1-0.4l0.5,2.1c-0.3,0.1-0.7,0.3-1.4,0.5c-0.6,0.2-1.4,0.3-2.2,0.3
	c-1,0-1.8-0.1-2.4-0.4c-0.6-0.2-1.1-0.6-1.5-1.1c-0.4-0.5-0.7-1.1-0.8-1.8c-0.2-0.7-0.2-1.6-0.2-2.5V159l2.6-0.4V163z"/>
<path class="st0" d="M389.7,160.4c-0.5,0-0.8-0.2-1.2-0.5c-0.3-0.3-0.5-0.7-0.5-1.2c0-0.5,0.2-0.9,0.5-1.2c0.3-0.3,0.7-0.5,1.2-0.5
	c0.5,0,0.8,0.1,1.2,0.5c0.3,0.3,0.5,0.7,0.5,1.2c0,0.5-0.2,0.9-0.5,1.2C390.6,160.3,390.2,160.4,389.7,160.4 M391,177.3h-2.6V163
	h2.6V177.3z"/>
<path class="st0" d="M408.1,170.2c0,1.1-0.2,2.2-0.5,3.1c-0.3,0.9-0.8,1.7-1.4,2.4c-0.6,0.7-1.3,1.2-2.1,1.5
	c-0.8,0.4-1.7,0.5-2.7,0.5c-1,0-1.9-0.2-2.7-0.5c-0.8-0.4-1.5-0.9-2.1-1.5c-0.6-0.7-1.1-1.5-1.4-2.4c-0.3-0.9-0.5-1.9-0.5-3.1
	c0-1.1,0.2-2.1,0.5-3.1c0.3-0.9,0.8-1.7,1.4-2.4c0.6-0.7,1.3-1.2,2.1-1.5c0.8-0.4,1.7-0.5,2.7-0.5c1,0,1.9,0.2,2.7,0.5
	c0.8,0.4,1.5,0.9,2.1,1.5c0.6,0.7,1.1,1.5,1.4,2.4C407.9,168,408.1,169,408.1,170.2 M405.4,170.2c0-1.6-0.4-2.9-1.1-3.8
	c-0.7-0.9-1.7-1.4-3-1.4c-1.2,0-2.2,0.5-3,1.4c-0.7,0.9-1.1,2.2-1.1,3.8c0,1.6,0.4,2.9,1.1,3.8c0.7,0.9,1.7,1.4,3,1.4
	c1.2,0,2.2-0.5,3-1.4C405,173.1,405.4,171.8,405.4,170.2"/>
<path class="st0" d="M411.7,163.4c0.6-0.1,1.4-0.3,2.3-0.5c1-0.2,2.1-0.2,3.4-0.2c1.1,0,2.1,0.2,2.8,0.5c0.8,0.3,1.4,0.8,1.8,1.4
	c0.4,0.6,0.8,1.3,1,2.1c0.2,0.8,0.3,1.7,0.3,2.7v8h-2.6v-7.5c0-0.9-0.1-1.6-0.2-2.3c-0.1-0.6-0.3-1.1-0.6-1.5
	c-0.3-0.4-0.6-0.7-1.1-0.8c-0.5-0.2-1-0.3-1.7-0.3c-0.3,0-0.6,0-0.9,0c-0.3,0-0.6,0-0.8,0.1c-0.3,0-0.5,0.1-0.7,0.1
	c-0.2,0-0.4,0.1-0.5,0.1v12.1h-2.6V163.4z"/>
<path class="st0" d="M129.5,195.8c0.2,0,0.5,0,0.8,0c0.3,0,0.6,0.1,0.8,0.1c0.3,0,0.5,0.1,0.8,0.1c0.2,0,0.4,0.1,0.5,0.1l-0.4,2.2
	c-0.2-0.1-0.5-0.2-1-0.3c-0.5-0.1-1.1-0.2-1.8-0.2c-0.5,0-1,0-1.4,0.2c-0.5,0.1-0.8,0.2-0.9,0.2v12h-2.6v-13.7
	c0.6-0.2,1.4-0.4,2.3-0.6C127.4,195.9,128.4,195.8,129.5,195.8"/>
<path class="st0" d="M134.1,203.3c0-1.3,0.2-2.4,0.6-3.3c0.4-0.9,0.9-1.7,1.5-2.4c0.6-0.6,1.3-1.1,2.1-1.4c0.8-0.3,1.6-0.5,2.4-0.5
	c1.9,0,3.4,0.6,4.4,1.8c1,1.2,1.5,3,1.5,5.5v0.4c0,0.2,0,0.3,0,0.5h-9.8c0.1,1.5,0.5,2.6,1.3,3.4c0.8,0.8,1.9,1.2,3.5,1.2
	c0.9,0,1.7-0.1,2.3-0.2c0.6-0.2,1.1-0.3,1.4-0.5l0.4,2.2c-0.3,0.2-0.9,0.3-1.6,0.5c-0.8,0.2-1.7,0.3-2.7,0.3c-1.3,0-2.3-0.2-3.2-0.6
	c-0.9-0.4-1.7-0.9-2.2-1.6c-0.6-0.7-1-1.4-1.3-2.4C134.2,205.4,134.1,204.4,134.1,203.3 M143.9,201.9c0-1.2-0.3-2.1-0.9-2.9
	c-0.6-0.7-1.4-1.1-2.5-1.1c-0.6,0-1.1,0.1-1.6,0.3c-0.4,0.2-0.8,0.5-1.1,0.9c-0.3,0.4-0.6,0.8-0.7,1.3c-0.2,0.5-0.3,1-0.3,1.5H143.9
	z"/>
<path class="st0" d="M153.6,208.6c1,0,1.8-0.1,2.3-0.4c0.5-0.3,0.8-0.7,0.8-1.3c0-0.6-0.2-1.1-0.7-1.5c-0.5-0.4-1.3-0.8-2.5-1.2
	c-0.5-0.2-1.1-0.4-1.6-0.7c-0.5-0.2-0.9-0.5-1.3-0.8c-0.4-0.3-0.7-0.7-0.9-1.1c-0.2-0.4-0.3-1-0.3-1.6c0-1.3,0.5-2.3,1.4-3
	c0.9-0.7,2.2-1.1,3.8-1.1c0.4,0,0.8,0,1.2,0.1c0.4,0,0.8,0.1,1.1,0.2c0.3,0.1,0.7,0.1,0.9,0.2c0.3,0.1,0.5,0.1,0.6,0.2l-0.5,2.2
	c-0.3-0.1-0.7-0.3-1.3-0.5c-0.6-0.2-1.3-0.2-2.1-0.2c-0.7,0-1.3,0.1-1.9,0.4c-0.5,0.3-0.8,0.7-0.8,1.3c0,0.3,0.1,0.6,0.2,0.8
	c0.1,0.2,0.3,0.5,0.6,0.6c0.2,0.2,0.6,0.4,0.9,0.5c0.4,0.2,0.8,0.3,1.3,0.5c0.7,0.3,1.3,0.5,1.8,0.8c0.5,0.2,1,0.5,1.4,0.9
	c0.4,0.3,0.7,0.7,0.9,1.2c0.2,0.5,0.3,1,0.3,1.7c0,1.3-0.5,2.3-1.5,3c-1,0.7-2.4,1-4.2,1c-1.3,0-2.3-0.1-3-0.3
	c-0.7-0.2-1.2-0.4-1.5-0.5l0.5-2.2c0.3,0.1,0.8,0.3,1.4,0.5C151.7,208.5,152.6,208.6,153.6,208.6"/>
<path class="st0" d="M175.2,203.2c0,1.1-0.2,2.2-0.5,3.1c-0.3,0.9-0.8,1.7-1.4,2.4c-0.6,0.7-1.3,1.2-2.1,1.5
	c-0.8,0.4-1.7,0.5-2.7,0.5c-1,0-1.9-0.2-2.7-0.5c-0.8-0.4-1.5-0.9-2.1-1.5c-0.6-0.7-1.1-1.5-1.4-2.4c-0.3-0.9-0.5-1.9-0.5-3.1
	c0-1.1,0.2-2.1,0.5-3.1c0.3-0.9,0.8-1.7,1.4-2.4c0.6-0.7,1.3-1.2,2.1-1.5c0.8-0.4,1.7-0.5,2.7-0.5c1,0,1.9,0.2,2.7,0.5
	c0.8,0.4,1.5,0.9,2.1,1.5c0.6,0.7,1.1,1.5,1.4,2.4C175.1,201.1,175.2,202.1,175.2,203.2 M172.6,203.2c0-1.6-0.4-2.9-1.1-3.8
	c-0.7-0.9-1.7-1.4-3-1.4c-1.2,0-2.2,0.5-3,1.4c-0.7,0.9-1.1,2.2-1.1,3.8c0,1.6,0.4,2.9,1.1,3.8c0.7,0.9,1.7,1.4,3,1.4
	c1.2,0,2.2-0.5,3-1.4C172.2,206.1,172.6,204.9,172.6,203.2"/>
<path class="st0" d="M190.3,210c-0.6,0.1-1.4,0.3-2.3,0.5c-1,0.2-2.1,0.2-3.3,0.2c-1.1,0-2-0.2-2.8-0.5c-0.8-0.3-1.4-0.8-1.8-1.4
	c-0.5-0.6-0.8-1.3-1-2.1c-0.2-0.8-0.3-1.7-0.3-2.7v-8h2.6v7.5c0,1.7,0.3,3,0.8,3.8c0.6,0.8,1.5,1.1,2.8,1.1c0.3,0,0.6,0,0.9,0
	c0.3,0,0.6,0,0.8-0.1c0.3,0,0.5-0.1,0.7-0.1c0.2,0,0.4-0.1,0.5-0.1v-12.1h2.6V210z"/>
<path class="st0" d="M200,195.8c0.2,0,0.5,0,0.8,0c0.3,0,0.6,0.1,0.8,0.1c0.3,0,0.5,0.1,0.8,0.1c0.2,0,0.4,0.1,0.5,0.1l-0.4,2.2
	c-0.2-0.1-0.5-0.2-1-0.3c-0.5-0.1-1.1-0.2-1.8-0.2c-0.5,0-1,0-1.4,0.2c-0.5,0.1-0.8,0.2-0.9,0.2v12h-2.6v-13.7
	c0.6-0.2,1.4-0.4,2.3-0.6C197.8,195.9,198.8,195.8,200,195.8"/>
<path class="st0" d="M211.5,210.7c-1.2,0-2.2-0.2-3-0.6c-0.9-0.4-1.6-0.9-2.2-1.5c-0.6-0.7-1-1.4-1.3-2.4c-0.3-0.9-0.4-1.9-0.4-3
	c0-1.1,0.2-2.1,0.5-3c0.3-0.9,0.8-1.7,1.4-2.4c0.6-0.7,1.3-1.2,2.2-1.6c0.9-0.4,1.8-0.6,2.9-0.6c0.6,0,1.3,0.1,1.9,0.2
	c0.6,0.1,1.3,0.3,1.8,0.5l-0.6,2.2c-0.4-0.2-0.8-0.3-1.3-0.4c-0.5-0.1-1-0.2-1.6-0.2c-1.4,0-2.5,0.5-3.3,1.4
	c-0.8,0.9-1.1,2.2-1.1,3.9c0,0.8,0.1,1.5,0.3,2.1c0.2,0.6,0.4,1.2,0.8,1.7c0.4,0.5,0.9,0.8,1.4,1.1c0.6,0.2,1.3,0.4,2.2,0.4
	c0.7,0,1.3-0.1,1.8-0.2c0.6-0.1,1-0.3,1.3-0.4l0.4,2.2c-0.1,0.1-0.4,0.2-0.6,0.3c-0.3,0.1-0.6,0.2-0.9,0.2c-0.4,0.1-0.7,0.1-1.1,0.2
	C212.3,210.7,211.9,210.7,211.5,210.7"/>
<path class="st0" d="M217.3,203.3c0-1.3,0.2-2.4,0.6-3.3c0.4-0.9,0.9-1.7,1.5-2.4c0.6-0.6,1.3-1.1,2.1-1.4s1.6-0.5,2.4-0.5
	c1.9,0,3.4,0.6,4.4,1.8c1,1.2,1.5,3,1.5,5.5v0.4c0,0.2,0,0.3,0,0.5H220c0.1,1.5,0.5,2.6,1.3,3.4c0.8,0.8,1.9,1.2,3.5,1.2
	c0.9,0,1.7-0.1,2.3-0.2c0.6-0.2,1.1-0.3,1.4-0.5l0.4,2.2c-0.3,0.2-0.9,0.3-1.6,0.5c-0.8,0.2-1.7,0.3-2.7,0.3c-1.3,0-2.3-0.2-3.2-0.6
	c-0.9-0.4-1.7-0.9-2.2-1.6c-0.6-0.7-1-1.4-1.3-2.4C217.5,205.4,217.3,204.4,217.3,203.3 M227.2,201.9c0-1.2-0.3-2.1-0.9-2.9
	c-0.6-0.7-1.4-1.1-2.5-1.1c-0.6,0-1.1,0.1-1.6,0.3c-0.5,0.2-0.8,0.5-1.1,0.9c-0.3,0.4-0.6,0.8-0.7,1.3c-0.2,0.5-0.3,1-0.3,1.5H227.2
	z"/>
<path class="st0" d="M239.1,203.3c0-1.3,0.2-2.4,0.6-3.3c0.4-0.9,0.9-1.7,1.5-2.4c0.6-0.6,1.3-1.1,2.1-1.4c0.8-0.3,1.6-0.5,2.4-0.5
	c1.9,0,3.4,0.6,4.4,1.8c1,1.2,1.5,3,1.5,5.5v0.4c0,0.2,0,0.3,0,0.5h-9.8c0.1,1.5,0.5,2.6,1.3,3.4c0.8,0.8,1.9,1.2,3.5,1.2
	c0.9,0,1.7-0.1,2.3-0.2c0.6-0.2,1.1-0.3,1.4-0.5l0.4,2.2c-0.3,0.2-0.9,0.3-1.6,0.5c-0.8,0.2-1.7,0.3-2.7,0.3c-1.3,0-2.3-0.2-3.2-0.6
	c-0.9-0.4-1.7-0.9-2.2-1.6c-0.6-0.7-1-1.4-1.3-2.4C239.2,205.4,239.1,204.4,239.1,203.3 M248.9,201.9c0-1.2-0.3-2.1-0.9-2.9
	c-0.6-0.7-1.4-1.1-2.5-1.1c-0.6,0-1.1,0.1-1.6,0.3c-0.4,0.2-0.8,0.5-1.1,0.9c-0.3,0.4-0.6,0.8-0.7,1.3c-0.2,0.5-0.3,1-0.3,1.5H248.9
	z"/>
<path class="st0" d="M263.9,210.4c-0.2-0.4-0.5-0.9-0.7-1.4c-0.3-0.5-0.6-1-1-1.5c-0.3-0.5-0.7-1-1.1-1.6c-0.4-0.5-0.7-1-1.1-1.5
	c-0.3,0.5-0.7,1-1.1,1.5c-0.4,0.5-0.7,1-1.1,1.6c-0.3,0.5-0.7,1-1,1.5c-0.3,0.5-0.5,0.9-0.7,1.3h-2.6c0.6-1.2,1.4-2.5,2.3-3.8
	c0.9-1.3,1.8-2.5,2.7-3.7l-4.7-6.8h2.9l3.4,5l3.4-5h2.7l-4.6,6.6c0.9,1.2,1.8,2.5,2.7,3.8c0.9,1.3,1.7,2.6,2.4,3.9H263.9z"/>
<path class="st0" d="M275,210.7c-1.2,0-2.2-0.2-3-0.6c-0.9-0.4-1.6-0.9-2.2-1.5c-0.6-0.7-1-1.4-1.3-2.4c-0.3-0.9-0.4-1.9-0.4-3
	c0-1.1,0.2-2.1,0.5-3c0.3-0.9,0.8-1.7,1.4-2.4c0.6-0.7,1.3-1.2,2.2-1.6c0.9-0.4,1.8-0.6,2.9-0.6c0.6,0,1.3,0.1,1.9,0.2
	c0.6,0.1,1.3,0.3,1.8,0.5l-0.6,2.2c-0.4-0.2-0.8-0.3-1.3-0.4c-0.5-0.1-1-0.2-1.6-0.2c-1.4,0-2.5,0.5-3.3,1.4
	c-0.8,0.9-1.1,2.2-1.1,3.9c0,0.8,0.1,1.5,0.3,2.1c0.2,0.6,0.5,1.2,0.8,1.7c0.4,0.5,0.9,0.8,1.4,1.1c0.6,0.2,1.3,0.4,2.2,0.4
	c0.7,0,1.3-0.1,1.8-0.2c0.6-0.1,1-0.3,1.3-0.4l0.4,2.2c-0.1,0.1-0.4,0.2-0.6,0.3c-0.3,0.1-0.6,0.2-0.9,0.2c-0.4,0.1-0.7,0.1-1.1,0.2
	C275.8,210.7,275.4,210.7,275,210.7"/>
<path class="st0" d="M281.6,210.4v-20.9l2.6-0.4v7.3c0.5-0.2,1-0.3,1.5-0.4c0.5-0.1,1.1-0.2,1.6-0.2c1.1,0,2.1,0.2,2.8,0.5
	c0.8,0.3,1.4,0.8,1.8,1.4c0.5,0.6,0.8,1.3,1,2.1c0.2,0.8,0.3,1.7,0.3,2.7v8h-2.6v-7.5c0-0.9-0.1-1.6-0.2-2.3
	c-0.1-0.6-0.3-1.1-0.6-1.5c-0.3-0.4-0.6-0.7-1.1-0.8c-0.5-0.2-1-0.3-1.7-0.3c-0.3,0-0.6,0-0.9,0.1c-0.3,0-0.6,0.1-0.8,0.1
	c-0.3,0-0.5,0.1-0.7,0.2c-0.2,0.1-0.4,0.1-0.5,0.1v11.9H281.6z"/>
<path class="st0" d="M302,195.7c1,0,1.9,0.1,2.6,0.4c0.7,0.3,1.3,0.6,1.7,1.1c0.4,0.5,0.7,1.1,0.9,1.7c0.2,0.7,0.3,1.4,0.3,2.2v9
	c-0.2,0-0.5,0.1-0.9,0.2c-0.4,0.1-0.8,0.1-1.3,0.2c-0.5,0.1-1,0.1-1.6,0.2c-0.6,0-1.2,0.1-1.7,0.1c-0.8,0-1.6-0.1-2.2-0.2
	c-0.7-0.2-1.3-0.4-1.8-0.8c-0.5-0.4-0.9-0.8-1.2-1.4c-0.3-0.6-0.4-1.3-0.4-2.1c0-0.8,0.2-1.5,0.5-2c0.3-0.6,0.8-1,1.3-1.4
	c0.6-0.3,1.2-0.6,1.9-0.8c0.7-0.2,1.5-0.2,2.3-0.2c0.3,0,0.5,0,0.8,0c0.3,0,0.5,0.1,0.8,0.1c0.2,0,0.5,0.1,0.6,0.1
	c0.2,0,0.3,0.1,0.4,0.1v-0.7c0-0.4,0-0.8-0.1-1.3c-0.1-0.4-0.3-0.8-0.5-1.1c-0.2-0.3-0.6-0.6-1-0.8c-0.4-0.2-1-0.3-1.6-0.3
	c-0.8,0-1.6,0.1-2.2,0.2c-0.6,0.1-1.1,0.2-1.4,0.4l-0.3-2.1c0.3-0.1,0.9-0.3,1.7-0.4C300.3,195.8,301.1,195.7,302,195.7
	 M302.2,208.6c0.6,0,1.1,0,1.6,0c0.5,0,0.9-0.1,1.2-0.2v-4.3c-0.2-0.1-0.5-0.2-0.9-0.2c-0.4-0.1-0.9-0.1-1.5-0.1
	c-0.4,0-0.8,0-1.2,0.1c-0.4,0.1-0.8,0.2-1.2,0.3c-0.4,0.2-0.7,0.4-0.9,0.7c-0.2,0.3-0.4,0.7-0.4,1.2c0,0.9,0.3,1.6,0.9,1.9
	C300.4,208.4,301.2,208.6,302.2,208.6"/>
<path class="st0" d="M311.8,196.5c0.6-0.1,1.4-0.3,2.3-0.5c1-0.2,2.1-0.2,3.4-0.2c1.1,0,2.1,0.2,2.8,0.5c0.8,0.3,1.4,0.8,1.8,1.4
	c0.4,0.6,0.8,1.3,1,2.1c0.2,0.8,0.3,1.7,0.3,2.7v8h-2.6v-7.5c0-0.9-0.1-1.6-0.2-2.3c-0.1-0.6-0.3-1.1-0.6-1.5
	c-0.3-0.4-0.6-0.7-1.1-0.8c-0.5-0.2-1-0.3-1.7-0.3c-0.3,0-0.6,0-0.9,0c-0.3,0-0.6,0-0.8,0.1c-0.3,0-0.5,0.1-0.7,0.1
	c-0.2,0-0.4,0.1-0.5,0.1v12.1h-2.6V196.5z"/>
<path class="st0" d="M336.6,209c-0.2,0.1-0.6,0.3-1.3,0.6c-0.6,0.2-1.4,0.3-2.2,0.3c-0.9,0-1.7-0.1-2.4-0.4c-0.8-0.3-1.4-0.7-2-1.3
	c-0.6-0.6-1-1.3-1.4-2.2c-0.3-0.9-0.5-1.9-0.5-3.1c0-1,0.2-2,0.5-2.9c0.3-0.9,0.8-1.6,1.4-2.3c0.6-0.6,1.3-1.1,2.2-1.5
	c0.9-0.4,1.8-0.5,2.9-0.5c1.2,0,2.2,0.1,3.1,0.3c0.9,0.2,1.6,0.3,2.2,0.5v12.8c0,2.2-0.6,3.8-1.7,4.8c-1.1,1-2.9,1.5-5.2,1.5
	c-0.9,0-1.8-0.1-2.6-0.2c-0.8-0.1-1.5-0.3-2.1-0.5l0.5-2.2c0.5,0.2,1.1,0.4,1.9,0.5c0.7,0.2,1.5,0.2,2.3,0.2c1.5,0,2.6-0.3,3.3-0.9
	c0.7-0.6,1-1.6,1-2.9V209z M336.5,198.3c-0.3-0.1-0.6-0.1-1-0.2c-0.4-0.1-1-0.1-1.8-0.1c-1.4,0-2.4,0.5-3.2,1.4
	c-0.7,0.9-1.1,2.1-1.1,3.6c0,0.8,0.1,1.5,0.3,2.1c0.2,0.6,0.5,1.1,0.9,1.5c0.4,0.4,0.8,0.7,1.2,0.9c0.5,0.2,1,0.3,1.4,0.3
	c0.7,0,1.3-0.1,1.9-0.3c0.6-0.2,1-0.4,1.3-0.7V198.3z"/>
<path class="st0" d="M342.7,203.3c0-1.3,0.2-2.4,0.6-3.3c0.4-0.9,0.9-1.7,1.5-2.4c0.6-0.6,1.3-1.1,2.1-1.4c0.8-0.3,1.6-0.5,2.4-0.5
	c1.9,0,3.4,0.6,4.4,1.8c1,1.2,1.5,3,1.5,5.5v0.4c0,0.2,0,0.3,0,0.5h-9.8c0.1,1.5,0.5,2.6,1.3,3.4c0.8,0.8,1.9,1.2,3.5,1.2
	c0.9,0,1.7-0.1,2.3-0.2c0.6-0.2,1.1-0.3,1.4-0.5l0.4,2.2c-0.3,0.2-0.9,0.3-1.6,0.5c-0.8,0.2-1.7,0.3-2.7,0.3c-1.3,0-2.3-0.2-3.2-0.6
	c-0.9-0.4-1.7-0.9-2.2-1.6c-0.6-0.7-1-1.4-1.3-2.4C342.9,205.4,342.7,204.4,342.7,203.3 M352.6,201.9c0-1.2-0.3-2.1-0.9-2.9
	c-0.6-0.7-1.4-1.1-2.5-1.1c-0.6,0-1.1,0.1-1.6,0.3c-0.5,0.2-0.8,0.5-1.1,0.9c-0.3,0.4-0.6,0.8-0.7,1.3c-0.2,0.5-0.3,1-0.3,1.5H352.6
	z"/>
<path class="st0" d="M59.3,127.6c-5.4,0.1-4.9,33-4.9,33c0,0.1-0.1,0.2-0.1,0.3h9.8c0-0.1-0.1-0.2-0.1-0.3
	C64.2,160.6,64.7,127.7,59.3,127.6"/>
<path class="st0" d="M76.4,104.6c18.8-1.4,30-16.2,30-36c0-10.9-9-19.7-20.1-19.7H66.8c-8.3,0-15.3,1.9-18.4,8.8
	c2-7.3,8-13,15.6-14.9c-2.5-1.1-5.3-1.7-8.1-1.7H30.9c-11.6,0-21,9.5-21,21.2c0,22,12.3,41.6,32.8,42.2h-5c-5.7,0-9.5,0.5-15.2-0.3
	l3.4,52.1c0.1,2.5,2,4.4,4.2,4.4H49c0-0.1-0.1-0.2-0.1-0.3c0,0-4.9-21.8-4.9-39.1c0-6.1,0.6-12.7,1-16.5c0-0.6-0.2-1-0.6-1.4l0,0
	C33.6,97.5,26.2,85,26.2,70.6h0c0-1.6,1.2-2.9,2.8-2.9c1.5,0,2.8,1.3,2.8,2.9C32,84.3,44.2,95.7,59.3,95.7
	c15.1,0,27.4-11.4,27.6-25.1c0-1.6,1.2-2.9,2.8-2.9c1.5,0,2.8,1.3,2.8,2.9c0,14.5-7.4,27-18.2,33.1l0,0c-0.4,0.3-0.6,0.8-0.6,1.4
	c0.4,3.8,1,10.4,1,16.5c0,17.3-4.9,39.1-4.9,39.1c0,0.1-0.1,0.2-0.1,0.3h18.8c2.2,0,4.1-2,4.2-4.4l3.5-53.9c-6.5,2.3-11.3,2-18.6,2
	H76.4z M59.3,91.1c-4.8,0-8.7-3.9-8.7-8.7c0-4.8,3.9-8.7,8.7-8.7c4.8,0,8.7,3.9,8.7,8.7C68,87.2,64.1,91.1,59.3,91.1"/>
<path class="st0" d="M38.1,36.8c6.7,0,12.1-5.4,12.1-12.1c0-6.7-5.4-12.1-12.1-12.1C31.4,12.6,26,18,26,24.7
	C26,31.3,31.4,36.8,38.1,36.8"/>
<path class="st0" d="M78.9,41.4c6,0,10.9-4.9,10.9-10.9c0-6.1-4.9-11-10.9-11c-6,0-11,4.9-11,11C67.9,36.5,72.8,41.4,78.9,41.4"/>
<path class="st0" d="M246.2,64c-13.6,0-24.3,10.7-24.3,24.3v46.8h13.3v-27.9h22.1v27.9h13.3V88.3C270.5,73.3,261.2,64,246.2,64
	 M235.2,93.9v-5.6c0-7.2,5.7-11.7,11-11.7c9.1,0,11,6.4,11,11.7v5.6H235.2z"/>
<path class="st0" d="M208.2,135.1H195V88.3c0-5.4-1.9-11.7-11-11.7c-5.3,0-11,4.5-11,11.7v46.8h-13.3l0-46.8c0-5.4-1.9-11.7-11-11.7
	c-5.3,0-11,4.5-11,11.7v46.8h-13.3V88.3c0-13.6,10.7-24.3,24.3-24.3c7.6,0,13.8,2.4,18.1,7c4.5-4.5,10.6-7,17.2-7
	c15,0,24.3,9.3,24.3,24.3V135.1z"/>
<path class="st0" d="M337.1,88.3c0-16.8-12.5-24.5-24.1-24.5c-2.5,0-11.3,0.5-18.2,7.6c-5.5,5.6-8.3,13.6-8.1,23.7l0,16.3h0v23.6
	H300v-19.9h0.2c4.6-0.3,8.7-0.9,12.4-1.8l10,21.7h14.6l-12.1-26.3C333.1,104.2,337.1,97.4,337.1,88.3 M300,102v-7.7
	c0-6.2,1.5-10.8,4.4-13.8c3.4-3.5,8-3.7,8.8-3.7h0.2c6.2,0,10.9,4.4,10.9,10.3c0,4.5-2.5,8.5-6.4,10.5
	C313.7,99.9,307.7,101.4,300,102"/>
<path class="st0" d="M374.3,76.9l17.5,0.1V63.8h-17.7c-2.5,0-11.3,0.5-18.2,7.6c-5.5,5.6-8.3,13.6-8.1,23.7v8.7
	c-0.1,10.1,2.6,18.1,8.1,23.7c6.9,7,15.7,7.6,18.2,7.6h17.7v-13.1l-17.5,0.1c-0.9,0-5.4-0.2-8.8-3.7c-2.7-2.7-4.1-6.9-4.3-12.5h19.4
	V93.2h-19.4c0.2-5.6,1.6-9.9,4.3-12.6C368.9,77,373.5,76.9,374.3,76.9"/>
</svg>
