<?xml version="1.0" encoding="UTF-8" standalone="no"?>
<svg width="44px" height="44px" viewBox="0 0 44 44" version="1.1" xmlns="http://www.w3.org/2000/svg" xmlns:xlink="http://www.w3.org/1999/xlink">
    <!-- Generator: Sketch 39.1 (31720) - http://www.bohemiancoding.com/sketch -->
    <title>pinterest-light</title>
    <desc>Created with Sketch.</desc>
    <defs>
        <circle id="path-1" cx="22" cy="22" r="22"></circle>
        <mask id="mask-2" maskContentUnits="userSpaceOnUse" maskUnits="objectBoundingBox" x="0" y="0" width="44" height="44" fill="white">
            <use xlink:href="#path-1"></use>
        </mask>
    </defs>
    <g id="Social-Icons" stroke="none" stroke-width="1" fill="none" fill-rule="evenodd">
        <g id="social-icons" transform="translate(-132.000000, -16.000000)">
            <g id="pinterest-light" transform="translate(132.000000, 16.000000)">
                <use id="Oval" stroke="#D5D5D5" mask="url(#mask-2)" stroke-width="4" fill-opacity="0" fill="#FFFFFF" xlink:href="#path-1"></use>
                <path d="M12,20.3291817 C12,22.8981938 12.9669398,25.18331 15.0394195,26.0349978 C15.3793975,26.1744843 15.6835025,26.0399209 15.7821532,25.6608459 C15.850638,25.3991037 16.0128817,24.7377739 16.0846276,24.462083 C16.1840936,24.0879311 16.1457747,23.9566498 15.8710203,23.6300874 C15.2742245,22.9203475 14.8918511,22.0021985 14.8918511,20.700872 C14.8918511,16.9273534 17.697281,13.5484994 22.1985243,13.5484994 C26.1836859,13.5484994 28.3727528,15.9993583 28.3727528,19.2715462 C28.3727528,23.5775749 26.4788227,27.2124275 23.6685011,27.2124275 C22.1153642,27.2124275 20.953569,25.9201266 21.3261587,24.3357247 C21.7721251,22.4436321 22.6355224,20.4013864 22.6355224,19.0360603 C22.6355224,17.8135026 21.9832865,16.7944311 20.6347886,16.7944311 C19.0482247,16.7944311 17.7722881,18.4461147 17.7722881,20.6590261 C17.7722881,22.0694802 18.2459745,23.0220906 18.2459745,23.0220906 C18.2459745,23.0220906 16.621907,29.9480029 16.337369,31.1607144 C15.7707391,33.5762915 16.2525784,36.5366862 16.2933431,36.8353513 C16.3169867,37.0125811 16.5428234,37.0552475 16.6455505,36.9215046 C16.7923036,36.7286851 18.681342,34.3803898 19.325425,32.034556 C19.5064204,31.3699441 20.3681872,27.929552 20.3681872,27.929552 C20.8842689,28.9190852 22.3909339,29.7904652 23.9929885,29.7904652 C28.7640944,29.7904652 32,25.4138729 32,19.5554422 C32,15.1255168 28.2716563,11 22.6053565,11 C15.5555012,11 12,16.0871527 12,20.3291817 Z" id="Shape" fill="#D5D5D5"></path>
            </g>
        </g>
    </g>
</svg>