<?xml version="1.0" encoding="UTF-8" standalone="no"?>
<svg width="31px" height="32px" viewBox="0 0 31 32" version="1.1" xmlns="http://www.w3.org/2000/svg" xmlns:xlink="http://www.w3.org/1999/xlink" xmlns:sketch="http://www.bohemiancoding.com/sketch/ns">
    <!-- Generator: Sketch 3.3.3 (12081) - http://www.bohemiancoding.com/sketch -->
    <title>pinterest-icon</title>
    <desc>Created with Sketch.</desc>
    <defs></defs>
    <g id="Page-1" stroke="none" stroke-width="1" fill="none" fill-rule="evenodd" sketch:type="MSPage">
        <g id="footer" sketch:type="MSLayerGroup" transform="translate(-164.000000, 40.612300) scale(1, -1) translate(164.000000, -40.612300) translate(-685.000000, -38.387700)">
            <path d="M1042,158 L0,158 L0,0 L1042,0 L1042,158 Z" id="Shape" fill="#FFFCD5" sketch:type="MSShapeGroup"></path>
            <g id="Group" transform="translate(615.000000, 88.000000)" sketch:type="MSShapeGroup">
                <g transform="translate(70.000000, 0.000000)" id="Shape">
                    <path d="M25.8,30.8 L5.8,30.8 C3,30.8 0.8,28.6 0.8,25.8 L0.8,5.8 C0.8,3 3.1,0.8 5.8,0.8 L25.8,0.8 C28.6,0.8 30.8,3 30.8,5.8 L30.8,25.8 C30.8,28.6 28.5,30.8 25.8,30.8 L25.8,30.8 Z" fill="#66584D"></path>
                    <path d="M10.8,20 C10.8,20 10.4,18.9 10.7,17.3 C11,15.7 11.6,15.6 11.6,15.6 L11.2,13.5 C11.2,13.5 8.8,13.7 8.2,16.6 C6.7,24.4 14.5,26.9 18.2,26.1 C24.8,24.6 24.9,19.7 24.3,16 C23.6,13 21.6,11.6 20.2,10.9 C18.8,10.2 17.6,10.5 16.4,10.8 C15.3,11.2 14.9,11.9 14.9,11.9 C14.9,11.9 14.3,9.6 13.9,8.2 C13.5,6.7 12,4.6 11.6,4.6 C11.2,4.6 11.1,8.1 11.2,8.9 C11.4,10.2 12.9,15.8 12.9,15.8 C12.9,15.8 13,16 12.6,17.6 C12.2,19.3 13.1,21.3 14.7,21.4 C16.5,21.6 16.7,20 16.6,19.1 C16.6,18.2 15.7,16.1 15.6,15.1 C15.5,14.1 15.8,12.7 17.4,12.7 C18.7,12.6 20.7,14 21.4,18 C21.9,20.8 20.3,24.2 16,24.1 C12.1,23.9 10.8,20 10.8,20 L10.8,20 Z" fill="#FFFFFF"></path>
                </g>
            </g>
        </g>
    </g>
</svg>