<?xml version="1.0" encoding="UTF-8" standalone="no"?>
<svg width="31px" height="32px" viewBox="0 0 31 32" version="1.1" xmlns="http://www.w3.org/2000/svg" xmlns:xlink="http://www.w3.org/1999/xlink" xmlns:sketch="http://www.bohemiancoding.com/sketch/ns">
    <!-- Generator: Sketch 3.3.3 (12081) - http://www.bohemiancoding.com/sketch -->
    <title>twitter-icon</title>
    <desc>Created with Sketch.</desc>
    <defs></defs>
    <g id="Page-1" stroke="none" stroke-width="1" fill="none" fill-rule="evenodd" sketch:type="MSPage">
        <g id="footer" sketch:type="MSLayerGroup" transform="translate(-129.000000, 40.612300) scale(1, -1) translate(129.000000, -40.612300) translate(-650.000000, -38.387700)">
            <path d="M1042,158 L0,158 L0,0 L1042,0 L1042,158 Z" id="Shape" fill="#FFFCD5" sketch:type="MSShapeGroup"></path>
            <g id="Group" transform="translate(615.000000, 88.000000)" sketch:type="MSShapeGroup">
                <g transform="translate(35.000000, 0.000000)" id="Shape">
                    <path d="M5.6,0.9 C2.9,0.9 0.7,3.1 0.7,5.8 L0.7,25.8 C0.7,28.5 2.9,30.7 5.6,30.7 L25.6,30.7 C28.3,30.7 30.5,28.5 30.5,25.8 L30.5,5.8 C30.5,3.1 28.3,0.9 25.6,0.9 L5.6,0.9 L5.6,0.9 Z" fill="#66584D"></path>
                    <path d="M26,21.6 C25.3,21.3 24.5,21.1 23.6,21 C24.4,21.5 25.1,22.3 25.4,23.3 C24.6,22.8 23.7,22.5 22.8,22.3 C22.1,23.1 21,23.6 19.8,23.6 C17.5,23.6 15.7,21.8 15.7,19.5 C15.7,19.2 15.7,18.9 15.8,18.6 C12.4,18.8 9.4,20.4 7.3,22.9 C6.9,22.3 6.7,21.6 6.7,20.8 C6.7,19.4 7.4,18.1 8.5,17.4 C7.8,17.4 7.2,17.6 6.6,17.9 C6.6,17.9 6.6,17.9 6.6,17.8 C6.6,15.8 8,14.2 9.9,13.8 C9.6,13.7 9.2,13.7 8.8,13.7 C8.5,13.7 8.3,13.7 8,13.8 C8.5,12.2 10,11 11.8,11 C10.4,9.9 8.6,9.2 6.7,9.2 C6.4,9.2 6,9.2 5.7,9.3 C7.5,8.1 9.7,7.5 12,7.5 C19.5,7.5 23.7,13.7 23.7,19.2 L23.7,19.7 C24.8,20 25.5,20.8 26,21.6 L26,21.6 Z" fill="#FFFFFF"></path>
                </g>
            </g>
        </g>
    </g>
</svg>