<?xml version="1.0" encoding="UTF-8" standalone="no"?>
<svg width="181px" height="88px" viewBox="0 0 181 88" version="1.1" xmlns="http://www.w3.org/2000/svg" xmlns:xlink="http://www.w3.org/1999/xlink">
    <!-- Generator: Sketch 39.1 (31720) - http://www.bohemiancoding.com/sketch -->
    <title>logo</title>
    <desc>Created with Sketch.</desc>
    <defs></defs>
    <g id="Page-1" stroke="none" stroke-width="1" fill="none" fill-rule="evenodd">
        <g id="logo" fill="#D5D5D5">
            <g id="icon" transform="translate(21.500000, 33.000000) rotate(180.000000) translate(-21.500000, -33.000000) ">
                <path d="M22.4,14.8 C20.1,14.8 20.3,0.4 20.3,0.4 L20.3,0.3 L24.6,0.3 L24.6,0.4 C24.6,0.4 24.8,14.8 22.4,14.8 L22.4,14.8 L22.4,14.8 Z" id="Shape"></path>
                <path d="M29.9,24.9 C38.1,25.5 43,32 43,40.6 C43,45.4 39.1,49.2 34.2,49.2 L25.7,49.2 C22.1,49.2 19,48.4 17.7,45.4 C18.6,48.6 21.2,51.1 24.5,51.9 C23.4,52.4 22.2,52.6 20.9,52.6 L10,52.6 C4.9,52.6 0.8,48.5 0.8,43.3 C0.8,33.7 6.2,25.1 15.1,24.9 L12.9,24.9 C10.4,24.9 8.8,24.7 6.3,25 L7.8,2.2 C7.9,1.1 8.7,0.3 9.7,0.3 L17.9,0.3 L17.9,0.4 C17.9,0.4 15.8,9.9 15.8,17.5 C15.8,20.2 16.1,23.1 16.2,24.7 C16.2,24.9 16.1,25.2 15.9,25.3 L15.9,25.3 C11.2,28 7.9,33.4 7.9,39.7 L7.9,39.7 C7.9,40.4 8.4,41 9.1,41 C9.8,41 10.3,40.4 10.3,39.7 C10.4,33.7 15.7,28.7 22.3,28.7 C28.9,28.7 34.3,33.7 34.3,39.7 C34.3,40.4 34.8,41 35.5,41 C36.2,41 36.7,40.4 36.7,39.7 C36.7,33.4 33.5,27.9 28.7,25.3 L28.7,25.3 C28.5,25.2 28.4,24.9 28.4,24.7 C28.6,23 28.8,20.2 28.8,17.5 C28.8,9.9 26.7,0.4 26.7,0.4 L26.7,0.3 L34.9,0.3 C35.9,0.3 36.7,1.2 36.8,2.2 L38.3,25.8 C35.5,24.8 33.4,24.9 30.2,24.9 L29.9,24.9 L29.9,24.9 L29.9,24.9 Z M22.4,30.8 C20.3,30.8 18.6,32.5 18.6,34.6 C18.6,36.7 20.3,38.4 22.4,38.4 C24.5,38.4 26.2,36.7 26.2,34.6 C26.2,32.5 24.5,30.8 22.4,30.8 L22.4,30.8 L22.4,30.8 Z" id="Shape"></path>
                <path d="M13.1,54.5 C16,54.5 18.4,56.9 18.4,59.8 C18.4,62.7 16,65.1 13.1,65.1 C10.2,65.1 7.8,62.7 7.8,59.8 C7.9,56.9 10.2,54.5 13.1,54.5 L13.1,54.5 L13.1,54.5 Z" id="Shape"></path>
                <path d="M31,52.5 C33.6,52.5 35.8,54.6 35.8,57.3 C35.8,59.9 33.7,62.1 31,62.1 C28.4,62.1 26.2,60 26.2,57.3 C26.2,54.6 28.3,52.5 31,52.5 L31,52.5 L31,52.5 Z" id="Shape"></path>
            </g>
            <g id="subheader" transform="translate(51.000000, 58.000000)" font-size="12" font-family="Helvetica" font-weight="normal">
                <text id="resource-exchange">
                    <tspan x="0.7515" y="26.6193">resource exchange</tspan>
                </text>
                <text id="massachusetts-adoption">
                    <tspan x="0.7515" y="11.8193">massachusetts adoption</tspan>
                </text>
            </g>
            <g id="header" transform="translate(110.000000, 39.000000) scale(-1, 1) rotate(180.000000) translate(-110.000000, -39.000000) translate(51.000000, 23.000000)">
                <path d="M54,31.6 C48.1,31.6 43.4,26.9 43.4,21 L43.4,0.6 L49.2,0.6 L49.2,12.7 L58.8,12.7 L58.8,0.5 L64.6,0.5 L64.6,21 C64.6,27.5 60.5,31.6 54,31.6 L54,31.6 L54,31.6 Z M49.2,18.5 L49.2,21 C49.2,24.2 51.7,26.1 54,26.1 C58,26.1 58.8,23.3 58.8,21 L58.8,18.5 L49.2,18.5 L49.2,18.5 L49.2,18.5 Z" id="Shape"></path>
                <path d="M37.4,0.6 L31.6,0.6 L31.6,21 C31.6,23.3 30.8,26.1 26.8,26.1 C24.5,26.1 22,24.1 22,21 L22,0.6 L16.2,0.6 L16.2,21 C16.2,23.3 15.4,26.1 11.4,26.1 C9.1,26.1 6.6,24.1 6.6,21 L6.6,0.6 L0.8,0.6 L0.8,21 C0.8,26.9 5.5,31.6 11.4,31.6 C14.7,31.6 17.4,30.6 19.3,28.6 C21.3,30.5 23.9,31.6 26.8,31.6 C33.3,31.6 37.4,27.5 37.4,21 L37.4,0.6 L37.4,0.6 L37.4,0.6 Z" id="Shape"></path>
                <path d="M93.7,21 C93.7,28.3 88.2,31.7 83.2,31.7 C82.1,31.7 78.3,31.5 75.3,28.4 C72.9,25.9 71.7,22.5 71.8,18 L71.8,10.9 L71.8,0.6 L77.6,0.6 L77.6,9.3 L77.7,9.3 C79.7,9.5 81.5,9.7 83.1,10.1 L87.4,0.7 L93.8,0.7 L88.4,12 C91.9,14 93.7,17 93.7,21 L93.7,21 L93.7,21 Z M77.4,15 L77.4,18.4 C77.4,21.1 78,23.1 79.3,24.4 C80.8,25.9 82.8,26 83.2,26 L83.3,26 C86,26 88.1,24.1 88.1,21.5 C88.1,19.6 87,17.8 85.3,16.9 C83.4,15.9 80.8,15.3 77.4,15 L77.4,15 L77.4,15 Z" id="Shape"></path>
                <path d="M109.9,26 L117.6,26 L117.6,31.7 L109.9,31.7 C108.8,31.7 105,31.5 102,28.4 C99.6,25.9 98.4,22.5 98.5,18 L98.5,14.2 C98.4,9.8 99.6,6.3 102,3.8 C105,0.7 108.8,0.5 109.9,0.5 L117.6,0.5 L117.6,6.2 L109.9,6.2 C109.5,6.2 107.5,6.3 106,7.8 C104.8,9 104.2,10.8 104.1,13.3 L112.6,13.3 L112.6,18.8 L104.1,18.8 C104.2,21.3 104.8,23.1 106,24.3 C107.5,25.9 109.5,26 109.9,26 L109.9,26 L109.9,26 Z" id="Shape"></path>
            </g>
        </g>
    </g>
</svg>