<?xml version="1.0" encoding="UTF-8" standalone="no"?>
<svg width="30px" height="30px" viewBox="0 0 30 30" version="1.1" xmlns="http://www.w3.org/2000/svg" xmlns:xlink="http://www.w3.org/1999/xlink" xmlns:sketch="http://www.bohemiancoding.com/sketch/ns">
    <!-- Generator: Sketch 3.4.4 (17249) - http://www.bohemiancoding.com/sketch -->
    <title>Video Icon</title>
    <desc>Created with Sketch.</desc>
    <defs></defs>
    <g id="Page-1" stroke="none" stroke-width="1" fill="none" fill-rule="evenodd" sketch:type="MSPage">
        <g id="Video-Icon" sketch:type="MSLayerGroup" stroke="#979797" fill="#66584C">
            <path d="M0,3.9992748 C0,1.79053632 1.78679466,0 3.9992748,0 L26.0007252,0 C28.2094637,0 30,1.78679466 30,3.9992748 L30,26.0007252 C30,28.2094637 28.2132053,30 26.0007252,30 L3.9992748,30 C1.79053632,30 0,28.2132053 0,26.0007252 L0,3.9992748 Z M24,10 L24,20 L17.5,15 L24,10 Z M5,11.999615 C5,10.8952581 5.89896917,10 7.00834125,10 L15.4916587,10 C16.600835,10 17.5,10.8874333 17.5,11.999615 L17.5,18.000385 C17.5,19.1047419 16.6010308,20 15.4916587,20 L7.00834125,20 C5.89916501,20 5,19.1125667 5,18.000385 L5,11.999615 Z" id="Background" sketch:type="MSShapeGroup"></path>
        </g>
    </g>
</svg>