<?xml version="1.0" encoding="UTF-8" standalone="no"?>
<svg width="30px" height="32px" viewBox="0 0 30 32" version="1.1" xmlns="http://www.w3.org/2000/svg" xmlns:xlink="http://www.w3.org/1999/xlink" xmlns:sketch="http://www.bohemiancoding.com/sketch/ns">
    <!-- Generator: Sketch 3.3.3 (12081) - http://www.bohemiancoding.com/sketch -->
    <title>youtube-icon</title>
    <desc>Created with Sketch.</desc>
    <defs></defs>
    <g id="Page-1" stroke="none" stroke-width="1" fill="none" fill-rule="evenodd" sketch:type="MSPage">
        <g id="footer" sketch:type="MSLayerGroup" transform="translate(-200.000000, 40.612300) scale(1, -1) translate(200.000000, -40.612300) translate(-721.000000, -38.387700)">
            <path d="M1042,158 L0,158 L0,0 L1042,0 L1042,158 Z" id="Shape" fill="#FFFCD5" sketch:type="MSShapeGroup"></path>
            <g id="Group" transform="translate(615.000000, 88.000000)" sketch:type="MSShapeGroup">
                <g transform="translate(106.000000, 0.000000)" id="Shape">
                    <path d="M4.9,0.9 C2.2,0.9 0,3.1 0,5.8 L0,25.8 C0,28.5 2.2,30.7 4.9,30.7 L24.9,30.7 C27.6,30.7 29.8,28.5 29.8,25.8 L29.8,5.8 C29.8,3.1 27.6,0.9 24.9,0.9 L4.9,0.9 L4.9,0.9 Z" fill="#66584D"></path>
                    <g transform="translate(6.000000, 17.000000)" fill="#FFFFFF">
                        <path d="M0.3,11 L2.1,11 L3.2,7 L3.3,7 L4.4,11 L6.1,11 L4.1,5.1 L4.1,0.9 L2.4,0.9 L2.4,4.9 L0.3,11 Z"></path>
                        <path d="M6.2,6.6 C6.2,7.2 6.4,7.6 6.8,8 C7.2,8.3 7.8,8.5 8.5,8.5 C9.1,8.5 9.6,8.3 10.1,8 C10.5,7.6 10.7,7.2 10.7,6.6 L10.7,2.7 C10.7,2.1 10.5,1.6 10.1,1.2 C9.7,0.8 9.2,0.7 8.5,0.7 C7.8,0.7 7.3,0.9 6.9,1.3 C6.5,1.7 6.3,2.2 6.3,2.8 L6.3,6.6 L6.2,6.6 Z M7.8,2.6 C7.8,2.4 7.9,2.2 8,2.1 C8.1,2 8.3,1.9 8.5,1.9 C8.7,1.9 8.9,2 9,2.1 C9.1,2.2 9.2,2.4 9.2,2.6 L9.2,6.7 C9.2,6.9 9.1,7 9,7.1 C8.9,7.2 8.7,7.2 8.5,7.2 C8.3,7.2 8.2,7.2 8,7.1 C7.9,7 7.8,6.9 7.8,6.7 L7.8,2.6 L7.8,2.6 Z"></path>
                        <path d="M16.2,8.3 L16.2,0.8 L14.7,0.8 L14.7,1.6 C14.4,1.3 14.1,1.1 13.8,0.9 C13.5,0.7 13.2,0.7 12.9,0.7 C12.5,0.7 12.3,0.8 12.1,1 C11.9,1.2 11.8,1.6 11.8,2 L11.8,8.2 L13.3,8.2 L13.3,2.5 C13.3,2.3 13.3,2.2 13.4,2.1 C13.5,2 13.6,2 13.7,2 C13.8,2 14,2.1 14.1,2.2 C14.3,2.3 14.4,2.4 14.6,2.6 L14.6,8.3 L16.2,8.3 L16.2,8.3 Z"></path>
                    </g>
                    <path d="M27,5.6 C27,3.9 25.7,2.6 24,2.6 L4,2.6 C2.3,2.6 1,3.9 1,5.6 L1,11.6 C1,13.3 2.3,14.6 4,14.6 L24,14.6 C25.7,14.6 27,13.3 27,11.6 L27,5.6 L27,5.6 Z" fill="#FFFFFF"></path>
                    <g transform="translate(5.000000, 3.000000)" fill="#66584D">
                        <path d="M4.7,10.1 L0,10.1 L0,8.8 L1.6,8.8 L1.6,0.9 L3.1,0.9 L3.1,8.8 L4.7,8.8 L4.7,10.1 L4.7,10.1 Z"></path>
                        <path d="M7.8,2.5 C7.7,2.4 7.5,2.2 7.4,2.1 C7.2,2 7.1,2 7,2 C6.9,2 6.8,2 6.7,2.1 C6.6,2.2 6.6,2.3 6.6,2.4 L6.6,7.6 L5.2,7.6 L5.2,2 C5.2,1.6 5.3,1.3 5.4,1.1 C5.6,0.9 5.8,0.8 6.1,0.8 C6.4,0.8 6.6,0.9 6.9,1 C7.2,1.1 7.4,1.4 7.7,1.6 L7.7,0.9 L9.1,0.9 L9.1,7.7 L7.7,7.7 L7.7,2.5 L7.8,2.5 Z"></path>
                        <path d="M13.8,7.3 C13.6,7.6 13.2,7.7 12.8,7.7 C12.6,7.7 12.4,7.7 12.2,7.5 C12,7.4 11.8,7.2 11.6,7 L11.6,10 L10.2,10 L10.2,0.8 L11.6,0.8 L11.6,1.3 C11.8,1.1 12,0.9 12.2,0.8 C12.4,0.7 12.6,0.7 12.9,0.7 C13.3,0.7 13.6,0.8 13.8,1.1 C14,1.4 14.1,1.7 14.1,2.2 L14.1,6 C14.1,6.6 14,7 13.8,7.3 L13.8,7.3 Z M12.7,2.5 C12.7,2.3 12.7,2.1 12.6,2 C12.5,1.9 12.4,1.9 12.2,1.9 C12.1,1.9 12,1.9 11.9,2 C11.8,2 11.7,2.1 11.6,2.2 L11.6,6.4 C11.7,6.5 11.8,6.6 11.9,6.6 C12,6.7 12.1,6.7 12.2,6.7 C12.4,6.7 12.5,6.6 12.6,6.5 C12.7,6.4 12.7,6.2 12.7,6 L12.7,2.5 L12.7,2.5 Z"></path>
                        <path d="M18.8,4.1 L18.8,5.8 C18.8,6.4 18.6,6.9 18.3,7.3 C18,7.6 17.5,7.8 16.9,7.8 C16.3,7.8 15.8,7.6 15.4,7.2 C15,6.8 14.8,6.3 14.8,5.8 L14.8,2.8 C14.8,2.1 15,1.6 15.3,1.3 C15.6,0.9 16.1,0.7 16.7,0.7 C17.4,0.7 17.9,0.9 18.2,1.2 C18.5,1.6 18.7,2.1 18.7,2.8 L18.7,3.1 L17.3,3.1 L17.3,2.8 C17.3,2.4 17.3,2.1 17.2,2 C17.1,1.9 17,1.8 16.7,1.8 C16.5,1.8 16.3,1.9 16.2,2 C16.1,2.1 16.1,2.4 16.1,2.7 L16.1,4 L18.8,4 L18.8,4.1 Z M16.2,5.9 C16.2,6.2 16.2,6.4 16.3,6.5 C16.4,6.6 16.5,6.7 16.8,6.7 C17,6.7 17.2,6.6 17.3,6.5 C17.4,6.4 17.4,6.2 17.4,5.9 L17.4,5.2 L16.2,5.2 L16.2,5.9 L16.2,5.9 Z"></path>
                    </g>
                </g>
            </g>
        </g>
    </g>
</svg>