<svg width="31" height="32" viewBox="0 0 31 32" xmlns="http://www.w3.org/2000/svg"><title>facebook-icon</title><defs><linearGradient x1="49.619%" y1="65.558%" x2="49.619%" y2=".751%" id="a"><stop stop-color="#FCFCFC" offset="0%"/><stop stop-color="#D4D4D4" offset="100%"/></linearGradient></defs><g fill="none" fill-rule="evenodd"><path d="M427-38.388H-615v158H427v-158z" fill="#FFFCD5"/><path d="M5.8 30.712c-2.7 0-4.9-2.2-4.9-4.9v-20c0-2.7 2.2-4.9 4.9-4.9h20c2.7 0 4.9 2.2 4.9 4.9v20c0 2.7-2.2 4.9-4.9 4.9h-20z" fill="#66584D"/><path d="M21.5 20.5h3.8v4.6h-3.8c-3.1 0-5.6-2.7-5.6-6.1v-2.3h-3.8V12h3.8V.8h4.7v11.3h4.7v4.7h-4.7v2.4c-.1.7.4 1.3.9 1.3z" fill="url(#a)" transform="matrix(1 0 0 -1 0 31.612)"/></g></svg>