<svg width="65" height="66" viewBox="0 0 65 66" xmlns="http://www.w3.org/2000/svg"><title>jack-williams-logo</title><g fill="none" fill-rule="evenodd"><path d="M127-22.388H-915v158H127v-158z" fill="#FFFCD5"/><g fill="#66584D"><g opacity=".5"><path d="M28.2 39.212c-.2.6-.3 1.2-.5 1.5-.3 1-1.9 3.1-4.3 3.1H23c2.9 1.2 4.7-1.5 5-2.3.1-.4.4-1.2.6-1.9-.1-.2-.3-.3-.4-.4zM31.5 31.012l-.5-.2-.6 1.7c.1.2.2.4.3.7l.8-2.2zM31 29.312c.9-2.8 2.7-8.2 3.1-9.3l.2.3c.2.9.6 3.6 1 5.8l.2-.1-.9-5.3-.1-.5-.4-.6-.1.2-3.1 9.5h.1zM47.4 30.912c0 .2 0 .4-.1.6-.1.3-.3.5-.5.8-.6.6-1.5.9-2.2.9.2.1.4.2.6.2.5.2 2 0 2.4-1.1.2-.5 0-1-.2-1.4zM44.5 39.712c-.4.4-.9.8-1.6 1-.9.4-1.7.5-2.4.4.8.4 1.8.4 3.1-.1 2.8-1.1 2.4-4 2.1-5 0 1.2-.2 2.6-1.2 3.7zM32.7 37.712c0 .3 0 .6-.1.9-.2.7-.7 1.2-1.2 1.4-.3.1-.6.2-.9.2.5.3 1.1.4 1.6.2 1-.4 1.1-1.8.8-2.5-.1 0-.1-.1-.2-.2z"/></g><path d="M32.8 65.112c-17.6 0-32-14.3-32-32 0-17.6 14.3-32 32-32 17.6 0 32 14.3 32 32-.1 17.7-14.4 32-32 32zm0-62c-16.6 0-30.1 13.5-30.1 30.1s13.5 30.1 30.1 30.1 30.1-13.5 30.1-30.1-13.6-30.1-30.1-30.1z"/><path d="M32.8 53.212c-11.1 0-20.2-9.1-20.2-20.2s9.1-20.2 20.2-20.2 20.2 9.1 20.2 20.2c0 11.2-9.1 20.2-20.2 20.2zm0-37.6c-9.6 0-17.4 7.8-17.4 17.4 0 9.6 7.8 17.4 17.4 17.4 9.6 0 17.4-7.8 17.4-17.4 0-9.6-7.9-17.4-17.4-17.4zM6.2 23.812l2.9.9c1.1.4 1.6.9 1.2 2.1l-.1.3-1.5-.1c.1-.2.2-.3.2-.5.1-.2-.1-.3-.4-.4l-2.7-.9.4-1.4zM7.7 20.512l.9-1.6 4.9.9-.7 1.5-.8-.2-.6 1.1.6.6-.9 1.3-3.4-3.6zm1.6-.1l1.1 1.1.4-.7-1.5-.4zM16.3 16.712c-.1.2-.3.5-.5.7-.9 1-2.3 1.1-3.4.2-1.1-1-1.2-2.4-.2-3.5.2-.2.3-.3.5-.4l1.3.8c-.3.1-.4.2-.6.5-.5.5-.5 1.1 0 1.6.5.4 1.2.3 1.6-.1.2-.3.3-.5.4-.8l.9 1zM17.7 15.512l-2.8-3.9 1.2-.9 1.2 1.7-.6-2.2 1.4-.8.5 2.3 2.3 1.4-1.2 1.1-2.2-1.5 1.4 1.9-1.2.9zM27.9 10.612l-1.2-2.3v2.5l-1.2.3-2.1-4.3 1.4-.4 1 2.1v-2.3l.9-.2 1 2.1v-2.4l1.4-.2v4.8l-1.2.3zM33 5.312l.1 4.8-1.5.1-.1-4.8 1.5-.1zM34.9 10.112l.8-4.6 1.4.1-.5 3.4 1.6.3-.5 1.3-2.8-.5zM39.4 11.012l1.6-4.4 1.4.4-1.2 3.2 1.6.6-.8 1.2-2.6-1zM47.3 9.412l-2.4 4.1-1.3-.6 2.4-4.2 1.3.7zM50.4 11.712l1.4 1.2-1.9 4.6-1.3-1 .4-.8-1-.8-.7.5-1.1-1.1 4.2-2.6zm-.2 1.6l-1.3.9.6.5.7-1.4zM56.2 18.112l.8 1.1-3.6 3.2-.9-1.2 1.7-1.4-2.4.6 1.4-2.1-2 1.1-.7-1.3 4.2-2.2.8 1.2-1.1 1.5 1.8-.5zM58.2 25.312c0-.3-.1-.7-.2-1-.1-.2-.2-.5-.4-.5-.3.1.3 1.9-1 2.4-1 .4-1.8-.2-2.2-1.4-.2-.4-.2-.7-.3-1.1l1.3-.5c.1.4.2.8.3 1.1.1.4.3.5.4.4.4-.2-.4-1.8 1-2.3 1-.4 1.7.2 2.1 1.2.1.4.3.9.3 1.2l-1.3.5zM60.2 27.612c-.2.2-.4.4-.6.4-.5.1-.9 0-1.4-.1l-.2-.9c.3 0 .7.1 1.1 0 .3-.1.4-.2.6-.5l.5 1.1zM6.5 37.812l2.7-.5.3 1.5-.7.3-.2-.8-.3.1.1.5-.7.1-.1-.5-.3.1.2.9h-.8l-.2-1.7zM9.6 39.012l.2.8-1.1 1.2 1.3-.4.3.8-2.7.8-.2-.8 1.1-1.2-1.3.4-.3-.8 2.7-.8zM10.4 41.612l.4.8c.5 1.1-.2 1.7-.7 1.9-.8.3-1.5.1-1.9-.8l-.4-.9 2.6-1zm-1.5 1.6c.2.4.5.5.8.4.3-.1.5-.4.3-.8l-1.1.4zM11.5 47.112c-.6.4-1.5.3-2-.6-.5-.9-.1-1.7.5-2 .6-.4 1.5-.3 2 .6.6.8.1 1.6-.5 2zm-1-1.9c-.3.2-.4.5-.3.9.2.3.6.4.9.2.3-.2.4-.5.3-.9-.2-.3-.6-.3-.9-.2zM11.6 49.512l1-1.2-1.4.6-.5-.6 1.9-2.2.6.7-.9 1.1 1.3-.6.3.4-.9 1.1 1.3-.6.5.7-2.6 1.2-.6-.6zM15.8 50.112l.6.6-1.8 2.2-.6-.6.9-1-1.4.6.6-1.3-1 .8-.6-.7 2.3-1.7.6.6-.5 1 .9-.5zM14.9 53.112l1.8-2.1 1.2 1-.4.6-.6-.5-.2.2.4.4-.5.5-.4-.4-.2.3.7.6-.6.5-1.2-1.1zM18.1 52.112l.7.5-.1 1.6.8-1.1.7.4-1.6 2.4-.7-.5.1-1.6-.8 1.1-.7-.4 1.6-2.4z"/><path d="M20.3 53.712l1.6.9-.4.7-.5-.3-1 1.7-.8-.4 1-1.8-.5-.3.6-.5zM21.9 57.712l1.1-2.7 1.3.5-.1.8-.7-.3-.1.3.5.2-.3.7-.5-.2-.3.8-.9-.1zM26.8 57.812c-.2.7-.9 1.3-1.9 1-.9-.3-1.2-1.1-1-1.8.2-.7.9-1.3 1.9-1 .9.3 1.2 1.1 1 1.8zm-2-.6c-.1.3 0 .7.4.8.4.1.7-.1.8-.4.1-.3 0-.7-.4-.8-.4-.1-.7.1-.8.4zM27.2 56.512l1 .2c.7.1.9.6.9 1.1-.1.3-.2.5-.5.6l.3 1.3-.9-.2-.2-1.2-.2 1.1-.8-.1.4-2.8zm.6 1.6h.1c.2 0 .3-.1.3-.3 0-.2 0-.3-.2-.4h-.1l-.1.7zM32.3 59.812l-.3-1.5-.4 1.5h-.8l-.6-2.8h.9l.3 1.4.3-1.3h.5l.3 1.4.3-1.4.9.1-.7 2.7-.7-.1zM33.9 59.812l-.2-2.8 1.5-.1.2.7-.8.1v.3h.5l.1.7h-.5v.3l.9-.1-.1.8-1.6.1zM35.5 56.912l.9-.2c1.1-.2 1.6.6 1.7 1.1.1.8-.3 1.5-1.2 1.7l-.9.1-.5-2.7zm1.2 1.8h.1c.3-.1.5-.3.4-.6-.1-.4-.3-.6-.8-.5l.3 1.1zM37.9 56.412l.8-.2 1.2 1.1-.4-1.3.8-.3.8 2.7-.8.2-1.2-1 .4 1.3-.8.3-.8-2.8zM41.6 58.212l-1-2.6 1.4-.6.4.6-.8.3.1.3.5-.2.3.6-.5.3.1.3.8-.3.1.7-1.4.6zM44.2 54.912c-.2 0-.4.1-.6.2-.1.1-.3.2-.2.3.1.2 1.1-.3 1.5.5.3.5 0 1.1-.7 1.4-.2.1-.4.2-.7.2l-.4-.7c.2-.1.5-.1.7-.2.2-.1.3-.2.2-.3-.1-.2-1 .3-1.4-.5-.3-.5 0-1 .6-1.3.2-.1.5-.2.7-.3l.3.7zM44.1 54.012l.8-.5c1-.6 1.7-.1 2 .3.4.7.3 1.5-.4 2l-.8.5-1.6-2.3zm1.8 1.2c.3-.2.4-.5.2-.8-.2-.3-.5-.4-.9-.2l.7 1zM46.7 52.312l.8-.7 2.5 1.6-.7.6-.5-.2-.6.5.2.5-.8.5-.9-2.8zm.9.3l.4.8.3-.3-.7-.5zM50.8 52.512l-.8.6-.3-.9-1.9-.8.6-.7.9.4-.4-.9.7-.6 1.2 2.9z"/><path d="M49.8 49.312c.1 0 .3.1.4.2.2.2.3.5.4.7l-.2.4c-.1-.2-.2-.4-.4-.6-.1-.1-.2-.2-.4-.1l.2-.6zM51.9 48.312c-.2.1-.3.3-.5.4-.1.1-.2.3-.1.4.2.1.9-.7 1.5-.2.5.4.4 1-.1 1.6l-.5.5-.6-.5c.2-.1.4-.3.5-.5.1-.2.2-.3.1-.4-.2-.2-.8.7-1.5.2-.5-.4-.4-.9 0-1.4l.5-.5.7.4zM55.4 46.512c0 .2-.1.3-.2.5-.4.7-1.3.9-2 .5-.7-.5-1-1.3-.5-2.1l.3-.3.8.3-.3.3c-.2.3-.2.7.2.9.3.2.7.1.9-.2.1-.2.1-.3.2-.5l.6.6zM55.7 46.112l-2.6-1.3.3-.8.9.4.2-.5-.9-.4.3-.8 2.6 1.3-.3.8-1-.5-.2.5.9.5-.2.8zM54.5 41.712l2.7 1-.3.8-2.7-1.1.3-.7zM57.3 42.312l-2.7-.8.2-.9 1.9.6.3-.9.7.4-.4 1.6zM55.2 39.712l.2-.9c.2-1.1 1.2-1.3 1.7-1.2.8.2 1.3.8 1.1 1.7l-.2 1-2.8-.6zm2.2-.5v-.1c.1-.3-.1-.6-.4-.6-.4-.1-.7.1-.8.5l1.2.2zM29.8 28.812l3.3-9.9 1.3 7.5.3-.2-1.4-8H33l-3.5 10.5.3.1z"/><g><path d="M32.1 18.612c0 .6.5 1.1 1.1 1.1.6 0 1.1-.5 1.1-1.1 0-.6-.5-1.1-1.1-1.1-.6 0-1.1.5-1.1 1.1"/></g><g><path d="M6.4 33.112c0 .6.5 1.1 1.1 1.1.6 0 1.1-.5 1.1-1.1 0-.6-.5-1.1-1.1-1.1-.6 0-1.1.4-1.1 1.1"/></g><g><path d="M56.7 33.112c0 .6.5 1.1 1.1 1.1.6 0 1.1-.5 1.1-1.1 0-.6-.5-1.1-1.1-1.1-.6 0-1.1.5-1.1 1.1"/></g><path d="M32.5 36.512c-.2-.4-1.3-2.7-2-4l1-3-7.3-3.1-.3.7c-.2.4-4.1 9.2-4.6 10.3-.8 1.9-.7 4.6 2.5 6 .6.3 1.2.4 1.8.4 2.4 0 3.9-2.1 4.3-3.1l.5-1.5c.5.5 1.4 1 2.2 1 .3 0 .6-.1.9-.2.6-.3 1-.8 1.2-1.4.1-.7.1-1.6-.2-2.1zm-8-9.1l6 2.6-.2.7-6.1-2.6.3-.7zm-.6 1.4l6.2 2.6-.3.7-6.3-2.7.4-.6zm3.3 5.8c-.3.3-.7.3-1 0-.3-.3-.3-.7 0-1 .3-.3.7-.3 1 0 .3.2.3.7 0 1zm-1.7-.8c-.3.3-.7.3-1 0-.3-.3-.3-.7 0-1 .3-.3.7-.3 1 0 .3.3.3.8 0 1zm-2.9-1.6c.3-.3.7-.3 1 0 .3.3.3.7 0 1-.3.3-.7.3-1 0-.2-.2-.2-.7 0-1zm-.7 10.5c-2.9-1.2-2.6-3.7-2.1-4.9l7.1 3c-.6 1-2.4 3-5 1.9zm5.8-4.4l-1.8 1-.7-2.1-1.9.9-.8-2.1-2.2.9.5-1.2 2.1-.9.8 2.1 1.9-.9.7 2.1 1.7-1-.3 1.2zm.1-3.1c-.3-.3-.3-.7 0-1 .3-.3.7-.3 1 0 .3.3.3.7 0 1-.3.3-.7.3-1 0zm3.4 4c-.8.5-1.8.1-2.4-.5l3.1-1.7c.2.7.1 1.8-.7 2.2zM47.1 29.612c-.3-.7-1-1.2-1.6-1.4-.5-.1-2.8-.9-4.2-1.4l-1.5-2.8-7.4 3.1.3.7c.2.4 3.7 9.3 4.2 10.5.8 1.9 2.8 3.7 6 2.4.6-.3 1.1-.6 1.6-1 1.7-1.7 1.2-4.3.8-5.2-.2-.3-.4-.8-.7-1.4.7 0 1.7-.3 2.2-.9.2-.2.4-.5.5-.8.2-.5.1-1.2-.2-1.8zm-5.7-.3c.4 0 .7.3.7.7 0 .4-.3.7-.7.7-.4 0-.7-.3-.7-.7-.1-.4.3-.7.7-.7zm-8-1.7l6-2.5.4.7-6.2 2.6-.2-.8zm.6 1.4l6.2-2.6.3.7-6.3 2.6-.2-.7zm6.5 1.6c0 .4-.3.7-.7.7-.4 0-.7-.3-.7-.7 0-.4.3-.7.7-.7.4 0 .7.4.7.7zm-1.7.7c0 .4-.3.7-.7.7-.4 0-.7-.3-.7-.7 0-.4.3-.7.7-.7.3 0 .7.4.7.7zm-3.2 1c0-.4.3-.7.7-.7.4 0 .7.3.7.7 0 .4-.3.7-.7.7-.3 0-.7-.3-.7-.7zm1.3 3.7l.9-2.1 2.1.9.7-2 2 .9.5-1.9.6 1-.5 2-2-.9-.7 2-2.1-.9-.9 2.2-.6-1.2zm7.9-.8c.3 1.1.5 3.8-2.1 4.8-2.9 1.2-4.4-.7-5-1.9l7.1-2.9zm1.8-4.2c-.2.9-1.2 1.3-2 1.4l1-3.4c.6.3 1.2 1.1 1 2zM33 18.712l.5-.4 3.5 3.6c.1.3 0 .6-.3.9-.3.3-.5.3-.9.2l-2.8-4.3z"/></g></g></svg>