<svg width="107" height="54" viewBox="0 0 107 54" xmlns="http://www.w3.org/2000/svg"><title>jordans-furniture-logo</title><g fill="none" fill-rule="evenodd"><path d="M254-28.388H-788v158H254v-158z" fill="#FFFCD5"/><g fill="#66584D"><path d="M36.9 41.112v.4h-2.6v2.3h2.4v.4h-2.4v2.9h-.5v-6h3.1zM43.9 44.412c0 .7-.2 1.3-.6 1.7-.4.4-.9.6-1.5.6s-1.1-.2-1.5-.6c-.4-.4-.6-1-.6-1.7v-3.4h-.5v3.5c0 .8.2 1.5.7 2 .5.5 1.1.7 1.8.7s1.3-.2 1.8-.7c.5-.5.7-1.2.7-2.1v-3.3h-.5v3.3h.2zM47.4 41.112h1.5c.6 0 1.1.1 1.5.4.3.3.5.7.5 1.1 0 .7-.4 1.2-1.1 1.5.2.1.5.4.8.9l1.4 2.1h-.5l-1-1.6c-.3-.5-.6-.9-.8-1-.2-.1-.5-.2-.9-.2H48v2.8h-.5v-6h-.1zm.5.4v2.4h1c.5 0 .9-.1 1.2-.3.3-.2.4-.5.4-.9s-.1-.7-.4-.9c-.3-.2-.7-.3-1.2-.3h-1zM59.1 41.112v5.3l-4.5-5.3h-.4v6h.5v-5.2l4.5 5.2h.4v-6h-.5zM62.7 47.112h.5v-6h-.5v6zM65.7 41.112v.4h2.2v5.6h.5v-5.6h2.3v-.4h-5zM77.6 44.412c0 .7-.2 1.3-.6 1.7-.4.4-.9.6-1.5.6s-1.1-.2-1.5-.6c-.4-.4-.6-1-.6-1.7v-3.4H73v3.5c0 .8.2 1.5.7 2 .5.5 1.1.7 1.8.7s1.3-.2 1.8-.7c.5-.5.7-1.2.7-2.1v-3.3h-.5v3.3h.1zM81.1 41.112h1.5c.6 0 1.1.1 1.5.4.3.3.5.7.5 1.1 0 .7-.4 1.2-1.1 1.5.2.1.5.4.8.9l1.4 2.1h-.5l-1-1.6c-.4-.5-.6-.9-.8-1-.2-.1-.5-.2-.9-.2h-.8v2.8h-.5v-6h-.1zm.4.4v2.4h1c.5 0 .9-.1 1.2-.3.3-.2.4-.5.4-.9s-.1-.7-.4-.9c-.3-.2-.7-.3-1.2-.3h-1zM87.9 41.112v6h3.3v-.4h-2.9v-2.4h2.8v-.4h-2.8v-2.4h2.9v-.4h-3.3zM80.3 1.012c-.2.5-.9.7-1.4 1-.4.2-.8.5-1.2.6-3.9 1.4-7.5 3-11 5.3-5.8 3.8-10.3 8.5-14.8 13.7-.7.8-1.3 1.4-1.7 2.3-1.3 2.7-2.4 5.7-3.7 8.5-.3.7-1 2.7-1.1 3-.2.6-2.7 2.1-3.4 2.2.1-.8.4-1.5.7-2.3.8-2.2 1.7-4.4 2.6-6.5.9-2.1 1.7-4.2 2.2-6.9.2-.8.3-1.9-.5-2.3-.9 0-1.4.2-1.7.8-.2.4-.2 1-.3 1.5-.3 1.4-.6 2.9-1 4.2-.6 1.7-1.4 3.2-2.3 4.7-.4.7-3.5 6.6-6.8 7.2-.8.2-1.4.3-2.2 0-1.9-.9-1.7-4.5-1.2-6.8.5-2.5 1.4-4.3 2.5-6.2 1.5-2.6 3.8-4.9 6.3-6.8.8-.6 1.9-1.5 3-1.4.7.1 1.2.5 1.4.9.2.3.2 1.1.6 1.1.4.1 1.4-.9 1.7-1.1.8-.6 1.8-1.5 3.3-1 .6.2.9.6 1.1 1.2.1.3.1.6.3.6.3.1 1.4-1.1 1.6-1.3 2.2-2.6 4.7-4.7 7.5-6.7 1.1-.8 2.2-1.7 3.3-2.3 1.1-.7 2.3-1.4 3.5-2.2 2.4-1.5 5-2.6 7.6-3.8 1.5-.6 3.3-1.3 5.1-1.2zm-42.9 22.9c-1 1.4-1.8 2.9-2.4 4.5-.7 1.6-1.9 4.3-.4 5.8 1.6 1.7 4.9-3.7 5.4-4.7 1.3-2.3 2.2-5 1.9-7.7-.3-3-2.6-.3-3.5.7-.3.5-.7 1-1 1.4zM.5 50.012l1.6.8c1.6.9 3.3 1.4 5.1 1.6 1.6.1 3.4.2 4.9-.4 1.6-.6 2.8-1.7 4-2.9 3.8-4.1 5.9-9.7 8.1-15.5 2.2-5.9 3.9-11.7 5.9-17.7.5-1.4 1-2.8 1.6-4.3.2-.5.4-1.1.6-1.4.3-.3 3-1.2 3.6-1.2 1.1 0 .3 1.5 0 2.2-.8 1.9-1.5 3.8-2.1 5.7-.8 2.7-1.8 5.3-2.6 7.8-2.1 6.3-4.4 12.7-7.6 18.6-1.2 2.2-2.7 4.3-4.5 6-3.4 3.2-8.4 5-13 3.7-1.4-.4-2.8-1-4-1.7-.3-.1-.6-.3-.8-.5-.5-.2-.8-.4-.8-.8z"/><path d="M70.6 9.912c.1.6-.4 1.1-.6 1.5-1.3 2.4-2.3 5-3.5 7.5-.5 1-.9 2-1.4 3-.8 2-1.6 4.2-2.4 6.4-.6 1.5-1.3 3-1.5 5.1-.1.8-.1 1.5.4 1.6.4.1 1-.3 1.4-.5.4-.2 1-.4 1.1-.8.2-.4.2-1.2.3-1.7.3-1.6.9-3.2 1.4-4.5.7-1.9 1.8-3.5 2.8-5.1 1.1-1.7 2.5-3.3 4.2-4.5 1.2-.9 4.2-2.9 5.6-1.4.1.1.3.4.5.4.5.1.7-.5 1.4-.2.2.4-.1.8-.2 1.1-.5 1-.8 2.2-1.2 3.3-.5 1.4-1.1 2.9-1.6 4.3-.8 2.1-1.8 4.2-2.3 6.7-.2.9-.2 2.2.3 2.4.5.2 1.2-.3 1.7-.6.6-.4 1.1-.7 1.4-1.2.3-.5.5-1.2.8-1.8 1.4-3.6 2.8-7.3 4-11.2.2-.7.3-1.7.7-2 .3-.3 3.2-1.6 3.9-1.5.3.9-.6 1.6-.4 2.5.8 0 1.2-.5 1.8-.9.4-.3 1.2-.9 1.8-1 1.7-.3 2.7 1.1 2.6 2.8-.1 1.3-.7 2.8-1.2 4-.8 2.4-1.8 5.3-2.7 7.7-.2.6-.5 1.3-.7 1.9-.2.7-.6 2.5-.7 2.8-.1.3-.4.5-.6.6-.4.2-.6.4-.9.6-.5.3-1.5 1.2-2 .9-.5-.3.1-1.9.3-2.5.7-2.5 1.6-4.7 2.3-7.1.4-1.5 1-3.1 1.6-4.8.2-.7.5-1.5.6-2.5.2-1 .2-2.2-.6-2.3-.6-.1-1.3.4-1.7.8-1.2 1.3-1.7 3.1-2.4 5-.4 1.1-1 2.2-1.4 3.3-.7 1.7-1.4 3.3-2.1 4.9-.2.5-.8 2.2-.9 2.3-.3.6-1.3 1-1.9 1.3-.3.2-.7.4-.9.6-.3.2-.6.5-1.1.4-.4-.9.7-1.7.5-2.7-.5 0-.9.4-1.3.6-.4.2-.8.5-1.2.8-.6.5-1.8 1.3-2.8 1.1-.6-.1-.8-.7-.9-1.4-.1-.7.1-1.5-.2-2-.6.1-1 .5-1.4.8-.8.6-1.6 1.2-2.6 1.8-.8.5-1.9 1.1-2.7.3-.1-.1-.3-.3-.4-.6-.2-.5-.2-1.3-.6-1.4-.3-.1-.8.4-1.1.5-.4.2-.7.5-1 .6-1 .6-1.8 1.3-3.2 1.4-.4-.2-.8-.7-.8-1.3-.1-.6.2-1.2-.1-1.7-.6.1-.9.6-1.3.9-.4.3-.8.6-1.2 1-.7.6-2 1.8-3.2 1.4-1.3-.4-1.4-2.3-1.4-4 0-1.4.4-3 .9-4.3.5-1.3.9-2.5 1.5-3.7.8-1.6 2.1-3.1 3.2-4.6.8-1 1.9-1.9 3-2.6 1-.6 2.6-1.6 3.8-1.3.5.1.7.6 1.1.1.3-.4.4-.9.6-1.4.6-1.2 1-2.2 1.6-3.4.3-.6.5-1.4.9-1.7.7 0 3.5-1.1 4.3-.8zm2.2 10.2c-1.3 1.5-2.4 3.5-3.1 5.3-.6 1.3-1.2 2.8-1.6 4-.4 1.2-1.5 5.9 1.2 4.9.5-.2 1-.6 1.4-1 .6-.8 1.1-1.9 1.5-2.9.6-1.3 1.1-2.8 1.6-4.2.5-1.5 1.1-3 1.6-4.4.3-.8.7-1.9.1-2.6-.6-.7-1.4-.3-2 .2-.4.3-.6.5-.7.7zm-14.8 1.2c-.3.4-.6.9-.9 1.3-.8 1.2-1.4 2.4-2 3.7-.5 1-1.1 2.5-1.4 3.9-.3 1.3-.5 4 .6 4.4 1.8.6 3.1-1.7 3.6-3 .8-2.3 1.6-4.7 2.4-7 .3-.9.9-1.9.8-2.9-.1-.8-.5-1.9-1.6-1.6-.6.3-1.1.7-1.5 1.2zM95.5 17.012v-1.5c0 .1-.2-1.5.8-2 .3-.2.7-.3 1-.5.4-.2.5-.3 1.1-.1.4.1.6 1 .5 1.6-.1.8-.5 1.1-1.1 1.5-.3.3-.7.5-1.1.7-.3.3-.8.5-1.2.3zM96.2 36.712c.9-1.1 2-2 3-3.2 1-1.1 2-2.3 2.6-3.6.5-1 1.1-2.2.9-3.4-.2-1-.9-1.6-1.8-2-.5-.2-1-.4-1.6-.5-1.1-.3-2.2-.5-3-1.1-.3-.2-.7-.7-.7-1.1-.1-1 1.5-2.2 2.1-2.7.5-.4.9-.7 1.4-1.1 1.1-.9 2.3-1.7 4-2.1.5-.1 1.8.1 1.9.7 0 .5-3 2.3-3.5 2.3-.4 0-.6-.4-1.1-.4-.5 0-1 .6-.9 1 0 1 2.1 1.4 2.9 1.6 1.3.4 2.4.8 3.1 1.4 1.2 1.1 1.1 2.6.5 4-.9 2.2-2.2 3.9-3.8 5.6-.9.9-1.9 1.8-2.9 2.5-.9.7-1.9 1.5-3.1 2.1z"/></g></g></svg>