<svg xmlns="http://www.w3.org/2000/svg" width="207.173" height="70" viewBox="0 0 207.173 70"><linearGradient id="a" gradientUnits="userSpaceOnUse" x1="58.356" y1="75.456" x2="11.643" y2="-5.454"><stop offset="0" stop-color="#3C9EDF"/><stop offset="1" stop-color="#2C7CD3"/></linearGradient><path fill-rule="evenodd" clip-rule="evenodd" fill="url(#a)" d="M3 0h64c1.656 0 3 1.343 3 3v64c0 1.657-1.344 3-3 3H3c-1.657 0-3-1.343-3-3V3c0-1.657 1.343-3 3-3zm33.595 33.51L55.373 57h-12.51L29.826 39.702l-3.838 4.692V57h-9.975V13h9.975v19.358L41.455 13H53.96L36.594 33.51z"/><g fill="#1A1A1A"><path d="M95.673 57L89.6 49.8l-1.607 1.823V57H86V40.99h1.992v8.258l7.08-8.257h2.498l-6.673 7.585L98.17 57h-2.497zM98.864 51.19c0-3.36 2.4-6.07 5.713-6.07 3.504 0 5.568 2.735 5.568 6.215v.456h-9.36c.143 2.185 1.655 4.01 4.15 4.01 1.345 0 2.665-.53 3.6-1.49l.865 1.177c-1.176 1.152-2.736 1.8-4.608 1.8-3.456 0-5.928-2.47-5.928-6.096zm5.688-4.583c-2.472 0-3.696 2.088-3.792 3.84h7.608c-.023-1.704-1.175-3.84-3.816-3.84zM112.688 59.904c.264.12.696.192.984.192.792 0 1.32-.264 1.728-1.224l.768-1.752-4.85-11.713h1.97l3.84 9.504 3.863-9.503h1.945l-5.81 13.945c-.695 1.68-1.87 2.328-3.407 2.353-.384 0-.984-.072-1.296-.168l.266-1.633zM123.824 55.464l.912-1.296c.768.888 2.23 1.656 3.816 1.656 1.775 0 2.76-.84 2.76-1.992 0-2.808-7.177-1.08-7.177-5.376 0-1.824 1.536-3.336 4.297-3.336 1.992 0 3.384.744 4.296 1.68l-.84 1.248c-.696-.84-1.944-1.464-3.456-1.464-1.584 0-2.568.792-2.568 1.824 0 2.52 7.177.864 7.177 5.376 0 1.944-1.56 3.504-4.536 3.504-1.92 0-3.504-.6-4.68-1.824zM136.327 54.576v-7.584h-1.92v-1.584h1.92V42.24h1.824v3.168h2.354v1.584h-2.353v7.2c0 .865.385 1.49 1.153 1.49.527 0 .983-.24 1.224-.505l.528 1.368c-.456.432-1.104.744-2.137.744-1.727-.002-2.59-.986-2.59-2.714zM142.352 51.19c0-3.36 2.208-6.07 5.736-6.07s5.737 2.71 5.737 6.07-2.21 6.098-5.737 6.098-5.736-2.736-5.736-6.097zm9.577 0c0-2.35-1.37-4.463-3.842-4.463s-3.84 2.112-3.84 4.464c0 2.377 1.368 4.49 3.84 4.49 2.473 0 3.84-2.112 3.84-4.49zM164.6 57v-7.584c0-2.064-1.056-2.688-2.616-2.688-1.416 0-2.736.864-3.432 1.8V57h-1.8V45.407h1.8v1.68c.815-.984 2.4-1.968 4.152-1.968 2.4 0 3.672 1.223 3.672 3.743V57H164.6zM169.326 51.19c0-3.36 2.4-6.07 5.713-6.07 3.503 0 5.567 2.735 5.567 6.215v.456h-9.36c.144 2.185 1.655 4.01 4.15 4.01 1.346 0 2.666-.53 3.602-1.49l.863 1.177c-1.176 1.152-2.736 1.8-4.608 1.8-3.456 0-5.93-2.47-5.93-6.096zm5.69-4.583c-2.473 0-3.697 2.088-3.793 3.84h7.608c-.022-1.704-1.175-3.84-3.815-3.84zM181.974 55.44l1.057-1.512c.673.84 1.61 1.584 3 1.584 1.97 0 3.218-1.368 3.218-3.36v-11.16h1.992v11.184c0 3.456-2.232 5.112-5.09 5.112-1.68 0-3.072-.552-4.176-1.848zM194.023 54.744l1.2-1.536c1.032 1.2 2.76 2.304 5.017 2.304 2.855 0 3.768-1.536 3.768-2.784 0-4.128-9.48-1.824-9.48-7.537 0-2.64 2.352-4.463 5.52-4.463 2.424 0 4.32.84 5.666 2.256l-1.2 1.464c-1.2-1.344-2.882-1.92-4.634-1.92-1.896 0-3.287 1.032-3.287 2.544 0 3.602 9.48 1.537 9.48 7.514 0 2.304-1.584 4.705-5.904 4.705-2.764-.002-4.827-1.058-6.147-2.546z"/></g></svg>