<svg width="169" height="67" viewBox="0 0 169 67" xmlns="http://www.w3.org/2000/svg"><title>mare-homepage-lg</title><g fill="none" fill-rule="evenodd"><path d="M981.25-11.452h-1042v120h1042v-120z" fill="#FFFAC2"/><g fill="#3D4573"><path d="M22.65 51.248c-2.3 0-2.1 14.4-2.1 14.4v.1h4.3v-.1s.2-14.4-2.2-14.4z"/><path d="M30.15 41.148c8.2-.6 13.1-7.1 13.1-15.7 0-4.8-3.9-8.6-8.8-8.6h-8.5c-3.6 0-6.7.8-8 3.8.9-3.2 3.5-5.7 6.8-6.5-1.1-.5-2.3-.7-3.6-.7h-10.9c-5.1 0-9.2 4.1-9.2 9.3 0 9.6 5.4 18.2 14.3 18.4h-2.2c-2.5 0-4.1.2-6.6-.1l1.5 22.8c.1 1.1.9 1.9 1.9 1.9h8.2v-.1s-2.1-9.5-2.1-17.1c0-2.7.3-5.6.4-7.2 0-.2-.1-.5-.3-.6-4.7-2.7-8-8.1-8-14.4 0-.7.5-1.3 1.2-1.3s1.2.6 1.2 1.3c.1 6 5.4 11 12 11s12-5 12-11c0-.7.5-1.3 1.2-1.3s1.2.6 1.2 1.3c0 6.3-3.2 11.8-8 14.4-.2.1-.3.4-.3.6.2 1.7.4 4.5.4 7.2 0 7.6-2.1 17.1-2.1 17.1v.1h8.2c1 0 1.8-.9 1.9-1.9l1.5-23.6c-2.8 1-4.9.9-8.1.9h-.3zm-7.5-5.9c-2.1 0-3.8-1.7-3.8-3.8 0-2.1 1.7-3.8 3.8-3.8 2.1 0 3.8 1.7 3.8 3.8 0 2.1-1.7 3.8-3.8 3.8zM13.35 11.548c2.9 0 5.3-2.4 5.3-5.3s-2.4-5.3-5.3-5.3-5.3 2.4-5.3 5.3c.1 2.9 2.4 5.3 5.3 5.3zM31.25 13.548c2.6 0 4.8-2.1 4.8-4.8 0-2.6-2.1-4.8-4.8-4.8-2.6 0-4.8 2.1-4.8 4.8 0 2.7 2.1 4.8 4.8 4.8z"/><g><path d="M104.25 23.448c-5.9 0-10.6 4.7-10.6 10.6v20.4h5.8v-12.1h9.6v12.2h5.8v-20.5c0-6.5-4.1-10.6-10.6-10.6zm-4.8 13.1v-2.5c0-3.2 2.5-5.1 4.8-5.1 4 0 4.8 2.8 4.8 5.1v2.5h-9.6zM87.65 54.448h-5.8v-20.4c0-2.3-.8-5.1-4.8-5.1-2.3 0-4.8 2-4.8 5.1v20.4h-5.8v-20.4c0-2.3-.8-5.1-4.8-5.1-2.3 0-4.8 2-4.8 5.1v20.4h-5.8v-20.4c0-5.9 4.7-10.6 10.6-10.6 3.3 0 6 1 7.9 3 2-1.9 4.6-3 7.5-3 6.5 0 10.6 4.1 10.6 10.6v20.4zM143.95 34.048c0-7.3-5.5-10.7-10.5-10.7-1.1 0-4.9.2-7.9 3.3-2.4 2.5-3.6 5.9-3.5 10.4v17.4h5.8v-8.7h.1c2-.2 3.8-.4 5.4-.8l4.3 9.4h6.4l-5.4-11.3c3.5-2 5.3-5 5.3-9zm-16.3 6v-3.4c0-2.7.6-4.7 1.9-6 1.5-1.5 3.5-1.6 3.9-1.6h.1c2.7 0 4.8 1.9 4.8 4.5 0 1.9-1.1 3.7-2.8 4.6-1.9 1-4.5 1.6-7.9 1.9zM160.15 29.048h7.7v-5.7h-7.7c-1.1 0-4.9.2-7.9 3.3-2.4 2.5-3.6 5.9-3.5 10.4v3.8c-.1 4.4 1.1 7.9 3.5 10.4 3 3.1 6.8 3.3 7.9 3.3h7.7v-5.7h-7.7c-.4 0-2.4-.1-3.9-1.6-1.2-1.2-1.8-3-1.9-5.5h8.5v-5.5h-8.5c.1-2.5.7-4.3 1.9-5.5 1.5-1.6 3.5-1.7 3.9-1.7z"/></g></g></g></svg>