<svg width="31" height="32" viewBox="0 0 31 32" xmlns="http://www.w3.org/2000/svg"><title>pinterest-icon</title><g fill="none" fill-rule="evenodd"><path d="M357-38.388H-685v158H357v-158z" fill="#FFFCD5"/><path d="M25.8.812h-20c-2.8 0-5 2.2-5 5v20c0 2.8 2.3 5 5 5h20c2.8 0 5-2.2 5-5v-20c0-2.8-2.3-5-5-5z" fill="#66584D"/><path d="M10.8 11.612s-.4 1.1-.1 2.7c.3 1.6.9 1.7.9 1.7l-.4 2.1s-2.4-.2-3-3.1c-1.5-7.8 6.3-10.3 10-9.5 6.6 1.5 6.7 6.4 6.1 10.1-.7 3-2.7 4.4-4.1 5.1-1.4.7-2.6.4-3.8.1-1.1-.4-1.5-1.1-1.5-1.1s-.6 2.3-1 3.7c-.4 1.5-1.9 3.6-2.3 3.6-.4 0-.5-3.5-.4-4.3.2-1.3 1.7-6.9 1.7-6.9s.1-.2-.3-1.8c-.4-1.7.5-3.7 2.1-3.8 1.8-.2 2 1.4 1.9 2.3 0 .9-.9 3-1 4-.1 1 .2 2.4 1.8 2.4 1.3.1 3.3-1.3 4-5.3.5-2.8-1.1-6.2-5.4-6.1-3.9.2-5.2 4.1-5.2 4.1z" fill="#FFF"/></g></svg>