<svg width="31" height="32" viewBox="0 0 31 32" xmlns="http://www.w3.org/2000/svg"><title>twitter-icon</title><g fill="none" fill-rule="evenodd"><path d="M392-38.388H-650v158H392v-158z" fill="#FFFCD5"/><path d="M5.6 30.712c-2.7 0-4.9-2.2-4.9-4.9v-20c0-2.7 2.2-4.9 4.9-4.9h20c2.7 0 4.9 2.2 4.9 4.9v20c0 2.7-2.2 4.9-4.9 4.9h-20z" fill="#66584D"/><path d="M26 10.012c-.7.3-1.5.5-2.4.6.8-.5 1.5-1.3 1.8-2.3-.8.5-1.7.8-2.6 1-.7-.8-1.8-1.3-3-1.3-2.3 0-4.1 1.8-4.1 4.1 0 .3 0 .6.1.9-3.4-.2-6.4-1.8-8.5-4.3-.4.6-.6 1.3-.6 2.1 0 1.4.7 2.7 1.8 3.4-.7 0-1.3-.2-1.9-.5v.1c0 2 1.4 3.6 3.3 4-.3.1-.7.1-1.1.1-.3 0-.5 0-.8-.1.5 1.6 2 2.8 3.8 2.8-1.4 1.1-3.2 1.8-5.1 1.8-.3 0-.7 0-1-.1 1.8 1.2 4 1.8 6.3 1.8 7.5 0 11.7-6.2 11.7-11.7v-.5c1.1-.3 1.8-1.1 2.3-1.9z" fill="#FFF"/></g></svg>