<svg width="30" height="32" viewBox="0 0 30 32" xmlns="http://www.w3.org/2000/svg"><title>youtube-icon</title><g fill="none" fill-rule="evenodd"><path d="M321-38.388H-721v158H321v-158z" fill="#FFFCD5"/><path d="M4.9 30.712c-2.7 0-4.9-2.2-4.9-4.9v-20c0-2.7 2.2-4.9 4.9-4.9h20c2.7 0 4.9 2.2 4.9 4.9v20c0 2.7-2.2 4.9-4.9 4.9h-20z" fill="#66584D"/><g fill="#FFF"><path d="M6.3 3.612h1.8l1.1 4h.1l1.1-4h1.7l-2 5.9v4.2H8.4v-4l-2.1-6.1zM12.2 8.012c0-.6.2-1 .6-1.4.4-.3 1-.5 1.7-.5.6 0 1.1.2 1.6.5.4.4.6.8.6 1.4v3.9c0 .6-.2 1.1-.6 1.5-.4.4-.9.5-1.6.5-.7 0-1.2-.2-1.6-.6-.4-.4-.6-.9-.6-1.5v-3.8h-.1zm1.6 4c0 .2.1.4.2.5.1.1.3.2.5.2s.4-.1.5-.2c.1-.1.2-.3.2-.5v-4.1c0-.2-.1-.3-.2-.4-.1-.1-.3-.1-.5-.1s-.3 0-.5.1c-.1.1-.2.2-.2.4v4.1zM22.2 6.312v7.5h-1.5v-.8c-.3.3-.6.5-.9.7-.3.2-.6.2-.9.2-.4 0-.6-.1-.8-.3-.2-.2-.3-.6-.3-1v-6.2h1.5v5.7c0 .2 0 .3.1.4.1.1.2.1.3.1.1 0 .3-.1.4-.2.2-.1.3-.2.5-.4v-5.7h1.6z"/></g><path d="M27 26.012c0 1.7-1.3 3-3 3H4c-1.7 0-3-1.3-3-3v-6c0-1.7 1.3-3 3-3h20c1.7 0 3 1.3 3 3v6z" fill="#FFF"/><g fill="#66584D"><path d="M9.7 18.512H5v1.3h1.6v7.9h1.5v-7.9h1.6v-1.3zM12.8 26.112l-.4.4c-.2.1-.3.1-.4.1-.1 0-.2 0-.3-.1-.1-.1-.1-.2-.1-.3v-5.2h-1.4v5.6c0 .4.1.7.2.9.2.2.4.3.7.3.3 0 .5-.1.8-.2.3-.1.5-.4.8-.6v.7h1.4v-6.8h-1.4v5.2h.1zM18.8 21.312c-.2-.3-.6-.4-1-.4-.2 0-.4 0-.6.2-.2.1-.4.3-.6.5v-3h-1.4v9.2h1.4v-.5c.2.2.4.4.6.5.2.1.4.1.7.1.4 0 .7-.1.9-.4.2-.3.3-.6.3-1.1v-3.8c0-.6-.1-1-.3-1.3zm-1.1 4.8c0 .2 0 .4-.1.5-.1.1-.2.1-.4.1-.1 0-.2 0-.3-.1-.1 0-.2-.1-.3-.2v-4.2c.1-.1.2-.2.3-.2.1-.1.2-.1.3-.1.2 0 .3.1.4.2.1.1.1.3.1.5v3.5zM23.8 24.512v-1.7c0-.6-.2-1.1-.5-1.5-.3-.3-.8-.5-1.4-.5-.6 0-1.1.2-1.5.6-.4.4-.6.9-.6 1.4v3c0 .7.2 1.2.5 1.5.3.4.8.6 1.4.6.7 0 1.2-.2 1.5-.5.3-.4.5-.9.5-1.6v-.3h-1.4v.3c0 .4 0 .7-.1.8-.1.1-.2.2-.5.2-.2 0-.4-.1-.5-.2-.1-.1-.1-.4-.1-.7v-1.3h2.7v-.1zm-2.6-1.8c0-.3 0-.5.1-.6.1-.1.2-.2.5-.2.2 0 .4.1.5.2.1.1.1.3.1.6v.7h-1.2v-.7z"/></g></g></svg>