<?xml version="1.0" standalone="no"?>
<!DOCTYPE svg PUBLIC "-//W3C//DTD SVG 20010904//EN"
 "http://www.w3.org/TR/2001/REC-SVG-20010904/DTD/svg10.dtd">
<svg version="1.0" xmlns="http://www.w3.org/2000/svg"
 width="1056.000000pt" height="1056.000000pt" viewBox="0 0 1056.000000 1056.000000"
 preserveAspectRatio="xMidYMid meet">
<metadata>
Created by potrace 1.11, written by Peter Selinger 2001-2013
</metadata>
<g transform="translate(0.000000,1056.000000) scale(0.100000,-0.100000)"
fill="#000000" stroke="none">
<path d="M6501 10478 c-14 -5 -30 -7 -37 -4 -7 3 -15 2 -18 -2 -4 -3 -14 -7
-23 -8 -45 -7 -169 -57 -238 -97 -88 -51 -236 -197 -274 -270 -8 -15 -18 -27
-23 -27 -4 0 -8 -8 -8 -17 0 -9 -6 -24 -13 -32 -17 -19 -67 -154 -74 -196 -2
-16 -8 -43 -12 -60 -8 -34 -7 -199 2 -262 12 -81 69 -226 120 -308 126 -203
346 -350 582 -391 54 -9 198 -9 265 0 157 22 339 116 460 238 184 186 287 475
250 705 -13 78 -18 108 -20 108 -1 0 -3 8 -5 19 -10 50 -80 195 -130 265 -5 8
-49 53 -96 100 -117 117 -234 184 -394 227 -68 18 -277 26 -314 12z"/>
<path d="M3630 9996 c-6 -6 -10 -7 -10 -4 0 11 -139 -31 -193 -58 -79 -40
-157 -95 -215 -154 -28 -29 -52 -54 -52 -57 0 -2 -11 -16 -25 -31 -14 -15 -25
-30 -25 -34 0 -4 -13 -29 -28 -55 -30 -51 -69 -156 -78 -214 -14 -84 -15 -214
-3 -277 7 -37 14 -69 14 -72 9 -46 66 -170 105 -226 76 -112 168 -192 295
-259 39 -21 71 -37 73 -36 1 1 26 -5 55 -13 124 -36 231 -39 397 -12 9 1 21 5
28 10 6 4 12 5 12 2 0 -12 148 58 208 98 190 127 300 311 330 552 29 227 -58
471 -226 633 -49 47 -180 141 -196 141 -4 0 -25 9 -49 19 -50 23 -97 37 -152
47 -63 11 -254 11 -265 0z"/>
<path d="M5208 8484 c-3 -2 -27 -7 -54 -10 -27 -3 -60 -7 -74 -10 -14 -3 -38
-8 -55 -11 -16 -3 -38 -9 -47 -14 -9 -5 -28 -9 -42 -9 -14 0 -27 -4 -30 -9 -3
-4 -26 -14 -51 -21 -48 -13 -69 -30 -38 -30 15 0 154 -46 203 -67 8 -3 17 -7
20 -8 58 -18 271 -145 346 -207 62 -50 212 -206 254 -263 89 -120 173 -274
209 -384 28 -85 26 -88 -11 -16 -49 96 -160 221 -255 286 -89 62 -273 146
-356 163 -12 3 -33 8 -47 11 -14 3 -36 8 -50 11 -14 2 -36 7 -50 10 -14 3 -41
8 -60 11 -19 2 -46 6 -60 8 -98 14 -321 18 -1005 19 -838 0 -904 -2 -1050 -39
-116 -29 -255 -81 -335 -124 -41 -22 -65 -37 -70 -42 -3 -3 -16 -12 -30 -19
-31 -16 -138 -96 -166 -124 -12 -12 -32 -30 -45 -42 -165 -145 -344 -452 -384
-659 -34 -176 -35 -194 -31 -420 5 -220 8 -277 22 -355 4 -19 8 -48 10 -65 2
-16 5 -41 8 -55 3 -13 8 -41 11 -62 3 -21 19 -89 36 -150 16 -62 31 -121 34
-132 6 -25 43 -136 54 -161 5 -11 26 -60 46 -110 68 -166 229 -442 304 -522
12 -12 21 -24 21 -27 0 -7 85 -100 164 -179 179 -178 388 -317 636 -424 101
-43 209 -82 250 -89 14 -3 50 -12 80 -21 30 -9 63 -16 73 -15 9 0 17 -2 17 -6
0 -4 10 -7 23 -8 20 -1 70 -8 126 -19 13 -2 41 -5 62 -7 21 -1 36 -4 34 -7 -4
-7 -369 -5 -530 3 -156 8 -267 19 -325 31 -13 2 -42 7 -65 11 -59 9 -59 9 -70
15 -5 4 -28 10 -50 13 -36 7 -164 44 -207 61 -21 8 -20 -9 7 -420 3 -44 8
-111 10 -150 3 -38 7 -106 10 -150 7 -132 15 -267 20 -320 2 -27 7 -99 10
-160 10 -174 13 -206 18 -211 3 -3 1 -19 -3 -35 -5 -16 -5 -29 -1 -29 3 0 7
-17 7 -37 1 -35 6 -116 19 -323 3 -41 8 -113 11 -160 3 -47 7 -112 9 -145 2
-33 6 -98 9 -145 3 -47 8 -119 11 -160 3 -41 7 -111 10 -155 6 -111 15 -258
21 -335 2 -36 7 -108 9 -160 3 -52 8 -122 10 -155 2 -33 6 -103 9 -155 10
-166 27 -387 31 -411 7 -37 56 -126 89 -161 18 -20 58 -49 87 -65 l54 -28 680
-2 c374 -2 685 -1 691 1 9 3 8 20 -2 63 -8 32 -17 78 -20 103 -3 25 -10 53
-15 62 -6 10 -8 18 -5 18 2 0 0 18 -5 40 -5 22 -12 56 -15 76 -3 20 -8 46 -10
58 -8 36 -24 129 -29 166 -3 19 -7 46 -10 60 -9 40 -17 83 -20 105 -1 11 -5
36 -9 55 -15 82 -17 98 -22 145 -3 28 -8 57 -11 65 -3 8 -7 29 -9 45 -1 17 -5
46 -8 65 -2 19 -7 55 -10 80 -4 25 -8 54 -10 65 -2 12 -7 45 -11 75 -3 30 -8
66 -10 80 -1 14 -8 63 -13 110 -6 47 -14 112 -17 145 -4 33 -9 76 -11 95 -3
19 -7 64 -9 100 -3 36 -7 90 -10 120 -3 30 -8 82 -10 115 -3 33 -8 101 -12
150 -14 182 -6 1024 11 1210 3 28 8 93 11 145 4 52 9 104 11 115 2 11 7 63 10
115 5 86 4 97 -15 121 -20 25 -133 99 -152 99 -5 0 -9 4 -9 9 0 5 -13 14 -30
21 -16 7 -30 15 -30 19 0 4 -14 15 -31 25 -16 10 -57 40 -89 67 -33 27 -61 49
-64 49 -13 0 -249 244 -310 320 -37 47 -74 93 -82 103 -8 9 -14 20 -14 24 0 4
-8 16 -19 27 -72 82 -250 429 -310 606 -12 36 -25 72 -28 80 -3 8 -8 26 -10
40 -2 13 -9 30 -15 37 -6 7 -8 13 -4 13 3 0 1 12 -5 28 -6 15 -13 38 -15 52
-3 14 -10 43 -16 65 -5 22 -12 49 -13 60 -2 11 -6 31 -9 45 -10 50 -34 229
-35 260 0 8 -3 31 -5 50 -3 19 -6 91 -7 160 -2 135 7 173 52 221 55 59 147 76
217 40 69 -35 102 -93 108 -190 9 -138 13 -178 23 -246 6 -38 15 -85 20 -102
5 -18 7 -33 4 -33 -3 0 0 -7 7 -15 7 -8 10 -15 6 -15 -3 0 -1 -12 5 -27 6 -16
13 -37 15 -48 9 -51 110 -272 155 -340 10 -16 22 -38 25 -47 4 -10 10 -18 15
-18 5 0 9 -5 9 -11 0 -21 159 -213 242 -294 119 -115 269 -229 388 -294 131
-71 303 -148 313 -139 2 2 10 -2 18 -9 8 -6 26 -14 39 -17 14 -2 44 -11 68
-20 23 -8 42 -13 42 -11 0 3 12 0 28 -6 15 -6 38 -13 52 -15 14 -2 39 -7 55
-11 17 -3 39 -7 50 -9 11 -1 56 -8 100 -14 84 -13 355 -17 440 -7 165 20 299
48 435 93 120 39 108 34 260 108 116 56 277 157 366 231 52 43 209 198 259
255 17 19 46 58 65 85 19 28 37 52 40 55 11 10 69 106 102 170 68 130 112 245
146 385 31 125 36 154 47 308 3 54 8 107 10 118 5 25 44 90 65 107 28 23 82
42 120 42 43 0 100 -18 100 -31 0 -5 7 -9 15 -9 8 0 28 -24 45 -52 l31 -53 -5
-155 c-5 -153 -12 -251 -22 -300 -3 -14 -7 -38 -9 -55 -6 -45 -15 -96 -26
-140 -6 -22 -12 -49 -14 -60 -2 -11 -6 -30 -9 -42 -4 -13 -8 -31 -10 -40 -2
-10 -11 -38 -20 -63 -9 -25 -16 -51 -16 -58 0 -8 -6 -28 -14 -45 -7 -18 -22
-54 -31 -82 -10 -27 -26 -69 -36 -93 -10 -23 -19 -46 -20 -50 -5 -15 -121
-238 -139 -267 -11 -16 -24 -39 -30 -50 -10 -19 -18 -32 -64 -101 -25 -37
-137 -186 -150 -200 -6 -6 -33 -37 -60 -68 -150 -173 -328 -321 -563 -470 -67
-43 -93 -83 -87 -140 1 -17 5 -71 9 -121 3 -49 8 -112 10 -140 9 -109 17 -223
20 -285 2 -36 7 -119 11 -185 14 -228 7 -805 -11 -1000 -2 -22 -6 -78 -10
-125 -3 -47 -7 -103 -10 -125 -7 -69 -17 -166 -20 -204 -2 -20 -6 -49 -8 -66
-3 -16 -8 -57 -12 -90 -4 -33 -8 -71 -10 -85 -2 -14 -6 -52 -10 -85 -4 -33 -9
-69 -11 -80 -3 -11 -7 -40 -10 -65 -2 -25 -7 -58 -10 -75 -3 -16 -7 -39 -8
-50 -7 -53 -19 -132 -21 -145 -5 -30 -16 -96 -20 -125 -2 -16 -6 -41 -10 -55
-3 -14 -8 -45 -11 -70 -3 -25 -7 -52 -9 -60 -2 -8 -7 -31 -10 -50 -3 -19 -12
-69 -20 -110 -8 -41 -17 -88 -20 -105 -2 -16 -7 -41 -10 -55 -3 -14 -7 -38
-10 -55 -2 -16 -9 -48 -14 -70 -6 -22 -13 -60 -17 -85 -3 -25 -9 -49 -12 -54
-3 -5 -6 -22 -7 -37 l-3 -29 687 3 c377 2 696 6 708 9 69 20 174 112 181 161
1 4 9 21 17 37 8 16 15 32 15 35 0 3 0 6 1 8 4 12 9 73 24 297 2 30 6 96 9
145 4 50 9 131 12 180 3 50 7 115 10 145 5 78 12 192 18 285 3 44 8 116 11
160 3 44 7 114 10 155 2 41 8 122 11 180 4 58 8 131 8 162 1 32 3 58 6 58 3 0
6 35 8 78 1 42 5 102 7 132 3 30 7 98 10 150 3 52 8 120 10 150 3 30 7 100 10
155 3 55 8 126 10 158 3 33 7 98 10 145 6 102 14 222 20 307 10 136 16 224 20
290 1 39 6 113 10 165 4 52 8 119 10 148 l2 53 -81 -6 c-44 -4 -101 -9 -126
-11 -97 -10 -1027 -1 -1037 10 -3 3 7 7 23 7 36 2 58 5 109 14 22 3 54 9 70
12 17 2 64 13 105 24 41 11 82 22 90 24 8 2 16 4 18 5 1 2 5 3 10 4 10 2 99
35 157 58 116 47 355 178 363 199 2 5 10 9 18 9 8 0 14 5 14 10 0 6 6 10 14
10 8 0 16 4 18 8 2 4 21 21 43 37 22 17 53 41 70 55 50 41 248 242 290 294 22
27 51 63 65 80 72 87 174 249 256 406 16 30 34 58 39 62 6 4 7 8 3 8 -4 0 5
24 21 53 15 28 29 55 29 60 1 4 9 24 18 45 60 141 146 401 169 512 2 8 4 17 5
20 1 3 2 8 1 12 0 4 4 19 9 33 5 13 12 46 16 72 3 27 8 50 9 53 5 8 33 175 40
240 7 60 10 87 21 200 10 93 9 460 -1 515 -3 22 -8 49 -10 60 -12 77 -21 112
-51 203 -72 221 -189 415 -344 572 -114 115 -134 132 -234 199 -132 89 -351
186 -465 206 -19 3 -38 8 -41 10 -4 3 -27 7 -51 10 -24 3 -60 8 -79 12 -37 8
-2085 15 -2092 7z m64 -2284 c137 -33 255 -110 346 -226 17 -23 32 -46 32 -52
0 -6 4 -12 8 -14 10 -4 58 -119 67 -163 12 -52 14 -198 4 -250 -26 -139 -111
-278 -223 -364 -116 -90 -240 -130 -393 -126 -55 2 -106 6 -112 10 -6 3 -23 8
-36 11 -87 16 -229 109 -302 198 -36 44 -91 139 -100 171 -1 6 -9 35 -18 65
-30 108 -20 290 20 362 8 14 15 32 15 38 0 24 92 150 146 199 67 61 196 127
284 145 77 15 187 14 262 -4z m1173 -2139 c-9 -8 -36 -10 -30 -2 2 4 11 8 20
8 8 0 13 -3 10 -6z"/>
<path d="M5083 2424 c-34 -17 -79 -80 -108 -149 -17 -42 -54 -166 -60 -200 -2
-11 -11 -54 -20 -95 -15 -72 -21 -106 -30 -180 -2 -19 -8 -66 -14 -104 -5 -38
-10 -72 -9 -75 0 -3 0 -8 -1 -11 -1 -3 -4 -27 -6 -55 -3 -27 -7 -77 -10 -110
-3 -33 -8 -91 -10 -130 -3 -38 -7 -108 -10 -155 -11 -152 -14 -259 -20 -652
l-6 -388 346 1 346 0 -6 362 c-7 473 -18 742 -40 982 -2 22 -6 69 -10 105 -10
111 -18 181 -29 245 -2 11 -7 47 -11 80 -4 33 -9 63 -11 67 -3 4 -7 26 -10 50
-4 24 -11 54 -15 67 -5 13 -7 26 -4 29 2 3 0 11 -6 19 -6 7 -9 13 -6 13 12 0
-55 175 -83 220 -30 47 -75 80 -107 80 -10 0 -32 -8 -50 -16z"/>
</g>
</svg>
